<svg width="600" height="150" viewBox="0 0 600 150" fill="none" xmlns="http://www.w3.org/2000/svg">
<path d="M596.116 27.8C595.026 27.2332 593.818 26.931 592.59 26.918C590.166 27.0294 587.867 28.0235 586.126 29.713C583.752 32.0908 582.119 35.1064 581.426 38.394C580.545 41.336 580.257 47.515 580.257 56.636V74.436H573.491V21.774H580.25V29.426C581.89 26.7294 584.095 24.4204 586.714 22.658C588.778 21.2077 591.243 20.4363 593.766 20.451C595.842 20.5211 597.864 21.1323 599.631 22.224L596.116 27.8ZM559.682 33.982C557.871 31.7519 555.554 29.9865 552.923 28.833C550.177 27.4941 547.164 26.7901 544.109 26.773C541.706 26.6925 539.311 27.0934 537.066 27.9521C534.82 28.8108 532.769 30.1099 531.033 31.773C528.026 34.7537 525.933 38.5317 525.001 42.662H563.639C562.957 39.5166 561.604 36.5556 559.672 33.982H559.682ZM524.277 48.4C524.178 53.9536 526.231 59.3303 530.006 63.405C531.753 65.3167 533.889 66.8312 536.271 67.8465C538.654 68.8617 541.226 69.354 543.815 69.29C546.466 69.2929 549.099 68.8456 551.601 67.967C553.921 67.1548 556.065 65.9072 557.918 64.291C560.147 62.0516 562.073 59.5302 563.647 56.791L569.23 59.734C567.603 63.0725 565.417 66.1077 562.766 68.708C560.384 70.9434 557.589 72.6928 554.538 73.858C551.238 75.0382 547.758 75.6354 544.254 75.623C535.732 75.623 529.121 72.8277 524.421 67.237C519.99 62.1644 517.453 55.7145 517.24 48.983C517.027 42.2515 519.151 35.6538 523.251 30.311C525.639 27.1309 528.75 24.5653 532.327 22.8263C535.903 21.0874 539.843 20.2252 543.819 20.311C547.901 20.1831 551.953 21.0385 555.635 22.8049C559.317 24.5714 562.52 27.1972 564.975 30.461C568.824 35.642 570.84 41.9562 570.705 48.409L524.277 48.4ZM499.882 26.63C497.715 26.5976 495.615 27.386 494.005 28.837C493.25 29.4391 492.636 30.1982 492.204 31.0616C491.772 31.9251 491.534 32.8721 491.505 33.837C491.523 35.6635 492.262 37.409 493.561 38.693C496.021 41.08 498.913 42.977 502.083 44.283C507.372 46.931 510.898 49.433 512.808 51.783C514.932 54.6724 515.899 58.2516 515.519 61.8177C515.14 65.3838 513.44 68.6789 510.755 71.056C507.514 74.0206 503.245 75.6041 498.855 75.47C495.715 75.5036 492.607 74.8507 489.746 73.557C486.946 72.4099 484.473 70.5893 482.546 68.257L487.101 63.401C490.776 67.226 494.592 69.286 498.707 69.286C501.394 69.3073 504.001 68.3682 506.058 66.638C506.991 65.8946 507.751 64.956 508.284 63.8882C508.816 62.8203 509.109 61.6489 509.142 60.456C509.115 58.5256 508.442 56.6599 507.232 55.156C504.589 52.7849 501.553 50.8934 498.26 49.567C493.26 47.061 489.886 44.711 488.123 42.215C486.319 39.9118 485.383 37.0471 485.479 34.123C485.414 32.246 485.762 30.3776 486.498 28.6497C487.234 26.9218 488.34 25.3766 489.739 24.123C492.717 21.4495 496.611 20.0269 500.612 20.151C505.753 20.151 510.895 22.505 516.037 27.213L511.482 31.627C507.221 28.245 503.402 26.627 499.876 26.627L499.882 26.63ZM481.076 74.3H474.466V21.627H480.93V74.3H481.076ZM481.517 9.568C481.021 10.0793 480.427 10.486 479.771 10.7641C479.115 11.0422 478.41 11.186 477.698 11.187C477.004 11.2006 476.316 11.0627 475.681 10.7831C475.046 10.5035 474.48 10.0888 474.022 9.568C472.985 8.50557 472.405 7.07994 472.405 5.5955C472.405 4.11106 472.985 2.68543 474.022 1.623C474.984 0.616316 476.307 0.0326038 477.699 0C478.411 0.00108984 479.116 0.144916 479.772 0.422985C480.428 0.701054 481.022 1.10773 481.518 1.619C482.555 2.68147 483.135 4.10731 483.135 5.592C483.135 7.07669 482.555 8.50253 481.518 9.565L481.517 9.568ZM457.717 32.96C455.957 31.0052 453.804 29.444 451.398 28.3787C448.993 27.3134 446.39 26.7679 443.76 26.778C440.276 26.7293 436.854 27.7028 433.917 29.578C430.837 31.4562 428.343 34.1578 426.717 37.378C424.981 40.6388 424.073 44.2763 424.073 47.9705C424.073 51.6647 424.981 55.3022 426.717 58.563C428.379 61.7956 430.862 64.5344 433.917 66.505C436.854 68.3802 440.276 69.3537 443.76 69.305C447.278 69.2638 450.723 68.2981 453.75 66.505C456.814 64.7406 459.312 62.1388 460.95 59.005C462.708 55.705 463.57 52.002 463.45 48.265C463.567 42.62 461.517 37.1447 457.721 32.965L457.717 32.96ZM463.01 74.3V65.174C460.641 68.4096 457.579 71.0746 454.047 72.974C450.64 74.7281 446.86 75.6363 443.028 75.622C439.615 75.6267 436.24 74.908 433.125 73.5132C430.011 72.1184 427.227 70.0792 424.958 67.53C419.969 62.1965 417.278 55.1146 417.467 47.814C417.401 44.2336 418.042 40.6755 419.353 37.3431C420.664 34.0106 422.619 30.9693 425.106 28.393C427.404 25.8416 430.213 23.8025 433.351 22.4084C436.489 21.0142 439.885 20.2962 443.319 20.301C447.172 20.2676 450.968 21.2323 454.338 23.101C457.834 25.1324 460.805 27.9557 463.011 31.344V21.627H469.328V74.3H463.01ZM414.673 37.521C413.046 34.301 410.553 31.5994 407.473 29.721C404.454 27.9095 401.004 26.9424 397.483 26.921C394.828 26.8916 392.198 27.4277 389.767 28.4936C387.336 29.5595 385.16 31.1308 383.383 33.103C379.647 37.2491 377.647 42.6729 377.799 48.252C377.806 51.9754 378.661 55.6482 380.299 58.992C382.029 62.1478 384.566 64.788 387.65 66.643C390.675 68.4351 394.118 69.4007 397.634 69.443C401.063 69.441 404.423 68.4704 407.325 66.643C410.421 64.6745 412.954 61.9372 414.677 58.698C416.426 55.4421 417.335 51.8011 417.322 48.105C417.496 44.3912 416.576 40.708 414.677 37.512L414.673 37.521ZM416.435 67.533C414.146 70.096 411.339 72.1429 408.199 73.538C405.059 74.9332 401.659 75.6446 398.223 75.625C394.391 75.6393 390.611 74.7311 387.204 72.977C383.672 71.0772 380.61 68.4123 378.241 65.177V93.421H371.921V21.48H378.238V31.19C380.498 27.7976 383.516 24.9771 387.053 22.951C390.423 21.0823 394.219 20.1176 398.072 20.151C401.505 20.1464 404.901 20.8646 408.039 22.2587C411.177 23.6529 413.986 25.6918 416.284 28.243C418.771 30.8191 420.726 33.8604 422.037 37.1929C423.348 40.5254 423.989 44.0836 423.923 47.664C424.138 55.0126 421.446 62.1495 416.431 67.525L416.435 67.533ZM354.877 32.96C351.87 29.699 347.827 27.5803 343.434 26.9641C339.042 26.3478 334.572 27.2722 330.784 29.58C327.704 31.4581 325.21 34.1597 323.584 37.38C321.847 40.6407 320.939 44.2783 320.939 47.9725C320.939 51.6667 321.847 55.3043 323.584 58.565C325.262 61.8353 327.804 64.5829 330.935 66.509C333.872 68.3843 337.294 69.3577 340.779 69.309C344.297 69.2861 347.745 68.3192 350.762 66.509C353.837 64.7086 356.375 62.1193 358.114 59.009C359.871 55.7089 360.733 52.0059 360.614 48.269C360.757 42.6196 358.703 37.1349 354.885 32.969L354.877 32.96ZM360.314 74.3V65.174C357.856 68.3811 354.754 71.0381 351.207 72.974C347.799 74.7281 344.019 75.6363 340.187 75.622C336.753 75.6267 333.358 74.9087 330.22 73.5145C327.082 72.1203 324.273 70.0813 321.976 67.53C316.984 62.1984 314.289 55.1166 314.476 47.815C314.412 44.2346 315.054 40.6767 316.366 37.3446C317.677 34.0125 319.633 30.9717 322.121 28.396C324.449 25.8412 327.285 23.8016 330.448 22.408C333.61 21.0144 337.03 20.2977 340.486 20.304C344.387 20.2523 348.235 21.2173 351.65 23.104C355.187 25.13 358.205 27.9505 360.466 31.343V21.627H366.93V74.3H360.314Z" fill="black"/>
<path d="M0.675781 71.5399C1.27154 71.4812 1.86214 71.3786 2.44278 71.2329C3.02578 71.0735 3.56448 70.7826 4.01747 70.3825C4.47045 69.9824 4.82566 69.4837 5.05578 68.9249C5.97878 66.3129 6.05578 61.4709 6.05578 56.5509V36.7189C6.05578 31.8769 6.13378 26.8809 5.05578 24.4969C4.83949 23.978 4.51548 23.511 4.10519 23.1267C3.6949 22.7425 3.20768 22.4497 2.67578 22.2679C2.02772 22.0422 1.35715 21.8873 0.675781 21.8059V21.4219H16.5868V21.8059C16.0422 21.8726 15.5027 21.9755 14.9718 22.1139C14.3727 22.263 13.8201 22.5589 13.3639 22.9749C12.9077 23.3909 12.5623 23.914 12.3588 24.4969C11.5138 26.9569 11.2828 31.8769 11.2828 36.7189V45.6399H34.9588V36.7189C34.9588 31.8769 34.7288 26.9569 33.8828 24.4969C33.6793 23.914 33.3338 23.3909 32.8777 22.9749C32.4215 22.5589 31.8689 22.263 31.2698 22.1139C30.7632 21.9829 30.2497 21.8801 29.7318 21.8059V21.4219H45.5658V21.8059C44.7514 21.8788 43.9504 22.0597 43.1838 22.3439C42.7037 22.533 42.2698 22.8231 41.9116 23.1946C41.5534 23.5661 41.2793 24.0102 41.1078 24.4969C40.1858 26.8809 40.1858 31.8769 40.1858 36.7189V56.5519C40.1858 61.4719 40.1858 66.8519 41.1078 68.9259C41.3454 69.4363 41.687 69.8915 42.1106 70.2624C42.5341 70.6333 43.0305 70.9117 43.5678 71.0799C44.2202 71.2895 44.8893 71.4433 45.5678 71.5399V71.9249H29.7308V71.5399C30.2771 71.4485 30.8166 71.3205 31.3458 71.1569C31.9254 71.0359 32.4638 70.7668 32.9084 70.3758C33.353 69.9848 33.6887 69.4853 33.8828 68.9259C34.7288 66.2369 34.9588 61.4719 34.9588 56.5519V46.6399H11.2828V56.5549C11.2828 61.4749 11.4368 66.3169 12.3588 68.9289C12.6266 69.4765 13.0034 69.9637 13.4662 70.3605C13.9289 70.7574 14.4678 71.0556 15.0498 71.2369C15.5524 71.3831 16.0666 71.4858 16.5868 71.5439V71.9289H0.675781V71.5399Z" fill="black"/>
<path d="M74.3077 21.4999C61.5467 21.4999 57.6277 34.1059 57.6277 46.8669C57.6277 58.0899 61.0097 71.9269 74.3077 71.9269C86.9137 71.9269 90.9077 59.3969 90.9077 46.8669C90.9077 35.6439 87.6077 21.4999 74.3077 21.4999ZM74.3077 72.9999C60.5477 72.9999 51.5547 61.1619 51.5547 46.8649C51.5547 32.3359 60.5487 20.4219 74.3077 20.4219C87.9897 20.4219 96.9827 32.3369 96.9827 46.8649C96.9827 61.1649 87.9897 72.9999 74.3077 72.9999Z" fill="black"/>
<path d="M144.249 22.1149C143.639 22.281 143.074 22.5811 142.595 22.9934C142.117 23.4057 141.736 23.9197 141.482 24.4979C140.944 25.8819 140.56 27.6499 140.56 31.4149V55.0149C140.71 58.8374 139.918 62.6381 138.253 66.0819C136.178 70.0029 130.874 72.9999 124.647 72.9999C116.653 72.9999 110.735 70.1559 108.736 64.1609C107.507 60.4699 107.659 56.3209 107.659 53.3989V36.6389C107.659 30.3389 107.736 26.7209 106.737 24.4159C106.504 23.9155 106.174 23.4671 105.764 23.0975C105.355 22.7279 104.875 22.4447 104.354 22.2649C103.711 22.022 103.038 21.8663 102.354 21.8019V21.4189H118.189V21.8019C117.456 21.8752 116.734 22.0305 116.036 22.2649C115.496 22.4055 114.996 22.6744 114.581 23.0489C114.166 23.4233 113.848 23.8922 113.652 24.4159C112.808 26.4909 112.885 31.1819 112.885 36.6389V55.7789C112.755 58.5133 112.987 61.2527 113.577 63.9259C114.96 68.6919 118.343 71.6119 124.646 71.6119C130.719 71.6119 135.1 69.4589 137.176 65.8469C138.559 63.4649 139.48 60.3129 139.48 55.3169V31.4149C139.48 27.6499 139.019 25.8039 138.405 24.4979C138.196 23.9739 137.874 23.5023 137.462 23.117C137.05 22.7317 136.558 22.4421 136.022 22.2689C135.117 22.0083 134.191 21.8279 133.255 21.7299V21.4239H146.091V21.7299C145.461 21.7762 144.841 21.9056 144.246 22.1149" fill="black"/>
<path d="M166.228 73.0008C164.078 73.0208 161.946 72.6016 159.963 71.7688C157.981 70.9361 156.189 69.7073 154.697 68.1578H154.389L152.775 71.2338H152.467L151.775 55.7838H152.237C154.158 64.2388 158.002 71.9268 166.15 71.9268C174.067 71.9268 177.295 67.0068 177.295 61.7788C177.295 53.4008 173.145 51.7098 164.995 47.6348C158.076 44.1758 152.235 40.8728 152.235 32.5708C152.235 26.2708 157.235 20.4238 166.148 20.4238C170.376 20.4238 174.295 22.0398 176.216 24.3448L177.37 21.5778H177.984L179.138 33.8778H178.676C177.754 30.0338 175.447 25.7298 172.603 23.7308C170.708 22.2198 168.339 21.43 165.916 21.5018C161.535 21.5018 156.692 23.7308 156.692 29.9578C156.692 37.5678 162.457 39.6428 168.684 42.8708C177.599 47.4838 181.827 49.7888 181.827 58.4768C181.827 67.7768 174.142 73.0038 166.227 73.0038" fill="black"/>
<path d="M204.505 22.4209C203.312 22.3516 202.121 22.5899 201.046 23.1129C197.817 25.1129 197.97 30.5689 197.97 33.5679V45.1759H204.581C207.81 45.1759 209.117 44.7139 210.116 43.7149C211.654 42.3309 212.653 38.9489 212.883 37.0269H213.19V54.3269H212.883C212.653 52.4819 211.73 49.0999 210.27 47.8699C209.347 47.0239 207.81 46.1789 204.581 46.1789H197.97V60.0919C197.97 62.8589 197.586 68.3919 200.584 70.2369C201.873 70.7705 203.265 71.0073 204.658 70.9299H210.423C214.881 70.9299 217.417 69.5459 218.878 68.1619C221.722 65.4729 222.952 61.8619 223.798 59.7069H224.104L222.644 71.9289H187.287V71.6209C187.883 71.5616 188.473 71.459 189.054 71.3139C189.622 71.1464 190.148 70.8614 190.598 70.4774C191.048 70.0934 191.412 69.6189 191.667 69.0849C192.667 66.7009 192.743 61.5509 192.743 56.7079V36.7959C192.743 31.7959 192.59 26.9569 191.743 24.4959C191.516 23.9271 191.163 23.4173 190.71 23.0047C190.258 22.5921 189.717 22.2875 189.13 22.1139C188.531 21.9199 187.912 21.7908 187.285 21.7289V21.4219H220.185L221.949 33.4899H221.487C220.335 30.1839 218.566 26.4949 215.953 24.3429C214.413 23.0867 212.483 22.407 210.496 22.4209H204.505Z" fill="black"/>
<path d="M255.382 71.5409C262.482 71.5409 270.809 63.7049 275.461 53.3719L282.317 38.0919H288.684L289.027 37.4059H282.61L284.276 33.6819C286.92 27.7559 289.076 24.5249 293.287 23.3979C297.743 24.7689 299.702 25.4549 301.416 25.4549C302.084 25.4294 302.723 25.1782 303.23 24.7423C303.737 24.3064 304.081 23.7116 304.207 23.0549C304.207 22.1729 301.661 21.8799 299.064 21.8799C288.78 21.8799 283.54 28.6379 279.573 37.4039H275.705L275.362 38.0899H279.279L270.954 56.7979C267.282 65.0259 264.686 67.1799 262.14 68.7469C260.272 68.4882 258.392 68.3247 256.508 68.2569C255.851 68.3269 255.237 68.6163 254.765 69.0783C254.294 69.5403 253.991 70.1479 253.908 70.8029C253.908 71.3419 254.349 71.5379 255.377 71.5379M256.601 60.1759C253.466 60.1759 251.601 58.7069 251.601 54.5449C251.601 49.2559 256.253 38.1389 263.11 38.1389C266.097 38.1389 267.958 40.0489 267.958 43.5739C267.958 48.7159 263.306 60.1739 256.597 60.1739M253.952 61.7409C262.13 61.7409 270.897 50.0409 270.897 42.1029C270.897 39.1159 269.183 36.5699 265.706 36.5699C257.184 36.5699 248.516 48.6699 248.516 55.9129C248.516 60.2219 251.21 61.7409 253.953 61.7409" fill="black"/>
<path d="M350.619 127.547H353.08C354.115 127.547 355.656 127.616 356.806 128.398C357.703 128.996 358.485 130.169 358.485 131.802C358.485 134.148 356.944 135.873 354.621 136.034L359.497 142.888H357.427L352.758 136.172H352.321V142.888H350.619V127.547ZM352.321 129.157V134.654H353.402C355.518 134.654 356.783 133.642 356.783 131.848C356.783 130.997 356.53 130.146 355.564 129.594C354.874 129.203 354.092 129.157 353.356 129.157H352.321Z" fill="black"/>
<path d="M347.481 127.547V129.157H341.225V133.711H347.297V135.321H341.225V141.278H347.481V142.888H339.523V127.547H347.481Z" fill="black"/>
<path d="M333.863 127.547H335.565V142.888H333.863V127.547Z" fill="black"/>
<path d="M325.62 127.547H327.322V141.278H331.554V142.888H325.62V127.547Z" fill="black"/>
<path d="M322.482 127.547V129.157H316.226V133.711H322.298V135.321H316.226V141.278H322.482V142.888H314.524V127.547H322.482Z" fill="black"/>
<path d="M312.229 129.157H308.503V142.888H306.801V129.157H303.075V127.547H312.229V129.157Z" fill="black"/>
<path d="M301.715 142.888L299.921 138.564H293.389L291.549 142.888H289.663L296.724 126.811L303.601 142.888H301.715ZM294.056 136.954H299.254L296.678 130.813L294.056 136.954Z" fill="black"/>
<path d="M272.562 127.547V133.78H280.428V127.547H282.13V142.888H280.428V135.39H272.562V142.888H270.86V127.547H272.562Z" fill="black"/>
<path d="M268.565 129.157H264.839V142.888H263.137V129.157H259.411V127.547H268.565V129.157Z" fill="black"/>
<path d="M258.051 142.888L256.257 138.564H249.725L247.885 142.888H245.999L253.06 126.811L259.937 142.888H258.051ZM250.392 136.954H255.59L253.014 130.813L250.392 136.954Z" fill="black"/>
<path d="M235.596 127.547H238.356C239.207 127.547 240.748 127.616 241.875 128.513C242.358 128.881 243.255 129.824 243.255 131.687C243.255 132.446 243.094 133.78 241.737 134.7C243.876 135.229 244.658 137.092 244.658 138.564C244.658 140.036 243.922 141.232 243.094 141.876C241.875 142.842 240.472 142.888 239.414 142.888H235.596V127.547ZM237.298 129.157V134.286H238.586C239.483 134.286 241.599 134.102 241.599 131.733C241.599 129.203 239.115 129.157 238.632 129.157H237.298ZM237.298 135.804V141.278H239.253C240.242 141.278 241.208 141.209 241.944 140.634C242.542 140.197 242.956 139.438 242.956 138.518C242.956 137.299 242.243 136.586 241.645 136.264C241.07 135.942 240.265 135.804 239.046 135.804H237.298Z" fill="black"/>
<path d="M220.711 136.793V135.183H227.105V135.551C227.105 137.253 226.599 139.093 225.633 140.404C225.173 141.025 223.448 143.164 219.929 143.164C215.375 143.164 211.971 139.691 211.971 135.229C211.971 130.767 215.398 127.294 219.975 127.294C221.447 127.294 223.172 127.662 224.667 128.812C225.357 129.341 226.001 130.031 226.438 130.629L225.173 131.779C224.736 131.158 224.23 130.606 223.724 130.192C222.988 129.594 221.838 128.904 219.998 128.904C216.295 128.904 213.719 131.687 213.719 135.252C213.719 139.438 217.054 141.554 219.952 141.554C221.999 141.554 223.77 140.519 224.644 138.978C224.92 138.495 225.219 137.759 225.265 136.793H220.711Z" fill="black"/>
<path d="M196.891 142.888H195.189V126.903L207.149 139.438V127.547H208.851V143.578L196.891 131.043V142.888Z" fill="black"/>
<path d="M189.529 127.547H191.231V142.888H189.529V127.547Z" fill="black"/>
<path d="M174.997 142.888V127.547H178.125C179.666 127.547 181.851 127.708 183.783 129.341C185.186 130.514 186.405 132.469 186.405 135.229C186.405 138.449 184.818 140.174 183.714 141.117C182.311 142.313 180.839 142.888 178.102 142.888H174.997ZM176.699 129.157V141.278H178.194C179.413 141.278 181.092 141.14 182.587 139.898C183.737 138.932 184.657 137.414 184.657 135.229C184.657 131.549 182.081 129.157 178.194 129.157H176.699Z" fill="black"/>
<path d="M170.947 142.888L169.153 138.564H162.621L160.781 142.888H158.895L165.956 126.811L172.833 142.888H170.947ZM163.288 136.954H168.486L165.91 130.813L163.288 136.954Z" fill="black"/>
<path d="M157.551 127.547V129.157H151.295V133.711H157.367V135.321H151.295V141.278H157.551V142.888H149.593V127.547H157.551Z" fill="black"/>
<path d="M141.35 127.547H143.052V141.278H147.284V142.888H141.35V127.547Z" fill="black"/>
<path d="M132.289 129.686L130.932 130.583C130.725 130.169 130.38 129.709 130.035 129.433C129.736 129.203 129.184 128.904 128.31 128.904C126.792 128.904 125.734 129.847 125.734 131.273C125.734 131.871 125.895 132.216 126.309 132.607C126.769 133.067 127.344 133.32 127.919 133.573L129.391 134.217C130.288 134.608 131.116 135.022 131.76 135.666C132.542 136.448 132.864 137.345 132.864 138.449C132.864 141.278 130.771 143.164 128.011 143.164C126.999 143.164 125.734 142.957 124.676 141.922C123.917 141.186 123.457 140.128 123.25 139.208L124.906 138.748C125.021 139.553 125.389 140.243 125.826 140.703C126.493 141.37 127.252 141.554 128.034 141.554C130.127 141.554 131.116 140.059 131.116 138.518C131.116 137.828 130.909 137.23 130.357 136.724C129.92 136.31 129.322 136.034 128.517 135.666L127.137 135.022C126.539 134.746 125.78 134.424 125.09 133.757C124.423 133.113 124.032 132.4 124.032 131.25C124.032 128.881 125.849 127.294 128.333 127.294C129.276 127.294 130.035 127.478 130.794 127.984C131.415 128.398 131.944 129.019 132.289 129.686Z" fill="black"/>
<path d="M118.111 132.308L119.974 126.995L121.515 127.547L119.192 132.745L118.111 132.308Z" fill="black"/>
<path d="M104.222 142.888V127.547H107.35C108.891 127.547 111.076 127.708 113.008 129.341C114.411 130.514 115.63 132.469 115.63 135.229C115.63 138.449 114.043 140.174 112.939 141.117C111.536 142.313 110.064 142.888 107.327 142.888H104.222ZM105.924 129.157V141.278H107.419C108.638 141.278 110.317 141.14 111.812 139.898C112.962 138.932 113.882 137.414 113.882 135.229C113.882 131.549 111.306 129.157 107.419 129.157H105.924Z" fill="black"/>
<path d="M95.9792 127.547H97.6812V141.278H101.913V142.888H95.9792V127.547Z" fill="black"/>
<path d="M84.4343 127.547H86.8953C87.9303 127.547 89.4713 127.616 90.6213 128.398C91.5183 128.996 92.3003 130.169 92.3003 131.802C92.3003 134.148 90.7593 135.873 88.4363 136.034L93.3123 142.888H91.2423L86.5733 136.172H86.1363V142.888H84.4343V127.547ZM86.1363 129.157V134.654H87.2173C89.3333 134.654 90.5983 133.642 90.5983 131.848C90.5983 130.997 90.3453 130.146 89.3793 129.594C88.6893 129.203 87.9073 129.157 87.1713 129.157H86.1363Z" fill="black"/>
<path d="M73.3266 143.164C68.8876 143.164 65.3456 139.783 65.3456 135.229C65.3456 130.652 68.9106 127.294 73.3266 127.294C77.7426 127.294 81.3076 130.652 81.3076 135.229C81.3076 139.783 77.7656 143.164 73.3266 143.164ZM73.3266 128.904C69.8766 128.904 67.0936 131.71 67.0936 135.229C67.0936 138.748 69.8766 141.554 73.3266 141.554C76.7766 141.554 79.5596 138.748 79.5596 135.229C79.5596 131.71 76.7766 128.904 73.3266 128.904Z" fill="black"/>
<path d="M42.3454 127.547H44.2314L48.2794 139.047L53.0864 126.765L57.6404 139.047L62.1254 127.547H64.0114L57.5714 143.693L53.0634 131.411L48.2334 143.693L42.3454 127.547Z" fill="black"/>
<path d="M35.6335 127.547V129.157H29.3775V133.711H35.4495V135.321H29.3775V141.278H35.6335V142.888H27.6755V127.547H35.6335Z" fill="black"/>
<path d="M14.149 127.547V133.78H22.015V127.547H23.717V142.888H22.015V135.39H14.149V142.888H12.447V127.547H14.149Z" fill="black"/>
<path d="M10.152 129.157H6.42605V142.888H4.72405V129.157H0.998047V127.547H10.152V129.157Z" fill="black"/>
</svg>
