<svg width="53" height="38" viewBox="0 0 53 38" fill="none" xmlns="http://www.w3.org/2000/svg">
<path d="M50.5879 37.1566C45.6814 37.1566 40.9758 35.2059 37.5064 31.7337C34.037 28.2614 32.0879 23.552 32.0879 18.6415C32.0879 13.731 34.037 9.02166 37.5064 5.54941C40.9758 2.07715 45.6814 0.126465 50.5879 0.126465C51.2152 0.126465 51.8342 0.156823 52.4449 0.217539V5.81209C51.8297 5.72462 51.2092 5.68081 50.5879 5.68099C47.6288 5.67728 44.757 6.6846 42.4477 8.53632C40.1383 10.388 38.5297 12.9732 37.8879 15.8643H48.7309V21.4188H37.8869C38.6049 24.62 40.5023 27.4327 43.2005 29.2958C45.8988 31.159 49.1997 31.9357 52.4449 31.471V37.0655C51.8336 37.1263 51.2146 37.1566 50.5879 37.1566Z" fill="black"/>
<path d="M19.0156 0.126502C19.6772 0.125195 20.3385 0.158602 20.9966 0.226584V5.83117C20.341 5.73139 19.6788 5.68154 19.0156 5.68204C17.315 5.68204 15.631 6.01728 14.0599 6.66861C12.4887 7.31994 11.0611 8.27461 9.85859 9.47812C8.65607 10.6816 7.70218 12.1104 7.05138 13.6828C6.40058 15.2553 6.06562 16.9406 6.06562 18.6426C6.06562 20.3446 6.40058 22.03 7.05138 23.6024C7.70218 25.1749 8.65607 26.6037 9.85859 27.8072C11.0611 29.0107 12.4887 29.9653 14.0599 30.6167C15.631 31.268 17.315 31.6032 19.0156 31.6032C19.6788 31.6037 20.341 31.5539 20.9966 31.4541V37.0587C20.3385 37.1267 19.6772 37.1601 19.0156 37.1588C14.1091 37.1588 9.40357 35.2081 5.93415 31.7358C2.46472 28.2636 0.515625 23.5542 0.515625 18.6436C0.515625 13.7331 2.46472 9.02372 5.93415 5.55146C9.40357 2.0792 14.1091 0.128503 19.0156 0.128503V0.126502Z" fill="black"/>
</svg>
