<svg width="53" height="51" viewBox="0 0 53 51" fill="none" xmlns="http://www.w3.org/2000/svg">
<path d="M6.1429 1.1605L49.3769 20.6214C49.4718 20.6651 49.5459 20.7442 49.5832 20.8419C49.6206 20.9395 49.6183 21.0479 49.5769 21.1438C49.5332 21.2401 49.4533 21.3151 49.3546 21.3526C49.2559 21.3901 49.1464 21.387 49.0499 21.344L5.80891 1.88009C5.76139 1.85906 5.71849 1.82884 5.68269 1.79116C5.64689 1.75347 5.61889 1.70908 5.6003 1.66052C5.58171 1.61196 5.5729 1.56021 5.57438 1.50823C5.57585 1.45625 5.58759 1.40508 5.6089 1.35766C5.63077 1.3094 5.662 1.26597 5.70076 1.22988C5.73953 1.19379 5.78507 1.16576 5.83475 1.14742C5.88442 1.12908 5.93724 1.1208 5.99014 1.12304C6.04303 1.12528 6.09496 1.13802 6.1429 1.1605Z" fill="black"/>
<path d="M5.6137 15.6333C5.65917 15.5384 5.74019 15.4652 5.83921 15.4296C5.93822 15.394 6.04726 15.3989 6.1427 15.4432L45.4427 33.8893C45.4898 33.9111 45.5321 33.9421 45.5672 33.9804C45.6022 34.0187 45.6292 34.0637 45.6467 34.1126C45.6642 34.1615 45.6718 34.2134 45.6691 34.2653C45.6663 34.3172 45.6533 34.368 45.6307 34.4147C45.5849 34.5086 45.5042 34.5808 45.406 34.6159C45.3077 34.6511 45.1996 34.6464 45.1047 34.6029L5.8017 16.1547C5.70776 16.1105 5.63514 16.0308 5.59973 15.9331C5.56432 15.8353 5.56998 15.7276 5.6137 15.6333Z" fill="black"/>
<path d="M49.976 0.621094C50.0566 0.621052 50.1354 0.645399 50.202 0.690941C50.2685 0.736483 50.3198 0.801095 50.349 0.876302C50.442 1.12851 50.508 11.9794 49.863 20.0069L49.819 20.5354C49.742 21.4501 49.666 22.2918 49.611 22.532C49.3721 25.3454 48.7204 28.1083 47.677 30.7317C46.644 32.9866 45.3274 35.1001 43.759 37.0208C43.759 37.0208 42.921 38.1438 42.916 38.1488C39.479 42.6955 32.548 47.3333 28.716 49.6992L28.463 49.8563C28.388 49.893 28.3055 49.9114 28.2221 49.91C28.1386 49.9086 28.0567 49.8875 27.983 49.8483L27.557 49.5961C19.43 44.8222 15.52 41.0151 13.677 38.6672L13.525 38.481C11.4654 36.1227 9.70262 33.5205 8.27602 30.7327L7.95602 30.0321C6.78543 27.695 6.06521 25.158 5.83302 22.554L5.71202 21.338C5.71202 21.338 5.58102 20.037 5.57602 20.0059C5.15702 15.143 4.97402 8.51455 5.06302 1.33468V1.02843C5.06327 0.921165 5.10569 0.81831 5.1811 0.742091C5.2565 0.665871 5.35885 0.622408 5.46602 0.621094H49.976ZM49.586 1.41174H5.85902C5.84302 2.5877 5.83702 3.75165 5.83702 4.89158C5.83702 10.6623 6.02202 15.9086 6.36602 19.9039L6.50502 21.264C6.50502 21.264 6.62202 22.4399 6.62502 22.4589C6.85085 24.9788 7.54688 27.4338 8.67702 29.6969C8.67702 29.6969 9.01202 30.4325 9.00902 30.4215C10.4075 33.1425 12.1315 35.6833 14.143 37.9876C14.143 37.9876 14.293 38.1728 14.298 38.1758C16.098 40.4777 19.94 44.2067 27.964 48.9146C28.078 48.9856 28.138 49.0287 28.224 49.0807C28.243 49.0647 28.297 49.0257 28.297 49.0257C34.823 44.9984 39.791 40.9691 42.275 37.6814L43.118 36.5505C44.6445 34.6818 45.9265 32.6259 46.933 30.4325C47.9534 27.8666 48.5889 25.1639 48.819 22.4119C48.876 22.1527 48.966 21.0988 49.019 20.4713C49.019 20.4713 49.066 19.9319 49.066 19.9379C49.517 14.3013 49.596 7.85501 49.596 4.13697C49.596 2.8269 49.587 1.89113 49.58 1.40774L49.586 1.41174Z" fill="black"/>
<path d="M17.9538 11.7832V16.2078C17.9378 16.6581 18.0413 17.1047 18.2538 17.5019C18.4045 17.7607 18.6254 17.9714 18.8909 18.1096C19.1564 18.2478 19.4556 18.3077 19.7538 18.2825C20.0904 18.3206 20.4308 18.2614 20.7348 18.1121C21.0389 17.9628 21.2939 17.7295 21.4698 17.4399C21.6489 17.0545 21.7323 16.6314 21.7128 16.2068V11.7832H22.6898V15.8075C22.7249 16.504 22.6025 17.1995 22.3318 17.8422C22.0894 18.2813 21.7228 18.639 21.2781 18.8704C20.8333 19.1019 20.3302 19.1968 19.8318 19.1433C19.3343 19.1976 18.8318 19.103 18.388 18.8714C17.9442 18.6398 17.5791 18.2816 17.3388 17.8422C17.0658 17.2002 16.9427 16.5043 16.9788 15.8075V11.7832H17.9538Z" fill="black"/>
<path d="M26.043 15.7014H29.266C29.8323 15.6761 30.3867 15.8691 30.815 16.2409C31.0174 16.4365 31.1751 16.6737 31.2773 16.9361C31.3795 17.1985 31.4237 17.48 31.407 17.7611C31.4155 18.2974 31.2281 18.8184 30.88 19.2263C30.6751 19.4438 30.4241 19.6126 30.1455 19.7203C29.8669 19.828 29.5677 19.8719 29.27 19.8488H27.014V22.8762H26.043V15.7034M29.83 16.7042C29.5502 16.5925 29.2499 16.5416 28.949 16.5551H27.015V19.0211H28.943C29.3162 19.0387 29.6859 18.9431 30.004 18.7469C30.1483 18.6321 30.2612 18.4826 30.3322 18.3123C30.4032 18.142 30.4299 17.9565 30.41 17.7731C30.4318 17.557 30.3877 17.3394 30.2835 17.1489C30.1792 16.9585 30.0197 16.8041 29.826 16.7062L29.83 16.7042Z" fill="black"/>
<path d="M39.5753 20.2671C40.0434 20.6903 40.3386 21.2716 40.4043 21.8995H39.4423C39.358 21.4741 39.1346 21.0889 38.8073 20.8046C38.4248 20.5159 37.9515 20.3739 37.4733 20.4042C37.1538 20.3931 36.8359 20.454 36.543 20.5823C36.2502 20.7107 35.9899 20.9033 35.7813 21.1458C35.3014 21.8032 35.0729 22.6111 35.1373 23.4227C35.1035 24.1475 35.3076 24.8634 35.7183 25.4613C35.9215 25.7237 36.186 25.9321 36.4885 26.0681C36.7911 26.204 37.1224 26.2634 37.4533 26.241C37.7711 26.2562 38.0874 26.1882 38.3708 26.0435C38.6543 25.8989 38.895 25.6827 39.0693 25.4163C39.2869 25.0655 39.4353 24.6761 39.5063 24.2694H40.4693C40.4056 24.9778 40.1116 25.6457 39.6323 26.1709C39.3396 26.4815 38.9832 26.725 38.5876 26.8848C38.1919 27.0446 37.7665 27.1168 37.3403 27.0967C36.5742 27.1196 35.828 26.8498 35.2533 26.3421C34.8579 25.9365 34.5541 25.4507 34.3624 24.9176C34.1708 24.3844 34.0957 23.8163 34.1423 23.2515C34.1036 22.3125 34.3995 21.3903 34.9773 20.6494C35.2789 20.2853 35.6609 19.9963 36.0932 19.8052C36.5255 19.6142 36.9963 19.5263 37.4683 19.5485C38.2357 19.5021 38.9904 19.7607 39.5683 20.2681L39.5753 20.2671Z" fill="black"/>
<path d="M51.104 49.2148C50.4676 49.8547 49.6558 50.2912 48.7714 50.469C47.887 50.6468 46.9698 50.5579 46.1359 50.2136C45.302 49.8692 44.589 49.2849 44.0871 48.5347C43.5853 47.7844 43.3173 46.902 43.317 45.9991C43.3072 45.4028 43.421 44.8109 43.6511 44.2607C43.8812 43.7105 44.2227 43.214 44.654 42.8025C45.5143 41.9563 46.6722 41.4821 47.8785 41.4821C49.0847 41.4821 50.2427 41.9563 51.103 42.8025C51.5341 43.2144 51.8756 43.7109 52.1062 44.2609C52.3368 44.811 52.4514 45.4027 52.443 45.9991C52.4505 46.5982 52.3354 47.1926 52.105 47.7455C51.8746 48.2985 51.5346 48.7985 51.104 49.2148ZM45.093 43.2559C44.7236 43.6112 44.4314 44.0388 44.2345 44.5122C44.0377 44.9856 43.9405 45.4945 43.949 46.0071C43.949 47.0488 44.3625 48.0479 45.0984 48.7845C45.8344 49.5211 46.8326 49.9349 47.8735 49.9349C48.9143 49.9349 49.9125 49.5211 50.6485 48.7845C51.3845 48.0479 51.798 47.0488 51.798 46.0071C51.8068 45.4942 51.7095 44.9849 51.5121 44.5114C51.3147 44.0379 51.0215 43.6104 50.651 43.2559C49.9113 42.5233 48.9126 42.1124 47.872 42.1124C46.8313 42.1124 45.8327 42.5233 45.093 43.2559ZM47.793 43.5101C48.2577 43.4868 48.7228 43.5475 49.166 43.6892C49.4149 43.7866 49.6255 43.9621 49.7662 44.1895C49.9068 44.4169 49.9699 44.6839 49.946 44.9503C49.9594 45.1432 49.9209 45.3362 49.8346 45.5092C49.7482 45.6822 49.6171 45.8289 49.455 45.9341C49.2314 46.0639 48.9837 46.1466 48.727 46.1773C48.8966 46.1934 49.061 46.2448 49.2096 46.3282C49.3582 46.4117 49.4878 46.5252 49.59 46.6617C49.7573 46.8828 49.8523 47.1502 49.862 47.4273V47.7896C49.862 47.9057 49.862 48.0268 49.875 48.1609C49.8729 48.2478 49.8868 48.3343 49.916 48.4161L49.944 48.4772H49.126C49.12 48.4613 49.1156 48.4449 49.113 48.4281C49.113 48.4111 49.104 48.3951 49.1 48.3731L49.081 48.213V47.8226C49.111 47.6089 49.0824 47.391 48.9984 47.1922C48.9144 46.9934 48.7781 46.8211 48.604 46.6937C48.2904 46.5647 47.9511 46.5105 47.613 46.5356H46.913V48.4772H46.035V43.5071H47.792M48.747 44.3148C48.408 44.17 48.0397 44.1073 47.672 44.1316H46.913V45.9101H47.713C48 45.9229 48.287 45.8853 48.561 45.799C48.7207 45.7478 48.8587 45.6446 48.9531 45.5059C49.0475 45.3672 49.0929 45.2008 49.082 45.0333C49.0991 44.8941 49.0765 44.7529 49.0166 44.6261C48.9568 44.4992 48.8623 44.392 48.744 44.3168L48.747 44.3148Z" fill="black"/>
<path d="M6.75121 42.7275C7.29698 43.2149 7.64114 43.8888 7.71621 44.617H6.60621C6.50709 44.1267 6.24823 43.6832 5.87021 43.356C5.42623 43.0218 4.87767 42.8571 4.32321 42.8916C3.95275 42.8786 3.5841 42.9491 3.24462 43.0981C2.90515 43.2471 2.60355 43.4707 2.36221 43.7523C1.80615 44.5148 1.54117 45.4514 1.61521 46.3925C1.57558 47.2344 1.81268 48.0661 2.29021 48.7604C2.52596 49.0635 2.83239 49.3041 3.18264 49.4611C3.53289 49.6181 3.91628 49.6868 4.29921 49.6611C4.66747 49.6786 5.0339 49.5995 5.36224 49.4317C5.69058 49.2638 5.96943 49.0131 6.17121 48.7043C6.42508 48.2999 6.59764 47.8498 6.67921 47.3793H7.78921C7.71592 48.2017 7.37558 48.9774 6.82021 49.588C6.47994 49.9481 6.06607 50.2304 5.60684 50.4157C5.14761 50.601 4.65383 50.685 4.15921 50.6619C3.26858 50.6886 2.40131 50.3743 1.73421 49.7832C1.27503 49.3131 0.922126 48.7497 0.699394 48.1312C0.476661 47.5127 0.389294 46.8535 0.443205 46.1983C0.397856 45.1083 0.742113 44.0378 1.41421 43.1789C1.76423 42.7553 2.20794 42.419 2.71022 42.1967C3.2125 41.9744 3.75959 41.872 4.30821 41.8978C5.20044 41.8427 6.07846 42.1415 6.75221 42.7295L6.75121 42.7275Z" fill="black"/>
</svg>
