<svg width="81" height="42" viewBox="0 0 81 42" fill="none" xmlns="http://www.w3.org/2000/svg">
<path d="M40.816 33.5971C40.6019 33.2565 40.5017 32.8565 40.53 32.4552C40.4908 32.0042 40.6289 31.5558 40.915 31.2052C41.0479 31.088 41.2032 30.9991 41.3715 30.9438C41.5398 30.8886 41.7175 30.8682 41.894 30.8839C42.154 30.8861 42.4132 30.9136 42.668 30.966L42.626 31.4664C42.4024 31.434 42.1768 31.4183 41.951 31.4193C41.841 31.4068 41.7297 31.4181 41.6246 31.4527C41.5194 31.4872 41.423 31.5441 41.342 31.6195C41.1785 31.8691 41.1058 32.1673 41.136 32.4642C41.1189 32.7229 41.1674 32.9818 41.277 33.2168C41.3417 33.3146 41.4316 33.3931 41.5372 33.444C41.6428 33.4949 41.7602 33.5163 41.877 33.506C42.1309 33.4953 42.3819 33.4474 42.622 33.3639L42.776 33.8373C42.4742 33.9683 42.1489 34.0364 41.82 34.0374C41.6297 34.0517 41.4388 34.02 41.2633 33.945C41.0879 33.8699 40.9331 33.7536 40.812 33.6061L40.816 33.5971Z" fill="black"/>
<path d="M43.6515 31.4504V32.1639H44.7145V32.6744H43.6515V33.461H44.9355V33.9824H43.0605V30.9299H44.9355V31.4504H43.6515Z" fill="black"/>
<path d="M45.8508 32.7864V33.9814H45.2598V30.9499C45.5756 30.9139 45.893 30.8939 46.2108 30.8899C46.8308 30.8899 47.4108 31.04 47.4108 31.8316C47.4284 32.0234 47.3812 32.2155 47.2768 32.3771C47.1723 32.5388 47.0167 32.6607 46.8348 32.7234C47.0068 33.0837 47.2748 33.547 47.5348 33.9844H46.8548C46.6388 33.5841 46.4548 33.2027 46.2738 32.8054C46.1438 32.8054 45.9638 32.8054 45.8518 32.7924L45.8508 32.7864ZM45.8508 31.4283V32.3631C46.0646 32.3757 46.2791 32.3599 46.4888 32.316C46.5913 32.2929 46.6811 32.2317 46.7402 32.1447C46.7992 32.0577 46.823 31.9515 46.8068 31.8477C46.8068 31.4814 46.5488 31.4163 46.2568 31.4163C46.1188 31.4163 45.9758 31.4163 45.8478 31.4293L45.8508 31.4283Z" fill="black"/>
<path d="M48.318 33.9865V31.4504H47.5V30.929H49.724V31.4504H48.906V33.9824L48.318 33.9865Z" fill="black"/>
<path d="M50.5333 33.9865H49.9453V30.934H50.5363L50.5333 33.9865Z" fill="black"/>
<path d="M51.6105 31.4504V32.214H52.7105V32.7274H51.6105V33.9824H51.0195V30.9299H52.9385V31.4504H51.6105Z" fill="black"/>
<path d="M53.8098 33.9865H53.2188V30.934H53.8098V33.9865Z" fill="black"/>
<path d="M54.8879 31.4504V32.1639H55.9529V32.6744H54.8879V33.461H56.1749V33.9824H54.2969V30.9299H56.1749V31.4504H54.8879Z" fill="black"/>
<path d="M56.4941 30.976C56.8061 30.9264 57.1213 30.8989 57.4371 30.8939C58.4581 30.8939 58.8151 31.4043 58.8151 32.4572C58.8151 33.5101 58.4581 34.0255 57.4371 34.0255C57.1222 34.0262 56.8074 34.0105 56.4941 33.9785V30.976ZM57.3851 31.4133C57.285 31.4122 57.1848 31.4166 57.0851 31.4264V33.4921C57.2101 33.5031 57.2781 33.5031 57.3851 33.5031C58.0521 33.5031 58.2161 33.2138 58.2161 32.4552C58.2161 31.7396 58.0521 31.4133 57.3851 31.4133Z" fill="black"/>
<path d="M41.3866 11.6713H40.8105V7.77307H41.3866V11.6713Z" fill="black"/>
<path d="M42.6568 8.36751C42.5988 8.40815 42.552 8.46271 42.5205 8.52618C42.4891 8.58965 42.474 8.66001 42.4768 8.7308C42.4768 9.13112 42.7768 9.24421 43.4168 9.43837C44.0568 9.63252 44.4638 9.89874 44.4638 10.5833C44.4705 10.7471 44.439 10.9102 44.3716 11.0596C44.3043 11.209 44.203 11.3407 44.0758 11.444C43.7645 11.6555 43.391 11.7557 43.0158 11.7282C42.6464 11.7224 42.2783 11.6835 41.9158 11.6121L41.9888 11.1227C42.2902 11.1739 42.5951 11.202 42.9008 11.2068C43.1914 11.2349 43.4825 11.1574 43.7208 10.9886C43.7739 10.9367 43.8157 10.8743 43.8434 10.8054C43.8711 10.7365 43.8842 10.6625 43.8818 10.5883C43.8818 10.207 43.6478 10.0799 42.9818 9.88072C42.3158 9.68156 41.8928 9.40934 41.8928 8.74881C41.8896 8.59966 41.9216 8.45186 41.9862 8.31743C42.0509 8.183 42.1463 8.06574 42.2648 7.97519C42.5439 7.78256 42.8794 7.68886 43.2178 7.70898C43.5758 7.7159 43.9324 7.75645 44.2828 7.83007L44.2098 8.31446C43.915 8.26137 43.6163 8.23325 43.3168 8.2304C43.0867 8.21234 42.8563 8.26061 42.6528 8.36951L42.6568 8.36751Z" fill="black"/>
<path d="M48.0681 9.72064C48.0681 11.0387 47.5681 11.7283 46.4041 11.7283C45.2401 11.7283 44.7441 11.0387 44.7441 9.72064C44.7441 8.40257 45.2441 7.71301 46.4081 7.71301C47.5721 7.71301 48.0681 8.40157 48.0681 9.72064ZM47.4821 9.72064C47.4821 8.69181 47.1821 8.23143 46.4041 8.23143C45.6261 8.23143 45.3261 8.69181 45.3261 9.72064C45.3261 10.7495 45.6261 11.2099 46.4041 11.2099C47.1821 11.2099 47.4821 10.7495 47.4821 9.72064Z" fill="black"/>
<path d="M50.8284 7.71196C51.171 7.6926 51.5097 7.79309 51.7864 7.99619C51.9151 8.12436 52.0144 8.279 52.0774 8.4494C52.1404 8.6198 52.1657 8.80188 52.1514 8.98302V10.4332C52.1652 10.6157 52.1391 10.799 52.0749 10.9703C52.0106 11.1416 51.9098 11.2968 51.7794 11.4251C51.4795 11.6519 51.1072 11.7615 50.7324 11.7333C50.3743 11.7276 50.0176 11.687 49.6674 11.6122L49.7404 11.1278C50.0365 11.1897 50.3379 11.2233 50.6404 11.2279C50.909 11.2587 51.1792 11.1852 51.3954 11.0227C51.537 10.8456 51.6034 10.6199 51.5804 10.3942V10.0809C51.3205 10.243 51.0196 10.3271 50.7134 10.3231C50.5418 10.3344 50.3698 10.3101 50.208 10.2517C50.0463 10.1933 49.8983 10.1021 49.7734 9.98385C49.552 9.71421 49.4444 9.36882 49.4734 9.02105C49.4466 8.67903 49.5543 8.34007 49.7734 8.07626C49.9157 7.94774 50.0826 7.84932 50.2639 7.78689C50.4451 7.72446 50.6372 7.69832 50.8284 7.71196ZM51.5814 9.67559V9.01504C51.5814 8.4836 51.3814 8.22238 50.8214 8.22238C50.2614 8.22238 50.0614 8.4826 50.0614 9.01504C50.0406 9.23321 50.1027 9.45122 50.2354 9.62555C50.3146 9.69595 50.4077 9.74897 50.5086 9.78121C50.6095 9.81344 50.7161 9.82417 50.8214 9.81271C51.0808 9.81036 51.3379 9.7633 51.5814 9.67359V9.67559Z" fill="black"/>
<path d="M55.3583 9.72064C55.3583 11.0217 55.0953 11.7283 53.9703 11.7283C52.8453 11.7283 52.5703 11.0277 52.5703 9.72064C52.5703 8.41358 52.8413 7.71301 53.9703 7.71301C55.0993 7.71301 55.3583 8.42059 55.3583 9.72064ZM54.7853 9.72064C54.7853 8.79389 54.7433 8.21942 53.9703 8.21942C53.1973 8.21942 53.1503 8.79889 53.1503 9.72064C53.1503 10.6424 53.1973 11.2289 53.9703 11.2289C54.7433 11.2289 54.7853 10.6474 54.7853 9.72064Z" fill="black"/>
<path d="M58.5575 9.72064C58.5575 11.0217 58.2945 11.7283 57.1695 11.7283C56.0445 11.7283 55.7695 11.0277 55.7695 9.72064C55.7695 8.41358 56.0405 7.71301 57.1695 7.71301C58.2985 7.71301 58.5575 8.42059 58.5575 9.72064ZM57.9845 9.72064C57.9845 8.79389 57.9425 8.21942 57.1695 8.21942C56.3965 8.21942 56.3495 8.79889 56.3495 9.72064C56.3495 10.6424 56.3965 11.2289 57.1695 11.2289C57.9425 11.2289 57.9845 10.6474 57.9845 9.72064Z" fill="black"/>
<path d="M59.6208 7.77307H60.1458V11.6713H59.5658V8.35955L58.7658 8.6678L58.5918 8.27548L59.6208 7.77307Z" fill="black"/>
<path d="M41.1026 16.5472C40.8945 16.3836 40.7334 16.1678 40.6356 15.9217C40.5377 15.6756 40.5067 15.408 40.5456 15.1461C40.5456 14.1122 40.9386 13.5718 41.8526 13.5718C42.7666 13.5718 43.1526 14.1142 43.1526 15.1461C43.1824 15.5529 43.068 15.9572 42.8296 16.288C42.7147 16.404 42.5775 16.4953 42.4262 16.5564C42.2749 16.6175 42.1127 16.6471 41.9496 16.6433V16.6543C42.2541 16.7099 42.55 16.8055 42.8296 16.9385L42.6366 17.3389C42.0016 16.9626 41.4906 16.8254 41.0976 16.5462L41.1026 16.5472ZM41.0026 15.1461C41.0026 15.9467 41.2476 16.312 41.8516 16.312C42.4556 16.312 42.6956 15.9517 42.6956 15.1461C42.6956 14.3404 42.4556 13.9801 41.8516 13.9801C41.2476 13.9801 41.0036 14.3364 41.0036 15.1451L41.0026 15.1461Z" fill="black"/>
<path d="M44.7334 14.4795H45.1604V16.6683H44.8454L44.8114 16.4841C44.6242 16.6323 44.3939 16.7156 44.1554 16.7213C44.0544 16.7299 43.9527 16.7157 43.8579 16.6799C43.7631 16.6441 43.6774 16.5875 43.6073 16.5143C43.5371 16.4411 43.4842 16.3532 43.4524 16.2569C43.4205 16.1605 43.4106 16.0583 43.4234 15.9577V14.4795H43.8504V15.9167C43.8504 16.2169 43.9784 16.33 44.2304 16.33C44.4042 16.3266 44.5751 16.2842 44.7304 16.2059L44.7334 14.4795Z" fill="black"/>
<path d="M46.2722 15.3503C46.4232 15.3503 46.5952 15.3583 46.7462 15.3683V15.1841C46.7506 15.1349 46.745 15.0853 46.7297 15.0384C46.7144 14.9914 46.6897 14.9481 46.6572 14.9109C46.545 14.8327 46.4079 14.7988 46.2722 14.8158C46.0673 14.8184 45.8632 14.8422 45.6632 14.8869L45.5982 14.5266C45.8308 14.4626 46.071 14.4306 46.3122 14.4315C46.5426 14.4103 46.773 14.4709 46.9632 14.6027C47.0383 14.6735 47.0963 14.7605 47.1328 14.8571C47.1694 14.9536 47.1835 15.0573 47.1742 15.1601V16.6683H46.8592L46.8122 16.4842C46.6369 16.6367 46.4115 16.719 46.1792 16.7153C46.086 16.7223 45.9923 16.7095 45.9043 16.6778C45.8163 16.6462 45.736 16.5964 45.6684 16.5316C45.6009 16.4669 45.5478 16.3887 45.5124 16.3021C45.4771 16.2154 45.4603 16.1223 45.4632 16.0288C45.4611 15.932 45.4806 15.836 45.5202 15.7477C45.5598 15.6594 45.6186 15.5811 45.6922 15.5184C45.8614 15.3985 46.0663 15.3399 46.2732 15.3523L46.2722 15.3503ZM46.7462 15.6895C46.6372 15.6815 46.4912 15.6765 46.3612 15.6765C46.0482 15.6765 45.8972 15.7896 45.8972 16.0318C45.895 16.0799 45.9032 16.1278 45.9214 16.1724C45.9396 16.2169 45.9673 16.257 46.0025 16.2898C46.0377 16.3225 46.0796 16.3472 46.1253 16.3621C46.171 16.377 46.2195 16.3818 46.2672 16.3761C46.44 16.3759 46.608 16.3197 46.7462 16.2159V15.6895Z" fill="black"/>
<path d="M48.0071 16.6713H47.5801V13.6188H48.0071V16.6713Z" fill="black"/>
<path d="M48.8586 16.6713H48.4316V14.4814H48.8586V16.6713Z" fill="black"/>
<path d="M48.8842 13.847C48.8837 13.9103 48.8581 13.9708 48.8132 14.0152C48.7682 14.0597 48.7074 14.0845 48.6442 14.0842C48.6132 14.0844 48.5825 14.0783 48.5538 14.0664C48.5252 14.0545 48.4992 14.037 48.4774 14.0149C48.4556 13.9928 48.4384 13.9665 48.4269 13.9377C48.4153 13.9089 48.4097 13.878 48.4102 13.847C48.4095 13.8157 48.4151 13.7845 48.4265 13.7554C48.4379 13.7262 48.455 13.6996 48.4768 13.677C48.4985 13.6545 48.5245 13.6365 48.5533 13.6241C48.582 13.6117 48.6129 13.6051 48.6442 13.6047C48.7081 13.6053 48.7691 13.631 48.814 13.6764C48.859 13.7218 48.8842 13.7831 48.8842 13.847Z" fill="black"/>
<path d="M49.3642 14.5025L49.3982 13.858H49.7782V14.4845H50.3782V14.8368H49.7782V16.0478C49.7782 16.2079 49.8073 16.321 49.9712 16.321C50.0811 16.3177 50.1888 16.2897 50.2862 16.2389L50.4272 16.5762C50.2658 16.6589 50.0876 16.7038 49.9062 16.7073C49.5542 16.7073 49.3543 16.5071 49.3543 16.1068V14.8368H49.0312V14.5186L49.3702 14.5005L49.3642 14.5025Z" fill="black"/>
<path d="M51.9203 14.4815H52.3553C52.1124 15.517 51.8055 16.5365 51.4363 17.5339H51.0193C51.1473 17.1967 51.2483 16.8974 51.3193 16.6702H51.0903C50.8693 16.0627 50.6453 15.2691 50.4473 14.4805H50.8923C51.0383 15.125 51.1923 15.7415 51.3843 16.328H51.4183C51.5923 15.7985 51.7753 15.109 51.9183 14.4805L51.9203 14.4815Z" fill="black"/>
<path d="M43.0715 19.2113L42.3865 21.1539H41.9045L41.2195 19.2113H41.1965C41.1575 20.012 41.1205 20.8536 41.0965 21.6693H40.6445C40.6785 20.6535 40.7275 19.6347 40.7855 18.6168H41.4415L42.1415 20.6405H42.1645L42.8645 18.6168H43.5205C43.5775 19.6377 43.6275 20.6565 43.6615 21.6693H43.2055C43.1825 20.8556 43.1425 20.017 43.1055 19.2113H43.0715Z" fill="black"/>
<path d="M44.739 20.3503C44.89 20.3503 45.062 20.3583 45.213 20.3683V20.1842C45.2174 20.135 45.2118 20.0854 45.1965 20.0384C45.1812 19.9914 45.1565 19.9481 45.124 19.9109C45.0118 19.8327 44.8747 19.7988 44.739 19.8158C44.5341 19.8184 44.33 19.8423 44.13 19.8869L44.065 19.5266C44.2976 19.4626 44.5378 19.4306 44.779 19.4315C45.0094 19.4103 45.2398 19.4709 45.43 19.6027C45.5052 19.6736 45.5633 19.7608 45.5999 19.8575C45.6364 19.9543 45.6505 20.0581 45.641 20.1611V21.6694H45.326L45.279 21.4852C45.1037 21.6378 44.8783 21.7201 44.646 21.7164C44.5528 21.7234 44.4591 21.7106 44.3711 21.6789C44.2831 21.6473 44.2028 21.5975 44.1352 21.5327C44.0677 21.468 44.0146 21.3898 43.9792 21.3031C43.9439 21.2165 43.9271 21.1234 43.93 21.0299C43.9279 20.9331 43.9474 20.8371 43.987 20.7488C44.0266 20.6605 44.0854 20.5821 44.159 20.5194C44.3282 20.3996 44.5331 20.341 44.74 20.3533L44.739 20.3503ZM45.213 20.6896C45.104 20.6816 44.958 20.6766 44.828 20.6766C44.515 20.6766 44.364 20.7897 44.364 21.0319C44.3618 21.0799 44.37 21.1279 44.3882 21.1725C44.4064 21.217 44.4341 21.2571 44.4693 21.2898C44.5045 21.3226 44.5464 21.3473 44.5921 21.3622C44.6379 21.3771 44.6863 21.3819 44.734 21.3761C44.9068 21.3759 45.0748 21.3198 45.213 21.216V20.6896Z" fill="black"/>
<path d="M46.3969 19.6817C46.5823 19.529 46.813 19.4421 47.0529 19.4345C47.1542 19.4256 47.2563 19.4394 47.3516 19.475C47.4468 19.5106 47.533 19.567 47.6036 19.6402C47.6743 19.7134 47.7277 19.8015 47.7599 19.8981C47.7922 19.9946 47.8024 20.0971 47.7899 20.1982V21.6724H47.3629V20.2352C47.3629 19.954 47.2379 19.8219 46.9979 19.8219C46.8144 19.8267 46.6345 19.8736 46.4719 19.959V21.6694H46.0449V19.4796H46.3599L46.3959 19.6797L46.3969 19.6817Z" fill="black"/>
<path d="M48.8641 20.3503C49.0151 20.3503 49.1871 20.3583 49.3381 20.3683V20.1842C49.3425 20.135 49.3369 20.0854 49.3216 20.0384C49.3063 19.9914 49.2817 19.9481 49.2491 19.9109C49.137 19.8327 48.9998 19.7988 48.8641 19.8158C48.6592 19.8184 48.4552 19.8423 48.2552 19.8869L48.1902 19.5266C48.4227 19.4626 48.6629 19.4306 48.9041 19.4315C49.1345 19.4103 49.365 19.4709 49.5551 19.6027C49.6304 19.6736 49.6884 19.7608 49.725 19.8575C49.7616 19.9543 49.7756 20.0581 49.7661 20.1611V21.6694H49.4451L49.3981 21.4852C49.2228 21.6378 48.9974 21.7201 48.7651 21.7164C48.6719 21.7234 48.5782 21.7106 48.4903 21.6789C48.4023 21.6473 48.3219 21.5975 48.2544 21.5327C48.1869 21.468 48.1337 21.3898 48.0984 21.3031C48.063 21.2165 48.0462 21.1234 48.0492 21.0299C48.047 20.9331 48.0665 20.8371 48.1061 20.7488C48.1457 20.6605 48.2045 20.5821 48.2782 20.5194C48.4473 20.3996 48.6522 20.341 48.8591 20.3533L48.8641 20.3503ZM49.3381 20.6896C49.2291 20.6816 49.0831 20.6766 48.9531 20.6766C48.6401 20.6766 48.4891 20.7897 48.4891 21.0319C48.4869 21.0799 48.4952 21.1279 48.5134 21.1725C48.5315 21.217 48.5592 21.2571 48.5944 21.2898C48.6296 21.3226 48.6716 21.3473 48.7173 21.3622C48.763 21.3771 48.8114 21.3819 48.8591 21.3761C49.0319 21.3759 49.1999 21.3198 49.3381 21.216V20.6896Z" fill="black"/>
<path d="M51.3443 22.0907C51.4041 22.0134 51.4336 21.917 51.4273 21.8195V21.5422C51.2765 21.6501 51.0966 21.7098 50.9113 21.7134C50.2963 21.7134 50.0723 21.3131 50.0723 20.5895C50.0723 19.7709 50.3273 19.4286 50.9263 19.4286C51.2422 19.4321 51.5558 19.4838 51.8563 19.5817V21.8665C51.8614 21.9626 51.8462 22.0587 51.8117 22.1485C51.7773 22.2383 51.7243 22.3199 51.6563 22.3879C51.4645 22.5303 51.2272 22.5976 50.9893 22.5771C50.7541 22.5723 50.5199 22.5469 50.2893 22.501L50.3463 22.1327C50.5383 22.1661 50.7325 22.1855 50.9273 22.1908C51.0719 22.2084 51.2179 22.1729 51.3383 22.0907H51.3443ZM51.4273 21.259V19.8579C51.2761 19.8309 51.1228 19.8168 50.9693 19.8159C50.5993 19.8159 50.5053 20.0711 50.5053 20.5975C50.5053 21.0899 50.6053 21.3611 50.9633 21.3611C51.124 21.3624 51.2828 21.3264 51.4273 21.256V21.259Z" fill="black"/>
<path d="M53.0258 19.4346C53.5518 19.4346 53.8568 19.8139 53.8568 20.4003C53.8557 20.5116 53.8443 20.6225 53.8228 20.7316H52.5228C52.5203 20.8938 52.5716 21.0522 52.6688 21.182C52.7259 21.2365 52.794 21.2783 52.8684 21.3047C52.9429 21.3311 53.022 21.3414 53.1007 21.3351C53.3151 21.3312 53.5266 21.2845 53.7228 21.198L53.8228 21.5422C53.5882 21.654 53.3325 21.7141 53.0728 21.7184C52.4348 21.7184 52.0938 21.3181 52.0938 20.5895C52.0938 19.989 52.3648 19.4346 53.0258 19.4346ZM53.0098 19.8029C52.6968 19.8029 52.5458 20.0871 52.5278 20.3893H53.4528C53.4528 20.0631 53.3588 19.8029 53.0128 19.8029H53.0098Z" fill="black"/>
<path d="M55.1445 19.4326C55.2547 19.4251 55.3648 19.447 55.4637 19.4961C55.5626 19.5451 55.6468 19.6196 55.7075 19.7118C55.8931 19.5427 56.1319 19.444 56.3825 19.4326C56.8665 19.4326 57.1195 19.7038 57.1195 20.2332V21.6654H56.6925V20.2192C56.6925 19.946 56.5625 19.8189 56.3225 19.8189C56.1455 19.8261 55.9733 19.8788 55.8225 19.972C55.8365 20.0618 55.8442 20.1524 55.8455 20.2432V21.6724H55.4185V20.2222C55.4185 19.949 55.2935 19.8219 55.0535 19.8219C54.8844 19.8241 54.7185 19.8692 54.5715 19.953V21.6724H54.1445V19.4826H54.4595L54.4955 19.6828C54.679 19.5302 54.9081 19.4432 55.1465 19.4356L55.1445 19.4326Z" fill="black"/>
<path d="M58.2758 19.4346C58.8018 19.4346 59.1068 19.8139 59.1068 20.4003C59.1057 20.5116 59.0943 20.6225 59.0728 20.7316H57.7728C57.7703 20.8938 57.8216 21.0522 57.9188 21.182C57.9759 21.2365 58.044 21.2783 58.1184 21.3047C58.1929 21.3311 58.272 21.3414 58.3507 21.3351C58.5651 21.3312 58.7766 21.2845 58.9728 21.198L59.0728 21.5422C58.8382 21.654 58.5825 21.7141 58.3228 21.7184C57.6848 21.7184 57.3438 21.3181 57.3438 20.5895C57.3438 19.989 57.6148 19.4346 58.2758 19.4346ZM58.7008 20.3923C58.7008 20.0661 58.6068 19.8059 58.2608 19.8059C57.9478 19.8059 57.7968 20.0901 57.7788 20.3923H58.7038H58.7008Z" fill="black"/>
<path d="M61.1337 21.6743H60.7067V20.2412C60.7067 19.9599 60.5817 19.8278 60.3417 19.8278C60.1582 19.8327 59.9782 19.8796 59.8157 19.9649V21.6723H59.3887V19.4826H59.7037L59.7397 19.6827C59.925 19.53 60.1557 19.4431 60.3957 19.4355C60.497 19.4265 60.599 19.4404 60.6943 19.4759C60.7896 19.5115 60.8757 19.568 60.9463 19.6412C61.017 19.7144 61.0704 19.8025 61.1026 19.8991C61.1349 19.9956 61.1451 20.0981 61.1327 20.1991L61.1337 21.6743Z" fill="black"/>
<path d="M61.6326 18.858H62.0126V19.4845H62.6126V19.8408H62.0126V21.0488C62.0126 21.209 62.0416 21.3221 62.2056 21.3221C62.3155 21.3188 62.4231 21.2908 62.5206 21.24L62.6616 21.5773C62.5002 21.66 62.322 21.7049 62.1406 21.7084C61.7886 21.7084 61.5886 21.5082 61.5886 21.1079V19.8408H61.2656V19.5226L61.6046 19.5046L61.6386 18.86L61.6326 18.858Z" fill="black"/>
<path d="M41.3768 26.3121C41.6047 26.3343 41.833 26.2735 42.0198 26.141C42.0619 26.1007 42.0951 26.052 42.1171 25.998C42.1392 25.944 42.1496 25.886 42.1478 25.8277C42.1478 25.5275 41.9658 25.4274 41.4478 25.2723C40.9298 25.1172 40.5938 24.901 40.5938 24.3856C40.5924 24.2696 40.6181 24.155 40.6688 24.0507C40.7195 23.9465 40.7938 23.8555 40.8858 23.7851C41.1036 23.6337 41.3661 23.5603 41.6308 23.5769C41.9119 23.5816 42.1918 23.6135 42.4668 23.672L42.4098 24.0513C42.1787 24.01 41.9446 23.9879 41.7098 23.9852C41.5294 23.9709 41.3486 24.0084 41.1888 24.0933C41.1435 24.1252 41.1068 24.1679 41.0822 24.2175C41.0576 24.2671 41.0458 24.3222 41.0478 24.3775C41.0478 24.6908 41.2878 24.7779 41.7848 24.933C42.2818 25.0881 42.6048 25.2913 42.6048 25.8277C42.6105 25.9556 42.5864 26.0831 42.5343 26.2C42.4822 26.3169 42.4037 26.4201 42.3048 26.5013C42.0608 26.6673 41.7681 26.7463 41.4738 26.7255C41.1861 26.7212 40.8993 26.6914 40.6168 26.6364L40.6738 26.2521C40.9097 26.2927 41.1485 26.3147 41.3878 26.3181L41.3768 26.3121Z" fill="black"/>
<path d="M43.3793 26.6725C43.1583 26.065 42.9343 25.2713 42.7363 24.4827H43.1813C43.3273 25.1272 43.4813 25.7437 43.6733 26.3302H43.7073C43.8813 25.8007 44.0643 25.1112 44.2073 24.4827H44.6423C44.3995 25.5182 44.0925 26.5377 43.7233 27.5352H43.3063C43.4343 27.1979 43.5353 26.8986 43.6063 26.6715L43.3793 26.6725Z" fill="black"/>
<path d="M46.129 26.5594C45.9317 26.6842 45.6997 26.7424 45.467 26.7256C45.2242 26.726 44.9822 26.6978 44.746 26.6415L44.788 26.2752C44.9986 26.3137 45.2119 26.3358 45.426 26.3412C45.5643 26.352 45.703 26.3235 45.826 26.2592C45.8587 26.2388 45.8853 26.2098 45.903 26.1754C45.9206 26.1411 45.9285 26.1025 45.926 26.064C45.926 25.8879 45.793 25.8328 45.4 25.7267C45.051 25.6346 44.733 25.4925 44.733 25.0762C44.7284 24.9731 44.7522 24.8707 44.8018 24.7802C44.8513 24.6896 44.9247 24.6144 45.014 24.5628C45.194 24.4673 45.3965 24.4226 45.6 24.4336C45.8083 24.4356 46.0159 24.4577 46.22 24.4997L46.184 24.86C46.0072 24.8333 45.8287 24.8193 45.65 24.818C45.5143 24.8038 45.3775 24.8303 45.257 24.894C45.2296 24.9123 45.2072 24.937 45.1917 24.966C45.1762 24.9949 45.168 25.0273 45.168 25.0602C45.168 25.2363 45.34 25.2733 45.768 25.4025C46.148 25.5155 46.359 25.6867 46.359 26.037C46.3638 26.1359 46.3445 26.2346 46.3027 26.3244C46.2609 26.4142 46.1978 26.4925 46.119 26.5524L46.129 26.5594Z" fill="black"/>
<path d="M47.2187 26.7114C46.8667 26.7114 46.6667 26.5113 46.6667 26.1109V24.8449H46.3457V24.5267L46.6847 24.5087L46.7187 23.8641H47.0987V24.4906H47.6987V24.8449H47.0987V26.0459C47.0987 26.206 47.1277 26.3191 47.2917 26.3191C47.4015 26.3159 47.5092 26.2878 47.6067 26.237L47.7477 26.5743C47.5862 26.6571 47.4081 26.7019 47.2267 26.7054L47.2187 26.7114Z" fill="black"/>
<path d="M49.5337 25.7327H48.2337C48.2312 25.8949 48.2826 26.0532 48.3797 26.1831C48.4369 26.2376 48.5049 26.2794 48.5793 26.3058C48.6538 26.3322 48.733 26.3425 48.8117 26.3362C49.0261 26.3323 49.2375 26.2856 49.4337 26.1991L49.5337 26.5433C49.2992 26.6551 49.0434 26.7152 48.7837 26.7195C48.1457 26.7195 47.8047 26.3192 47.8047 25.5906C47.8047 24.9901 48.0757 24.4357 48.7367 24.4357C49.2627 24.4357 49.5677 24.815 49.5677 25.4014C49.5666 25.5127 49.5552 25.6236 49.5337 25.7327ZM48.2397 25.3934H49.1647C49.1647 25.0672 49.0707 24.807 48.7247 24.807C48.4117 24.807 48.2607 25.0912 48.2427 25.3934H48.2397Z" fill="black"/>
<path d="M51.1236 25.2192C51.1236 24.946 50.9986 24.8189 50.7586 24.8189C50.5894 24.8211 50.4236 24.8662 50.2766 24.95V26.6664H49.8496V24.4796H50.1646L50.2006 24.6798C50.3841 24.5272 50.6132 24.4402 50.8516 24.4326C50.9617 24.4251 51.0719 24.447 51.1708 24.4961C51.2697 24.5451 51.3538 24.6196 51.4146 24.7118C51.6002 24.5427 51.8389 24.444 52.0896 24.4326C52.5736 24.4326 52.8266 24.7008 52.8266 25.2332V26.6654H52.3996V25.2192C52.3996 24.946 52.2696 24.8189 52.0296 24.8189C51.8526 24.8261 51.6804 24.8788 51.5296 24.972C51.5436 25.0618 51.5513 25.1524 51.5526 25.2432V26.6694H51.1256L51.1236 25.2192Z" fill="black"/>
<path d="M54.4786 26.5594C54.2813 26.6842 54.0493 26.7424 53.8166 26.7256C53.5738 26.726 53.3318 26.6978 53.0956 26.6415L53.1376 26.2752C53.3482 26.3137 53.5615 26.3358 53.7756 26.3412C53.914 26.352 54.0526 26.3235 54.1756 26.2592C54.2084 26.2388 54.235 26.2098 54.2526 26.1754C54.2702 26.1411 54.2781 26.1025 54.2756 26.064C54.2756 25.8879 54.1426 25.8328 53.7496 25.7267C53.4006 25.6346 53.0826 25.4925 53.0826 25.0762C53.078 24.9731 53.1018 24.8707 53.1514 24.7802C53.2009 24.6896 53.2743 24.6144 53.3636 24.5628C53.5436 24.4673 53.7462 24.4226 53.9496 24.4336C54.1579 24.4356 54.3655 24.4577 54.5696 24.4997L54.5336 24.86C54.3568 24.8333 54.1784 24.8193 53.9996 24.818C53.8639 24.8038 53.7272 24.8303 53.6066 24.894C53.5793 24.9123 53.5568 24.937 53.5413 24.966C53.5258 24.9949 53.5176 25.0273 53.5176 25.0602C53.5176 25.2363 53.6896 25.2733 54.1176 25.4025C54.4976 25.5155 54.7086 25.6867 54.7086 26.037C54.7135 26.1359 54.6941 26.2346 54.6523 26.3244C54.6105 26.4142 54.5474 26.4925 54.4686 26.5524L54.4786 26.5594Z" fill="black"/>
<path d="M80.4454 22.5011C80.4638 27.4226 78.5307 32.1504 75.0703 35.6472C71.6099 39.144 66.9048 41.1242 61.9874 41.1533H18.9004C20.8556 41.1538 22.7981 40.8392 24.6534 40.2216H61.9904C66.6857 40.2216 71.1886 38.3549 74.5087 35.0321C77.8287 31.7093 79.6939 27.2027 79.6939 22.5036C79.6939 17.8045 77.8287 13.2979 74.5087 9.97511C71.1886 6.65235 66.6857 4.78564 61.9904 4.78564H28.1304C28.0069 4.78564 27.8885 4.73656 27.8012 4.64919C27.7139 4.56182 27.6649 4.44332 27.6649 4.31976C27.6649 4.1962 27.7139 4.0777 27.8012 3.99033C27.8885 3.90297 28.0069 3.85388 28.1304 3.85388H61.9874C66.9043 3.88195 71.6092 5.86112 75.0697 9.35707C78.5302 12.853 80.4635 17.5801 80.4454 22.5011Z" fill="black"/>
<path d="M18.9553 14.9368C19.4806 14.1004 20.2093 13.411 21.0732 12.9332C21.9372 12.4553 22.9082 12.2046 23.8953 12.2046C25.4983 12.2302 27.0258 12.8909 28.1429 14.0418C29.26 15.1928 29.8754 16.7402 29.8543 18.3446V18.9681C29.8591 19.6533 29.6615 20.3246 29.2863 20.8977C28.7963 21.8114 18.9073 39.0625 18.9073 39.0625L8.48528 20.8977C8.12143 20.3212 7.93663 19.6497 7.95428 18.9681V18.3446C7.94496 16.7272 8.57736 15.1721 9.71261 14.021C10.8479 12.8698 12.3932 12.2165 14.0093 12.2046C14.9957 12.2053 15.9659 12.4563 16.8291 12.9341C17.6923 13.4119 18.4204 14.101 18.9453 14.9368H18.9553ZM14.0123 14.3073C13.0036 14.3217 12.0381 14.7192 11.3113 15.4194C10.5846 16.1196 10.151 17.0701 10.0983 18.0784H17.9273C17.8746 17.0696 17.4405 16.1187 16.7131 15.4184C15.9858 14.7181 15.0195 14.3209 14.0103 14.3073H14.0123ZM19.8253 33.7432C19.5224 33.801 19.2147 33.8301 18.9063 33.8302C18.5973 33.8255 18.2891 33.7973 17.9843 33.7462L18.9063 35.4125L19.8253 33.7432ZM18.7253 31.6645C19.0658 31.6997 19.41 31.6628 19.7354 31.5563C20.0608 31.4498 20.3602 31.276 20.6141 31.0462C20.868 30.8164 21.0709 30.5358 21.2094 30.2224C21.348 29.9091 21.4191 29.5701 21.4183 29.2275C21.4183 27.6612 20.6003 27.0487 19.1553 26.0959C17.9393 25.2953 16.4313 24.2945 16.3973 22.2348V22.1637C16.408 21.5064 16.5702 20.8605 16.8713 20.2762H10.5213L15.6573 29.5407L16.0843 30.2883C16.3814 30.7138 16.7769 31.061 17.2371 31.3003C17.6974 31.5396 18.2086 31.6638 18.7273 31.6625L18.7253 31.6645ZM23.2833 27.4801L27.2503 20.2742H20.4033C19.8983 20.2855 19.4181 20.4953 19.0667 20.8583C18.7152 21.2213 18.5207 21.7083 18.5253 22.2138C18.5483 22.9924 19.0643 23.4147 20.2963 24.2244C21.6398 24.9253 22.695 26.0756 23.2783 27.475L23.2833 27.4801ZM23.8983 14.3073C22.8891 14.3209 21.9228 14.7181 21.1954 15.4184C20.468 16.1187 20.034 17.0696 19.9813 18.0784H27.8153C27.7621 17.0698 27.3279 16.1191 26.6006 15.419C25.8733 14.7188 24.9073 14.3214 23.8983 14.3073Z" fill="black"/>
<path d="M23.6455 1.52594C23.6396 1.39541 23.6602 1.26502 23.706 1.14267C23.7518 1.02031 23.8219 0.908517 23.9121 0.814043C24.0023 0.719569 24.1107 0.644373 24.2307 0.592999C24.3508 0.541624 24.48 0.515137 24.6105 0.515137C24.7411 0.515137 24.8703 0.541624 24.9903 0.592999C25.1104 0.644373 25.2188 0.719569 25.309 0.814043C25.3991 0.908517 25.4693 1.02031 25.5151 1.14267C25.5609 1.26502 25.5815 1.39541 25.5755 1.52594C25.5815 1.65647 25.5609 1.78686 25.5151 1.90921C25.4693 2.03157 25.3991 2.14336 25.309 2.23784C25.2188 2.33231 25.1104 2.40751 24.9903 2.45888C24.8703 2.51026 24.7411 2.53674 24.6105 2.53674C24.48 2.53674 24.3508 2.51026 24.2307 2.45888C24.1107 2.40751 24.0023 2.33231 23.9121 2.23784C23.8219 2.14336 23.7518 2.03157 23.706 1.90921C23.6602 1.78686 23.6396 1.65647 23.6455 1.52594Z" fill="black"/>
<path d="M13.0143 9.85473L12.7743 10.4072H11.9043V0.124756H13.3833V3.92287C13.9091 3.57578 14.5244 3.38938 15.1543 3.38643C17.0813 3.38643 17.7953 4.72653 17.7953 6.97637C17.7953 9.22621 17.0813 10.5693 15.1543 10.5693C14.3796 10.5828 13.6235 10.331 13.0113 9.85573L13.0143 9.85473ZM13.3813 5.08282V8.86792C13.8115 9.12921 14.305 9.26765 14.8083 9.26825C16.1083 9.26825 16.3033 8.2364 16.3033 6.97637C16.3033 5.71634 16.1033 4.68949 14.8083 4.68949C14.3048 4.68812 13.8108 4.82671 13.3813 5.08982V5.08282Z" fill="black"/>
<path d="M25.3456 8.70784C25.3456 9.08915 25.4756 9.22926 25.9006 9.22926V10.4733C25.8045 10.4923 25.7067 10.502 25.6086 10.5023C25.3685 10.5363 25.1237 10.5134 24.894 10.4353C24.6643 10.3572 24.4561 10.2262 24.2863 10.0529C24.1165 9.87952 23.9898 9.66865 23.9164 9.43728C23.8429 9.2059 23.8249 8.96049 23.8636 8.72085V3.55164H25.3456V8.70483V8.70784Z" fill="black"/>
<path d="M20.7135 7.56789C18.7185 7.38674 18.2285 6.74422 18.2285 5.56626C18.2285 4.38829 18.9685 3.38748 20.9115 3.38748C21.6114 3.3543 22.3103 3.47099 22.9615 3.72976V5.05984C22.3193 4.80106 21.6328 4.67051 20.9405 4.67553C20.1595 4.67553 19.6695 4.90972 19.6695 5.52522C19.6695 6.00461 19.9095 6.21178 20.7695 6.29385C22.7515 6.46999 23.2695 7.0885 23.2695 8.36254C23.2695 9.5415 22.5695 10.5643 20.4545 10.5643C19.7105 10.5759 18.9706 10.451 18.2715 10.196V8.88596C18.8995 9.13122 19.5665 9.2614 20.2405 9.27028C21.2975 9.27028 21.8135 9.02007 21.8135 8.41758C21.8135 7.90917 21.6025 7.64896 20.7135 7.56989V7.56789Z" fill="black"/>
<path d="M37.3571 22.5091C37.3622 26.4214 36.1389 30.2364 33.86 33.4151C31.5811 36.5937 28.3619 38.9754 24.6571 40.2236C22.8004 40.8414 20.8567 41.157 18.9001 41.1583C14.8426 41.1113 10.9108 39.7427 7.69978 37.2598C4.48877 34.7769 2.17327 31.3147 1.10371 27.3973C0.0341451 23.4798 0.268731 19.3202 1.77197 15.5481C3.2752 11.776 5.96526 8.59657 9.43505 6.49104C9.48703 6.4596 9.54472 6.43879 9.60478 6.42983C9.66484 6.42086 9.72609 6.42392 9.78497 6.43881C9.84384 6.45371 9.89918 6.48014 9.94777 6.5166C9.99637 6.55305 10.0373 6.59879 10.0681 6.65117C10.1308 6.7573 10.1493 6.88388 10.1196 7.00355C10.0898 7.12322 10.0142 7.22637 9.90905 7.29069C6.6143 9.26032 4.05618 12.2573 2.62711 15.822C1.19803 19.3867 0.976923 23.3222 1.9977 27.0247C3.01848 30.7273 5.22478 33.9924 8.27813 36.3193C11.3315 38.6461 15.0633 39.9062 18.9011 39.9062C22.7388 39.9062 26.4706 38.6461 29.524 36.3193C32.5773 33.9924 34.7836 30.7273 35.8044 27.0247C36.8252 23.3222 36.6041 19.3867 35.175 15.822C33.7459 12.2573 31.1878 9.26032 27.8931 7.29069C27.7879 7.22637 27.7123 7.12322 27.6826 7.00355C27.6528 6.88388 27.6713 6.7573 27.7341 6.65117C27.7649 6.59879 27.8057 6.55305 27.8543 6.5166C27.9029 6.48014 27.9583 6.45371 28.0171 6.43881C28.076 6.42392 28.1373 6.42086 28.1973 6.42983C28.2574 6.43879 28.3151 6.4596 28.3671 6.49104C31.1259 8.14911 33.4057 10.4976 34.982 13.3054C36.5584 16.1132 37.3769 19.2835 37.3571 22.5041V22.5091Z" fill="black"/>
</svg>
