<svg class="filter" width="21" height="14" viewBox="0 0 21 14" fill="none" xmlns="http://www.w3.org/2000/svg">
    <path fill-rule="evenodd" clip-rule="evenodd" d="M5.455 8.05471C6.65364 8.05471 7.6836 8.90544 7.91 10.0825H21V11.0825H7.95C7.75555 12.3126 6.68544 13.212 5.44026 13.1918C4.19509 13.1717 3.15459 12.2382 3 11.0025H0V10.0025L3 10.0825C3.2264 8.90544 4.25636 8.05471 5.455 8.05471ZM5.46 9.08251C4.63157 9.08251 3.96 9.75408 3.96 10.5825C3.96521 10.9839 4.13107 11.3664 4.42049 11.6446C4.70991 11.9227 5.09874 12.0732 5.5 12.0625L5.46 12.0825C6.28843 12.0825 6.96 11.4109 6.96 10.5825C6.96 9.75408 6.28843 9.08251 5.46 9.08251ZM15.45 0C16.6389 0 17.6634 0.837344 17.9 2.00251H21V3.00251H17.95C17.7159 4.16881 16.6896 5.00666 15.5 5.00251C14.2917 5.03093 13.2375 4.18756 13 3.00251H0V2.00251H13C13.2366 0.837344 14.2611 0 15.45 0ZM15.5 1.00251C14.6716 1.00251 14 1.67408 14 2.50251C14 3.33093 14.6716 4.00251 15.5 4.00251C16.3284 4.00251 17 3.33093 17 2.50251C17 1.67408 16.3284 1.00251 15.5 1.00251Z" fill="#212121"/>
</svg>
