<svg width="986" height="316" viewBox="0 0 986 316" fill="none" xmlns="http://www.w3.org/2000/svg">
<path d="M19.3138 126.873C16.9806 129.374 13.8086 128.12 9.79777 123.112C3.1531 114.251 0.131548 105.967 0.733114 98.2582C1.49931 89.5146 6.17987 80.3009 14.7748 70.6172C19.859 64.5581 25.9894 58.7903 33.166 53.3138C40.5738 47.5618 48.5435 42.3987 57.075 37.8244C65.5844 32.9968 74.4025 28.7802 83.5292 25.1746C92.887 21.2936 102.185 18.1834 111.422 15.8441C114.417 15.0717 117.803 14.3927 121.579 13.8071C125.356 13.2215 130.019 12.5583 135.568 11.8176C139.367 11.4852 142.28 11.2304 144.306 11.0532C146.585 10.8538 148.231 10.7097 149.244 10.6211C150.235 10.2792 150.846 9.97059 151.077 9.69518C151.561 9.3976 151.908 8.98448 152.117 8.45582C153.504 6.80335 154.957 5.91064 156.476 5.7777C158.249 5.6226 159.477 6.53591 160.161 8.51764C160.525 9.76175 161.731 10.4218 163.779 10.4978C184.515 11.2357 200.433 13.7984 211.535 18.1862C222.868 22.2986 230.569 28.6427 234.637 37.2186C235.915 40.169 236.799 44.43 237.286 50.0016C237.751 55.32 237.539 60.1872 236.65 64.6033C235.969 68.4908 234.826 72.929 233.221 77.9181C231.869 82.8851 230.242 87.6209 228.339 92.1257C225.183 99.8024 220.932 108.085 215.585 116.975C210.215 125.61 204.213 134.302 197.578 143.048C190.943 151.795 183.663 160.471 175.739 169.075C168.046 177.404 160.172 185.11 152.115 192.195C143.134 200.382 133.949 207.693 124.559 214.128C115.192 220.817 106.242 226.449 97.7107 231.023C89.1791 235.598 81.181 238.977 73.7163 241.161C66.2738 243.599 59.8601 244.67 54.4753 244.376C48.8372 244.103 44.3878 242.834 41.1272 240.567C34.6503 236.54 30.9417 230.613 30.0016 222.784C29.0836 215.208 31.056 207.125 35.9185 198.533C38.1187 194.513 40.5833 190.597 43.3121 186.785C46.2942 182.952 49.8984 178.936 54.1247 174.739C58.3287 170.288 63.2704 165.517 68.9497 160.427C74.8601 155.061 81.8547 148.962 89.9336 142.131C90.6712 141.811 91.2601 141.249 91.7001 140.445C92.3712 139.366 93.1358 137.895 93.9937 136.034C95.1049 134.15 96.4139 131.611 97.9208 128.417C99.6588 124.948 101.815 120.421 104.388 114.836C111.856 98.1059 118.478 83.3634 124.252 70.6089C130.026 57.8545 135.025 46.4438 139.248 36.377C141.382 31.5968 143.18 27.3564 144.643 23.6558C146.105 19.9551 147.068 17.8294 147.53 17.2785C148.201 16.199 148.492 15.1528 148.404 14.1398C148.381 13.8865 147.231 13.8596 144.951 14.059C142.672 14.2584 139.897 14.6288 136.627 15.1701C133.588 15.4359 130.318 15.9772 126.817 16.7939C123.547 17.3352 120.783 17.8322 118.526 18.2849C108.76 20.4153 99.0711 23.4321 89.4601 27.3352C80.0801 30.963 71.0088 35.2018 62.2461 40.0515C53.7146 44.6258 45.7449 49.7889 38.3372 55.5409C31.1826 61.2707 25.0633 67.1651 19.9792 73.2242C8.65536 86.7194 5.47372 98.4814 10.4342 108.51C11.0515 109.732 11.8287 111.323 12.7657 113.283C13.9338 114.967 15.0909 116.524 16.2368 117.955C18.5287 120.817 19.8567 122.87 20.2208 124.114C20.5626 125.105 20.2603 126.025 19.3138 126.873ZM155.954 17.3071C153.985 21.0521 151.262 26.3942 147.786 33.3333C144.31 40.2724 140.647 47.9935 136.798 56.4965C132.926 64.7462 128.961 73.3869 124.902 82.4185C120.822 91.1969 117.181 99.1712 113.981 106.341C110.78 113.512 108.113 119.487 105.979 124.267C104.076 128.772 103.263 131.14 103.538 131.371C103.56 131.624 104.171 131.315 105.371 130.445C106.802 129.299 108.475 128.004 110.39 126.561C117.336 121.359 124.293 116.285 131.26 111.337C138.228 106.389 144.86 101.981 151.157 98.1127C157.431 93.991 163.128 90.5579 168.247 87.8133C173.344 84.8155 177.609 82.5283 181.044 80.9519C194.574 75.1746 199.954 76.8731 197.184 86.0472C196.295 90.4633 195.564 92.3137 194.991 91.5982C194.715 91.3671 194.671 90.8606 194.858 90.0787C195.044 89.2968 195.22 88.3882 195.385 87.353C196.11 83.9721 196.312 81.9128 195.993 81.1752C195.673 80.4376 195.26 80.0909 194.753 80.1353C194.478 79.9042 193.212 80.0149 190.954 80.4676C181.904 82.025 160.328 95.0136 126.227 119.433C121.912 122.618 117.597 125.803 113.282 128.987C109.199 131.896 106.441 133.924 105.01 135.07L100.371 138.921L92.1558 158.779C87.9548 169.099 84.474 177.442 81.7135 183.809C79.184 189.899 77.0281 194.426 75.2458 197.389C73.7168 200.33 72.3413 202.109 71.1193 202.727C69.8973 203.344 68.7355 203.19 67.6339 202.266C66.0036 201.133 65.2486 199.795 65.3689 198.253C65.5114 196.965 66.6716 194.184 68.8497 189.91C70.5877 186.441 72.5235 182.316 74.6572 177.536C77.0442 172.733 79.2001 168.206 81.1249 163.955C83.3029 159.681 85.0298 156.085 86.3056 153.166C87.5593 149.994 88.1861 148.408 88.1861 148.408C87.4707 148.981 86.6397 149.692 85.6931 150.54C84.9777 151.113 84.02 151.835 82.8202 152.706C81.8737 153.554 80.8116 154.54 79.6339 155.664C58.2369 173.613 44.6623 189.092 38.9101 202.099C34.5983 211.153 33.6169 218.895 35.9657 225.324C38.3367 232.007 43.4097 236.029 51.1846 237.391C53.5304 237.951 57.0981 237.894 61.8878 237.22C66.6775 236.545 71.1696 235.387 75.3641 233.744C83.7532 230.458 93.76 225.244 105.384 218.103C117.955 210.113 130.185 201.132 142.072 191.16C154.212 181.166 165.4 170.49 175.635 159.131C185.87 147.773 195.058 136.124 203.2 124.183C211.596 112.22 218.461 100.263 223.795 88.3125C225.28 84.8651 226.616 81.1755 227.803 77.2438C229.243 73.2899 230.442 69.4847 231.398 65.8284C232.332 61.9188 233.046 58.4112 233.539 55.3057C234.011 51.9469 234.147 49.1278 233.948 46.8486C233.46 41.2769 231.349 36.1026 227.614 31.3256C223.074 26.1085 215.826 22.0215 205.87 19.0646C196.167 16.0856 184.147 14.3301 169.81 13.7981C167.762 13.7221 165.967 13.624 164.425 13.5036C163.137 13.3612 161.986 13.3342 160.973 13.4229C159.453 13.5558 158.336 13.9088 157.621 14.4818C157.158 15.0326 156.603 15.9744 155.954 17.3071Z" fill="black"/>
<path d="M235.286 145.109C231.173 156.442 231.59 162.657 236.534 163.756C240.444 164.69 246.851 162.088 255.757 155.95C264.915 149.789 275.476 140.699 287.439 128.679C291.203 125.032 293.685 122.774 294.885 121.903C296.316 120.757 297.064 120.564 297.131 121.324C297.153 121.577 296.24 122.805 294.391 125.009C292.52 126.959 290.187 129.46 287.391 132.511C284.827 135.288 282.021 138.213 278.972 141.286C275.924 144.36 273.337 146.883 271.213 148.856C267.196 152.524 263.03 155.951 258.715 159.136C254.4 162.321 250.905 164.668 248.23 166.178C246.293 167.368 244.702 168.145 243.458 168.509C242.214 168.873 240.579 169.144 238.552 169.321C235.789 169.818 233.361 169.776 231.268 169.193C229.154 168.357 227.341 166.602 225.831 163.927C224.343 161.505 223.687 158.373 223.861 154.529C224.035 150.686 224.958 146.65 226.629 142.421C228.301 138.191 230.501 134.171 233.23 130.36C236.19 126.273 239.574 122.659 243.382 119.519C245.529 117.8 247.697 116.334 249.888 115.122C252.332 113.887 254.313 113.203 255.833 113.07C257.099 112.96 258.432 113.609 259.831 115.017C261.484 116.404 262.365 117.73 262.476 118.997C262.587 120.263 261.889 122.493 260.382 125.687C258.853 128.628 257.048 131.338 254.969 133.817C248.498 141.528 243.114 144.168 238.819 141.737L236.786 140.384L235.286 145.109ZM248.62 122.506C247.904 123.079 247.096 124.043 246.193 125.398C245.269 126.499 244.356 127.727 243.453 129.082C242.529 130.184 241.731 131.275 241.06 132.354C240.389 133.434 240.064 134.1 240.087 134.353C240.131 134.86 240.891 134.793 242.366 134.154C244.094 133.492 245.927 132.566 247.865 131.376C250.264 129.635 252.62 127.387 254.931 124.633C257.242 121.879 258.342 119.869 258.231 118.603C258.12 117.336 257.812 116.725 257.305 116.77C256.567 117.089 255.23 117.844 253.292 119.035C251.586 119.949 250.029 121.106 248.62 122.506Z" fill="black"/>
<path d="M309.85 139.733C305.975 142.114 303.564 143.728 302.618 144.577C301.924 145.403 301.738 146.185 302.057 146.923C302.355 147.407 302.559 148.282 302.67 149.549C303.012 150.539 303.365 151.657 303.729 152.901C304.954 158.153 304.615 163.031 302.712 167.536C301.063 172.019 297.932 175.61 293.32 178.31C287.948 181.077 282.591 182.566 277.251 182.778C272.119 182.462 268.314 181.264 265.835 179.184C264.205 178.05 263.312 176.597 263.157 174.824C263.024 173.305 263.282 171.879 263.931 170.546C264.327 169.235 265.471 167.732 267.364 166.035C269.004 164.36 271.382 162.366 274.497 160.052C277.612 157.738 281.822 154.818 287.128 151.291L293.254 146.927L290.822 141.015C287.372 133.661 286.278 126.994 287.541 121.014C288.365 115.839 290.416 111.576 293.696 108.227C296.953 104.624 300.724 102.508 305.007 101.878C307.793 101.634 309.896 102.344 311.318 104.006C312.717 105.414 313.021 107.429 312.229 110.05C311.624 111.89 310.7 112.991 309.456 113.355C308.212 113.719 307.512 113.015 307.357 111.242C307.269 110.229 306.371 110.18 304.665 111.095C303.212 111.988 301.803 113.387 300.439 115.293C297.919 118.575 296.572 122.138 296.397 125.982C296.454 129.549 297.371 134.19 299.147 139.904L300.139 142.497L305.571 138.959C307.002 137.813 310.128 135.626 314.95 132.397C319.771 129.168 324.824 125.664 330.107 121.884C335.644 118.082 339.139 115.735 340.592 114.842C342.298 113.927 343.278 113.459 343.531 113.436C345.051 113.304 343.549 115.094 339.025 118.807C334.71 121.992 329.784 125.485 324.247 129.287C318.964 133.067 314.165 136.549 309.85 139.733ZM297.143 160.75C296.987 158.977 296.661 156.709 296.164 153.946C295.667 151.182 295.166 149.822 294.659 149.867C294.406 149.889 293.564 150.473 292.133 151.619C290.68 152.511 288.996 153.68 287.08 155.123C285.165 156.567 283.25 158.01 281.335 159.454C279.419 160.897 277.746 162.192 276.315 163.338C269.854 168.241 266.723 171.833 266.923 174.112C267.078 175.885 269.33 176.836 273.68 176.966C277.798 177.371 281.586 176.912 285.043 175.589C292.904 172.094 296.937 167.148 297.143 160.75Z" fill="black"/>
<path d="M360.101 89.4022C358.395 90.3171 357.013 90.5655 355.955 90.1477C353.885 89.8184 352.646 88.7785 352.237 87.0278C352.06 85.0018 352.78 83.0248 354.398 81.097C355.553 79.7199 356.764 78.976 358.031 78.8652C360.266 78.1593 361.885 79.166 362.888 81.8853C363.252 83.1294 363.121 84.5445 362.494 86.1305C362.121 87.6943 361.323 88.7849 360.101 89.4022ZM345.698 121.668C342.64 127.55 339.709 133.421 336.904 139.28C334.352 145.118 332.818 149.463 332.302 152.315C331.951 154.132 331.797 155.294 331.842 155.8C331.886 156.307 332.195 156.918 332.768 157.633C335.633 161.211 341.704 159.148 350.983 151.446C354.814 148.559 359.535 144.191 365.148 138.341C370.992 132.215 376.803 125.71 382.58 118.824C384.429 116.621 385.931 114.831 387.086 113.454C388.495 112.055 389.326 111.344 389.579 111.322C390.086 111.277 389.899 112.059 389.019 113.667C388.392 115.253 386.461 117.974 383.226 121.83C380.497 125.642 377.515 129.475 374.279 133.331C371.022 136.933 367.753 140.409 364.474 143.759C361.447 147.086 358.399 150.16 355.328 152.98C352.488 155.525 349.984 157.531 347.816 158.996C343.963 161.63 340.793 163.311 338.304 164.039C335.816 164.767 333.377 164.598 330.987 163.531C325.976 161.673 323.864 156.498 324.652 148.008C324.982 145.938 325.889 143.179 327.373 139.731C328.583 136.053 330.045 132.352 331.761 128.629C333.477 124.907 335.331 121.299 337.322 117.808C339.313 114.316 341.118 111.606 342.735 109.678C344.353 107.75 345.795 106.731 347.061 106.62C348.074 106.532 348.867 106.845 349.44 107.56C350.542 108.485 350.779 109.74 350.152 111.326C349.779 112.89 348.294 116.337 345.698 121.668Z" fill="black"/>
<path d="M423.593 137.055C425.87 130.987 427.546 125.353 428.622 120.155C429.93 114.682 430.506 111.059 430.351 109.286C430.471 107.744 430.394 106.858 430.118 106.627C429.843 106.396 429.314 106.187 428.532 106C427.244 105.857 424.486 107.885 420.26 112.083C416.034 116.28 409.992 123.061 402.135 132.425C394.509 141.514 389.171 147.595 386.123 150.669C383.074 153.743 380.421 155.506 378.164 155.958C376.92 156.323 376.16 156.389 375.885 156.158C375.356 155.949 374.552 155.509 373.473 154.838C372.624 153.891 372.051 153.176 371.754 152.691C371.434 151.954 371.197 150.699 371.041 148.926C370.62 144.114 372.021 138.25 375.244 131.333C378.214 124.438 382.587 117.548 388.364 110.662C390.907 107.633 393.493 105.11 396.124 103.093C398.985 100.801 401.303 99.5779 403.076 99.4228C406.368 99.1348 408.896 100.317 410.659 102.97C412.102 104.885 412.715 107.511 412.496 110.848C412.256 113.931 411.513 115.655 410.269 116.019C409.51 116.085 408.981 115.877 408.683 115.392C408.386 114.908 407.884 113.548 407.178 111.313C407.001 109.287 406.532 108.307 405.773 108.374C404.462 107.978 402.618 108.777 400.241 110.772C398.116 112.744 395.794 115.371 393.274 118.654C390.754 121.937 388.268 125.6 385.814 129.642C383.592 133.409 381.738 137.017 380.254 140.464C378.791 144.165 377.989 146.659 377.846 147.948C377.681 148.983 378.221 149.318 379.465 148.954C380.709 148.59 382.636 147.273 385.244 145.004C387.853 142.734 391.595 138.834 396.47 133.303C403.216 125.823 408.922 119.582 413.589 114.58C418.508 109.556 421.925 106.323 423.841 104.879C427.671 101.992 430.573 101.611 432.545 103.735C435.85 106.508 435.508 115.725 431.519 131.385C430.398 136.077 430.091 138.401 430.598 138.356C430.829 138.081 431.429 137.646 432.397 137.05C433.597 136.18 434.775 135.056 435.93 133.679C439.023 131.112 442.727 128.236 447.042 125.051C451.334 121.613 455.396 118.451 459.227 115.564C463.288 112.401 466.761 109.801 469.645 107.762C472.529 105.723 474.109 104.82 474.384 105.051C474.935 105.513 474.864 106.157 474.17 106.983C473.708 107.534 471.919 108.967 468.804 111.281C463.796 115.292 458.304 119.6 452.327 124.206C446.35 128.812 441.111 133.098 436.609 137.065C432.801 140.205 430.308 142.337 429.13 143.461C428.206 144.563 427.43 145.906 426.803 147.492C424.362 154.596 421.459 162.251 418.094 170.456C414.729 178.662 411.1 186.763 407.206 194.759C403.334 203.009 399.418 210.752 395.458 217.989C391.519 225.479 387.746 231.933 384.137 237.353C378.955 245.207 373.452 252.323 367.631 258.702C361.809 265.081 356.707 269.483 352.326 271.908C349.904 273.395 347.301 274.261 344.515 274.505C341.751 275.002 339.461 275.075 337.644 274.723C335.529 273.888 333.865 272.374 332.653 270.184C331.209 268.268 330.366 265.918 330.122 263.132C329.856 260.093 330.757 255.804 332.824 250.264C334.891 244.724 337.834 238.98 341.652 233.031C344.336 228.713 347.621 223.96 351.505 218.772C355.158 213.859 359.296 208.648 363.918 203.14C368.309 197.907 373.08 192.641 378.23 187.341C383.128 182.064 388.047 177.04 392.989 172.27C395.344 170.022 397.804 167.51 400.368 164.734C403.208 162.189 405.805 159.792 408.161 157.545C410.769 155.275 413.02 153.292 414.913 151.595C416.806 149.898 417.984 148.774 418.446 148.224C419.161 147.651 419.832 146.571 420.459 144.985C421.339 143.377 422.384 140.734 423.593 137.055ZM416.698 154.501C416.192 154.545 414.761 155.691 412.406 157.939C410.05 160.187 407.106 162.996 403.573 166.368C400.04 169.739 396.276 173.386 392.281 177.308C388.308 181.483 384.451 185.521 380.709 189.421C378.607 191.647 376.158 194.285 373.363 197.337C370.59 200.642 367.817 203.947 365.043 207.252C362.292 210.81 359.646 214.104 357.104 217.133C354.584 220.416 352.537 223.275 350.964 225.709C343.47 236.317 338.421 245.691 335.816 253.83C333.21 261.969 333.769 266.896 337.492 268.612C340.157 269.91 343.554 269.358 347.682 266.955C353.494 263.384 360.296 256.537 368.087 246.413C375.878 236.289 383.585 223.748 391.208 208.791C393.826 203.713 396.653 198.107 399.689 191.972C402.725 185.836 405.541 180.103 408.137 174.772C410.732 169.441 412.762 164.926 414.224 161.225C415.94 157.502 416.776 155.388 416.732 154.881L416.698 154.501Z" fill="black"/>
<path d="M479.993 104.177C478.971 107.074 477.288 111.176 474.946 116.485C472.603 121.794 470.26 127.103 467.918 132.412C467.478 133.216 467.28 133.871 467.324 134.378C467.115 134.906 466.906 135.435 466.697 135.964C466.488 136.492 466.268 136.894 466.037 137.17C466.797 137.103 468.91 135.004 472.376 130.873C475.172 127.822 478.083 124.632 481.109 121.305C484.367 117.703 487.52 114.364 490.568 111.291C493.848 107.941 496.665 105.143 499.021 102.895C501.607 100.372 503.616 98.5377 505.047 97.3917C506.478 96.2458 507.964 95.733 509.506 95.8533C511.025 95.7203 512.093 96.2648 512.711 97.4868C513.008 97.9712 513.179 98.4666 513.224 98.9731C513.246 99.2263 513.175 99.8706 513.01 100.906C513.099 101.919 513.116 103.576 513.062 105.877C512.986 107.926 512.734 110.882 512.307 114.748C511.804 120.661 511.8 125 512.297 127.763C512.772 130.274 513.918 131.705 515.735 132.056C517.046 132.452 519.43 131.988 522.886 130.665C526.343 129.342 529.409 127.925 532.084 126.415C534.991 124.63 537.737 122.475 540.323 119.952C543.141 117.154 547.092 112.725 552.176 106.666C554.278 104.441 556.149 102.491 557.788 100.816C559.428 99.1414 560.259 98.4307 560.281 98.684C560.832 99.1462 560.321 100.594 558.748 103.029C557.405 105.188 554.297 109.033 549.421 114.563C546.648 117.868 544.222 120.76 542.142 123.238C540.04 125.464 538.042 127.425 536.149 129.122C534.487 130.543 532.803 131.711 531.097 132.626C529.644 133.519 527.937 134.434 525.978 135.371C523.512 136.352 520.77 137.102 517.753 137.621C514.967 137.865 512.782 137.674 511.196 137.047C508.277 135.771 506.343 132.623 505.393 127.602C504.709 125.62 504.443 122.581 504.595 118.485C504.978 114.113 505.648 110.099 506.604 106.442C507.164 104.097 507.4 102.417 507.312 101.404C507.267 100.898 506.183 101.631 504.059 103.603C502.166 105.3 499.706 107.812 496.68 111.139C493.884 114.19 490.742 117.655 487.254 121.533C483.996 125.136 480.992 128.716 478.241 132.274C473.641 138.036 470.081 142.558 467.561 145.84C465.019 148.87 463.055 151.211 461.668 152.864C460.006 154.285 458.933 155.144 458.449 155.442C457.733 156.015 456.996 156.335 456.236 156.401C454.716 156.534 453.532 156.127 452.684 155.181C451.538 153.75 450.921 152.528 450.832 151.515C450.721 150.249 451.166 148.04 452.167 144.891C453.145 141.488 454.492 137.925 456.208 134.202C457.461 131.03 458.853 127.973 460.382 125.032C461.911 122.091 463.198 119.299 464.242 116.656C469.292 107.283 472.719 101.241 474.523 98.531C476.305 95.568 478.094 94.1355 479.889 94.2337C482.719 94.4965 482.754 97.8109 479.993 104.177Z" fill="black"/>
<path d="M557.203 116.944C553.09 128.278 553.506 134.493 558.451 135.592C562.361 136.526 568.768 133.924 577.673 127.786C586.832 121.625 597.393 112.535 609.356 100.515C613.12 96.8683 615.602 94.6096 616.802 93.7391C618.232 92.5931 618.981 92.4 619.048 93.1598C619.07 93.4131 618.156 94.6413 616.308 96.8446C614.437 98.7947 612.104 101.296 609.308 104.347C606.744 107.123 603.938 110.049 600.889 113.122C597.84 116.196 595.254 118.719 593.13 120.691C589.113 124.36 584.947 127.787 580.632 130.972C576.317 134.156 572.822 136.504 570.147 138.014C568.209 139.204 566.619 139.981 565.375 140.345C564.13 140.709 562.495 140.98 560.469 141.157C557.706 141.654 555.278 141.611 553.185 141.029C551.07 140.193 549.258 138.438 547.748 135.763C546.26 133.341 545.603 130.209 545.778 126.365C545.952 122.522 546.874 118.486 548.546 114.257C550.218 110.027 552.418 106.007 555.147 102.196C558.107 98.1087 561.491 94.4951 565.299 91.3548C567.445 89.6358 569.614 88.1701 571.805 86.9577C574.249 85.7231 576.23 85.0393 577.75 84.9064C579.016 84.7956 580.349 85.4446 581.748 86.8533C583.401 88.2399 584.282 89.5664 584.393 90.8326C584.504 92.0989 583.806 94.3291 582.299 97.5233C580.77 100.464 578.965 103.174 576.885 105.653C570.415 113.364 565.031 116.004 560.736 113.573L558.703 112.22L557.203 116.944ZM570.537 94.3416C569.821 94.9146 569.012 95.8786 568.11 97.2335C567.186 98.3351 566.272 99.5634 565.37 100.918C564.446 102.02 563.648 103.11 562.977 104.19C562.306 105.269 561.981 105.936 562.003 106.189C562.048 106.696 562.808 106.629 564.283 105.99C566.011 105.328 567.844 104.402 569.782 103.212C572.181 101.471 574.536 99.2232 576.847 96.469C579.158 93.7149 580.259 91.7047 580.148 90.4385C580.037 89.1722 579.728 88.5612 579.222 88.6055C578.484 88.9252 577.147 89.6802 575.209 90.8705C573.503 91.7854 571.945 92.9424 570.537 94.3416Z" fill="black"/>
<path d="M645.143 106.954C643.956 110.886 642.851 114.3 641.829 117.196C641.059 120.071 640.29 122.945 639.521 125.82C638.752 128.694 637.878 131.833 636.9 135.236C636.175 138.617 635.252 142.653 634.131 147.345C632.241 154.911 631.098 159.349 630.702 160.66C630.56 161.948 630.951 162.041 631.875 160.94C633.031 159.563 633.724 158.736 633.955 158.461C634.208 158.439 634.264 159.072 634.121 160.36C633.726 161.671 632.972 163.268 631.861 165.152C631.003 167.013 630.101 168.368 629.154 169.216C626.226 170.749 624.315 170.788 623.423 169.335C622.761 167.607 622.924 163.637 623.912 157.426C625.153 151.193 627.087 144.133 629.715 136.247C630.506 133.626 632.018 129.028 634.25 122.453C636.482 115.878 638.923 108.774 641.572 101.142C644.222 93.5092 646.779 86.2678 649.242 79.4173C651.682 72.3135 653.53 67.1756 654.783 64.0036C655.179 62.693 655.586 61.5091 656.004 60.4517C656.399 59.1411 656.817 58.0838 657.257 57.2797C657.675 56.2224 657.978 55.3028 658.164 54.5209C657.053 56.4044 656.069 58.2769 655.211 60.1383C654.331 61.7465 653.357 63.7456 652.29 66.1357C651.201 68.2725 649.997 70.547 648.677 72.9593C646.081 78.2902 643.254 83.8966 640.195 89.7784C637.391 95.6381 634.564 101.244 631.714 106.598C628.843 111.697 626.307 116.258 624.107 120.278C621.907 124.298 620.125 127.261 618.76 129.167C613.578 137.021 608.641 140.388 603.949 139.267C601.857 138.685 600.578 135.734 600.113 130.416C599.891 127.883 600.132 124.8 600.835 121.166C601.515 117.278 602.587 113.484 604.049 109.784C605.512 106.083 607.112 102.498 608.85 99.0282C610.842 95.5365 612.877 92.5513 614.957 90.0726C618.886 85.3906 622.865 82.7457 626.895 82.1379C631.178 81.508 634.372 83.0149 636.477 86.6586L637.817 88.8382L638.477 87.6321C638.686 87.1034 639.774 84.9666 641.744 81.2216C643.713 77.4766 645.891 73.203 648.278 68.4007C650.665 63.5984 653.387 58.2563 656.445 52.3745C659.503 46.4927 661.89 41.6904 663.606 37.9676C665.575 34.2226 667.533 30.351 669.48 26.3527C671.658 22.0791 673.281 18.7472 674.348 16.3572C677.153 10.4975 679.226 6.4882 680.568 4.32922C682.164 2.14808 683.584 0.875491 684.828 0.511453C685.081 0.489296 685.345 0.593766 685.621 0.824862C685.874 0.802706 686.254 0.76947 686.76 0.725156C688.093 1.37414 688.573 2.48055 688.199 4.04439C688.079 5.58608 686.814 8.63145 684.405 13.1805C678.058 25.2195 671.392 39.4555 664.409 55.8885C657.403 72.0682 650.981 89.09 645.143 106.954ZM634.796 93.6959L632.037 92.7889C630.727 92.3932 629.818 92.2175 629.312 92.2618C628.783 92.0529 627.919 92.3837 626.719 93.2542C625.266 94.1469 623.269 96.108 620.726 99.1376C618.438 102.145 616.413 105.257 614.653 108.473C611.551 113.848 609.219 119.284 607.658 124.779C605.822 130.044 605.593 133.254 606.97 134.409C607.774 134.849 609.804 133.268 613.062 129.666C614.68 127.738 617.282 123.937 620.869 118.265C624.455 112.592 627.789 106.941 630.869 101.312L634.796 93.6959Z" fill="black"/>
<g filter="url(#filter0_d_2173_277303)">
<path d="M436.476 307.972H415.776V307.472C416.476 307.372 417.476 307.072 418.176 306.872C419.776 306.372 420.876 305.472 421.476 303.772C422.576 300.572 422.776 294.372 422.776 288.072V262.372C422.776 255.872 422.676 249.472 421.476 246.372C420.776 244.572 419.676 243.872 418.276 243.372C417.576 243.072 416.476 242.872 415.776 242.772V242.272H436.476V242.772C435.576 242.972 434.776 243.072 433.776 243.472C432.576 243.972 431.376 244.772 430.776 246.372C429.676 249.572 429.576 255.872 429.576 262.372V288.072C429.576 294.372 429.676 301.272 430.776 303.972C431.376 305.472 432.476 306.372 433.676 306.772C434.876 307.172 435.676 307.372 436.476 307.472V307.972Z" fill="black"/>
<path d="M499.055 242.672C498.055 242.772 497.355 242.872 496.555 243.172C495.255 243.572 494.155 244.472 493.355 246.272C492.555 248.072 492.055 250.372 492.055 255.172V308.972H490.755L451.955 251.472H451.655V295.072C451.655 299.872 452.155 302.172 452.855 303.972C453.555 305.672 454.955 306.572 456.255 307.072C457.055 307.372 457.755 307.472 458.755 307.572V307.972H442.955V307.572C443.955 307.472 444.755 307.372 445.555 307.072C446.855 306.572 448.255 305.472 448.855 303.972C449.555 302.172 450.255 299.872 450.255 295.072V258.772C450.255 252.472 449.355 249.372 448.455 247.572C447.555 245.772 445.855 244.272 444.255 243.572C443.155 243.072 442.555 242.972 441.655 242.772V242.272H454.255L490.455 296.372H490.655V255.172C490.655 250.372 490.155 248.072 489.355 246.272C488.655 244.772 487.455 243.872 486.055 243.272C485.355 242.972 484.355 242.772 483.555 242.672V242.272H499.055V242.672Z" fill="black"/>
<path d="M559.31 296.272L555.009 282.172H535.909L530.909 297.172C529.909 300.272 529.609 301.972 529.609 303.172C529.609 305.272 530.809 306.172 532.209 306.772C533.009 307.172 534.309 307.372 535.209 307.472V307.972H521.31V307.472C522.51 307.272 523.109 307.272 524.409 306.572C525.309 306.072 526.01 305.372 526.81 303.872C527.41 302.672 528.009 301.072 529.409 296.972L547.909 241.772H549.409L564.31 290.372C566.71 298.172 568.209 301.772 568.909 303.272C570.009 305.872 571.11 306.472 572.31 306.872C573.31 307.172 574.209 307.372 575.009 307.472V307.972H555.609V307.472C556.309 307.372 557.31 307.172 558.31 306.772C559.91 306.172 560.81 305.272 560.81 303.072C560.81 300.472 560.01 298.772 559.31 296.272ZM545.709 252.872L536.31 280.872H554.609L546.009 252.872H545.709Z" fill="black"/>
<path d="M631.837 242.672C630.937 242.772 630.237 242.872 629.437 243.172C627.937 243.672 626.537 244.572 625.837 246.272C625.137 248.072 624.637 250.372 624.637 255.272V285.972C624.637 291.572 623.737 296.472 621.637 300.372C618.937 305.472 612.037 309.372 603.937 309.372C593.537 309.372 585.837 305.672 583.237 297.872C581.637 293.072 581.837 287.672 581.837 283.872V262.072C581.837 253.872 581.937 249.172 580.637 246.172C580.037 244.772 578.837 243.872 577.537 243.372C576.837 243.072 575.837 242.872 574.937 242.772V242.272H595.537V242.772C594.637 242.872 593.537 243.072 592.737 243.372C591.337 243.872 590.337 244.472 589.637 246.172C588.537 248.872 588.637 254.972 588.637 262.072V286.972C588.637 289.672 588.537 294.172 589.537 297.572C591.337 303.772 595.737 307.572 603.937 307.572C611.837 307.572 617.537 304.772 620.237 300.072C622.037 296.972 623.237 292.872 623.237 286.372V255.272C623.237 250.372 622.637 247.972 621.837 246.272C621.237 244.972 620.437 243.972 618.737 243.372C617.837 243.072 616.137 242.772 615.137 242.672V242.272H631.837V242.672Z" fill="black"/>
<path d="M676.384 290.472C676.384 302.572 666.384 309.372 656.084 309.372C649.184 309.372 644.384 306.372 641.084 303.072H640.684L638.584 307.072H638.184L637.284 286.972H637.884C640.384 297.972 645.384 307.972 655.984 307.972C666.284 307.972 670.484 301.572 670.484 294.772C670.484 283.872 665.084 281.672 654.484 276.372C645.484 271.872 637.884 267.572 637.884 256.772C637.884 248.572 644.384 240.972 655.984 240.972C661.484 240.972 666.584 243.072 669.084 246.072L670.584 242.472H671.384L672.884 258.472H672.284C671.084 253.472 668.084 247.872 664.384 245.272C662.484 243.872 660.084 242.372 655.684 242.372C649.984 242.372 643.684 245.272 643.684 253.372C643.684 263.272 651.184 265.972 659.284 270.172C670.884 276.172 676.384 279.172 676.384 290.472Z" fill="black"/>
<path d="M736.036 257.772H735.536C734.636 255.772 731.836 249.672 726.836 246.572C723.636 244.572 720.836 243.572 716.436 243.572H710.336V288.072C710.336 294.372 710.536 301.272 711.636 303.972C712.336 305.672 713.436 306.472 715.036 306.972C715.736 307.172 716.336 307.272 717.436 307.472V307.972H696.336V307.472C697.236 307.272 697.936 307.172 698.736 306.872C700.136 306.372 701.436 305.472 702.036 303.972C703.336 300.772 703.536 294.372 703.536 288.072V243.572H697.336C693.036 243.572 689.836 244.672 686.636 246.872C682.136 249.972 679.336 255.572 678.336 257.772H677.836L681.436 242.272H732.436L736.036 257.772Z" fill="black"/>
<path d="M793.213 307.972H780.513C778.113 305.472 776.313 302.072 775.313 294.572C774.513 288.472 773.813 281.372 770.913 277.872C768.613 275.172 765.113 274.872 759.213 274.872H753.013V288.172C753.013 294.472 753.213 300.972 754.213 304.172C754.813 305.572 756.013 306.672 757.613 307.172C758.513 307.472 759.913 307.572 760.613 307.572V307.972H739.213V307.572C739.813 307.572 740.913 307.472 741.713 307.172C743.213 306.572 744.413 305.572 744.913 304.172C745.913 301.072 746.213 294.472 746.213 288.172V261.972C746.213 255.572 746.013 249.272 744.913 246.072C744.313 244.672 743.113 243.672 741.613 243.072C741.013 242.872 739.913 242.672 739.213 242.672V242.272H764.213C774.713 242.272 784.913 247.072 784.913 258.272C784.913 267.272 778.113 273.172 768.713 274.172V274.472C771.613 274.872 773.913 275.472 776.313 277.172C779.413 279.372 780.713 283.672 782.113 290.772C783.913 299.772 785.913 303.672 788.113 305.272C789.913 306.572 791.613 307.172 793.213 307.472V307.972ZM762.713 243.572H759.413C757.113 243.572 755.013 243.872 754.013 245.572C753.013 247.072 753.013 249.572 753.013 253.472V273.572H760.513C769.613 273.572 771.913 272.172 774.413 269.272C776.413 266.972 777.313 263.972 777.313 258.472C777.313 249.472 773.513 243.572 762.713 243.572Z" fill="black"/>
<path d="M832.552 296.272L828.252 282.172H809.152L804.152 297.172C803.152 300.272 802.852 301.972 802.852 303.172C802.852 305.272 804.052 306.172 805.452 306.772C806.252 307.172 807.552 307.372 808.452 307.472V307.972H794.552V307.472C795.752 307.272 796.352 307.272 797.652 306.572C798.552 306.072 799.252 305.372 800.052 303.872C800.652 302.672 801.252 301.072 802.652 296.972L821.152 241.772H822.652L837.552 290.372C839.952 298.172 841.452 301.772 842.152 303.272C843.252 305.872 844.352 306.472 845.552 306.872C846.552 307.172 847.452 307.372 848.252 307.472V307.972H828.852V307.472C829.552 307.372 830.552 307.172 831.552 306.772C833.152 306.172 834.052 305.272 834.052 303.072C834.052 300.472 833.252 298.772 832.552 296.272ZM818.952 252.872L809.552 280.872H827.852L819.252 252.872H818.952Z" fill="black"/>
<path d="M900.106 290.672L897.906 307.972H852.006V307.372C852.806 307.272 853.606 307.172 854.306 306.972C855.906 306.472 857.306 305.372 857.806 303.672C858.606 300.872 858.906 295.772 858.906 290.472V259.872C858.906 254.472 858.606 249.372 857.706 246.472C857.106 244.672 856.206 243.872 854.506 243.272C853.606 242.972 852.606 242.872 852.006 242.772V242.272H872.806V242.772C872.206 242.872 871.206 242.972 870.106 243.372C869.006 243.772 867.706 244.672 867.106 246.472C866.106 249.372 865.906 254.472 865.906 259.872V294.972C865.906 298.772 866.206 301.072 866.606 302.472C867.006 303.872 867.906 304.872 868.606 305.372C870.006 306.372 872.106 306.672 873.806 306.672H882.106C888.206 306.672 890.906 304.572 893.006 302.472C896.406 298.972 898.506 294.272 899.506 290.672H900.106Z" fill="black"/>
<path d="M925.343 307.972H904.643V307.472C905.343 307.372 906.343 307.072 907.043 306.872C908.643 306.372 909.743 305.472 910.343 303.772C911.443 300.572 911.643 294.372 911.643 288.072V262.372C911.643 255.872 911.543 249.472 910.343 246.372C909.643 244.572 908.543 243.872 907.143 243.372C906.443 243.072 905.343 242.872 904.643 242.772V242.272H925.343V242.772C924.443 242.972 923.643 243.072 922.643 243.472C921.443 243.972 920.243 244.772 919.643 246.372C918.543 249.572 918.443 255.872 918.443 262.372V288.072C918.443 294.372 918.543 301.272 919.643 303.972C920.243 305.472 921.343 306.372 922.543 306.772C923.743 307.172 924.543 307.372 925.343 307.472V307.972Z" fill="black"/>
<path d="M967.122 296.272L962.822 282.172H943.722L938.722 297.172C937.722 300.272 937.422 301.972 937.422 303.172C937.422 305.272 938.622 306.172 940.022 306.772C940.822 307.172 942.122 307.372 943.022 307.472V307.972H929.122V307.472C930.322 307.272 930.922 307.272 932.222 306.572C933.122 306.072 933.822 305.372 934.622 303.872C935.222 302.672 935.822 301.072 937.222 296.972L955.722 241.772H957.222L972.122 290.372C974.522 298.172 976.022 301.772 976.722 303.272C977.822 305.872 978.922 306.472 980.122 306.872C981.122 307.172 982.022 307.372 982.822 307.472V307.972H963.422V307.472C964.122 307.372 965.122 307.172 966.122 306.772C967.722 306.172 968.622 305.272 968.622 303.072C968.622 300.472 967.822 298.772 967.122 296.272ZM953.522 252.872L944.122 280.872H962.422L953.822 252.872H953.522Z" fill="black"/>
</g>
<defs>
<filter id="filter0_d_2173_277303" x="412.776" y="240.972" width="573.046" height="74.4" filterUnits="userSpaceOnUse" color-interpolation-filters="sRGB">
<feFlood flood-opacity="0" result="BackgroundImageFix"/>
<feColorMatrix in="SourceAlpha" type="matrix" values="0 0 0 0 0 0 0 0 0 0 0 0 0 0 0 0 0 0 127 0" result="hardAlpha"/>
<feOffset dy="3"/>
<feGaussianBlur stdDeviation="1.5"/>
<feComposite in2="hardAlpha" operator="out"/>
<feColorMatrix type="matrix" values="0 0 0 0 0 0 0 0 0 0 0 0 0 0 0 0 0 0 0.658824 0"/>
<feBlend mode="normal" in2="BackgroundImageFix" result="effect1_dropShadow_2173_277303"/>
<feBlend mode="normal" in="SourceGraphic" in2="effect1_dropShadow_2173_277303" result="shape"/>
</filter>
</defs>
</svg>
