<svg width="25" height="25" viewBox="0 0 25 25" fill="none" xmlns="http://www.w3.org/2000/svg">
<path d="M14.3203 24.8535V16.4617H17.1203L17.6453 12.9898H14.3203V10.738C14.2971 10.4787 14.3324 10.2174 14.4237 9.97354C14.515 9.7297 14.6599 9.50953 14.8477 9.32933C15.0356 9.14914 15.2615 9.01353 15.5088 8.93254C15.7561 8.85156 16.0184 8.82727 16.2763 8.86148H17.7893V5.90607C16.9009 5.76259 16.0031 5.68432 15.1033 5.67188C12.3623 5.67188 10.5703 7.33424 10.5703 10.3447V12.9898H7.52332V16.4617H10.5703V24.8535C7.5876 24.3813 4.89244 22.8009 3.02257 20.4277C1.15269 18.0546 0.245589 15.0631 0.482239 12.0501C0.718889 9.0371 2.08189 6.22418 4.29931 4.17256C6.51672 2.12093 9.42551 0.981445 12.4453 0.981445C15.4651 0.981445 18.3739 2.12093 20.5913 4.17256C22.8087 6.22418 24.1717 9.0371 24.4084 12.0501C24.645 15.0631 23.7379 18.0546 21.8681 20.4277C19.9982 22.8009 17.303 24.3813 14.3203 24.8535Z" fill="black"/>
</svg>
