<svg width="24" height="24" viewBox="0 0 24 24" fill="none" xmlns="http://www.w3.org/2000/svg">
<g clip-path="url(#clip0_2075_23435)">
<path d="M7.14977 2.23C6.38977 2.23 5.63977 2.38 4.91977 2.64C4.39977 2.83 3.92977 3.14 3.53977 3.54C3.13977 3.93 2.82977 4.4 2.63977 4.92C2.36977 5.63 2.23977 6.39 2.22977 7.15C2.16977 8.41 2.15977 8.79 2.15977 12C2.15977 15.21 2.16977 15.58 2.22977 16.85C2.22977 17.61 2.37977 18.37 2.63977 19.08C2.82977 19.6 3.13977 20.07 3.53977 20.46C3.92977 20.86 4.39977 21.17 4.91977 21.36C5.62977 21.63 6.38977 21.77 7.14977 21.77C8.40977 21.83 8.78977 21.84 11.9998 21.84C15.2098 21.84 15.5798 21.83 16.8498 21.77C17.6098 21.77 18.3598 21.62 19.0798 21.36C19.5998 21.16 20.0698 20.86 20.4598 20.46C20.8498 20.07 21.1598 19.6 21.3598 19.08C21.6298 18.37 21.7698 17.61 21.7698 16.85C21.8298 15.59 21.8398 15.21 21.8398 12C21.8398 8.79 21.8298 8.42 21.7698 7.15C21.7698 6.39 21.6198 5.63 21.3598 4.92C21.1698 4.4 20.8598 3.93 20.4598 3.54C20.0698 3.14 19.5998 2.83 19.0798 2.64C18.3698 2.37 17.6098 2.24 16.8498 2.23C15.5898 2.17 15.2098 2.16 11.9998 2.16C8.78977 2.16 8.40977 2.17 7.14977 2.23ZM16.9498 0.08C17.9398 0.1 18.9298 0.29 19.8598 0.64C20.6598 0.94 21.3798 1.41 21.9798 2.02C22.5898 2.62 23.0598 3.35 23.3498 4.15C23.6998 5.08 23.8898 6.07 23.9098 7.06C23.9698 8.34 23.9798 8.75 23.9798 12.01C23.9798 15.27 23.9698 15.68 23.9098 16.96C23.8898 17.96 23.6998 18.94 23.3498 19.87C23.0398 20.67 22.5698 21.39 21.9698 21.99C21.3698 22.59 20.6398 23.07 19.8498 23.37C18.9198 23.72 17.9298 23.91 16.9398 23.93C15.6598 23.99 15.2498 24 11.9998 24C8.74977 24 8.32977 23.99 7.05977 23.93C6.06977 23.91 5.07977 23.72 4.14977 23.37C3.34977 23.07 2.62977 22.6 2.02977 21.99C1.41977 21.39 0.939766 20.66 0.639766 19.86C0.289766 18.93 0.0997656 17.94 0.0797656 16.95C0.0197656 15.67 0.00976562 15.26 0.00976562 12C0.00976562 8.74 0.0197656 8.33 0.0797656 7.05C0.0997656 6.05 0.289766 5.07 0.639766 4.14C0.939766 3.34 1.41977 2.61 2.02977 2.02C2.62977 1.41 3.35977 0.93 4.15977 0.63C5.08977 0.28 6.07977 0.09 7.06977 0.07C8.34977 0.01 8.75977 0 12.0098 0C15.2598 0 15.6798 0.01 16.9598 0.08H16.9498ZM18.1598 12.01C18.1598 13.23 17.7998 14.42 17.1198 15.44C16.4398 16.45 15.4798 17.25 14.3498 17.71C13.2198 18.18 11.9798 18.3 10.7898 18.06C9.58977 17.82 8.49977 17.23 7.62977 16.37C6.76977 15.51 6.17977 14.41 5.93977 13.21C5.69977 12.01 5.81977 10.77 6.28977 9.65C6.75977 8.52 7.54977 7.56 8.55977 6.88C9.56977 6.2 10.7698 5.84 11.9798 5.84C13.6098 5.84 15.1798 6.49 16.3398 7.65C17.4998 8.81 18.1498 10.38 18.1498 12.01H18.1598ZM15.9998 12.01C15.9998 11.22 15.7698 10.44 15.3298 9.79C14.8898 9.13 14.2698 8.62 13.5298 8.32C12.7998 8.02 11.9898 7.94 11.2198 8.09C10.4398 8.24 9.72977 8.63 9.16977 9.19C8.60977 9.75 8.22977 10.46 8.07977 11.24C7.92977 12.02 7.99977 12.82 8.30977 13.55C8.60977 14.28 9.12977 14.91 9.77977 15.35C10.4398 15.79 11.2098 16.02 11.9998 16.02C13.0598 16.02 14.0798 15.6 14.8298 14.85C15.5798 14.1 15.9998 13.08 15.9998 12.02V12.01ZM19.8498 5.6C19.8498 5.88 19.7698 6.16 19.6098 6.4C19.4498 6.64 19.2298 6.82 18.9598 6.93C18.6998 7.04 18.4098 7.07 18.1298 7.01C17.8498 6.95 17.5898 6.82 17.3898 6.62C17.1898 6.42 17.0498 6.16 16.9998 5.88C16.9398 5.6 16.9698 5.31 17.0798 5.05C17.1898 4.79 17.3698 4.56 17.6098 4.4C17.8498 4.24 18.1198 4.16 18.4098 4.16C18.7898 4.16 19.1598 4.31 19.4298 4.58C19.6998 4.85 19.8498 5.22 19.8498 5.6Z" fill="black"/>
</g>
<defs>
<clipPath id="clip0_2075_23435">
<rect width="23.98" height="24.01" fill="white"/>
</clipPath>
</defs>
</svg>
