<svg width="25" height="25" viewBox="0 0 25 25" fill="none" xmlns="http://www.w3.org/2000/svg">
<path d="M24.4453 2.71167V23.2685C24.4382 23.7336 24.2472 24.177 23.9141 24.5015C23.5811 24.826 23.1331 25.0052 22.6683 24.9999H2.21731C1.75246 25.0047 1.30471 24.8246 0.972449 24.4992C0.640187 24.1738 0.450588 23.7297 0.445313 23.2645L0.445312 2.71167C0.447923 2.48149 0.495844 2.25409 0.586336 2.04247C0.676829 1.83084 0.808116 1.63914 0.972692 1.47834C1.13727 1.31753 1.3319 1.19077 1.54546 1.10531C1.75903 1.01984 1.98733 0.977347 2.21731 0.980256H22.6683C23.1333 0.974109 23.5818 1.15305 23.915 1.47774C24.2482 1.80242 24.439 2.24626 24.4453 2.71167ZM7.56531 9.98762H4.00331V21.449H7.56531V9.98762ZM7.84531 6.35665C7.84591 5.9476 7.7252 5.54757 7.49848 5.20723C7.27176 4.86688 6.94922 4.60152 6.57171 4.44476C6.1942 4.28799 5.7787 4.24687 5.37782 4.3266C4.97694 4.40633 4.60872 4.60332 4.31979 4.89264C4.03085 5.18195 3.83419 5.55057 3.75473 5.95181C3.67526 6.35305 3.71655 6.76887 3.87337 7.14662C4.03019 7.52436 4.29548 7.84703 4.63566 8.07377C4.97584 8.30052 5.3756 8.42113 5.78431 8.42034C6.33093 8.41981 6.855 8.20218 7.24143 7.81525C7.62785 7.42832 7.84505 6.90372 7.84531 6.35665ZM20.8953 21.449V15.1578C20.8953 12.0713 20.2293 9.69738 16.6253 9.69738C15.9492 9.67253 15.279 9.8318 14.6862 10.1582C14.0934 10.4847 13.6002 10.966 13.2593 11.5509H13.2123V9.98762H9.80131V21.449H13.3543V15.7814C13.3543 14.2801 13.6353 12.8349 15.4873 12.8349C17.3153 12.8349 17.3393 14.5473 17.3393 15.8754V21.449H20.8973H20.8953Z" fill="black"/>
</svg>
