<svg width="25" height="24" viewBox="0 0 25 24" fill="none" xmlns="http://www.w3.org/2000/svg">
<path d="M24.25 12.0035C24.2485 13.8831 23.8059 15.7361 22.9577 17.4134C22.1096 19.0908 20.8796 20.5456 19.3667 21.661C17.8538 22.7763 16.1003 23.521 14.2471 23.8351C12.3939 24.1492 10.4929 24.024 8.69701 23.4695C9.3273 22.4894 9.82845 21.432 10.188 20.3235C10.333 19.7615 10.933 17.4685 10.933 17.4685C11.2404 17.9095 11.6532 18.2667 12.1338 18.5073C12.6145 18.748 13.1478 18.8646 13.685 18.8465C17.304 18.8465 19.91 15.5185 19.91 11.3845C19.91 7.4185 16.676 4.4515 12.51 4.4515C7.33501 4.4515 4.58301 7.9245 4.58301 11.7125C4.58301 13.4745 5.52101 15.6645 7.02101 16.3625C7.25101 16.4705 7.37301 16.4235 7.42101 16.2035C7.45801 16.0395 7.66501 15.2235 7.75401 14.8445C7.77057 14.7851 7.77154 14.7224 7.75682 14.6625C7.74211 14.6026 7.71221 14.5475 7.67001 14.5025C7.08791 13.708 6.7728 12.7494 6.77001 11.7645C6.7683 11.0621 6.90891 10.3667 7.18334 9.72014C7.45777 9.0736 7.86034 8.48936 8.36675 8.00266C8.87317 7.51596 9.47293 7.13691 10.1299 6.88835C10.7868 6.6398 11.4873 6.52691 12.189 6.5565C12.8463 6.51806 13.5044 6.61707 14.1213 6.84722C14.7382 7.07736 15.3003 7.43358 15.7718 7.89314C16.2434 8.35271 16.6139 8.90552 16.8598 9.5163C17.1057 10.1271 17.2216 10.7824 17.2 11.4405C17.2 14.6845 15.559 16.9345 13.427 16.9345C13.1546 16.948 12.8828 16.8974 12.6334 16.7868C12.3841 16.6762 12.1641 16.5086 11.9913 16.2976C11.8185 16.0865 11.6976 15.8379 11.6383 15.5716C11.579 15.3054 11.583 15.0289 11.65 14.7645C12.0943 13.4639 12.4269 12.1277 12.644 10.7705C12.67 10.5567 12.6499 10.3398 12.5852 10.1344C12.5205 9.92905 12.4125 9.73988 12.2687 9.57962C12.1248 9.41937 11.9483 9.29175 11.7511 9.20531C11.5538 9.11888 11.3403 9.07564 11.125 9.0785C9.92501 9.0785 8.95501 10.3255 8.95501 11.9945C8.94709 12.6071 9.07017 13.2143 9.31601 13.7755C9.31601 13.7755 8.13901 18.8035 7.91901 19.7375C7.73209 20.8759 7.71793 22.0359 7.87701 23.1785C5.84404 22.3829 4.06661 21.0479 2.73613 19.3171C1.40564 17.5863 0.572518 15.5253 0.326467 13.3562C0.080417 11.187 0.430765 8.99179 1.33978 7.00696C2.2488 5.02214 3.68205 3.32289 5.48517 2.0922C7.2883 0.861522 9.39299 0.146038 11.5726 0.0228008C13.7522 -0.100436 15.9241 0.373244 17.8545 1.39283C19.7848 2.41242 21.4005 3.93928 22.5275 5.80899C23.6544 7.6787 24.25 9.82042 24.25 12.0035Z" fill="black"/>
</svg>
