<svg width="25" height="20" viewBox="0 0 25 20" fill="none" xmlns="http://www.w3.org/2000/svg">
<path d="M0.445312 17.5341C1.73501 17.691 3.04297 17.5917 4.29426 17.2419C5.54555 16.892 6.71558 16.2985 7.73731 15.4954C6.70966 15.4752 5.71397 15.1343 4.88928 14.5203C4.0646 13.9063 3.45209 13.0499 3.13731 12.0706C3.87429 12.2134 4.63422 12.1847 5.35831 11.9865C4.24409 11.7612 3.24215 11.1568 2.52266 10.276C1.80318 9.39517 1.4105 8.29227 1.41131 7.15459V7.09354C2.09663 7.47307 2.86244 7.68372 3.64531 7.70804C2.60316 7.01153 1.86522 5.9439 1.58157 4.72226C1.29791 3.50063 1.48983 2.21673 2.11831 1.13167C3.355 2.65298 4.89733 3.89719 6.64531 4.78365C8.39342 5.66997 10.3081 6.1787 12.2653 6.27687C12.0208 5.22021 12.131 4.11236 12.5788 3.12468C13.0267 2.13699 13.7873 1.32452 14.7429 0.812939C15.6985 0.301355 16.7959 0.119167 17.8654 0.294556C18.9349 0.469945 19.9168 0.993138 20.6593 1.7832C21.7612 1.56487 22.818 1.16043 23.7843 0.587228C23.4159 1.72787 22.6467 2.69612 21.6193 3.31245C22.595 3.19914 23.5478 2.93829 24.4453 2.53882C23.7847 3.52858 22.953 4.39247 21.9893 5.0899C21.9983 5.30108 22.0033 5.51725 22.0033 5.72743C22.0158 7.57198 21.662 9.40063 20.9625 11.1072C20.2629 12.8138 19.2316 14.3642 17.9283 15.6685C16.6251 16.9729 15.0759 18.0051 13.3707 18.7052C11.6655 19.4053 9.83836 19.7594 7.99531 19.7469C5.3188 19.7484 2.69819 18.9803 0.445312 17.5341Z" fill="black"/>
</svg>
