<svg width="480" height="474" viewBox="0 0 480 474" fill="none" xmlns="http://www.w3.org/2000/svg">
<g filter="url(#filter0_d_1631_13918)">
<path d="M174.71 33.9998L171.122 25.3518H158.058L154.378 33.9998H150.606L164.728 1.84582L178.482 33.9998H174.71ZM159.392 22.1318H169.788L164.636 9.84982L159.392 22.1318Z" fill="white"/>
<path d="M186.674 31.3318V33.9998H183.362V0.46582H186.674V17.5778C188.928 14.7718 191.826 14.4498 193.206 14.4498C199.186 14.4498 202.498 19.4178 202.498 24.5698C202.498 29.8138 199.14 34.5518 193.344 34.5518C190.262 34.5518 188.1 33.1718 186.674 31.3318ZM192.884 31.6078C196.748 31.6078 199.094 28.3878 199.094 24.5698C199.094 19.8778 195.92 17.3938 192.838 17.3938C189.756 17.3938 186.49 19.9238 186.49 24.5238C186.49 28.4338 188.974 31.6078 192.884 31.6078Z" fill="white"/>
<path d="M217.878 34.5518C212.082 34.5518 207.758 30.3198 207.758 24.5238C207.758 18.7278 212.036 14.4498 217.878 14.4498C223.72 14.4498 227.998 18.7278 227.998 24.5238C227.998 30.3198 223.674 34.5518 217.878 34.5518ZM217.878 17.3938C214.382 17.3938 211.162 19.8778 211.162 24.5238C211.162 29.2158 214.474 31.6078 217.878 31.6078C221.328 31.6078 224.594 29.1698 224.594 24.5238C224.594 19.8318 221.374 17.3938 217.878 17.3938Z" fill="white"/>
<path d="M237.77 14.9098V26.0418C237.77 27.3758 237.769 28.9398 238.689 30.1358C239.195 30.7798 240.208 31.6078 242.048 31.6078C243.888 31.6078 244.9 30.7798 245.406 30.1358C246.326 28.9398 246.326 27.3758 246.326 26.0418V14.9098H249.638V26.4098C249.638 28.7558 249.408 30.5038 247.89 32.1598C246.188 33.9538 243.934 34.5518 242.048 34.5518C240.162 34.5518 237.908 33.9538 236.206 32.1598C234.688 30.5038 234.458 28.7558 234.458 26.4098V14.9098H237.77Z" fill="white"/>
<path d="M263.981 17.9458H260.669V33.9998H257.357V17.9458H255.333V14.9098H257.357V8.00982H260.669V14.9098H263.981V17.9458Z" fill="white"/>
<path d="M284.831 3.31782V22.1318C284.831 24.7078 284.831 27.5138 287.269 29.5838C288.511 30.6418 290.627 31.3318 292.329 31.3318C294.031 31.3318 296.147 30.6418 297.389 29.5838C299.827 27.5138 299.827 24.7078 299.827 22.1318V3.31782H303.231V23.0518C303.231 25.6278 302.955 28.1118 301.299 30.4118C299.459 32.9418 296.239 34.5518 292.329 34.5518C288.419 34.5518 285.199 32.9418 283.359 30.4118C281.703 28.1118 281.427 25.6278 281.427 23.0518V3.31782H284.831Z" fill="white"/>
<path d="M322.298 17.8998L319.584 19.3258C319.124 18.2218 318.158 17.3938 316.916 17.3938C315.72 17.3938 314.616 18.0838 314.616 19.5558C314.616 20.9358 315.536 21.3498 317.698 22.2698C320.458 23.4198 321.746 24.2938 322.482 25.2138C323.31 26.2258 323.494 27.2378 323.494 28.2958C323.494 32.2978 320.596 34.5518 316.916 34.5518C316.134 34.5518 311.856 34.4598 310.246 29.6758L313.098 28.4798C313.466 29.4918 314.57 31.6078 316.962 31.6078C319.124 31.6078 320.09 29.9978 320.09 28.5718C320.09 26.7778 318.802 26.1798 317.008 25.3978C314.708 24.3858 313.236 23.6498 312.362 22.5918C311.626 21.6718 311.488 20.7518 311.488 19.7858C311.488 16.4278 313.834 14.4498 317.054 14.4498C318.066 14.4498 320.78 14.6338 322.298 17.8998Z" fill="white"/>
<path d="M176.928 129.5C176.928 141.6 166.928 148.4 156.628 148.4C149.728 148.4 144.928 145.4 141.628 142.1H141.228L139.128 146.1H138.728L137.828 126H138.428C140.928 137 145.928 147 156.528 147C166.828 147 171.028 140.6 171.028 133.8C171.028 122.9 165.628 120.7 155.028 115.4C146.028 110.9 138.428 106.6 138.428 95.7998C138.428 87.5998 144.928 79.9998 156.528 79.9998C162.028 79.9998 167.128 82.0998 169.628 85.0998L171.128 81.4998H171.928L173.428 97.4998H172.828C171.628 92.4998 168.628 86.8998 164.928 84.2998C163.028 82.8998 160.628 81.3998 156.228 81.3998C150.528 81.3998 144.228 84.2998 144.228 92.3998C144.228 102.3 151.728 105 159.828 109.2C171.428 115.2 176.928 118.2 176.928 129.5Z" fill="white"/>
<path d="M236.581 96.7998H236.081C235.181 94.7998 232.381 88.6998 227.381 85.5998C224.181 83.5998 221.381 82.5998 216.981 82.5998H210.881V127.1C210.881 133.4 211.081 140.3 212.181 143C212.881 144.7 213.981 145.5 215.581 146C216.281 146.2 216.881 146.3 217.981 146.5V147H196.881V146.5C197.781 146.3 198.481 146.2 199.281 145.9C200.681 145.4 201.981 144.5 202.581 143C203.881 139.8 204.081 133.4 204.081 127.1V82.5998H197.881C193.581 82.5998 190.381 83.6998 187.181 85.8998C182.681 88.9998 179.881 94.5998 178.881 96.7998H178.381L181.981 81.2998H232.981L236.581 96.7998Z" fill="white"/>
<path d="M269.958 82.5998H262.158C260.858 82.5998 258.958 82.6998 257.658 83.4998C253.458 86.0998 253.658 93.1998 253.658 97.0998V112.2H262.258C266.458 112.2 268.158 111.6 269.458 110.3C271.458 108.5 272.758 104.1 273.058 101.6H273.458V124.1H273.058C272.758 121.7 271.558 117.3 269.658 115.7C268.458 114.6 266.458 113.5 262.258 113.5H253.658V131.6C253.658 135.2 253.158 142.4 257.058 144.8C258.458 145.6 260.858 145.7 262.358 145.7H269.858C275.658 145.7 278.958 143.9 280.858 142.1C284.558 138.6 286.158 133.9 287.258 131.1H287.658L285.758 147H239.758V146.6C240.458 146.5 241.458 146.4 242.058 146.2C243.458 145.8 244.958 144.6 245.458 143.3C246.758 140.2 246.858 133.5 246.858 127.2V101.3C246.858 94.7998 246.658 88.4998 245.558 85.2998C244.958 83.6998 243.758 82.7998 242.158 82.1998C241.358 81.8998 240.458 81.7998 239.758 81.6998V81.2998H282.558L284.858 96.9998H284.258C282.758 92.6998 280.458 87.8998 277.058 85.0998C275.958 84.1998 273.558 82.5998 269.958 82.5998Z" fill="white"/>
<path d="M339.557 97.0998C339.557 103.8 336.757 108.9 331.957 111.6C328.657 113.4 323.357 114.9 314.757 114.9C312.857 114.9 309.657 114.7 307.657 114.4V129.3C307.657 134.7 308.057 140.1 308.957 142.8C309.557 144.6 310.657 145.5 312.257 146C313.157 146.3 314.457 146.5 315.057 146.6V147H293.957V146.6C294.557 146.5 295.757 146.4 296.857 146C297.957 145.6 298.957 145 299.657 142.9C300.557 140.1 300.857 134.8 300.857 129.4V98.8998C300.857 93.5998 300.657 88.2998 299.557 85.4998C298.857 83.7998 297.757 82.8998 296.357 82.3998C295.757 82.1998 294.957 81.9998 293.957 81.8998V81.2998H318.557C331.157 81.2998 339.557 85.5998 339.557 97.0998ZM331.957 97.8998C331.957 86.7998 326.957 82.5998 317.557 82.5998H313.457C312.357 82.5998 310.557 82.6998 309.557 83.2998C308.557 83.8998 308.157 84.6998 307.957 85.4998C307.657 86.6998 307.657 88.0998 307.657 90.6998V112.7C309.457 113.2 312.857 113.5 314.757 113.5C323.557 113.5 326.757 111.2 329.057 108.4C331.257 105.7 331.957 101.2 331.957 97.8998Z" fill="white"/>
<path d="M23.7394 250H3.03943V249.5C3.73943 249.4 4.73943 249.1 5.43943 248.9C7.03943 248.4 8.13943 247.5 8.73943 245.8C9.83943 242.6 10.0394 236.4 10.0394 230.1V204.4C10.0394 197.9 9.93943 191.5 8.73943 188.4C8.03943 186.6 6.93943 185.9 5.53943 185.4C4.83943 185.1 3.73943 184.9 3.03943 184.8V184.3H23.7394V184.8C22.8394 185 22.0394 185.1 21.0394 185.5C19.8394 186 18.6394 186.8 18.0394 188.4C16.9394 191.6 16.8394 197.9 16.8394 204.4V230.1C16.8394 236.4 16.9394 243.3 18.0394 246C18.6394 247.5 19.7394 248.4 20.9394 248.8C22.1394 249.2 22.9394 249.4 23.7394 249.5V250Z" fill="white"/>
<path d="M86.3183 184.7C85.3183 184.8 84.6183 184.9 83.8183 185.2C82.5183 185.6 81.4183 186.5 80.6183 188.3C79.8183 190.1 79.3183 192.4 79.3183 197.2V251H78.0183L39.2183 193.5H38.9183V237.1C38.9183 241.9 39.4183 244.2 40.1183 246C40.8183 247.7 42.2183 248.6 43.5183 249.1C44.3183 249.4 45.0183 249.5 46.0183 249.6V250H30.2183V249.6C31.2183 249.5 32.0183 249.4 32.8183 249.1C34.1183 248.6 35.5183 247.5 36.1183 246C36.8183 244.2 37.5183 241.9 37.5183 237.1V200.8C37.5183 194.5 36.6183 191.4 35.7183 189.6C34.8183 187.8 33.1183 186.3 31.5183 185.6C30.4183 185.1 29.8183 185 28.9183 184.8V184.3H41.5183L77.7183 238.4H77.9183V197.2C77.9183 192.4 77.4183 190.1 76.6183 188.3C75.9183 186.8 74.7183 185.9 73.3183 185.3C72.6183 185 71.6183 184.8 70.8183 184.7V184.3H86.3183V184.7Z" fill="white"/>
<path d="M131.616 232.5C131.616 244.6 121.616 251.4 111.316 251.4C104.416 251.4 99.616 248.4 96.316 245.1H95.916L93.816 249.1H93.416L92.516 229H93.116C95.616 240 100.616 250 111.216 250C121.516 250 125.716 243.6 125.716 236.8C125.716 225.9 120.316 223.7 109.716 218.4C100.716 213.9 93.116 209.6 93.116 198.8C93.116 190.6 99.616 183 111.216 183C116.716 183 121.816 185.1 124.316 188.1L125.816 184.5H126.616L128.116 200.5H127.516C126.316 195.5 123.316 189.9 119.616 187.3C117.716 185.9 115.316 184.4 110.916 184.4C105.216 184.4 98.916 187.3 98.916 195.4C98.916 205.3 106.416 208 114.516 212.2C126.116 218.2 131.616 221.2 131.616 232.5Z" fill="white"/>
<path d="M157.431 250H136.731V249.5C137.431 249.4 138.431 249.1 139.131 248.9C140.731 248.4 141.831 247.5 142.431 245.8C143.531 242.6 143.731 236.4 143.731 230.1V204.4C143.731 197.9 143.631 191.5 142.431 188.4C141.731 186.6 140.631 185.9 139.231 185.4C138.531 185.1 137.431 184.9 136.731 184.8V184.3H157.431V184.8C156.531 185 155.731 185.1 154.731 185.5C153.531 186 152.331 186.8 151.731 188.4C150.631 191.6 150.531 197.9 150.531 204.4V230.1C150.531 236.4 150.631 243.3 151.731 246C152.331 247.5 153.431 248.4 154.631 248.8C155.831 249.2 156.631 249.4 157.431 249.5V250Z" fill="white"/>
<path d="M189.01 184.3C196.51 184.3 201.61 186.1 205.81 188.2C214.81 193 221.31 202.3 221.31 217.3C221.31 232.2 214.01 241.5 205.41 246.1C201.31 248.3 196.11 250 189.21 250H162.61V249.6C163.41 249.5 164.31 249.4 165.31 249C166.81 248.4 167.81 247.6 168.41 246.2C169.51 242.9 169.81 236.5 169.81 230.2V204.1C169.81 197.8 169.51 191.4 168.41 188.1C167.81 186.7 166.61 185.7 165.11 185.2C164.11 184.9 163.31 184.9 162.61 184.8V184.3H189.01ZM188.81 185.6H184.21C182.51 185.6 180.31 185.9 179.01 186.7C176.11 188.5 176.61 193.2 176.61 196.5V237.3C176.61 241.6 176.21 245.6 178.81 247.6C179.81 248.4 181.41 248.7 184.01 248.7H188.81C195.51 248.7 200.11 247.2 204.31 243.1C209.51 238.1 213.51 229.2 213.51 217.3C213.51 205.4 209.51 195.6 203.41 190.6C199.01 187 195.01 185.6 188.81 185.6Z" fill="white"/>
<path d="M257.653 185.6H249.853C248.553 185.6 246.653 185.7 245.353 186.5C241.153 189.1 241.353 196.2 241.353 200.1V215.2H249.953C254.153 215.2 255.853 214.6 257.153 213.3C259.153 211.5 260.453 207.1 260.753 204.6H261.154V227.1H260.753C260.453 224.7 259.253 220.3 257.354 218.7C256.154 217.6 254.153 216.5 249.953 216.5H241.353V234.6C241.353 238.2 240.853 245.4 244.753 247.8C246.153 248.6 248.553 248.7 250.053 248.7H257.553C263.353 248.7 266.653 246.9 268.553 245.1C272.254 241.6 273.853 236.9 274.953 234.1H275.353L273.453 250H227.453V249.6C228.153 249.5 229.153 249.4 229.753 249.2C231.153 248.8 232.653 247.6 233.153 246.3C234.453 243.2 234.553 236.5 234.553 230.2V204.3C234.553 197.8 234.353 191.5 233.253 188.3C232.653 186.7 231.453 185.8 229.853 185.2C229.053 184.9 228.153 184.8 227.453 184.7V184.3H270.253L272.553 200H271.953C270.453 195.7 268.153 190.9 264.753 188.1C263.653 187.2 261.253 185.6 257.653 185.6Z" fill="white"/>
<path d="M356.21 199.8H355.71C354.81 197.8 352.01 191.7 347.01 188.6C343.81 186.6 341.01 185.6 336.61 185.6H330.51V230.1C330.51 236.4 330.71 243.3 331.81 246C332.51 247.7 333.61 248.5 335.21 249C335.91 249.2 336.51 249.3 337.61 249.5V250H316.51V249.5C317.41 249.3 318.11 249.2 318.91 248.9C320.31 248.4 321.61 247.5 322.21 246C323.51 242.8 323.71 236.4 323.71 230.1V185.6H317.51C313.21 185.6 310.01 186.7 306.81 188.9C302.31 192 299.51 197.6 298.51 199.8H298.01L301.61 184.3H352.61L356.21 199.8Z" fill="white"/>
<path d="M359.387 250V249.5C360.087 249.4 361.087 249.3 361.687 249.1C363.287 248.7 364.587 247.4 365.087 246.1C366.287 242.7 366.387 236.4 366.387 230V204.2C366.387 197.9 366.487 191.4 365.087 188.3C364.387 186.7 363.287 185.9 361.987 185.4C361.187 185.1 360.187 184.9 359.387 184.8V184.3H380.087V184.8C379.387 184.9 378.687 185 377.987 185.2C376.387 185.6 375.087 186.8 374.587 188.3C373.487 191.5 373.187 197.9 373.187 204.2V215.8H403.987V204.2C403.987 197.9 403.687 191.5 402.587 188.3C402.087 186.8 400.787 185.6 399.187 185.2C398.487 185 397.787 184.9 397.187 184.8V184.3H417.787V184.8C417.087 184.9 415.887 185 414.687 185.5C413.587 186 412.587 186.7 411.987 188.3C410.787 191.4 410.787 197.9 410.787 204.2V230C410.787 236.4 410.787 243.4 411.987 246.1C412.587 247.4 413.687 248.4 415.187 248.9C416.087 249.2 417.087 249.4 417.787 249.5V250H397.187V249.5C397.887 249.4 398.587 249.2 399.287 249C400.987 248.4 402.087 247.7 402.587 246.1C403.687 242.6 403.987 236.4 403.987 230V217.1H373.187V230C373.187 236.4 373.387 242.7 374.587 246.1C375.087 247.4 376.687 248.7 378.087 249.1C378.687 249.3 379.387 249.4 380.087 249.5V250H359.387Z" fill="white"/>
<path d="M453.161 185.6H445.361C444.061 185.6 442.161 185.7 440.861 186.5C436.661 189.1 436.861 196.2 436.861 200.1V215.2H445.461C449.661 215.2 451.361 214.6 452.661 213.3C454.661 211.5 455.961 207.1 456.261 204.6H456.661V227.1H456.261C455.961 224.7 454.761 220.3 452.861 218.7C451.661 217.6 449.661 216.5 445.461 216.5H436.861V234.6C436.861 238.2 436.361 245.4 440.261 247.8C441.661 248.6 444.061 248.7 445.561 248.7H453.061C458.861 248.7 462.161 246.9 464.061 245.1C467.761 241.6 469.361 236.9 470.461 234.1H470.861L468.961 250H422.961V249.6C423.661 249.5 424.661 249.4 425.261 249.2C426.661 248.8 428.161 247.6 428.661 246.3C429.961 243.2 430.061 236.5 430.061 230.2V204.3C430.061 197.8 429.861 191.5 428.761 188.3C428.161 186.7 426.961 185.8 425.361 185.2C424.561 184.9 423.661 184.8 422.961 184.7V184.3H465.761L468.061 200H467.461C465.961 195.7 463.661 190.9 460.261 188.1C459.161 187.2 456.761 185.6 453.161 185.6Z" fill="white"/>
</g>
<path d="M381.956 367.466C381.565 368.592 381.175 369.719 380.614 371.337C382.309 371.834 383.683 372.586 385.044 372.563C387.782 372.516 390.579 372.177 392.876 370.443C395.696 368.313 398.673 366.31 401.146 363.819C408.979 355.926 414.203 346.252 419.249 336.476C423.15 328.917 426.644 321.188 429.246 313.085C429.857 311.182 430.042 309.141 430.438 307.167C430.545 306.632 430.606 306.054 430.858 305.588C432.746 302.113 439.347 299.619 443.35 300.874C443.691 300.981 443.926 301.427 444.308 301.814C443.829 303.596 443.341 305.414 442.821 307.354C444.728 306.891 444.36 305.05 445.113 303.97C445.895 302.85 446.532 301.63 447.238 300.457C451.065 294.093 454.98 287.777 460.715 282.899C463.46 280.564 466.543 278.778 470.248 278.849C473.138 280.188 475.963 281.498 479.202 283C479.143 284.722 479.08 286.578 479.019 288.382C478.06 288.725 476.767 288.898 476.717 289.251C476.35 291.795 474.061 292.388 472.482 293.605C468.747 296.483 465.791 300.02 463.105 303.841C460.432 307.643 457.681 311.391 454.964 315.162L454.96 315.167C454.751 315.471 454.542 315.775 454.333 316.079L454.261 316.17C451.042 321.104 448.462 326.361 446.445 331.889C446.332 332.199 446.82 332.727 447.028 333.154C447.17 333.254 447.314 333.353 447.458 333.451C446.717 335.921 445.918 338.375 445.245 340.864C443.507 347.3 441.875 353.766 440.084 360.188C439.624 361.84 438.734 363.372 438.023 365.003C433.744 363.564 430.995 360.948 428.59 357.78C427.731 356.649 426.353 355.909 425.212 354.99L424.881 354.749C425.731 352.97 426.58 351.191 427.43 349.412C424.844 352.399 422.854 355.7 420.889 359.015C420.767 359.221 420.852 359.549 420.84 359.819L420.888 359.754C420.649 360.097 420.409 360.441 420.17 360.784L420.218 360.712C419.989 361.038 419.758 361.365 419.528 361.691L419.511 361.716C419.347 361.943 419.184 362.169 419.02 362.395C418.909 362.564 418.796 362.732 418.68 362.898C418.409 362.99 418.273 363.185 418.273 363.485L418.09 363.753L417.579 364.483L417.463 364.671C417.312 364.89 417.161 365.108 417.009 365.327C416.901 365.469 416.799 365.614 416.702 365.764C416.406 365.822 416.278 365.997 416.319 366.287C416.208 366.447 416.1 366.608 415.994 366.772C415.699 366.845 415.557 367.036 415.571 367.343L415.398 367.564C414.526 368.481 413.652 369.399 412.78 370.317L412.564 370.622C411.872 371.266 411.18 371.911 410.488 372.555L410.54 372.493L406.031 375.856L406.083 375.803C401.083 378.731 401.083 378.731 400.34 380.768C391.769 383.844 383.61 383.201 376.028 378.282C373.199 381.156 370.439 383.959 367.679 386.761L367.738 386.802C367.157 386.788 366.399 386.529 366.026 386.801C363.924 388.332 361.95 390.038 359.867 391.595C351.153 398.11 338.731 395.327 334.385 385.698C332.695 381.955 332.513 377.483 331.949 373.302C331.666 371.205 332.064 369.017 332.178 366.321C331.492 367.123 331.049 367.444 330.878 367.873C329.379 371.661 326.757 374.616 323.978 377.489C320.759 380.815 317.722 384.318 314.45 387.587C310.805 391.229 306.217 393.436 301.444 395.131C297.989 396.358 294.635 395.493 291.719 393.332C289.629 391.783 287.464 390.239 285.73 388.331C283.514 385.895 282.149 382.917 281.464 379.61C279.847 371.801 279.085 363.95 279.786 355.983C279.832 355.461 279.616 354.916 279.007 354.202C278.631 355.36 278.118 356.492 277.902 357.679C276.755 363.998 273.591 369.494 270.766 375.104C267.627 381.335 264.407 387.543 260.856 393.544C257.787 398.732 254.422 403.782 250.783 408.586C247.395 413.057 243.619 417.262 239.75 421.333C234.807 426.534 228.811 429.808 221.487 430.49C215.696 431.028 211.35 428.644 208.027 424.223C206.579 422.296 205.647 419.98 204.38 417.657C203.719 417.995 203.028 418.349 202.337 418.702C202.155 418.575 201.973 418.447 201.792 418.317C202.442 417.362 203.091 416.407 203.741 415.452C203.519 415.279 203.297 415.107 203.076 414.933C200.539 418.166 197.635 421.088 195.572 424.721L195.625 424.653L194.908 425.683L194.948 425.624C193.141 426.014 191.84 426.976 191.324 428.826C189.334 429.618 187.798 430.886 187.016 432.942C186.874 433.073 186.732 433.204 186.855 433.09C186.776 433.239 186.867 433.069 186.958 432.898C188.395 431.526 189.832 430.154 191.269 428.782C192.09 428.356 192.912 427.929 194.671 427.017C193.871 428.292 193.672 428.864 193.275 429.201C188.38 433.361 183.654 437.762 178.462 441.515C175.428 443.709 171.589 444.759 168.199 446.493C163.108 449.098 158.373 447.696 153.7 445.425C148.029 442.667 142.694 439.495 139.045 434.066C136.254 429.914 134.667 425.284 133.232 420.578C132.599 418.501 131.994 416.385 131.696 414.242C131.115 410.045 130.486 405.823 130.363 401.598C130.075 391.647 130.286 381.7 131.339 371.778C131.534 369.928 130.793 367.997 130.786 366.102C130.779 364.218 131.154 362.334 131.362 360.45C131.477 360.313 131.593 360.176 131.563 360.211C131.584 360.17 131.501 360.33 131.419 360.489C131.115 360.75 130.634 360.954 130.533 361.278C129.122 365.773 127.763 370.284 126.391 374.792C126.218 375.388 126.043 375.985 125.87 376.581C124.609 377.487 124.544 378.749 124.817 380.112C124.417 381.021 124.016 381.929 123.616 382.836C123.46 383.163 123.303 383.489 123.541 382.993C123.502 383.557 123.528 383.178 123.554 382.799C123.955 381.889 124.356 380.98 124.757 380.071C125.108 378.895 125.458 377.72 125.809 376.544C125.983 375.948 126.157 375.352 126.33 374.755C126.847 374.405 127.364 374.054 127.881 373.703L127.823 373.668C127.339 377.57 126.82 381.374 124.74 384.941C123.342 387.337 122.971 390.319 122.032 393C121.503 394.513 120.784 395.964 120.089 397.414C119.618 398.399 118.947 399.295 118.521 400.296C114.776 409.114 111.056 417.943 107.36 426.781C107 427.641 106.851 428.59 106.604 429.497L106.641 429.435C105.104 431.358 103.49 433.133 104.806 436.014C105.217 436.913 104.711 438.564 104.1 439.545C99.2813 447.289 95.2568 455.678 87.0664 460.749C85.3416 461.816 83.6646 462.44 81.6536 462.146C75.5637 461.255 69.8681 459.439 65.5852 454.733C64.2311 453.247 63.114 451.472 62.1996 449.671C58.7048 442.785 57.6355 435.397 57.9646 427.752C57.9796 427.394 57.8001 427.029 57.488 425.753C56.3636 428.141 55.5039 429.791 54.7953 431.504C52.645 436.699 50.3222 441.838 48.5081 447.15C46.9398 451.742 44.7593 455.989 42.4117 460.174C41.0693 462.568 39.4795 464.824 37.9587 467.114C37.5042 467.798 36.9403 468.417 36.3704 469.012C31.672 473.923 26.2925 475.251 20.3134 472.127C14.9509 469.325 9.96334 465.726 7.92922 459.551C6.39228 454.885 5.03466 450.256 4.88219 445.16C4.61055 436.098 4.77409 427.095 6.13839 418.157C7.19248 411.253 8.58785 404.396 10.0431 397.563C12.0508 388.137 15.3959 379.132 18.8577 370.155C22.4162 360.927 26.4338 351.903 31.2733 343.309C35.7848 335.296 40.8196 327.567 45.87 319.873C48.9125 315.24 53.0463 311.602 57.8251 308.714C59.5704 307.658 61.2942 307.228 63.2801 307.766C64.9856 308.227 66.7172 308.593 68.5735 309.034L69.428 313.88C66.8378 315.123 64.2056 316.185 61.7921 317.616C60.1719 318.577 58.6661 319.896 57.4487 321.341C53.5577 325.96 49.6308 330.538 46.8147 335.989C44.3599 340.742 41.2163 345.14 38.7806 349.901C36.9234 353.531 35.6514 357.465 34.2005 361.295C30.6033 370.789 26.8818 380.24 23.5236 389.819C18.5567 403.988 15.9612 418.673 15.4123 433.65C15.1459 440.893 15.5628 448.194 17.3713 455.294C17.9005 457.372 18.7904 459.358 19.7263 461.976C20.8528 460.877 21.6609 460.228 22.2987 459.442C26.5057 454.258 29.3002 448.256 31.7661 442.148C37.1572 428.794 42.4571 415.399 47.497 401.91C51.8675 390.213 56.1032 378.451 59.8933 366.557C63.5951 354.938 66.7335 343.122 67.5526 330.868C67.6826 328.92 66.9216 326.913 66.476 324.387C66.6648 322.429 68.9847 321.977 70.5957 320.702C74.5672 322.994 79.1228 320.544 83.4598 322.424C84.1826 325.852 83.4657 329.441 83.3368 333.009C83.0798 340.143 81.2365 347.051 80.1591 354.069C78.6862 363.663 77.303 373.27 75.8923 382.873C75.7126 384.091 75.5976 385.319 75.455 386.543C74.4439 395.218 73.331 403.883 72.449 412.572C71.3777 423.119 71.4814 433.633 73.9399 444.034C74.5233 446.5 75.3728 448.728 77.7242 450.458C78.3978 449.913 79.2817 449.46 79.7862 448.742C82.0006 445.592 84.394 442.518 86.2002 439.137C93.3813 425.7 99.9199 411.952 105.635 397.814C108.918 389.692 112.711 381.763 115.667 373.528C117.276 369.046 118.987 364.624 120.845 360.321C120.052 359.979 119.319 359.663 118.585 359.346L120.496 358.888C120.429 358.732 120.361 358.575 120.294 358.418C119.737 358.738 119.181 359.059 118.626 359.379C115.655 359.827 112.747 360.542 109.662 359.845C106.134 359.05 103.925 356.724 102.12 353.93C101.027 352.239 101.875 349.892 104.076 347.808C104.75 348.825 105.395 349.799 106.325 351.203C107.815 350.866 109.622 350.755 111.158 350.053C115.002 348.295 118.643 346.082 122.516 344.4C126.704 342.582 128.61 339.123 129.893 335.161C131.329 330.727 132.846 326.295 134.148 321.851C135.857 316.02 138.199 310.498 140.385 304.881C140.872 303.633 140.837 302.191 141.212 300.887C142.001 298.141 142.544 295.371 143.945 292.747C145.336 290.145 145.869 287.07 146.68 284.175C148.419 277.973 150.105 271.755 151.786 265.536C152.106 264.35 152.432 263.139 152.524 261.923C152.739 259.08 154.611 257.537 157.015 257.351C160.03 257.118 163.291 256.526 166.333 258.921C165.981 259.373 165.624 259.828 165.176 260.403C165.617 261.016 166.084 261.663 166.453 262.175C159.729 283.059 153.286 303.903 149.411 326.507C152.403 324.512 154.641 323.09 156.806 321.564C170.564 311.863 184.713 302.762 199.244 294.271C207.614 289.381 216.31 285.146 225.164 281.123C232.525 277.779 240.199 275.383 247.585 272.191C250.701 270.844 254.139 270.212 257.463 269.386C258.397 269.154 259.445 269.388 260.441 269.409L260.607 270.233C256.862 271.815 253.118 273.396 248.657 275.279C252.886 276.029 255.69 272.202 259.838 274.471C254.551 277.158 249.713 279.619 244.737 282.149C245.448 282.319 245.957 282.442 246.702 282.62C245.649 283.242 244.821 283.868 243.894 284.258C233.408 288.673 223.908 294.886 214.1 300.537C211.261 302.173 208.361 303.711 205.595 305.46C204.259 306.304 203.167 307.533 201.965 308.587L202.008 308.536C200.732 308.892 199.303 308.993 198.207 309.65C194.466 311.894 190.879 314.395 187.16 316.677C184.626 318.232 181.969 319.584 178.985 321.238C180.072 321.48 180.59 321.595 181.527 321.804C180.616 322.502 179.943 323.018 179.204 323.584C178.673 323.081 178.212 322.646 177.844 322.297C176.021 323.739 174.421 324.994 172.836 326.267C172.315 326.684 171.657 327.057 171.366 327.611C170.191 329.851 170.235 329.873 167.898 328.993C167.115 330.401 166.306 331.859 165.366 333.553C164.986 333.049 164.66 332.618 164.226 332.044C160.24 334.94 155.484 336.83 152.619 341.141C152.298 340.961 151.971 340.778 151.675 340.61C150.16 342.408 148.703 344.136 146.594 346.637C145.435 353.505 144.146 361.418 144.068 369.489C144.044 371.891 143.215 374.317 143.405 376.68C143.843 382.132 142.498 387.492 143.014 392.962C143.423 397.292 142.631 401.747 143.141 406.055C143.961 412.98 144.637 420.005 147.687 426.464C148.383 427.938 148.927 429.488 149.684 430.928C152.212 435.726 156.86 437.384 161.79 435.224C166.579 433.126 171.116 430.498 174.822 426.821C180.563 421.124 186.071 415.188 191.565 409.25C194.077 406.534 196.202 403.458 198.728 400.756C200.526 398.834 201.208 396.889 201.286 394.19C201.676 380.49 205.311 367.459 210.132 354.725C210.95 352.565 211.994 350.491 212.933 348.376C213.129 348.492 213.321 348.613 213.51 348.74C212.149 353.879 210.672 358.988 209.456 364.16C207.493 372.51 205.941 380.939 205.52 389.534C205.503 389.889 205.807 390.259 206.092 390.93C206.679 390.347 207.19 389.953 207.559 389.456C212.14 383.29 216.685 377.099 221.277 370.942C221.917 370.084 222.753 369.371 223.497 368.59L223.451 368.558C223.268 369.323 223.205 370.142 222.881 370.84C221.637 373.518 220.309 376.156 218.95 378.934C221.037 378.869 222.293 378.119 223.318 376.484C226.652 371.159 230.162 365.944 233.605 360.687C233.809 360.818 234.014 360.949 234.22 361.079C234.192 361.563 234.166 362.046 234.139 362.53L234.177 362.454C233.644 363.146 232.246 363.582 233.485 364.797C233.684 364.98 233.887 365.158 234.095 365.332C232.911 367.125 231.728 368.92 230.544 370.714C230.444 370.156 230.345 369.597 230.245 369.039L230.406 368.696C230.372 368.824 230.337 368.951 230.304 369.078C229.859 369.712 229.414 370.345 228.969 370.979C228.741 371.301 228.513 371.624 228.285 371.947C228.174 372.08 228.061 372.213 228.137 372.124C228.093 372.23 228.161 372.068 228.228 371.904L228.908 370.94L230.587 370.652C228.033 374.545 225.303 378.338 222.972 382.362C220.589 386.474 217.863 390.438 216.423 395.05C216.26 395.573 216.062 396.107 215.766 396.56C213.002 400.8 210.214 405.024 207.21 409.59C208.25 412.283 209.143 415.321 210.552 418.098C213.739 424.379 221.464 424.953 226.115 421.653C231.057 418.148 235.657 414.234 239.297 409.358C244.891 401.865 250.637 394.462 255.792 386.674C261.392 378.213 266.308 369.315 270.685 360.131C273.871 353.447 277.382 346.915 280.498 340.199C281.749 337.505 282.392 334.519 283.206 331.635C286.934 318.437 290.359 305.146 294.397 292.044C299.043 276.969 304.228 262.063 309.152 247.074C309.964 244.603 310.577 242.064 311.425 239.606C311.691 238.835 312.429 238.228 312.984 237.503C314.41 238.756 314.242 239.922 313.923 241.178C312.576 246.482 311.275 251.798 309.952 257.109C308.064 264.682 306.249 272.275 304.258 279.821C302.404 286.845 300.343 293.813 298.402 300.814C294.893 313.472 290.904 325.99 288.823 339.032C287.505 347.291 286.531 355.562 286.843 363.874C287.057 369.564 287.488 375.362 289.642 380.804C290.337 382.56 291.923 384.555 294.545 386.726C297.282 386.941 299.666 385.742 301.742 384.244C305.183 381.761 308.366 378.957 310.895 375.448C316.37 367.848 321.009 359.767 325.592 351.605C332.924 338.547 338.778 324.794 345.3 311.357C347.194 307.455 348.266 303.134 349.516 298.946C350.192 296.686 351.157 294.987 353.556 294.212C355.75 293.504 357.85 292.509 359.918 291.67C362.876 293.892 362.995 293.963 361.459 296.53C357.335 303.422 355.09 311.076 352.388 318.541C348.184 330.156 345.043 342.078 342.511 354.162C340.852 362.083 339.778 370.092 340.567 378.178C340.781 380.369 341.969 382.629 343.227 384.51C344.713 386.731 347.306 386.857 350.273 385.184C351.816 384.314 353.353 383.292 354.58 382.034C358.518 377.999 362.252 373.794 365.313 369.006C367.413 365.723 367.806 362.325 367.702 358.489C367.568 353.475 367.902 348.375 368.722 343.426C370.523 332.561 373.886 322.148 378.928 312.303C380.052 310.11 381.269 308.485 383.98 308.068C386.934 307.613 389.805 306.614 392.711 305.852C394.801 305.304 396.804 305.382 398.849 307.026C399.46 308.688 400.21 310.729 400.754 312.213C399.885 314.673 399.088 316.619 398.511 318.628C397.677 321.528 396.971 324.466 396.269 327.402C395.477 330.715 394.937 334.1 393.956 337.353C392.258 342.987 390.622 348.644 387.984 353.966C385.788 358.397 383.927 362.996 381.918 367.521C381.807 367.468 381.694 367.414 381.582 367.36L381.956 367.466ZM212.34 424.285L211.472 424.441C211.434 423.712 211.396 422.984 211.359 422.255C210.527 423.097 210.465 423.83 211.508 424.376C211.766 424.334 212.026 424.291 212.285 424.248C212.386 424.119 212.488 423.989 212.464 424.02C212.48 423.985 212.41 424.135 212.34 424.285ZM102.915 436.861C102.743 437.449 102.571 438.036 102.399 438.624C102.172 438.948 101.945 439.271 101.718 439.594C101.05 440.546 100.382 441.498 99.715 442.45C99.6238 442.595 99.5325 442.739 99.5365 442.733C99.5348 442.737 99.5963 442.577 99.6585 442.416C101.211 442.082 101.89 441.134 101.662 439.553C101.89 439.231 102.116 438.908 102.344 438.585C102.516 437.997 102.689 437.41 102.862 436.822C102.987 436.704 103.111 436.585 103.075 436.619C103.104 436.577 103.01 436.719 102.915 436.861ZM304.768 267.798L303.826 269.188C304.065 269.267 304.304 269.345 304.543 269.424C304.607 268.874 304.671 268.325 304.737 267.776C304.832 267.718 304.95 267.677 305.016 267.595C305.058 267.543 305.023 267.43 305.022 267.343C304.937 267.494 304.852 267.646 304.768 267.798ZM210.524 395.17C212.356 394.444 213.451 393.057 214.054 391.231C215.847 389.219 218.085 387.542 219.55 384.202C214.868 388.353 214.868 388.353 214.027 391.21C212.878 392.544 211.729 393.878 210.58 395.211C210.457 395.323 210.333 395.436 210.431 395.346C210.369 395.465 210.446 395.318 210.524 395.17ZM204.441 413.085C204.305 412.721 204.169 412.356 204.032 411.991C203.896 412.092 203.758 412.193 203.622 412.294C203.908 412.54 204.195 412.788 204.482 413.035C204.817 413.756 205.152 414.476 205.487 415.197L206.064 414.982C206.187 413.827 206.309 412.673 206.46 411.257C205.625 412.013 205.033 412.548 204.441 413.085ZM204.039 396.316C204.304 396.271 204.569 396.226 204.833 396.181C205.023 395.837 205.442 395.434 205.369 395.161C204.258 390.986 204.493 386.773 204.892 382.546C204.917 382.293 204.63 382.012 204.168 381.14C203.425 385.388 202.789 389.003 203.205 392.659C203.34 393.851 202.205 395.482 204.039 396.316ZM384.298 327.373C380.968 330.779 377.304 341.96 377.887 346.406C379.729 339.963 383.594 334.762 384.298 327.373ZM204.132 403.532C200.626 405.89 198.989 408.459 198.444 412.015C199.168 412.031 199.673 412.042 200.394 412.059C200.493 409.486 201 407.187 203.613 405.721C204.13 407.201 204.566 408.453 205.003 409.704C205.07 409.671 205.137 409.638 205.203 409.605L204.132 403.532ZM231.692 422.245C233.394 420.773 235.097 419.301 236.871 417.769C236.495 417.287 236.174 416.876 235.674 416.236C234.487 418.46 231.843 419.263 231.692 422.245ZM229.899 422.939C229.793 422.622 229.687 422.304 229.581 421.987C227.639 422.922 225.697 423.857 223.755 424.792C223.891 425.076 224.027 425.358 224.164 425.641L229.899 422.939ZM244.636 409.212C242.774 409.846 241.439 410.452 242.334 412.128C242.979 413.337 244.146 412.736 245.116 411.934L244.636 409.212ZM251.75 403.326C250.73 402.109 249.72 402.592 248.71 402.994C248.752 403.079 248.795 403.165 248.927 403.434C249.814 403.4 250.782 403.363 251.75 403.326ZM302.619 272.006C302.588 272.242 302.459 272.539 302.555 272.699C302.643 272.844 302.976 272.842 303.201 272.905C303.237 272.692 303.375 272.39 303.285 272.284C303.147 272.121 302.85 272.091 302.619 272.006ZM220.735 425.793C220.853 425.799 220.975 425.821 221.088 425.802C221.124 425.795 221.142 425.681 221.168 425.615C221.051 425.609 220.931 425.588 220.818 425.608C220.78 425.615 220.763 425.729 220.735 425.793ZM122.5 359.777L122.408 360.004L122.602 360.001L122.5 359.777Z" fill="white"/>
<path d="M241.75 314.995C238.263 312.944 235.122 313.481 232.203 316.185C231.02 317.28 229.703 318.233 228.448 319.25C228.266 319.123 228.085 318.997 227.902 318.872C229.737 315.553 232.135 312.803 235.658 311.181C240.728 308.847 246.943 311.989 248.223 317.439C249.767 324.011 249.548 330.533 247.343 336.856C245.18 343.061 242.625 349.133 240.148 355.225C239.64 356.473 238.716 357.552 237.984 358.708C237.752 358.576 237.521 358.443 237.289 358.31C237.305 357.831 237.321 357.353 237.336 356.874C237.562 356.552 237.788 356.23 238.014 355.909C239.195 355.344 239.293 354.307 239.204 353.187C239.429 352.864 239.655 352.54 239.88 352.217C241.412 349.368 243.246 346.636 243.325 343.232C243.499 342.636 243.673 342.041 243.846 341.444C244.248 340.537 244.65 339.628 245.051 338.72C246.382 335.968 247.567 333.187 246.866 330.012L247.05 329.672L246.921 330.052C246.316 332.953 245.711 335.854 245.106 338.754C244.707 339.662 244.308 340.57 243.909 341.478C243.734 342.075 243.56 342.671 243.384 343.267C242.22 345.601 241.004 347.913 239.929 350.288C239.682 350.832 239.92 351.596 239.935 352.258C239.709 352.58 239.483 352.902 239.257 353.223C238.187 353.837 237.885 354.786 238.066 355.946C237.84 356.267 237.615 356.589 237.389 356.91C236.561 357.99 235.733 359.071 234.907 360.151L234.216 359.676C236.682 354.074 239.252 348.515 241.586 342.858C243.876 337.306 245.229 331.465 245.656 325.483C245.817 323.218 245.147 320.893 244.856 318.595C245.276 319.223 245.893 319.799 246.078 320.491C246.478 321.979 246.655 323.526 246.924 325.049C247.103 319.702 246.995 319.361 244.933 317.403C244.927 317.862 244.922 318.256 244.917 318.649C244.227 317.92 243.538 317.189 242.848 316.459L242.811 316.511C243.369 316.114 243.41 315.807 242.66 315.636L242.721 315.677L241.7 314.96L241.75 314.995Z" fill="white"/>
<path d="M359.612 264.598C361.781 265.176 364.349 264.797 366.16 267.499C365.213 268.3 364.354 269.026 363.319 269.901C363.321 270.587 363.323 271.49 363.325 272.378C361.726 273.299 360.582 272.409 359.513 271.675C357.236 270.11 357.268 269.079 359.612 264.598Z" fill="white"/>
<path d="M200.964 420.602C199.575 423.03 198.13 425.41 195.427 427.082C195.246 426.53 195.097 426.076 194.948 425.624L194.908 425.683C195.148 425.339 195.387 424.996 195.626 424.653L195.572 424.721C197.177 423.204 198.782 421.687 200.386 420.171C200.579 420.315 200.771 420.459 200.964 420.602Z" fill="white"/>
<path d="M422.558 359.543C421.247 361.749 420.31 364.253 417.795 365.494L417.559 365.317C417.577 365.094 417.545 364.879 417.463 364.671L417.579 364.483C417.749 364.239 417.92 363.996 418.09 363.753L418.273 363.485C418.556 363.393 418.692 363.198 418.68 362.898C418.796 362.732 418.909 362.563 419.021 362.394C419.184 362.168 419.348 361.942 419.511 361.716L419.528 361.691C419.757 361.364 419.988 361.038 420.218 360.712L420.17 360.784C420.409 360.44 420.648 360.097 420.888 359.754L420.84 359.819L422.402 359.438L422.558 359.543Z" fill="white"/>
<path d="M237.985 358.709C236.925 360.592 235.864 362.476 234.803 364.359C234.558 364.203 234.313 364.048 234.067 363.891C234.103 363.412 234.141 362.933 234.178 362.454L234.14 362.529L237.289 358.31C237.521 358.444 237.753 358.577 237.985 358.709Z" fill="white"/>
<path d="M185.909 319.589C185.237 320.246 184.566 320.903 183.318 322.124C183.602 319.945 184.595 319.605 185.909 319.589Z" fill="white"/>
<path d="M405.318 377.426C405.573 376.885 405.828 376.344 406.083 375.803L406.031 375.856C406.805 375.66 407.58 375.464 408.354 375.268L408.662 375.528L405.718 377.744C405.583 377.639 405.45 377.533 405.318 377.426Z" fill="white"/>
<path d="M424.001 356.998C423.52 357.846 423.039 358.696 422.558 359.545L422.402 359.439C422.735 358.484 423.068 357.529 423.401 356.573C423.602 356.714 423.802 356.855 424.001 356.998Z" fill="white"/>
<path d="M212.933 348.376C213.198 347.562 213.463 346.748 213.895 345.422C214.776 347.122 214.163 347.936 213.51 348.74C213.321 348.613 213.129 348.492 212.933 348.376Z" fill="white"/>
<path d="M248.086 281.367L249.709 281.081C249.729 281.198 249.749 281.316 249.77 281.434L248.148 281.72C248.127 281.602 248.107 281.484 248.086 281.367Z" fill="white"/>
<path d="M127.882 373.704C127.869 373.342 127.857 372.98 127.876 373.543C128.093 373.026 127.958 373.347 127.823 373.668L127.882 373.704Z" fill="white"/>
<path d="M412.282 372.336C411.798 372.709 411.313 373.082 410.829 373.455L410.487 373.226C410.521 372.982 410.539 372.738 410.54 372.493L410.488 372.555L412.004 372.13L412.282 372.336Z" fill="white"/>
<path d="M410.131 374.397C409.642 374.774 409.15 375.151 408.662 375.528L408.354 375.268L409.796 374.151C409.908 374.233 410.019 374.316 410.131 374.397Z" fill="white"/>
<path d="M405.718 377.744C405.258 378.048 404.8 378.352 404.341 378.656C404.251 378.48 404.161 378.305 404.071 378.128C404.487 377.895 404.902 377.66 405.318 377.426C405.45 377.533 405.583 377.639 405.718 377.744Z" fill="white"/>
<path d="M403.122 379.386C402.918 379.516 402.72 379.728 402.508 379.744C402.358 379.755 402.188 379.499 402.027 379.362C402.235 379.232 402.435 379.022 402.654 379C402.796 378.987 402.965 379.247 403.122 379.386Z" fill="white"/>
<path d="M201.965 308.588C202.289 308.881 202.612 309.174 202.935 309.467C202.76 309.568 202.586 309.67 202.411 309.772C202.277 309.36 202.142 308.948 202.008 308.537L201.965 308.588Z" fill="white"/>
<path d="M197.56 311.884C197.809 311.566 198.06 311.249 198.309 310.931L198.675 311.411C198.286 311.557 197.897 311.703 197.509 311.849L197.56 311.884Z" fill="white"/>
<path d="M177.419 324.902C177.428 325.003 177.482 325.15 177.436 325.194C177.35 325.277 177.207 325.3 177.087 325.348C177.072 325.183 177.057 325.017 177.041 324.852C177.168 324.869 177.293 324.886 177.419 324.902Z" fill="white"/>
<path d="M228.448 319.252C228.196 319.42 227.944 319.588 227.692 319.756C227.762 319.462 227.832 319.166 227.902 318.872C228.085 318.998 228.266 319.124 228.448 319.252Z" fill="white"/>
<path d="M242.848 316.459C242.529 316.235 242.211 316.011 241.893 315.787L241.852 315.835L242.721 315.677L242.66 315.636C242.711 315.928 242.761 316.219 242.811 316.511L242.848 316.459Z" fill="white"/>
<path d="M241.893 315.787L241.751 314.996L241.7 314.96L241.852 315.835L241.893 315.787Z" fill="white"/>
<path d="M197.508 311.85C197.425 312.002 197.342 312.153 197.362 312.116C197.335 312.149 197.447 312.017 197.559 311.885L197.508 311.85Z" fill="white"/>
<path d="M201.698 419.683C201.453 419.989 201.208 420.296 200.964 420.602C200.771 420.459 200.579 420.315 200.386 420.171C200.601 419.852 200.816 419.534 201.032 419.216C201.254 419.371 201.476 419.527 201.698 419.683Z" fill="white"/>
<path d="M202.338 418.704L201.698 419.684C201.477 419.528 201.254 419.372 201.032 419.217C201.285 418.917 201.539 418.617 201.792 418.317C201.973 418.447 202.155 418.576 202.338 418.704Z" fill="white"/>
<path d="M367.68 386.762C367.595 386.916 367.511 387.069 367.521 387.049C367.507 387.065 367.623 386.934 367.739 386.803L367.68 386.762Z" fill="white"/>
<path d="M106.604 429.497C106.892 429.446 107.18 429.396 107.467 429.346L107.411 429.306C107.155 429.349 106.898 429.392 106.641 429.435L106.604 429.497Z" fill="white"/>
<path d="M107.467 429.346C107.564 429.178 107.66 429.011 107.618 429.083C107.675 429.022 107.541 429.164 107.411 429.306L107.467 429.346Z" fill="white"/>
<path d="M209.704 409.595C209.634 409.814 209.565 410.033 209.495 410.251L209.75 409.627L209.704 409.595Z" fill="white"/>
<path d="M410.829 373.455C410.596 373.769 410.364 374.082 410.13 374.396C410.019 374.315 409.907 374.232 409.797 374.15C410.026 373.841 410.257 373.534 410.487 373.226L410.829 373.455Z" fill="white"/>
<path d="M210.382 408.64C210.157 408.959 209.93 409.278 209.704 409.595L209.75 409.627C209.972 409.305 210.193 408.984 210.415 408.663L210.382 408.64Z" fill="white"/>
<path d="M210.415 408.663C210.622 408.33 210.829 407.998 211.036 407.665L211.101 407.711C210.862 408.02 210.622 408.33 210.382 408.64L210.415 408.663Z" fill="white"/>
<path d="M413.026 371.412L412.282 372.336L412.004 372.13C412.199 371.802 412.395 371.474 412.59 371.146C412.736 371.234 412.881 371.322 413.026 371.412Z" fill="white"/>
<path d="M211.712 406.72L211.101 407.709L211.036 407.664L211.765 406.757L211.712 406.72Z" fill="white"/>
<path d="M412.78 370.317L413.026 371.412C412.881 371.322 412.736 371.234 412.59 371.146C412.628 370.969 412.619 370.794 412.564 370.622L412.78 370.317Z" fill="white"/>
<path d="M211.765 406.757C211.858 406.581 211.952 406.405 211.909 406.486C211.968 406.415 211.84 406.567 211.712 406.72L211.765 406.757Z" fill="white"/>
<path d="M415.246 369.414L414.451 369.908C414.513 369.603 414.574 369.299 414.635 368.995C414.84 369.132 415.043 369.272 415.246 369.414Z" fill="white"/>
<path d="M415.881 368.421C415.669 368.752 415.458 369.084 415.246 369.414C415.043 369.272 414.84 369.132 414.635 368.995C414.862 368.685 415.089 368.375 415.316 368.066C415.507 368.18 415.695 368.299 415.881 368.421Z" fill="white"/>
<path d="M416.531 367.454C416.314 367.777 416.097 368.098 415.881 368.421C415.695 368.299 415.507 368.18 415.316 368.066C415.361 367.902 415.388 367.734 415.398 367.564L415.571 367.343C415.723 367.276 415.872 367.202 416.017 367.119C416.189 367.229 416.361 367.34 416.531 367.454Z" fill="white"/>
<path d="M214.556 403.003C214.405 403.132 214.252 403.262 214.1 403.392C214.173 403.205 214.245 403.018 214.318 402.83L214.556 403.003Z" fill="white"/>
<path d="M417.214 366.506C416.986 366.822 416.758 367.138 416.531 367.454C416.361 367.34 416.191 367.228 416.017 367.119L415.994 366.772C416.1 366.608 416.208 366.447 416.319 366.287L416.537 366.258L416.745 366.185C416.901 366.293 417.058 366.399 417.214 366.506Z" fill="white"/>
<path d="M215.37 402.142C215.099 402.429 214.828 402.715 214.556 403.002L214.318 402.829C214.484 402.471 214.649 402.112 214.815 401.754C215.002 401.881 215.186 402.01 215.37 402.142Z" fill="white"/>
<path d="M417.795 365.494C417.602 365.831 417.408 366.168 417.215 366.505L416.745 366.185C416.78 366.039 416.766 365.9 416.702 365.764C416.799 365.614 416.902 365.468 417.01 365.327C417.193 365.335 417.376 365.331 417.559 365.317L417.795 365.494Z" fill="white"/>
<path d="M214.815 401.754C215.045 401.439 215.275 401.123 215.505 400.808C215.688 400.934 215.869 401.062 216.049 401.192C215.823 401.509 215.596 401.825 215.37 402.142C215.186 402.01 215.002 401.881 214.815 401.754Z" fill="white"/>
<path d="M215.505 400.809C215.729 400.49 215.953 400.171 216.177 399.851C216.36 399.978 216.542 400.105 216.723 400.233C216.498 400.553 216.273 400.873 216.05 401.194C215.869 401.064 215.687 400.935 215.505 400.809Z" fill="white"/>
<path d="M217.13 399.087C216.994 399.468 216.858 399.85 216.723 400.232C216.541 400.104 216.359 399.977 216.177 399.85L217.081 399.053L217.13 399.087Z" fill="white"/>
<path d="M217.082 399.053C217.321 398.746 217.56 398.44 217.798 398.134L217.75 398.1C217.544 398.429 217.338 398.758 217.131 399.086L217.082 399.053Z" fill="white"/>
<path d="M217.799 398.136C218.011 397.808 218.223 397.479 218.436 397.151L218.457 397.166C218.221 397.478 217.986 397.79 217.75 398.103L217.799 398.136Z" fill="white"/>
<path d="M218.436 397.15C218.515 396.949 218.595 396.748 218.674 396.547C218.601 396.753 218.529 396.959 218.457 397.165L218.436 397.15Z" fill="white"/>
<path d="M424.594 355.978C424.396 356.318 424.198 356.658 424.001 356.998C423.802 356.855 423.602 356.714 423.401 356.573C423.643 356.263 423.886 355.953 424.128 355.644C424.282 355.756 424.438 355.868 424.594 355.978Z" fill="white"/>
<path d="M425.212 354.99C425.006 355.319 424.801 355.648 424.594 355.977C424.438 355.867 424.282 355.755 424.128 355.643L424.881 354.749L425.212 354.99Z" fill="white"/>
<path d="M447.028 333.154L447.724 332.606C447.635 332.888 447.546 333.17 447.457 333.452C447.314 333.353 447.17 333.254 447.028 333.154Z" fill="white"/>
<path d="M223.497 368.59C223.585 368.445 223.672 368.299 223.643 368.347C223.681 368.306 223.566 368.432 223.451 368.558L223.497 368.59Z" fill="white"/>
<path d="M234.803 364.361C234.568 364.685 234.332 365.009 234.095 365.334C233.888 365.159 233.685 364.981 233.485 364.798C233.679 364.497 233.873 364.195 234.067 363.893C234.313 364.05 234.558 364.205 234.803 364.361Z" fill="white"/>
<path d="M233.605 360.687C233.808 360.35 234.013 360.012 234.216 359.677L234.907 360.151C234.677 360.46 234.449 360.77 234.22 361.079C234.014 360.949 233.809 360.818 233.605 360.687Z" fill="white"/>
<path d="M455.082 315.967C454.973 316.697 454.692 316.739 454.261 316.17L454.333 316.079C454.602 316.068 454.87 316.041 455.137 316L455.082 315.967Z" fill="white"/>
<path d="M454.964 315.162C455.781 315.315 455.796 315.588 455.082 315.967L455.137 316C455.078 315.722 455.018 315.444 454.96 315.167L454.964 315.162Z" fill="white"/>
<path d="M204.884 396.216C204.591 396.268 204.298 396.32 204.004 396.372C204.166 395.58 204.489 395.693 204.884 396.216Z" fill="white"/>
<defs>
<filter id="filter0_d_1631_13918" x="0.0394287" y="0.46582" width="473.822" height="256.934" filterUnits="userSpaceOnUse" color-interpolation-filters="sRGB">
<feFlood flood-opacity="0" result="BackgroundImageFix"/>
<feColorMatrix in="SourceAlpha" type="matrix" values="0 0 0 0 0 0 0 0 0 0 0 0 0 0 0 0 0 0 127 0" result="hardAlpha"/>
<feOffset dy="3"/>
<feGaussianBlur stdDeviation="1.5"/>
<feComposite in2="hardAlpha" operator="out"/>
<feColorMatrix type="matrix" values="0 0 0 0 0 0 0 0 0 0 0 0 0 0 0 0 0 0 0.658824 0"/>
<feBlend mode="normal" in2="BackgroundImageFix" result="effect1_dropShadow_1631_13918"/>
<feBlend mode="normal" in="SourceGraphic" in2="effect1_dropShadow_1631_13918" result="shape"/>
</filter>
</defs>
</svg>
