<svg width="575" height="508" viewBox="0 0 575 508" fill="none" xmlns="http://www.w3.org/2000/svg">
<g filter="url(#filter0_d_2158_277295)">
<path d="M473.161 175.6H465.361C464.061 175.6 462.161 175.7 460.861 176.5C456.661 179.1 456.861 186.2 456.861 190.1V205.2H465.461C469.661 205.2 471.361 204.6 472.661 203.3C474.661 201.5 475.961 197.1 476.261 194.6H476.661V217.1H476.261C475.961 214.7 474.761 210.3 472.861 208.7C471.661 207.6 469.661 206.5 465.461 206.5H456.861V224.6C456.861 228.2 456.361 235.4 460.261 237.8C461.661 238.6 464.061 238.7 465.561 238.7H473.061C478.861 238.7 482.161 236.9 484.061 235.1C487.761 231.6 489.361 226.9 490.461 224.1H490.861L488.961 240H442.961V239.6C443.661 239.5 444.661 239.4 445.261 239.2C446.661 238.8 448.161 237.6 448.661 236.3C449.961 233.2 450.061 226.5 450.061 220.2V194.3C450.061 187.8 449.861 181.5 448.761 178.3C448.161 176.7 446.961 175.8 445.361 175.2C444.561 174.9 443.661 174.8 442.961 174.7V174.3H485.761L488.061 190H487.461C485.961 185.7 483.661 180.9 480.261 178.1C479.161 177.2 476.761 175.6 473.161 175.6Z" fill="white"/>
<path d="M379.387 240V239.5C380.087 239.4 381.087 239.3 381.687 239.1C383.287 238.7 384.587 237.4 385.087 236.1C386.287 232.7 386.387 226.4 386.387 220V194.2C386.387 187.9 386.487 181.4 385.087 178.3C384.387 176.7 383.287 175.9 381.987 175.4C381.187 175.1 380.187 174.9 379.387 174.8V174.3H400.087V174.8C399.387 174.9 398.687 175 397.987 175.2C396.387 175.6 395.087 176.8 394.587 178.3C393.487 181.5 393.187 187.9 393.187 194.2V205.8H423.987V194.2C423.987 187.9 423.687 181.5 422.587 178.3C422.087 176.8 420.787 175.6 419.187 175.2C418.487 175 417.787 174.9 417.187 174.8V174.3H437.787V174.8C437.087 174.9 435.887 175 434.687 175.5C433.587 176 432.587 176.7 431.987 178.3C430.787 181.4 430.787 187.9 430.787 194.2V220C430.787 226.4 430.787 233.4 431.987 236.1C432.587 237.4 433.687 238.4 435.187 238.9C436.087 239.2 437.087 239.4 437.787 239.5V240H417.187V239.5C417.887 239.4 418.587 239.2 419.287 239C420.987 238.4 422.087 237.7 422.587 236.1C423.687 232.6 423.987 226.4 423.987 220V207.1H393.187V220C393.187 226.4 393.387 232.7 394.587 236.1C395.087 237.4 396.687 238.7 398.087 239.1C398.687 239.3 399.387 239.4 400.087 239.5V240H379.387Z" fill="white"/>
<path d="M376.21 189.8H375.71C374.81 187.8 372.01 181.7 367.01 178.6C363.81 176.6 361.01 175.6 356.61 175.6H350.51V220.1C350.51 226.4 350.71 233.3 351.81 236C352.51 237.7 353.61 238.5 355.21 239C355.91 239.2 356.51 239.3 357.61 239.5V240H336.51V239.5C337.41 239.3 338.11 239.2 338.91 238.9C340.31 238.4 341.61 237.5 342.21 236C343.51 232.8 343.71 226.4 343.71 220.1V175.6H337.51C333.21 175.6 330.01 176.7 326.81 178.9C322.31 182 319.51 187.6 318.51 189.8H318.01L321.61 174.3H372.61L376.21 189.8Z" fill="white"/>
<path d="M277.653 175.6H269.853C268.553 175.6 266.653 175.7 265.353 176.5C261.153 179.1 261.353 186.2 261.353 190.1V205.2H269.953C274.153 205.2 275.853 204.6 277.153 203.3C279.153 201.5 280.453 197.1 280.753 194.6H281.153V217.1H280.753C280.453 214.7 279.253 210.3 277.353 208.7C276.153 207.6 274.153 206.5 269.953 206.5H261.353V224.6C261.353 228.2 260.853 235.4 264.753 237.8C266.153 238.6 268.553 238.7 270.053 238.7H277.553C283.353 238.7 286.653 236.9 288.553 235.1C292.254 231.6 293.853 226.9 294.953 224.1H295.353L293.453 240H247.453V239.6C248.153 239.5 249.153 239.4 249.753 239.2C251.153 238.8 252.653 237.6 253.153 236.3C254.453 233.2 254.553 226.5 254.553 220.2V194.3C254.553 187.8 254.353 181.5 253.253 178.3C252.653 176.7 251.453 175.8 249.853 175.2C249.053 174.9 248.153 174.8 247.453 174.7V174.3H290.253L292.553 190H291.953C290.453 185.7 288.153 180.9 284.753 178.1C283.653 177.2 281.253 175.6 277.653 175.6Z" fill="white"/>
<path d="M209.01 174.3C216.51 174.3 221.61 176.1 225.81 178.2C234.81 183 241.31 192.3 241.31 207.3C241.31 222.2 234.01 231.5 225.41 236.1C221.31 238.3 216.11 240 209.21 240H182.61V239.6C183.41 239.5 184.31 239.4 185.31 239C186.81 238.4 187.81 237.6 188.41 236.2C189.51 232.9 189.81 226.5 189.81 220.2V194.1C189.81 187.8 189.51 181.4 188.41 178.1C187.81 176.7 186.61 175.7 185.11 175.2C184.11 174.9 183.31 174.9 182.61 174.8V174.3H209.01ZM208.81 175.6H204.21C202.51 175.6 200.31 175.9 199.01 176.7C196.11 178.5 196.61 183.2 196.61 186.5V227.3C196.61 231.6 196.21 235.6 198.81 237.6C199.81 238.4 201.41 238.7 204.01 238.7H208.81C215.51 238.7 220.11 237.2 224.31 233.1C229.51 228.1 233.51 219.2 233.51 207.3C233.51 195.4 229.51 185.6 223.41 180.6C219.01 177 215.01 175.6 208.81 175.6Z" fill="white"/>
<path d="M177.431 240H156.731V239.5C157.431 239.4 158.431 239.1 159.131 238.9C160.731 238.4 161.831 237.5 162.431 235.8C163.531 232.6 163.731 226.4 163.731 220.1V194.4C163.731 187.9 163.631 181.5 162.431 178.4C161.731 176.6 160.631 175.9 159.231 175.4C158.531 175.1 157.431 174.9 156.731 174.8V174.3H177.431V174.8C176.531 175 175.731 175.1 174.731 175.5C173.531 176 172.331 176.8 171.731 178.4C170.631 181.6 170.531 187.9 170.531 194.4V220.1C170.531 226.4 170.631 233.3 171.731 236C172.331 237.5 173.431 238.4 174.631 238.8C175.831 239.2 176.631 239.4 177.431 239.5V240Z" fill="white"/>
<path d="M151.616 222.5C151.616 234.6 141.616 241.4 131.316 241.4C124.416 241.4 119.616 238.4 116.316 235.1H115.916L113.816 239.1H113.416L112.516 219H113.116C115.616 230 120.616 240 131.216 240C141.516 240 145.716 233.6 145.716 226.8C145.716 215.9 140.316 213.7 129.716 208.4C120.716 203.9 113.116 199.6 113.116 188.8C113.116 180.6 119.616 173 131.216 173C136.716 173 141.816 175.1 144.316 178.1L145.816 174.5H146.616L148.116 190.5H147.516C146.316 185.5 143.316 179.9 139.616 177.3C137.716 175.9 135.316 174.4 130.916 174.4C125.216 174.4 118.916 177.3 118.916 185.4C118.916 195.3 126.416 198 134.516 202.2C146.116 208.2 151.616 211.2 151.616 222.5Z" fill="white"/>
<path d="M106.318 174.7C105.318 174.8 104.618 174.9 103.818 175.2C102.518 175.6 101.418 176.5 100.618 178.3C99.8183 180.1 99.3183 182.4 99.3183 187.2V241H98.0183L59.2183 183.5H58.9183V227.1C58.9183 231.9 59.4183 234.2 60.1183 236C60.8183 237.7 62.2183 238.6 63.5183 239.1C64.3183 239.4 65.0183 239.5 66.0183 239.6V240H50.2183V239.6C51.2183 239.5 52.0183 239.4 52.8183 239.1C54.1183 238.6 55.5183 237.5 56.1183 236C56.8183 234.2 57.5183 231.9 57.5183 227.1V190.8C57.5183 184.5 56.6183 181.4 55.7183 179.6C54.8183 177.8 53.1183 176.3 51.5183 175.6C50.4183 175.1 49.8183 175 48.9183 174.8V174.3H61.5183L97.7183 228.4H97.9183V187.2C97.9183 182.4 97.4183 180.1 96.6183 178.3C95.9183 176.8 94.7183 175.9 93.3183 175.3C92.6183 175 91.6183 174.8 90.8183 174.7V174.3H106.318V174.7Z" fill="white"/>
<path d="M43.7394 240H23.0394V239.5C23.7394 239.4 24.7394 239.1 25.4394 238.9C27.0394 238.4 28.1394 237.5 28.7394 235.8C29.8394 232.6 30.0394 226.4 30.0394 220.1V194.4C30.0394 187.9 29.9394 181.5 28.7394 178.4C28.0394 176.6 26.9394 175.9 25.5394 175.4C24.8394 175.1 23.7394 174.9 23.0394 174.8V174.3H43.7394V174.8C42.8394 175 42.0394 175.1 41.0394 175.5C39.8394 176 38.6394 176.8 38.0394 178.4C36.9394 181.6 36.8394 187.9 36.8394 194.4V220.1C36.8394 226.4 36.9394 233.3 38.0394 236C38.6394 237.5 39.7394 238.4 40.9394 238.8C42.1394 239.2 42.9394 239.4 43.7394 239.5V240Z" fill="white"/>
<path d="M359.557 87.0998C359.557 93.7998 356.757 98.8998 351.957 101.6C348.657 103.4 343.357 104.9 334.757 104.9C332.857 104.9 329.657 104.7 327.657 104.4V119.3C327.657 124.7 328.057 130.1 328.957 132.8C329.557 134.6 330.657 135.5 332.257 136C333.157 136.3 334.457 136.5 335.057 136.6V137H313.957V136.6C314.557 136.5 315.757 136.4 316.857 136C317.957 135.6 318.957 135 319.657 132.9C320.557 130.1 320.857 124.8 320.857 119.4V88.8998C320.857 83.5998 320.657 78.2998 319.557 75.4998C318.857 73.7998 317.757 72.8998 316.357 72.3998C315.757 72.1998 314.957 71.9998 313.957 71.8998V71.2998H338.557C351.157 71.2998 359.557 75.5998 359.557 87.0998ZM351.957 87.8998C351.957 76.7998 346.957 72.5998 337.557 72.5998H333.457C332.357 72.5998 330.557 72.6998 329.557 73.2998C328.557 73.8998 328.157 74.6998 327.957 75.4998C327.657 76.6998 327.657 78.0998 327.657 80.6998V102.7C329.457 103.2 332.857 103.5 334.757 103.5C343.557 103.5 346.757 101.2 349.057 98.3998C351.257 95.6998 351.957 91.1998 351.957 87.8998Z" fill="white"/>
<path d="M289.958 72.5998H282.158C280.858 72.5998 278.958 72.6998 277.658 73.4998C273.458 76.0998 273.658 83.1998 273.658 87.0998V102.2H282.258C286.458 102.2 288.158 101.6 289.458 100.3C291.458 98.4998 292.758 94.0998 293.058 91.5998H293.458V114.1H293.058C292.758 111.7 291.558 107.3 289.658 105.7C288.458 104.6 286.458 103.5 282.258 103.5H273.658V121.6C273.658 125.2 273.158 132.4 277.058 134.8C278.458 135.6 280.858 135.7 282.358 135.7H289.858C295.658 135.7 298.958 133.9 300.858 132.1C304.558 128.6 306.158 123.9 307.258 121.1H307.658L305.758 137H259.758V136.6C260.458 136.5 261.458 136.4 262.058 136.2C263.458 135.8 264.958 134.6 265.458 133.3C266.758 130.2 266.858 123.5 266.858 117.2V91.2998C266.858 84.7998 266.658 78.4998 265.558 75.2998C264.958 73.6998 263.758 72.7998 262.158 72.1998C261.358 71.8998 260.458 71.7998 259.758 71.6998V71.2998H302.558L304.858 86.9998H304.258C302.758 82.6998 300.458 77.8998 297.058 75.0998C295.958 74.1998 293.558 72.5998 289.958 72.5998Z" fill="white"/>
<path d="M256.581 86.7998H256.081C255.181 84.7998 252.381 78.6998 247.381 75.5998C244.181 73.5998 241.381 72.5998 236.981 72.5998H230.881V117.1C230.881 123.4 231.081 130.3 232.181 133C232.881 134.7 233.981 135.5 235.581 136C236.281 136.2 236.881 136.3 237.981 136.5V137H216.881V136.5C217.781 136.3 218.481 136.2 219.281 135.9C220.681 135.4 221.981 134.5 222.581 133C223.881 129.8 224.081 123.4 224.081 117.1V72.5998H217.881C213.581 72.5998 210.381 73.6998 207.181 75.8998C202.681 78.9998 199.881 84.5998 198.881 86.7998H198.381L201.981 71.2998H252.981L256.581 86.7998Z" fill="white"/>
<path d="M196.928 119.5C196.928 131.6 186.928 138.4 176.628 138.4C169.728 138.4 164.928 135.4 161.628 132.1H161.228L159.128 136.1H158.728L157.828 116H158.428C160.928 127 165.928 137 176.528 137C186.828 137 191.028 130.6 191.028 123.8C191.028 112.9 185.628 110.7 175.028 105.4C166.028 100.9 158.428 96.6 158.428 85.8C158.428 77.6 164.928 70 176.528 70C182.028 70 187.128 72.1 189.628 75.1L191.128 71.5H191.928L193.428 87.5H192.828C191.628 82.5 188.628 76.9 184.928 74.3C183.028 72.9 180.628 71.4 176.228 71.4C170.528 71.4 164.228 74.3 164.228 82.4C164.228 92.3 171.728 95 179.828 99.2C191.428 105.2 196.928 108.2 196.928 119.5Z" fill="white"/>
</g>
<g filter="url(#filter1_d_2158_277295)">
<path d="M294.369 8L293.189 8.62C292.989 8.14 292.569 7.78 292.029 7.78C291.509 7.78 291.029 8.08 291.029 8.72C291.029 9.32 291.429 9.5 292.369 9.9C293.569 10.4 294.129 10.78 294.449 11.18C294.809 11.62 294.889 12.06 294.889 12.52C294.889 14.26 293.629 15.24 292.029 15.24C291.689 15.24 289.829 15.2 289.129 13.12L290.369 12.6C290.529 13.04 291.009 13.96 292.049 13.96C292.989 13.96 293.409 13.26 293.409 12.64C293.409 11.86 292.849 11.6 292.069 11.26C291.069 10.82 290.429 10.5 290.049 10.04C289.729 9.64 289.669 9.24 289.669 8.82C289.669 7.36 290.689 6.5 292.089 6.5C292.529 6.5 293.709 6.58 294.369 8Z" fill="white"/>
<path d="M278.079 1.66016V9.84016C278.079 10.9602 278.079 12.1802 279.139 13.0802C279.679 13.5402 280.599 13.8402 281.339 13.8402C282.079 13.8402 282.999 13.5402 283.539 13.0802C284.599 12.1802 284.599 10.9602 284.599 9.84016V1.66016H286.079V10.2402C286.079 11.3602 285.959 12.4402 285.239 13.4402C284.439 14.5402 283.039 15.2402 281.339 15.2402C279.639 15.2402 278.239 14.5402 277.439 13.4402C276.719 12.4402 276.599 11.3602 276.599 10.2402V1.66016H278.079Z" fill="white"/>
<path d="M269.014 8.0202H267.574V15.0002H266.134V8.0202H265.254V6.7002H266.134V3.7002H267.574V6.7002H269.014V8.0202Z" fill="white"/>
<path d="M257.617 6.7002V11.5402C257.617 12.1202 257.617 12.8002 258.017 13.3202C258.237 13.6002 258.677 13.9602 259.477 13.9602C260.277 13.9602 260.717 13.6002 260.937 13.3202C261.337 12.8002 261.337 12.1202 261.337 11.5402V6.7002H262.777V11.7002C262.777 12.7202 262.677 13.4802 262.017 14.2002C261.277 14.9802 260.297 15.2402 259.477 15.2402C258.657 15.2402 257.677 14.9802 256.937 14.2002C256.277 13.4802 256.177 12.7202 256.177 11.7002V6.7002H257.617Z" fill="white"/>
<path d="M248.969 15.24C246.449 15.24 244.569 13.4 244.569 10.88C244.569 8.36 246.429 6.5 248.969 6.5C251.509 6.5 253.369 8.36 253.369 10.88C253.369 13.4 251.489 15.24 248.969 15.24ZM248.969 7.78C247.449 7.78 246.049 8.86 246.049 10.88C246.049 12.92 247.489 13.96 248.969 13.96C250.469 13.96 251.889 12.9 251.889 10.88C251.889 8.84 250.489 7.78 248.969 7.78Z" fill="white"/>
<path d="M235.402 13.8399V14.9999H233.962V0.419922H235.402V7.85992C236.382 6.63992 237.642 6.49992 238.242 6.49992C240.842 6.49992 242.282 8.65992 242.282 10.8999C242.282 13.1799 240.822 15.2399 238.302 15.2399C236.962 15.2399 236.022 14.6399 235.402 13.8399ZM238.102 13.9599C239.782 13.9599 240.802 12.5599 240.802 10.8999C240.802 8.85992 239.422 7.77992 238.082 7.77992C236.742 7.77992 235.322 8.87992 235.322 10.8799C235.322 12.5799 236.402 13.9599 238.102 13.9599Z" fill="white"/>
<path d="M230.2 14.9995L228.64 11.2395H222.96L221.36 14.9995H219.72L225.86 1.01953L231.84 14.9995H230.2ZM223.54 9.83953H228.06L225.82 4.49953L223.54 9.83953Z" fill="white"/>
</g>
<path d="M456.711 378.761C456.238 380.124 455.766 381.487 455.087 383.444C457.138 384.045 458.8 384.955 460.446 384.927C463.759 384.871 467.143 384.461 469.921 382.363C473.332 379.786 476.934 377.363 479.925 374.35C489.402 364.801 495.721 353.098 501.826 341.271C506.545 332.128 510.771 322.777 513.919 312.974C514.658 310.672 514.882 308.203 515.362 305.815C515.491 305.169 515.564 304.469 515.87 303.906C518.154 299.701 526.139 296.684 530.981 298.202C531.394 298.331 531.678 298.871 532.14 299.339C531.561 301.495 530.971 303.695 530.342 306.041C532.648 305.481 532.203 303.255 533.115 301.947C534.06 300.593 534.832 299.117 535.685 297.698C540.314 289.999 545.051 282.358 551.988 276.458C555.309 273.633 559.039 271.472 563.522 271.558C567.017 273.178 570.434 274.763 574.353 276.58C574.282 278.663 574.206 280.908 574.132 283.09C572.972 283.505 571.408 283.715 571.347 284.142C570.904 287.22 568.134 287.936 566.224 289.409C561.705 292.89 558.129 297.169 554.879 301.792C551.646 306.391 548.318 310.925 545.031 315.487L545.027 315.494C544.774 315.861 544.521 316.229 544.268 316.596L544.181 316.707C540.286 322.676 537.165 329.036 534.726 335.723C534.589 336.097 535.179 336.736 535.431 337.253C535.603 337.373 535.777 337.493 535.951 337.612C535.054 340.6 534.088 343.569 533.275 346.58C531.172 354.366 529.197 362.188 527.03 369.957C526.474 371.955 525.397 373.809 524.538 375.781C519.361 374.041 516.036 370.876 513.126 367.044C512.087 365.675 510.42 364.781 509.04 363.669L508.639 363.377C509.667 361.225 510.695 359.072 511.723 356.92C508.594 360.534 506.187 364.527 503.81 368.538C503.662 368.787 503.764 369.183 503.75 369.511L503.808 369.432C503.519 369.847 503.229 370.263 502.939 370.677L502.998 370.591C502.72 370.985 502.442 371.381 502.163 371.775L502.143 371.805C501.945 372.079 501.747 372.353 501.549 372.627C501.414 372.831 501.277 373.034 501.137 373.235C500.809 373.347 500.645 373.583 500.645 373.946L500.424 374.27L499.806 375.153L499.665 375.38C499.482 375.645 499.299 375.909 499.116 376.174C498.985 376.345 498.862 376.521 498.745 376.702C498.387 376.773 498.232 376.985 498.282 377.335C498.147 377.529 498.016 377.723 497.888 377.922C497.531 378.01 497.36 378.241 497.376 378.613L497.167 378.88C496.112 379.99 495.055 381.1 494 382.21L493.739 382.579C492.902 383.358 492.065 384.138 491.227 384.918L491.29 384.843L485.836 388.911L485.898 388.847C479.85 392.389 479.85 392.389 478.951 394.853C468.582 398.574 458.712 397.797 449.54 391.846C446.117 395.323 442.779 398.713 439.44 402.103L439.511 402.153C438.809 402.136 437.891 401.823 437.44 402.152C434.897 404.003 432.509 406.067 429.989 407.951C419.448 415.833 404.42 412.466 399.162 400.817C397.118 396.289 396.898 390.879 396.216 385.821C395.873 383.285 396.355 380.638 396.492 377.377C395.663 378.346 395.126 378.734 394.921 379.254C393.107 383.836 389.935 387.411 386.573 390.886C382.679 394.91 379.004 399.148 375.046 403.103C370.637 407.508 365.087 410.178 359.312 412.228C355.133 413.713 351.075 412.666 347.548 410.052C345.019 408.179 342.4 406.31 340.302 404.002C337.622 401.055 335.97 397.453 335.142 393.452C333.186 384.005 332.264 374.508 333.113 364.869C333.168 364.238 332.907 363.579 332.169 362.715C331.715 364.116 331.094 365.486 330.833 366.921C329.446 374.565 325.618 381.215 322.2 388.002C318.403 395.54 314.508 403.049 310.212 410.308C306.499 416.584 302.429 422.694 298.026 428.506C293.928 433.915 289.36 439.001 284.679 443.926C278.7 450.218 271.446 454.178 262.586 455.003C255.58 455.655 250.322 452.771 246.302 447.422C244.55 445.091 243.423 442.29 241.891 439.479C241.091 439.888 240.255 440.316 239.42 440.744C239.199 440.59 238.978 440.435 238.76 440.278C239.546 439.122 240.331 437.967 241.118 436.812C240.849 436.602 240.581 436.394 240.313 436.184C237.244 440.096 233.73 443.629 231.235 448.025L231.299 447.942L230.432 449.189L230.481 449.117C228.295 449.589 226.721 450.753 226.096 452.99C223.689 453.949 221.831 455.483 220.884 457.97C220.713 458.129 220.541 458.287 220.69 458.149C220.594 458.33 220.704 458.124 220.814 457.917C222.552 456.257 224.291 454.597 226.03 452.937C227.023 452.422 228.018 451.906 230.146 450.803C229.178 452.344 228.937 453.037 228.457 453.444C222.535 458.477 216.817 463.801 210.536 468.341C206.866 470.995 202.222 472.266 198.121 474.364C191.962 477.514 186.234 475.819 180.581 473.071C173.721 469.735 167.267 465.898 162.852 459.33C159.476 454.307 157.557 448.706 155.821 443.013C155.055 440.5 154.322 437.94 153.962 435.348C153.259 430.27 152.498 425.164 152.35 420.052C152.001 408.013 152.257 395.981 153.53 383.978C153.767 381.74 152.869 379.403 152.861 377.111C152.853 374.832 153.306 372.553 153.558 370.274C153.698 370.108 153.837 369.942 153.801 369.984C153.827 369.935 153.727 370.128 153.627 370.322C153.259 370.636 152.678 370.884 152.555 371.275C150.848 376.713 149.204 382.171 147.545 387.624C147.335 388.345 147.124 389.067 146.914 389.788C145.389 390.884 145.31 392.411 145.64 394.06C145.156 395.159 144.671 396.258 144.188 397.355C143.998 397.75 143.809 398.145 144.096 397.545C144.049 398.228 144.081 397.768 144.113 397.31C144.598 396.21 145.082 395.11 145.568 394.01C145.992 392.588 146.416 391.165 146.84 389.743C147.051 389.022 147.261 388.301 147.471 387.58C148.096 387.156 148.722 386.732 149.346 386.307L149.277 386.264C148.692 390.984 148.063 395.586 145.547 399.901C143.856 402.8 143.408 406.407 142.272 409.651C141.631 411.481 140.761 413.237 139.921 414.99C139.35 416.182 138.539 417.266 138.024 418.478C133.493 429.144 128.994 439.825 124.522 450.517C124.086 451.557 123.906 452.705 123.607 453.803L123.653 453.728C121.793 456.054 119.841 458.202 121.432 461.686C121.929 462.774 121.317 464.771 120.579 465.958C114.749 475.326 109.88 485.474 99.9719 491.609C97.8853 492.9 95.8566 493.655 93.4238 493.299C86.0567 492.221 79.1665 490.024 73.9853 484.331C72.3472 482.533 70.9958 480.386 69.8896 478.207C65.6618 469.877 64.3683 460.94 64.7663 451.691C64.7844 451.258 64.5674 450.816 64.1897 449.274C62.8296 452.162 61.7896 454.159 60.9324 456.231C58.3311 462.515 55.5211 468.732 53.3265 475.158C51.4293 480.713 48.7914 485.851 45.9515 490.914C44.3275 493.809 42.4043 496.539 40.5644 499.309C40.0147 500.136 39.3325 500.886 38.643 501.606C32.9592 507.546 26.4514 509.153 19.2183 505.374C12.7311 501.984 6.69742 497.631 4.23668 490.159C2.37738 484.516 0.735022 478.916 0.550569 472.75C0.22196 461.788 0.419797 450.897 2.07024 440.084C3.34542 431.733 5.03345 423.436 6.79395 415.171C9.22274 403.768 13.2695 392.874 17.4572 382.014C21.7622 370.851 26.6223 359.934 32.4769 349.537C37.9347 339.844 44.0255 330.494 50.1351 321.186C53.8157 315.581 58.8165 311.181 64.5976 307.687C66.709 306.41 68.7943 305.89 71.1967 306.539C73.2599 307.098 75.3547 307.541 77.6004 308.074L78.6341 313.936C75.5007 315.44 72.3163 316.725 69.3966 318.456C67.4366 319.618 65.615 321.214 64.1422 322.962C59.4351 328.55 54.6846 334.088 51.2778 340.682C48.3082 346.432 44.5053 351.752 41.5588 357.512C39.3121 361.903 37.7732 366.663 36.0181 371.296C31.6663 382.781 27.1643 394.214 23.1018 405.802C17.0931 422.944 13.9533 440.709 13.2893 458.826C12.9669 467.589 13.4713 476.421 15.6591 485.011C16.2993 487.524 17.3758 489.926 18.508 493.094C19.8708 491.764 20.8484 490.979 21.6199 490.028C26.7093 483.757 30.0899 476.497 33.0731 469.107C39.5949 452.952 46.0064 436.748 52.1033 420.429C57.3905 406.279 62.5145 392.05 67.0996 377.661C71.5778 363.605 75.3745 349.312 76.3653 334.487C76.5226 332.131 75.602 329.703 75.063 326.646C75.2913 324.279 78.0978 323.731 80.0467 322.189C84.8512 324.962 90.3622 321.998 95.6089 324.273C96.4833 328.42 95.616 332.761 95.4601 337.077C95.1491 345.708 92.9193 354.064 91.6158 362.555C89.8341 374.16 88.1608 385.782 86.4541 397.399C86.2368 398.873 86.0977 400.359 85.9251 401.84C84.702 412.334 83.3557 422.816 82.2887 433.327C80.9927 446.087 81.1182 458.806 84.0923 471.389C84.798 474.371 85.8257 477.067 88.6703 479.16C89.4852 478.5 90.5544 477.953 91.1648 477.084C93.8437 473.273 96.739 469.555 98.924 465.465C107.611 449.21 115.521 432.577 122.435 415.475C126.407 405.649 130.995 396.057 134.571 386.095C136.518 380.673 138.588 375.323 140.835 370.118C139.875 369.704 138.989 369.321 138.102 368.938L140.414 368.385C140.331 368.195 140.249 368.005 140.168 367.816C139.495 368.203 138.822 368.591 138.15 368.979C134.557 369.52 131.038 370.385 127.306 369.542C123.038 368.58 120.366 365.766 118.183 362.387C116.861 360.34 117.886 357.501 120.549 354.98C121.364 356.21 122.145 357.389 123.27 359.087C125.072 358.68 127.258 358.545 129.117 357.696C133.767 355.569 138.171 352.893 142.857 350.858C147.923 348.658 150.229 344.474 151.781 339.681C153.518 334.316 155.353 328.955 156.928 323.579C158.996 316.525 161.829 309.845 164.474 303.05C165.063 301.54 165.02 299.796 165.474 298.218C166.429 294.897 167.085 291.546 168.78 288.371C170.462 285.223 171.107 281.504 172.089 278.001C174.192 270.498 176.232 262.976 178.265 255.453C178.653 254.018 179.048 252.553 179.159 251.081C179.418 247.642 181.683 245.776 184.591 245.551C188.238 245.269 192.184 244.552 195.864 247.45C195.437 247.997 195.007 248.548 194.464 249.243C194.998 249.984 195.562 250.767 196.009 251.387C187.874 276.65 180.08 301.867 175.393 329.211C179.012 326.798 181.72 325.078 184.338 323.232C200.982 311.496 218.098 300.486 235.677 290.215C245.803 284.298 256.323 279.176 267.034 274.309C275.939 270.263 285.223 267.365 294.157 263.503C297.927 261.873 302.086 261.11 306.107 260.11C307.237 259.83 308.505 260.113 309.71 260.138L309.91 261.135C305.38 263.048 300.851 264.961 295.454 267.239C300.57 268.147 303.962 263.516 308.98 266.262C302.584 269.513 296.731 272.489 290.712 275.55C291.572 275.756 292.188 275.904 293.089 276.12C291.816 276.873 290.814 277.63 289.692 278.102C277.007 283.443 265.514 290.959 253.649 297.795C250.214 299.773 246.706 301.635 243.36 303.75C241.745 304.771 240.424 306.258 238.969 307.533L239.021 307.471C237.477 307.902 235.748 308.024 234.423 308.819C229.897 311.533 225.558 314.56 221.058 317.32C217.993 319.201 214.779 320.837 211.169 322.837C212.484 323.13 213.111 323.269 214.245 323.522C213.142 324.367 212.328 324.991 211.434 325.675C210.792 325.067 210.234 324.54 209.789 324.118C207.583 325.864 205.648 327.381 203.731 328.921C203.101 329.426 202.304 329.877 201.952 330.547C200.531 333.257 200.583 333.284 197.757 332.219C196.81 333.923 195.831 335.686 194.694 337.735C194.234 337.126 193.84 336.604 193.315 335.91C188.493 339.413 182.74 341.699 179.274 346.915C178.885 346.698 178.49 346.476 178.131 346.273C176.299 348.447 174.536 350.538 171.985 353.564C170.583 361.872 169.024 371.445 168.929 381.209C168.9 384.114 167.897 387.05 168.127 389.908C168.656 396.503 167.03 402.987 167.654 409.604C168.148 414.843 167.191 420.232 167.808 425.444C168.8 433.821 169.617 442.32 173.307 450.134C174.149 451.916 174.807 453.792 175.723 455.533C178.781 461.338 184.404 463.343 190.367 460.731C196.161 458.192 201.65 455.014 206.133 450.565C213.078 443.673 219.741 436.492 226.388 429.309C229.427 426.023 231.998 422.302 235.054 419.034C237.229 416.708 238.054 414.355 238.147 411.09C238.619 394.517 243.017 378.753 248.848 363.349C249.839 360.735 251.101 358.226 252.237 355.667C252.474 355.807 252.707 355.954 252.935 356.108C251.29 362.324 249.503 368.505 248.031 374.762C245.656 384.864 243.779 395.061 243.27 405.458C243.249 405.887 243.616 406.335 243.962 407.146C244.672 406.441 245.29 405.965 245.737 405.363C251.278 397.904 256.777 390.415 262.332 382.966C263.106 381.928 264.117 381.065 265.018 380.122L264.962 380.083C264.74 381.007 264.664 381.998 264.272 382.843C262.767 386.082 261.16 389.273 259.516 392.635C262.041 392.556 263.561 391.649 264.801 389.67C268.834 383.229 273.08 376.92 277.245 370.56C277.493 370.72 277.74 370.878 277.989 371.034C277.956 371.62 277.924 372.204 277.891 372.79L277.937 372.698C277.292 373.535 275.601 374.063 277.099 375.533C277.34 375.753 277.587 375.969 277.838 376.179C276.406 378.349 274.974 380.52 273.542 382.69C273.421 382.015 273.301 381.34 273.181 380.664L273.376 380.249C273.334 380.404 273.292 380.557 273.251 380.712C272.713 381.478 272.175 382.244 271.637 383.011C271.361 383.401 271.085 383.792 270.81 384.182C270.675 384.343 270.539 384.504 270.63 384.396C270.577 384.524 270.659 384.328 270.741 384.131L271.563 382.964L273.594 382.615C270.504 387.325 267.201 391.914 264.382 396.781C261.499 401.756 258.202 406.552 256.459 412.131C256.262 412.763 256.022 413.409 255.664 413.958C252.321 419.087 248.948 424.197 245.314 429.721C246.572 432.979 247.653 436.654 249.357 440.013C253.213 447.611 262.557 448.306 268.185 444.314C274.163 440.073 279.727 435.338 284.131 429.44C290.898 420.375 297.849 411.42 304.086 401.998C310.861 391.763 316.808 380.998 322.102 369.888C325.956 361.801 330.204 353.9 333.973 345.776C335.486 342.517 336.265 338.903 337.25 335.415C341.759 319.449 345.903 303.37 350.788 287.52C356.407 269.284 362.68 251.251 368.637 233.119C369.62 230.129 370.361 227.058 371.387 224.084C371.709 223.152 372.602 222.417 373.273 221.54C374.998 223.056 374.795 224.466 374.409 225.986C372.78 232.403 371.206 238.834 369.605 245.258C367.321 254.42 365.126 263.605 362.716 272.734C360.474 281.23 357.981 289.66 355.633 298.13C351.387 313.443 346.562 328.587 344.044 344.364C342.45 354.355 341.272 364.361 341.649 374.416C341.908 381.3 342.429 388.314 345.035 394.897C345.876 397.021 347.795 399.435 350.966 402.061C354.278 402.321 357.162 400.87 359.673 399.059C363.836 396.055 367.686 392.663 370.745 388.417C377.37 379.223 382.981 369.447 388.526 359.573C397.396 343.777 404.477 327.139 412.367 310.885C414.658 306.164 415.954 300.937 417.468 295.87C418.284 293.137 419.452 291.081 422.354 290.143C425.008 289.287 427.549 288.083 430.05 287.068C433.629 289.756 433.774 289.842 431.915 292.948C426.926 301.285 424.21 310.544 420.942 319.575C415.855 333.627 412.056 348.048 408.993 362.666C406.986 372.25 405.687 381.938 406.641 391.72C406.899 394.371 408.337 397.104 409.859 399.381C411.657 402.067 414.793 402.219 418.383 400.195C420.249 399.143 422.109 397.907 423.593 396.385C428.357 391.504 432.875 386.416 436.577 380.624C439.117 376.653 439.593 372.542 439.468 367.901C439.305 361.836 439.709 355.666 440.701 349.679C442.88 336.535 446.948 323.938 453.048 312.029C454.407 309.376 455.88 307.41 459.159 306.905C462.733 306.355 466.206 305.147 469.722 304.224C472.25 303.562 474.673 303.656 477.147 305.644C477.886 307.655 478.794 310.124 479.452 311.919C478.4 314.895 477.436 317.249 476.738 319.681C475.729 323.188 474.875 326.742 474.026 330.295C473.068 334.302 472.414 338.397 471.227 342.333C469.174 349.148 467.195 355.991 464.003 362.429C461.347 367.79 459.096 373.353 456.666 378.828C456.53 378.763 456.394 378.698 456.259 378.633L456.711 378.761ZM251.52 447.498L250.47 447.686C250.424 446.805 250.379 445.923 250.334 445.042C249.326 446.06 249.252 446.947 250.513 447.608C250.826 447.556 251.14 447.505 251.454 447.453C251.576 447.296 251.699 447.14 251.67 447.177C251.69 447.135 251.605 447.316 251.52 447.498ZM119.144 462.711C118.936 463.422 118.729 464.133 118.52 464.844C118.246 465.235 117.972 465.627 117.696 466.018C116.889 467.169 116.081 468.321 115.273 469.473C115.163 469.648 115.053 469.821 115.057 469.815C115.055 469.82 115.13 469.626 115.205 469.431C117.083 469.027 117.905 467.881 117.628 465.968C117.904 465.578 118.178 465.187 118.454 464.797C118.662 464.086 118.871 463.375 119.08 462.664C119.231 462.521 119.382 462.378 119.338 462.419C119.373 462.367 119.259 462.539 119.144 462.711ZM363.334 258.189L362.195 259.871C362.484 259.966 362.772 260.061 363.061 260.156C363.139 259.491 363.217 258.827 363.296 258.163C363.411 258.093 363.554 258.043 363.634 257.944C363.685 257.881 363.642 257.743 363.641 257.639C363.538 257.822 363.436 258.005 363.334 258.189ZM249.323 412.275C251.54 411.398 252.864 409.72 253.593 407.511C255.763 405.077 258.47 403.048 260.243 399.008C254.578 404.029 254.578 404.029 253.561 407.486C252.171 409.099 250.781 410.712 249.391 412.325C249.242 412.461 249.092 412.597 249.211 412.489C249.136 412.632 249.229 412.454 249.323 412.275ZM241.964 433.949C241.799 433.507 241.635 433.066 241.47 432.625C241.305 432.747 241.138 432.87 240.973 432.991C241.319 433.29 241.666 433.589 242.014 433.888C242.419 434.76 242.825 435.632 243.23 436.503L243.928 436.243C244.076 434.846 244.224 433.451 244.406 431.737C243.397 432.651 242.681 433.299 241.964 433.949ZM241.478 413.663C241.799 413.607 242.119 413.553 242.438 413.498C242.669 413.083 243.175 412.595 243.087 412.265C241.743 407.214 242.027 402.118 242.51 397.004C242.54 396.699 242.193 396.358 241.635 395.303C240.735 400.442 239.966 404.816 240.469 409.239C240.633 410.68 239.259 412.654 241.478 413.663ZM459.545 330.26C455.516 334.38 451.083 347.906 451.789 353.284C454.016 345.49 458.693 339.198 459.545 330.26ZM241.591 422.392C237.349 425.245 235.369 428.352 234.709 432.654C235.585 432.674 236.197 432.687 237.068 432.707C237.188 429.595 237.801 426.813 240.962 425.04C241.588 426.831 242.116 428.345 242.644 429.858C242.726 429.819 242.806 429.778 242.886 429.738L241.591 422.392ZM274.93 445.029C276.99 443.249 279.051 441.468 281.196 439.615C280.741 439.031 280.353 438.534 279.748 437.76C278.313 440.45 275.114 441.423 274.93 445.029ZM272.762 445.869C272.634 445.485 272.506 445.1 272.377 444.717C270.028 445.848 267.679 446.979 265.33 448.111C265.494 448.454 265.659 448.796 265.824 449.138L272.762 445.869ZM290.589 429.263C288.338 430.03 286.722 430.763 287.805 432.791C288.586 434.253 289.997 433.526 291.17 432.556L290.589 429.263ZM299.196 422.142C297.962 420.671 296.74 421.255 295.518 421.741C295.569 421.844 295.621 421.948 295.781 422.273C296.854 422.232 298.025 422.187 299.196 422.142ZM360.734 263.279C360.696 263.565 360.54 263.924 360.657 264.118C360.763 264.294 361.166 264.291 361.438 264.368C361.482 264.109 361.649 263.745 361.54 263.616C361.372 263.419 361.014 263.383 360.734 263.279ZM261.676 449.322C261.819 449.329 261.966 449.355 262.103 449.332C262.147 449.324 262.168 449.186 262.2 449.106C262.059 449.099 261.913 449.074 261.776 449.098C261.731 449.106 261.709 449.244 261.676 449.322ZM142.837 369.46L142.726 369.734L142.961 369.731L142.837 369.46Z" fill="white"/>
<path d="M287.099 315.286C282.88 312.805 279.081 313.455 275.549 316.726C274.119 318.051 272.526 319.203 271.007 320.434C270.787 320.281 270.567 320.127 270.346 319.977C272.566 315.961 275.467 312.635 279.729 310.673C285.862 307.849 293.381 311.65 294.929 318.242C296.797 326.193 296.532 334.083 293.865 341.732C291.249 349.239 288.157 356.585 285.16 363.954C284.546 365.464 283.429 366.769 282.543 368.168C282.262 368.008 281.982 367.847 281.702 367.686C281.722 367.107 281.74 366.528 281.759 365.949C282.033 365.56 282.305 365.17 282.579 364.781C284.008 364.098 284.127 362.844 284.019 361.489C284.291 361.098 284.564 360.706 284.837 360.315C286.689 356.869 288.908 353.563 289.004 349.445C289.214 348.725 289.424 348.004 289.634 347.283C290.12 346.185 290.607 345.086 291.092 343.988C292.702 340.659 294.136 337.293 293.287 333.453L293.51 333.042L293.354 333.502C292.622 337.011 291.89 340.52 291.158 344.029C290.676 345.127 290.193 346.226 289.711 347.324C289.499 348.046 289.288 348.767 289.076 349.488C287.667 352.312 286.196 355.108 284.895 357.981C284.597 358.64 284.885 359.564 284.903 360.365C284.63 360.755 284.356 361.144 284.082 361.533C282.789 362.274 282.422 363.422 282.643 364.827C282.369 365.215 282.096 365.604 281.823 365.993C280.821 367.299 279.82 368.606 278.82 369.914L277.984 369.338C280.968 362.562 284.077 355.837 286.9 348.994C289.671 342.277 291.308 335.211 291.824 327.974C292.019 325.234 291.208 322.421 290.856 319.641C291.365 320.401 292.11 321.098 292.335 321.935C292.818 323.735 293.033 325.606 293.358 327.449C293.575 320.98 293.444 320.568 290.949 318.199C290.942 318.754 290.936 319.231 290.93 319.707C290.096 318.824 289.262 317.941 288.426 317.058L288.383 317.12C289.058 316.641 289.107 316.268 288.2 316.062L288.273 316.111L287.038 315.244L287.099 315.286Z" fill="white"/>
<path d="M429.681 254.319C432.304 255.018 435.412 254.559 437.603 257.828C436.456 258.797 435.417 259.676 434.165 260.734C434.167 261.565 434.17 262.657 434.172 263.731C432.239 264.845 430.854 263.769 429.561 262.881C426.806 260.987 426.845 259.739 429.681 254.319Z" fill="white"/>
<path d="M237.758 443.042C236.078 445.979 234.33 448.859 231.06 450.881C230.841 450.213 230.661 449.665 230.481 449.118L230.432 449.19C230.722 448.774 231.011 448.358 231.301 447.943L231.235 448.025C233.176 446.189 235.119 444.355 237.059 442.52C237.292 442.695 237.525 442.869 237.758 443.042Z" fill="white"/>
<path d="M505.829 369.178C504.243 371.846 503.11 374.876 500.067 376.377L499.782 376.162C499.803 375.893 499.766 375.633 499.666 375.381L499.806 375.154C500.012 374.858 500.218 374.564 500.424 374.27L500.645 373.946C500.988 373.834 501.152 373.598 501.137 373.235C501.277 373.034 501.414 372.831 501.55 372.626C501.747 372.353 501.946 372.079 502.143 371.806L502.164 371.776C502.442 371.381 502.721 370.986 502.999 370.592L502.94 370.678C503.229 370.263 503.519 369.847 503.809 369.433L503.75 369.512L505.64 369.051L505.829 369.178Z" fill="white"/>
<path d="M282.544 368.168C281.261 370.446 279.978 372.725 278.695 375.003C278.398 374.815 278.101 374.627 277.804 374.437C277.848 373.858 277.893 373.278 277.938 372.699L277.892 372.79L281.703 367.686C281.983 367.848 282.263 368.008 282.544 368.168Z" fill="white"/>
<path d="M219.546 320.842C218.733 321.637 217.92 322.432 216.411 323.909C216.754 321.273 217.956 320.862 219.546 320.842Z" fill="white"/>
<path d="M484.973 390.81C485.281 390.156 485.59 389.501 485.898 388.847L485.836 388.911C486.772 388.674 487.709 388.437 488.646 388.2L489.018 388.514L485.456 391.194C485.294 391.068 485.133 390.94 484.973 390.81Z" fill="white"/>
<path d="M507.574 366.098C506.993 367.124 506.41 368.151 505.829 369.178L505.64 369.051C506.043 367.895 506.446 366.74 506.849 365.584C507.091 365.754 507.334 365.925 507.574 366.098Z" fill="white"/>
<path d="M252.237 355.667C252.558 354.683 252.879 353.699 253.401 352.095C254.468 354.151 253.725 355.135 252.935 356.108C252.707 355.954 252.474 355.807 252.237 355.667Z" fill="white"/>
<path d="M294.764 274.605L296.727 274.259C296.751 274.401 296.776 274.543 296.801 274.685L294.838 275.031C294.813 274.89 294.789 274.747 294.764 274.605Z" fill="white"/>
<path d="M149.347 386.307C149.332 385.87 149.318 385.432 149.341 386.112C149.603 385.487 149.44 385.876 149.277 386.264L149.347 386.307Z" fill="white"/>
<path d="M493.398 384.653C492.812 385.104 492.226 385.555 491.639 386.007L491.226 385.729C491.267 385.435 491.289 385.139 491.29 384.843L491.227 384.919L493.062 384.404L493.398 384.653Z" fill="white"/>
<path d="M490.795 387.146C490.204 387.602 489.609 388.058 489.018 388.514L488.646 388.2L490.391 386.848C490.526 386.948 490.66 387.048 490.795 387.146Z" fill="white"/>
<path d="M485.456 391.194C484.901 391.562 484.346 391.93 483.791 392.298C483.682 392.085 483.573 391.873 483.464 391.66C483.967 391.377 484.47 391.093 484.973 390.81C485.133 390.94 485.294 391.068 485.456 391.194Z" fill="white"/>
<path d="M482.317 393.181C482.069 393.338 481.83 393.596 481.574 393.615C481.392 393.628 481.186 393.318 480.992 393.153C481.243 392.996 481.485 392.741 481.75 392.714C481.922 392.698 482.127 393.013 482.317 393.181Z" fill="white"/>
<path d="M238.969 307.534C239.361 307.888 239.751 308.243 240.143 308.597C239.931 308.72 239.72 308.844 239.508 308.966C239.346 308.468 239.183 307.97 239.021 307.472L238.969 307.534Z" fill="white"/>
<path d="M233.64 311.522C233.942 311.138 234.244 310.753 234.546 310.369L234.989 310.95C234.518 311.126 234.048 311.303 233.579 311.48L233.64 311.522Z" fill="white"/>
<path d="M209.274 327.27C209.286 327.392 209.351 327.571 209.295 327.623C209.191 327.724 209.018 327.752 208.873 327.81C208.855 327.61 208.837 327.409 208.818 327.21C208.971 327.23 209.123 327.25 209.274 327.27Z" fill="white"/>
<path d="M271.007 320.435C270.702 320.638 270.398 320.842 270.092 321.045C270.177 320.689 270.261 320.333 270.346 319.977C270.567 320.128 270.787 320.281 271.007 320.435Z" fill="white"/>
<path d="M288.428 317.058C288.043 316.787 287.657 316.516 287.272 316.244L287.222 316.303L288.273 316.111L288.2 316.062C288.261 316.414 288.323 316.768 288.384 317.12L288.428 317.058Z" fill="white"/>
<path d="M287.272 316.244L287.1 315.287L287.039 315.245L287.222 316.303L287.272 316.244Z" fill="white"/>
<path d="M233.578 311.48C233.477 311.663 233.376 311.847 233.401 311.802C233.368 311.841 233.505 311.682 233.64 311.522L233.578 311.48Z" fill="white"/>
<path d="M238.646 441.931C238.35 442.301 238.054 442.672 237.758 443.042C237.524 442.869 237.292 442.695 237.059 442.52C237.319 442.135 237.58 441.75 237.841 441.365C238.109 441.553 238.377 441.742 238.646 441.931Z" fill="white"/>
<path d="M239.42 440.745L238.646 441.931C238.378 441.742 238.109 441.553 237.841 441.365C238.146 441.003 238.453 440.641 238.76 440.278C238.978 440.436 239.199 440.591 239.42 440.745Z" fill="white"/>
<path d="M439.44 402.103C439.337 402.289 439.236 402.475 439.249 402.45C439.231 402.47 439.371 402.312 439.511 402.153L439.44 402.103Z" fill="white"/>
<path d="M123.607 453.803C123.956 453.741 124.304 453.68 124.652 453.62L124.583 453.571C124.274 453.623 123.963 453.676 123.653 453.728L123.607 453.803Z" fill="white"/>
<path d="M124.652 453.62C124.768 453.416 124.885 453.214 124.834 453.301C124.903 453.228 124.742 453.399 124.584 453.57L124.652 453.62Z" fill="white"/>
<path d="M248.331 429.726C248.247 429.991 248.163 430.256 248.079 430.52L248.386 429.764L248.331 429.726Z" fill="white"/>
<path d="M491.639 386.007C491.358 386.386 491.077 386.766 490.794 387.146C490.659 387.048 490.525 386.948 490.392 386.847C490.669 386.474 490.948 386.102 491.226 385.729L491.639 386.007Z" fill="white"/>
<path d="M249.152 428.571C248.879 428.957 248.604 429.342 248.331 429.726L248.387 429.765C248.655 429.377 248.923 428.987 249.191 428.599L249.152 428.571Z" fill="white"/>
<path d="M249.192 428.598C249.442 428.196 249.692 427.793 249.943 427.39L250.022 427.445C249.732 427.82 249.442 428.196 249.153 428.57L249.192 428.598Z" fill="white"/>
<path d="M494.298 383.535L493.398 384.653L493.062 384.404C493.297 384.007 493.534 383.611 493.77 383.214C493.947 383.319 494.122 383.427 494.298 383.535Z" fill="white"/>
<path d="M250.76 426.249L250.022 427.445L249.943 427.39L250.825 426.294L250.76 426.249Z" fill="white"/>
<path d="M494 382.21L494.298 383.535C494.122 383.427 493.947 383.319 493.77 383.214C493.816 382.999 493.805 382.788 493.739 382.579L494 382.21Z" fill="white"/>
<path d="M250.825 426.294C250.937 426.081 251.05 425.868 250.999 425.966C251.07 425.88 250.915 426.064 250.76 426.249L250.825 426.294Z" fill="white"/>
<path d="M496.983 381.118L496.022 381.715C496.096 381.347 496.17 380.979 496.245 380.611C496.492 380.777 496.738 380.946 496.983 381.118Z" fill="white"/>
<path d="M497.751 379.917C497.495 380.317 497.239 380.719 496.983 381.118C496.738 380.946 496.492 380.777 496.245 380.611C496.519 380.235 496.793 379.861 497.068 379.487C497.298 379.625 497.527 379.768 497.751 379.917Z" fill="white"/>
<path d="M498.538 378.746C498.275 379.137 498.013 379.526 497.751 379.917C497.527 379.768 497.298 379.625 497.067 379.487C497.121 379.289 497.155 379.086 497.167 378.88L497.376 378.613C497.56 378.532 497.74 378.441 497.916 378.341C498.124 378.474 498.332 378.609 498.538 378.746Z" fill="white"/>
<path d="M254.201 421.751C254.018 421.908 253.833 422.065 253.649 422.221C253.738 421.996 253.825 421.769 253.912 421.542L254.201 421.751Z" fill="white"/>
<path d="M499.364 377.599C499.088 377.982 498.812 378.364 498.538 378.746C498.332 378.609 498.126 378.474 497.916 378.341L497.888 377.922C498.016 377.723 498.146 377.529 498.281 377.336L498.546 377.3L498.797 377.211C498.985 377.341 499.175 377.47 499.364 377.599Z" fill="white"/>
<path d="M255.186 420.711C254.858 421.058 254.53 421.404 254.201 421.751L253.912 421.542C254.113 421.109 254.314 420.675 254.515 420.241C254.74 420.395 254.964 420.552 255.186 420.711Z" fill="white"/>
<path d="M500.067 376.377C499.834 376.785 499.599 377.192 499.365 377.6L498.797 377.213C498.839 377.037 498.821 376.867 498.745 376.702C498.862 376.521 498.986 376.346 499.117 376.174C499.339 376.184 499.56 376.18 499.782 376.162L500.067 376.377Z" fill="white"/>
<path d="M254.515 420.241C254.793 419.86 255.071 419.478 255.349 419.097C255.57 419.249 255.789 419.404 256.007 419.562C255.733 419.945 255.459 420.327 255.186 420.711C254.964 420.552 254.74 420.395 254.515 420.241Z" fill="white"/>
<path d="M255.349 419.097C255.62 418.711 255.891 418.326 256.162 417.939C256.383 418.093 256.603 418.246 256.822 418.401C256.55 418.788 256.279 419.175 256.008 419.563C255.789 419.406 255.57 419.25 255.349 419.097Z" fill="white"/>
<path d="M257.315 417.014C257.151 417.476 256.986 417.937 256.822 418.4C256.602 418.245 256.382 418.092 256.162 417.937L257.256 416.974L257.315 417.014Z" fill="white"/>
<path d="M257.256 416.974C257.545 416.603 257.835 416.232 258.123 415.861L258.065 415.821C257.815 416.218 257.565 416.617 257.315 417.014L257.256 416.974Z" fill="white"/>
<path d="M258.123 415.863C258.38 415.467 258.637 415.069 258.894 414.673L258.92 414.69C258.635 415.068 258.35 415.445 258.065 415.823L258.123 415.863Z" fill="white"/>
<path d="M258.894 414.671C258.99 414.428 259.087 414.185 259.183 413.942C259.095 414.191 259.008 414.44 258.92 414.689L258.894 414.671Z" fill="white"/>
<path d="M508.292 364.863C508.053 365.275 507.813 365.686 507.574 366.098C507.334 365.925 507.091 365.754 506.849 365.584C507.142 365.209 507.436 364.833 507.728 364.459C507.915 364.595 508.103 364.73 508.292 364.863Z" fill="white"/>
<path d="M509.041 363.669C508.791 364.067 508.542 364.466 508.292 364.863C508.103 364.73 507.915 364.595 507.728 364.459L508.64 363.377L509.041 363.669Z" fill="white"/>
<path d="M535.431 337.253L536.273 336.589C536.166 336.93 536.058 337.271 535.95 337.612C535.777 337.493 535.603 337.373 535.431 337.253Z" fill="white"/>
<path d="M265.018 380.122C265.124 379.945 265.23 379.768 265.194 379.827C265.24 379.778 265.101 379.93 264.962 380.083L265.018 380.122Z" fill="white"/>
<path d="M278.695 375.003C278.41 375.396 278.124 375.788 277.838 376.181C277.588 375.97 277.342 375.754 277.1 375.533C277.335 375.169 277.57 374.803 277.804 374.437C278.101 374.627 278.398 374.815 278.695 375.003Z" fill="white"/>
<path d="M277.245 370.56C277.491 370.153 277.738 369.745 277.984 369.339L278.82 369.914C278.543 370.288 278.266 370.66 277.989 371.034C277.74 370.878 277.493 370.72 277.245 370.56Z" fill="white"/>
<path d="M545.174 316.461C545.042 317.345 544.702 317.395 544.181 316.707L544.268 316.596C544.594 316.583 544.918 316.551 545.24 316.5L545.174 316.461Z" fill="white"/>
<path d="M545.031 315.487C546.02 315.673 546.038 316.002 545.174 316.461L545.24 316.5C545.169 316.165 545.097 315.828 545.027 315.494L545.031 315.487Z" fill="white"/>
<path d="M242.501 413.542C242.145 413.604 241.791 413.668 241.436 413.731C241.632 412.773 242.023 412.909 242.501 413.542Z" fill="white"/>
<defs>
<filter id="filter0_d_2158_277295" x="20.0394" y="70" width="473.822" height="177.4" filterUnits="userSpaceOnUse" color-interpolation-filters="sRGB">
<feFlood flood-opacity="0" result="BackgroundImageFix"/>
<feColorMatrix in="SourceAlpha" type="matrix" values="0 0 0 0 0 0 0 0 0 0 0 0 0 0 0 0 0 0 127 0" result="hardAlpha"/>
<feOffset dy="3"/>
<feGaussianBlur stdDeviation="1.5"/>
<feComposite in2="hardAlpha" operator="out"/>
<feColorMatrix type="matrix" values="0 0 0 0 0 0 0 0 0 0 0 0 0 0 0 0 0 0 0.658824 0"/>
<feBlend mode="normal" in2="BackgroundImageFix" result="effect1_dropShadow_2158_277295"/>
<feBlend mode="normal" in="SourceGraphic" in2="effect1_dropShadow_2158_277295" result="shape"/>
</filter>
<filter id="filter1_d_2158_277295" x="216.72" y="0.419922" width="81.1684" height="20.8203" filterUnits="userSpaceOnUse" color-interpolation-filters="sRGB">
<feFlood flood-opacity="0" result="BackgroundImageFix"/>
<feColorMatrix in="SourceAlpha" type="matrix" values="0 0 0 0 0 0 0 0 0 0 0 0 0 0 0 0 0 0 127 0" result="hardAlpha"/>
<feOffset dy="3"/>
<feGaussianBlur stdDeviation="1.5"/>
<feComposite in2="hardAlpha" operator="out"/>
<feColorMatrix type="matrix" values="0 0 0 0 0 0 0 0 0 0 0 0 0 0 0 0 0 0 0.658824 0"/>
<feBlend mode="normal" in2="BackgroundImageFix" result="effect1_dropShadow_2158_277295"/>
<feBlend mode="normal" in="SourceGraphic" in2="effect1_dropShadow_2158_277295" result="shape"/>
</filter>
</defs>
</svg>
