<svg width="819" height="368" viewBox="0 0 819 368" fill="none" xmlns="http://www.w3.org/2000/svg">
<path d="M676.387 234.707C664.44 259.453 664.44 273.107 675.533 276.52C684.067 279.933 698.573 274.813 719.907 262.867C741.24 250.92 766.84 233 795.853 208.253C804.387 201.427 810.36 196.307 813.773 194.6C817.187 192.893 818.893 192.04 818.893 193.747C818.893 194.6 816.333 197.16 812.067 201.427C806.947 205.693 801.827 210.813 795 216.787C788.173 222.76 781.347 228.733 774.52 234.707C766.84 241.533 760.867 246.653 755.747 250.067C745.507 257.747 736.12 264.573 725.88 270.547C715.64 277.373 707.107 281.64 701.133 284.2C696.013 286.76 692.6 288.467 690.04 288.467C686.627 289.32 683.213 289.32 678.947 289.32C672.12 290.173 667 289.32 662.733 287.613C657.613 285.907 654.2 281.64 651.64 274.813C648.227 269.693 647.373 262.013 649.08 253.48C649.933 244.947 652.493 236.413 657.613 227.027C661.88 218.493 667.853 209.96 674.68 201.427C681.507 192.893 690.04 186.067 699.427 179.24C704.547 175.827 709.667 173.267 714.787 170.707C719.907 169 725.027 167.293 728.44 167.293C731 167.293 733.56 169 736.973 172.413C740.387 175.827 742.093 179.24 742.093 181.8C742.093 185.213 739.533 189.48 736.12 196.307C731.853 203.133 727.587 208.253 722.467 213.373C706.253 229.587 693.453 234.707 684.92 227.88L680.653 224.467L676.387 234.707ZM710.52 186.92C708.813 188.627 706.253 190.333 704.547 192.893L697.72 200.573C695.16 203.133 693.453 205.693 691.747 207.4C690.04 209.96 689.187 211.667 689.187 211.667C689.187 213.373 690.893 213.373 694.307 211.667C697.72 210.813 701.987 209.107 707.107 206.547C712.227 203.133 718.2 198.867 724.173 192.893C729.293 187.773 732.707 183.507 732.707 180.093C732.707 177.533 731.853 175.827 731 175.827C729.293 176.68 725.88 178.387 721.613 180.093C717.347 181.8 713.933 184.36 710.52 186.92Z" fill="black"/>
<path d="M621.876 229.587C618.463 238.12 615.049 245.8 612.489 251.773C609.929 258.6 607.369 264.573 605.663 270.547C603.103 277.373 600.543 284.2 597.983 291.027C595.423 298.707 592.863 307.24 589.449 317.48C583.476 334.547 580.063 343.933 579.209 346.493C578.356 349.907 579.209 349.907 581.769 347.347C584.329 344.787 586.036 343.08 586.889 343.08C586.889 343.08 586.889 343.933 586.889 346.493C585.183 349.907 583.476 353.32 580.916 356.733C578.356 361 575.796 363.56 574.089 365.267C567.263 368.68 562.996 367.827 561.289 364.413C559.583 361 561.289 351.613 564.703 337.96C568.116 324.307 574.089 308.947 581.769 291.88C583.476 286.76 587.743 276.52 594.569 262.013C600.543 248.36 607.369 233 615.049 215.933C621.876 199.72 629.556 184.36 636.383 169C643.209 153.64 648.329 142.547 651.743 135.72C652.596 133.16 653.449 130.6 655.156 128.04C656.009 125.48 656.863 122.92 658.569 121.213C659.423 119.507 660.276 116.947 661.129 115.24C657.716 119.507 655.156 123.773 653.449 127.187C650.889 130.6 648.329 134.867 645.769 139.987C642.356 145.107 639.796 149.373 636.383 154.493C629.556 166.44 621.876 178.387 614.196 190.333C606.516 203.133 598.836 215.08 592.009 226.173L572.383 255.187C566.409 263.72 562.143 270.547 558.729 273.96C545.076 291.027 533.983 297 523.743 293.587C518.623 291.88 516.916 285.053 516.916 273.107C516.916 267.987 517.769 261.16 520.329 252.627C522.036 244.093 525.449 236.413 529.716 227.88C533.129 220.2 537.396 212.52 542.516 204.84C547.636 198.013 552.756 191.187 557.876 186.067C567.263 176.68 576.649 171.56 586.036 170.707C595.423 170.707 602.249 174.12 606.516 182.653L609.076 187.773L610.783 185.213C610.783 184.36 614.196 180.093 619.316 171.56C624.436 163.88 629.556 154.493 636.383 144.253C642.356 134.013 649.183 122.92 657.716 110.12C665.396 98.1734 671.369 87.9334 676.489 79.4C681.609 71.72 686.729 63.1867 691.849 54.6534C696.969 46.12 701.236 38.44 704.649 33.32C711.476 21.3734 717.449 12.84 720.863 7.72003C724.276 3.45337 727.689 0.893368 731.103 0.0400391C731.103 0.0400391 731.956 0.893372 732.809 0.893372C732.809 0.893372 733.663 0.893372 735.369 0.893372C737.929 2.60003 738.783 5.16003 737.929 8.57336C737.076 11.9867 733.663 18.8134 727.689 28.2C710.623 53.8 693.556 84.52 674.783 119.507C656.009 154.493 638.089 191.187 621.876 229.587ZM601.396 198.013L595.423 195.453C592.009 194.6 590.303 193.747 589.449 193.747C587.743 193.747 586.036 193.747 583.476 195.453C580.063 197.16 574.943 201.427 568.969 207.4C562.996 214.227 557.876 220.2 553.609 227.027C545.076 238.973 539.103 250.067 533.983 262.013C528.863 273.96 528.009 280.787 531.423 283.347C533.129 285.053 537.396 281.64 545.929 273.96C549.343 270.547 556.169 262.013 565.556 250.067C574.089 238.12 582.623 226.173 591.156 214.227L601.396 198.013Z" fill="black"/>
<path d="M499.871 134.867C495.604 136.573 492.191 137.427 490.484 135.72C485.364 134.867 482.804 132.307 482.804 128.04C482.804 123.773 484.511 119.507 488.777 115.24C491.337 112.68 493.897 110.973 497.311 110.973C502.431 110.12 505.844 112.68 507.551 118.653C507.551 122.067 507.551 124.627 505.844 128.04C504.137 131.453 502.431 134.013 499.871 134.867ZM461.471 203.987C452.937 216.787 445.257 229.587 438.431 241.533C431.604 254.333 427.337 263.72 425.631 269.693C423.924 273.96 423.924 276.52 423.924 277.373C423.924 279.08 423.924 279.934 425.631 281.64C430.751 290.174 445.257 286.76 467.444 271.4C475.977 266.28 487.924 256.893 501.577 244.947C515.231 233 529.737 219.347 544.244 204.84C548.511 200.573 551.924 197.16 555.337 193.747C558.751 191.187 560.457 189.48 561.311 189.48C562.164 189.48 561.311 191.187 559.604 194.6C557.897 198.013 552.777 203.987 545.097 211.667C538.271 220.2 530.591 227.88 522.911 235.56C514.377 243.24 506.697 250.067 499.017 256.893C491.337 263.72 483.657 270.547 476.831 275.667C470.004 280.787 464.031 285.053 458.911 287.613C449.524 292.733 441.844 296.147 436.724 297C430.751 298.707 425.631 297.853 420.511 294.44C409.417 289.32 406.004 277.373 409.417 258.6C410.271 254.333 412.831 248.36 416.244 240.68C419.657 233 423.924 225.32 429.044 216.787C433.311 209.107 438.431 201.427 443.551 193.747C448.671 186.92 452.937 180.947 457.204 176.68C460.617 173.267 464.031 170.707 467.444 170.707C469.151 170.707 470.857 171.56 472.564 173.267C474.271 175.827 475.124 178.387 473.417 181.8C471.711 185.214 468.297 192.893 461.471 203.987Z" fill="black"/>
<path d="M378.031 237.267C368.644 242.387 362.671 244.947 360.964 246.654C359.258 248.36 358.404 250.067 359.258 251.774C359.258 253.48 360.111 255.187 360.111 257.747C360.111 260.307 360.964 262.867 361.818 265.427C363.524 277.374 361.818 288.467 356.698 297.854C351.578 308.094 343.898 314.92 333.658 320.04C320.858 325.16 308.911 327.72 296.964 326.867C285.018 325.16 277.338 321.747 272.218 316.627C268.804 314.067 267.098 310.654 267.098 306.387C267.098 302.974 267.098 300.414 268.804 297C270.511 294.44 273.071 291.027 277.338 287.614C281.604 284.2 287.578 280.787 295.258 275.667C302.084 271.4 312.324 265.427 325.124 258.6L339.631 250.067L335.364 236.414C328.538 219.347 327.684 204.84 331.951 191.187C334.511 180.094 339.631 170.707 348.164 163.88C355.844 157.054 364.378 152.787 374.618 151.934C380.591 151.934 384.858 154.494 388.271 157.907C390.831 161.32 390.831 166.44 389.124 171.56C387.418 175.827 384.858 178.387 382.298 178.387C378.884 179.24 378.031 177.534 378.031 173.267C378.031 171.56 375.471 170.707 372.058 172.414C368.644 174.12 365.231 177.534 361.818 180.947C354.991 187.774 351.578 195.454 350.724 203.987C349.871 212.52 350.724 222.76 354.138 235.56L355.844 241.534L368.644 234.707C372.058 233 378.884 228.734 390.831 221.907C401.924 215.934 413.871 209.107 426.671 201.427C439.471 194.6 448.004 189.48 451.418 187.774C454.831 186.067 457.391 185.214 458.244 185.214C461.658 185.214 457.391 189.48 447.151 196.307C436.911 203.134 424.964 209.96 412.164 216.787C399.364 224.467 388.271 231.294 378.031 237.267ZM345.604 281.64C345.604 278.227 344.751 273.107 344.751 266.28C343.898 260.307 343.044 256.894 342.191 256.894C341.338 256.894 339.631 258.6 336.218 260.307C332.804 262.014 328.538 264.574 324.271 267.134L310.618 275.667C305.498 279.08 302.084 281.64 298.671 283.347C283.311 293.587 275.631 300.414 275.631 305.534C275.631 309.8 279.898 312.36 289.284 314.067C298.671 315.774 307.204 314.92 315.738 312.36C333.658 306.387 343.898 296.147 345.604 281.64Z" fill="black"/>
<path d="M164.883 191.187C161.469 198.013 157.203 206.547 151.229 217.64L132.456 251.773C130.749 253.48 129.896 255.187 129.896 256.04C129.896 257.747 129.043 258.6 129.043 259.453C128.189 261.16 127.336 262.013 127.336 262.013C129.043 262.013 134.163 257.747 142.696 249.213C149.523 243.24 156.349 236.413 164.029 229.587C171.709 222.76 179.389 215.933 187.069 209.107C194.749 202.28 201.576 197.16 207.549 192.04C213.523 186.92 218.643 183.507 222.056 180.947C225.469 179.24 228.883 178.387 232.296 178.387C235.709 178.387 237.416 180.093 239.123 182.653C239.123 184.36 239.976 185.213 239.976 186.067C239.976 186.92 239.123 188.627 239.123 190.333C239.123 192.893 238.269 196.307 238.269 201.427C237.416 206.547 236.563 212.52 234.856 221.053C232.296 234.707 231.443 244.093 232.296 250.067C232.296 256.04 234.856 259.453 239.123 260.307C241.683 262.013 246.803 261.16 255.336 258.6C263.016 256.893 269.843 254.333 276.669 250.92C283.496 247.507 289.469 243.24 296.296 238.12C303.123 233 312.509 223.613 325.309 210.813C330.429 206.547 334.696 202.28 338.963 198.867C342.376 195.453 344.936 194.6 344.936 194.6C345.789 196.307 344.083 198.867 340.669 203.987C337.256 209.107 329.576 216.787 317.629 227.88C310.803 234.707 304.829 240.68 299.709 245.8C294.589 250.92 289.469 254.333 285.203 257.747C280.936 261.16 276.669 262.867 273.256 264.573C269.843 266.28 265.576 267.987 261.309 269.693C255.336 271.4 249.363 273.107 242.536 273.107C235.709 273.107 231.443 272.253 228.029 270.547C221.203 267.133 217.789 260.307 216.936 248.36C215.229 244.093 215.229 237.267 216.936 227.88C218.643 218.493 220.349 209.96 223.763 201.427C225.469 196.307 226.323 192.893 226.323 190.333C226.323 189.48 223.763 191.187 218.643 194.6C213.523 198.013 207.549 203.133 200.723 209.96C193.896 216.787 186.216 223.613 177.683 231.293C169.149 238.973 162.323 246.653 155.496 253.48C143.549 265.427 135.016 274.813 129.043 281.64C122.216 288.467 117.096 292.733 113.683 296.147C110.269 299.56 107.709 301.267 106.003 302.12C104.296 302.973 103.443 302.973 101.736 302.973C98.3226 302.973 95.7626 302.12 94.0559 299.56C91.4959 296.147 90.6426 293.587 90.6426 291.027C90.6426 288.467 91.4959 283.347 94.9092 276.52C97.4692 269.693 100.883 262.013 106.003 253.48C109.416 246.653 112.829 240.68 117.096 233.853C120.509 227.88 123.923 221.907 127.336 215.933C140.136 196.307 148.669 183.507 153.789 177.533C158.056 171.56 162.323 169 166.589 169C172.563 170.707 171.709 177.533 164.883 191.187Z" fill="black"/>
<path d="M92.3707 134.867C88.104 136.573 84.6907 137.427 82.984 135.72C77.864 134.867 75.304 132.307 75.304 128.04C75.304 123.773 77.0107 119.507 81.2774 115.24C83.8374 112.68 86.3974 110.973 89.8107 110.973C94.9307 110.12 98.344 112.68 100.051 118.653C100.051 122.067 100.051 124.627 98.344 128.04C96.6374 131.453 94.9307 134.013 92.3707 134.867ZM53.9707 203.987C45.4374 216.787 37.7574 229.587 30.9307 241.533C24.104 254.333 19.8374 263.72 18.1307 269.693C16.424 273.96 16.424 276.52 16.424 277.373C16.424 279.08 16.424 279.934 18.1307 281.64C23.2507 290.174 37.7574 286.76 59.944 271.4C68.4774 266.28 80.424 256.893 94.0774 244.947C107.731 233 122.237 219.347 136.744 204.84C141.011 200.573 144.424 197.16 147.837 193.747C151.251 191.187 152.957 189.48 153.811 189.48C154.664 189.48 153.811 191.187 152.104 194.6C150.397 198.013 145.277 203.987 137.597 211.667C130.771 220.2 123.091 227.88 115.411 235.56C106.877 243.24 99.1974 250.067 91.5174 256.893C83.8374 263.72 76.1574 270.547 69.3307 275.667C62.504 280.787 56.5307 285.053 51.4107 287.613C42.024 292.733 34.344 296.147 29.224 297C23.2507 298.707 18.1307 297.853 13.0107 294.44C1.91736 289.32 -1.49597 277.373 1.91736 258.6C2.77069 254.333 5.33069 248.36 8.74403 240.68C12.1574 233 16.424 225.32 21.544 216.787C25.8107 209.107 30.9307 201.427 36.0507 193.747C41.1707 186.92 45.4374 180.947 49.704 176.68C53.1174 173.267 56.5307 170.707 59.944 170.707C61.6507 170.707 63.3574 171.56 65.064 173.267C66.7707 175.827 67.624 178.387 65.9174 181.8C64.2107 185.214 60.7974 192.893 53.9707 203.987Z" fill="black"/>
</svg>
