<svg width="664" height="551" viewBox="0 0 664 551" fill="none" xmlns="http://www.w3.org/2000/svg">
<path d="M415.141 33.1004C415.141 39.8004 412.341 44.9004 407.541 47.6004C404.241 49.4004 398.941 50.9004 390.341 50.9004C388.441 50.9004 385.241 50.7004 383.241 50.4004V65.3004C383.241 70.7004 383.641 76.1004 384.541 78.8004C385.141 80.6004 386.241 81.5004 387.841 82.0004C388.741 82.3004 390.041 82.5004 390.641 82.6004V83.0004H369.541V82.6004C370.141 82.5004 371.341 82.4004 372.441 82.0004C373.541 81.6004 374.541 81.0004 375.241 78.9004C376.141 76.1004 376.441 70.8004 376.441 65.4004V34.9004C376.441 29.6004 376.241 24.3004 375.141 21.5004C374.441 19.8004 373.341 18.9004 371.941 18.4004C371.341 18.2004 370.541 18.0004 369.541 17.9004V17.3004H394.141C406.741 17.3004 415.141 21.6004 415.141 33.1004ZM407.541 33.9004C407.541 22.8004 402.541 18.6004 393.141 18.6004H389.041C387.941 18.6004 386.141 18.7004 385.141 19.3004C384.141 19.9004 383.741 20.7004 383.541 21.5004C383.241 22.7004 383.241 24.1004 383.241 26.7004V48.7004C385.041 49.2004 388.441 49.5004 390.341 49.5004C399.141 49.5004 402.341 47.2004 404.641 44.4004C406.841 41.7004 407.541 37.2004 407.541 33.9004Z" fill="black"/>
<path d="M345.542 18.6004H337.742C336.442 18.6004 334.542 18.7004 333.242 19.5004C329.042 22.1004 329.242 29.2004 329.242 33.1004V48.2004H337.842C342.042 48.2004 343.742 47.6004 345.042 46.3004C347.042 44.5004 348.342 40.1004 348.642 37.6004H349.042V60.1004H348.642C348.342 57.7004 347.142 53.3004 345.242 51.7004C344.042 50.6004 342.042 49.5004 337.842 49.5004H329.242V67.6004C329.242 71.2004 328.742 78.4004 332.642 80.8004C334.042 81.6004 336.442 81.7004 337.942 81.7004H345.442C351.242 81.7004 354.542 79.9004 356.442 78.1004C360.142 74.6004 361.742 69.9004 362.842 67.1004H363.242L361.342 83.0004H315.342V82.6004C316.042 82.5004 317.042 82.4004 317.642 82.2004C319.042 81.8004 320.542 80.6004 321.042 79.3004C322.342 76.2004 322.442 69.5004 322.442 63.2004V37.3004C322.442 30.8004 322.242 24.5004 321.142 21.3004C320.542 19.7004 319.342 18.8004 317.742 18.2004C316.942 17.9004 316.042 17.8004 315.342 17.7004V17.3004H358.142L360.442 33.0004H359.842C358.342 28.7004 356.042 23.9004 352.642 21.1004C351.542 20.2004 349.142 18.6004 345.542 18.6004Z" fill="black"/>
<path d="M312.164 32.8004H311.664C310.764 30.8004 307.964 24.7004 302.964 21.6004C299.764 19.6004 296.964 18.6004 292.564 18.6004H286.464V63.1004C286.464 69.4004 286.664 76.3004 287.764 79.0004C288.464 80.7004 289.564 81.5004 291.164 82.0004C291.864 82.2004 292.464 82.3004 293.564 82.5004V83.0004H272.464V82.5004C273.364 82.3004 274.064 82.2004 274.864 81.9004C276.264 81.4004 277.564 80.5004 278.164 79.0004C279.464 75.8004 279.664 69.4004 279.664 63.1004V18.6004H273.464C269.164 18.6004 265.964 19.7004 262.764 21.9004C258.264 25.0004 255.464 30.6004 254.464 32.8004H253.964L257.564 17.3004H308.564L312.164 32.8004Z" fill="black"/>
<path d="M252.512 65.5004C252.512 77.6004 242.512 84.4004 232.212 84.4004C225.312 84.4004 220.512 81.4004 217.212 78.1004H216.812L214.712 82.1004H214.312L213.412 62.0004H214.012C216.512 73.0004 221.512 83.0004 232.112 83.0004C242.412 83.0004 246.612 76.6004 246.612 69.8004C246.612 58.9004 241.212 56.7004 230.612 51.4004C221.612 46.9004 214.012 42.6004 214.012 31.8004C214.012 23.6004 220.512 16.0004 232.112 16.0004C237.612 16.0004 242.712 18.1004 245.212 21.1004L246.712 17.5004H247.512L249.012 33.5004H248.412C247.212 28.5004 244.212 22.9004 240.512 20.3004C238.612 18.9004 236.212 17.4004 231.812 17.4004C226.112 17.4004 219.812 20.3004 219.812 28.4004C219.812 38.3004 227.312 41.0004 235.412 45.2004C247.012 51.2004 252.512 54.2004 252.512 65.5004Z" fill="black"/>
<path d="M483.021 549.6H470.321C467.921 547.1 466.121 543.7 465.121 536.2C464.321 530.1 463.621 523 460.721 519.5C458.421 516.8 454.921 516.5 449.021 516.5H442.821V529.8C442.821 536.1 443.021 542.6 444.021 545.8C444.621 547.2 445.821 548.3 447.421 548.8C448.321 549.1 449.721 549.2 450.421 549.2V549.6H429.021V549.2C429.621 549.2 430.721 549.1 431.521 548.8C433.021 548.2 434.221 547.2 434.721 545.8C435.721 542.7 436.021 536.1 436.021 529.8V503.6C436.021 497.2 435.821 490.9 434.721 487.7C434.121 486.3 432.921 485.3 431.421 484.7C430.821 484.5 429.721 484.3 429.021 484.3V483.9H454.021C464.521 483.9 474.721 488.7 474.721 499.9C474.721 508.9 467.921 514.8 458.521 515.8V516.1C461.421 516.5 463.721 517.1 466.121 518.8C469.221 521 470.521 525.3 471.921 532.4C473.721 541.4 475.721 545.3 477.921 546.9C479.721 548.2 481.421 548.8 483.021 549.1V549.6ZM452.521 485.2H449.221C446.921 485.2 444.821 485.5 443.821 487.2C442.821 488.7 442.821 491.2 442.821 495.1V515.2H450.321C459.421 515.2 461.721 513.8 464.221 510.9C466.221 508.6 467.121 505.6 467.121 500.1C467.121 491.1 463.321 485.2 452.521 485.2Z" fill="black"/>
<path d="M405.022 485.2H397.222C395.922 485.2 394.022 485.3 392.722 486.1C388.522 488.7 388.722 495.8 388.722 499.7V514.8H397.322C401.522 514.8 403.222 514.2 404.522 512.9C406.522 511.1 407.822 506.7 408.122 504.2H408.522V526.7H408.122C407.822 524.3 406.622 519.9 404.722 518.3C403.522 517.2 401.522 516.1 397.322 516.1H388.722V534.2C388.722 537.8 388.222 545 392.122 547.4C393.522 548.2 395.922 548.3 397.422 548.3H404.922C410.722 548.3 414.022 546.5 415.922 544.7C419.622 541.2 421.222 536.5 422.322 533.7H422.722L420.822 549.6H374.822V549.2C375.522 549.1 376.522 549 377.122 548.8C378.522 548.4 380.022 547.2 380.522 545.9C381.822 542.8 381.922 536.1 381.922 529.8V503.9C381.922 497.4 381.722 491.1 380.622 487.9C380.022 486.3 378.822 485.4 377.222 484.8C376.422 484.5 375.522 484.4 374.822 484.3V483.9H417.622L419.922 499.6H419.322C417.822 495.3 415.522 490.5 412.122 487.7C411.022 486.8 408.622 485.2 405.022 485.2Z" fill="black"/>
<path d="M369.707 532.1C369.707 544.2 359.707 551 349.407 551C342.507 551 337.707 548 334.407 544.7H334.007L331.907 548.7H331.507L330.607 528.6H331.207C333.707 539.6 338.707 549.6 349.307 549.6C359.607 549.6 363.807 543.2 363.807 536.4C363.807 525.5 358.407 523.3 347.807 518C338.807 513.5 331.207 509.2 331.207 498.4C331.207 490.2 337.707 482.6 349.307 482.6C354.807 482.6 359.907 484.7 362.407 487.7L363.907 484.1H364.707L366.207 500.1H365.607C364.407 495.1 361.407 489.5 357.707 486.9C355.807 485.5 353.407 484 349.007 484C343.307 484 337.007 486.9 337.007 495C337.007 504.9 344.507 507.6 352.607 511.8C364.207 517.8 369.707 520.8 369.707 532.1Z" fill="black"/>
<path d="M324.428 549.6H303.728V549.1C304.428 549 305.428 548.7 306.128 548.5C307.728 548 308.828 547.1 309.428 545.4C310.528 542.2 310.728 536 310.728 529.7V504C310.728 497.5 310.628 491.1 309.428 488C308.728 486.2 307.628 485.5 306.228 485C305.528 484.7 304.428 484.5 303.728 484.4V483.9H324.428V484.4C323.528 484.6 322.728 484.7 321.728 485.1C320.528 485.6 319.328 486.4 318.728 488C317.628 491.2 317.528 497.5 317.528 504V529.7C317.528 536 317.628 542.9 318.728 545.6C319.328 547.1 320.428 548 321.628 548.4C322.828 548.8 323.628 549 324.428 549.1V549.6Z" fill="black"/>
<path d="M284.273 537.9L279.973 523.8H260.873L255.873 538.8C254.873 541.9 254.573 543.6 254.573 544.8C254.573 546.9 255.773 547.8 257.173 548.4C257.973 548.8 259.273 549 260.173 549.1V549.6H246.273V549.1C247.473 548.9 248.073 548.9 249.373 548.2C250.273 547.7 250.973 547 251.773 545.5C252.373 544.3 252.973 542.7 254.373 538.6L272.873 483.4H274.373L289.273 532C291.673 539.8 293.173 543.4 293.873 544.9C294.973 547.5 296.073 548.1 297.273 548.5C298.273 548.8 299.173 549 299.973 549.1V549.6H280.573V549.1C281.273 549 282.273 548.8 283.273 548.4C284.873 547.8 285.773 546.9 285.773 544.7C285.773 542.1 284.973 540.4 284.273 537.9ZM270.673 494.5L261.273 522.5H279.573L270.973 494.5H270.673Z" fill="black"/>
<path d="M250.89 499.7C250.89 506.4 248.09 511.5 243.29 514.2C239.99 516 234.69 517.5 226.09 517.5C224.19 517.5 220.99 517.3 218.99 517V531.9C218.99 537.3 219.39 542.7 220.29 545.4C220.89 547.2 221.99 548.1 223.59 548.6C224.49 548.9 225.79 549.1 226.39 549.2V549.6H205.29V549.2C205.89 549.1 207.09 549 208.19 548.6C209.29 548.2 210.29 547.6 210.99 545.5C211.89 542.7 212.19 537.4 212.19 532V501.5C212.19 496.2 211.99 490.9 210.89 488.1C210.19 486.4 209.09 485.5 207.69 485C207.09 484.8 206.29 484.6 205.29 484.5V483.9H229.89C242.49 483.9 250.89 488.2 250.89 499.7ZM243.29 500.5C243.29 489.4 238.29 485.2 228.89 485.2H224.79C223.69 485.2 221.89 485.3 220.89 485.9C219.89 486.5 219.49 487.3 219.29 488.1C218.99 489.3 218.99 490.7 218.99 493.3V515.3C220.79 515.8 224.19 516.1 226.09 516.1C234.89 516.1 238.09 513.8 240.39 511C242.59 508.3 243.29 503.8 243.29 500.5Z" fill="black"/>
<path d="M185.836 537.9L181.536 523.8H162.436L157.436 538.8C156.436 541.9 156.136 543.6 156.136 544.8C156.136 546.9 157.336 547.8 158.736 548.4C159.536 548.8 160.836 549 161.736 549.1V549.6H147.836V549.1C149.036 548.9 149.636 548.9 150.936 548.2C151.836 547.7 152.536 547 153.336 545.5C153.936 544.3 154.536 542.7 155.936 538.6L174.436 483.4H175.936L190.836 532C193.236 539.8 194.736 543.4 195.436 544.9C196.536 547.5 197.636 548.1 198.836 548.5C199.836 548.8 200.736 549 201.536 549.1V549.6H182.136V549.1C182.836 549 183.836 548.8 184.836 548.4C186.436 547.8 187.336 546.9 187.336 544.7C187.336 542.1 186.536 540.4 185.836 537.9ZM172.236 494.5L162.836 522.5H181.136L172.536 494.5H172.236Z" fill="black"/>
<path d="M621.554 396.6H620.954C619.254 391.4 617.354 387.7 614.754 385.3C612.354 383.1 610.154 382.2 606.354 382.2H599.754C594.854 382.2 592.654 383.3 591.754 388.5C591.454 390.6 591.554 393.9 591.554 397.7V411.1H599.954C604.154 411.1 606.054 410.5 607.454 409.1C609.454 407.1 610.554 402.9 610.754 400.5H611.254V423H610.754C610.554 420.6 609.554 416.6 607.654 414.7C606.454 413.5 604.154 412.4 599.954 412.4H591.554V426.7C591.554 433.1 591.754 439.4 592.854 442.6C593.354 444 594.654 445.1 596.154 445.6C597.054 445.9 597.754 446 598.454 446.1V446.6H577.654V446.1C578.454 446 579.454 445.8 580.454 445.4C581.454 445 582.754 444.4 583.354 442.7C584.454 439.5 584.754 433.1 584.754 426.7V400.9C584.754 394.5 584.554 387.8 583.354 384.8C582.654 383.1 581.654 382.4 580.254 381.9C579.354 381.6 578.454 381.5 577.754 381.4V380.9H619.754L621.554 396.6Z" fill="black"/>
<path d="M571.826 414C571.826 432.6 560.126 448 542.326 448C524.426 448 512.726 432.6 512.726 414C512.726 395.1 524.426 379.6 542.326 379.6C560.126 379.6 571.826 395.1 571.826 414ZM563.926 414C563.926 399.4 559.626 381 542.326 381C525.726 381 520.626 397.4 520.626 414C520.626 428.6 525.026 446.6 542.326 446.6C558.726 446.6 563.926 430.3 563.926 414Z" fill="black"/>
<path d="M469.67 382.2H461.87C460.57 382.2 458.67 382.3 457.37 383.1C453.17 385.7 453.37 392.8 453.37 396.7V411.8H461.97C466.17 411.8 467.87 411.2 469.17 409.9C471.17 408.1 472.47 403.7 472.77 401.2H473.17V423.7H472.77C472.47 421.3 471.27 416.9 469.37 415.3C468.17 414.2 466.17 413.1 461.97 413.1H453.37V431.2C453.37 434.8 452.87 442 456.77 444.4C458.17 445.2 460.57 445.3 462.07 445.3H469.57C475.37 445.3 478.67 443.5 480.57 441.7C484.27 438.2 485.87 433.5 486.97 430.7H487.37L485.47 446.6H439.47V446.2C440.17 446.1 441.17 446 441.77 445.8C443.17 445.4 444.67 444.2 445.17 442.9C446.47 439.8 446.57 433.1 446.57 426.8V400.9C446.57 394.4 446.37 388.1 445.27 384.9C444.67 383.3 443.47 382.4 441.87 381.8C441.07 381.5 440.17 381.4 439.47 381.3V380.9H482.27L484.57 396.6H483.97C482.47 392.3 480.17 387.5 476.77 384.7C475.67 383.8 473.27 382.2 469.67 382.2Z" fill="black"/>
<path d="M434.355 429.1C434.355 441.2 424.355 448 414.055 448C407.155 448 402.355 445 399.055 441.7H398.655L396.555 445.7H396.155L395.255 425.6H395.855C398.355 436.6 403.355 446.6 413.955 446.6C424.255 446.6 428.455 440.2 428.455 433.4C428.455 422.5 423.055 420.3 412.455 415C403.455 410.5 395.855 406.2 395.855 395.4C395.855 387.2 402.355 379.6 413.955 379.6C419.455 379.6 424.555 381.7 427.055 384.7L428.555 381.1H429.355L430.855 397.1H430.255C429.055 392.1 426.055 386.5 422.355 383.9C420.455 382.5 418.055 381 413.655 381C407.955 381 401.655 383.9 401.655 392C401.655 401.9 409.155 404.6 417.255 408.8C428.855 414.8 434.355 417.8 434.355 429.1Z" fill="black"/>
<path d="M389.808 381.3C388.908 381.4 388.208 381.5 387.408 381.8C385.908 382.3 384.508 383.2 383.808 384.9C383.108 386.7 382.608 389 382.608 393.9V424.6C382.608 430.2 381.708 435.1 379.608 439C376.908 444.1 370.008 448 361.908 448C351.508 448 343.808 444.3 341.208 436.5C339.608 431.7 339.808 426.3 339.808 422.5V400.7C339.808 392.5 339.908 387.8 338.608 384.8C338.008 383.4 336.808 382.5 335.508 382C334.808 381.7 333.808 381.5 332.908 381.4V380.9H353.508V381.4C352.608 381.5 351.508 381.7 350.708 382C349.308 382.5 348.308 383.1 347.608 384.8C346.508 387.5 346.608 393.6 346.608 400.7V425.6C346.608 428.3 346.508 432.8 347.508 436.2C349.308 442.4 353.708 446.2 361.908 446.2C369.808 446.2 375.508 443.4 378.208 438.7C380.008 435.6 381.208 431.5 381.208 425V393.9C381.208 389 380.608 386.6 379.808 384.9C379.208 383.6 378.408 382.6 376.708 382C375.808 381.7 374.108 381.4 373.108 381.3V380.9H389.808V381.3Z" fill="black"/>
<path d="M327.881 414C327.881 432.6 316.181 448 298.381 448C280.481 448 268.781 432.6 268.781 414C268.781 395.1 280.481 379.6 298.381 379.6C316.181 379.6 327.881 395.1 327.881 414ZM319.981 414C319.981 399.4 315.681 381 298.381 381C281.781 381 276.681 397.4 276.681 414C276.681 428.6 281.081 446.6 298.381 446.6C314.781 446.6 319.981 430.3 319.981 414Z" fill="black"/>
<path d="M204.607 446.6V446.1C205.307 446 206.307 445.9 206.907 445.7C208.507 445.3 209.807 444 210.307 442.7C211.507 439.3 211.607 433 211.607 426.6V400.8C211.607 394.5 211.707 388 210.307 384.9C209.607 383.3 208.507 382.5 207.207 382C206.407 381.7 205.407 381.5 204.607 381.4V380.9H225.307V381.4C224.607 381.5 223.907 381.6 223.207 381.8C221.607 382.2 220.307 383.4 219.807 384.9C218.707 388.1 218.407 394.5 218.407 400.8V412.4H249.207V400.8C249.207 394.5 248.907 388.1 247.807 384.9C247.307 383.4 246.007 382.2 244.407 381.8C243.707 381.6 243.007 381.5 242.407 381.4V380.9H263.007V381.4C262.307 381.5 261.107 381.6 259.907 382.1C258.807 382.6 257.807 383.3 257.207 384.9C256.007 388 256.007 394.5 256.007 400.8V426.6C256.007 433 256.007 440 257.207 442.7C257.807 444 258.907 445 260.407 445.5C261.307 445.8 262.307 446 263.007 446.1V446.6H242.407V446.1C243.107 446 243.807 445.8 244.507 445.6C246.207 445 247.307 444.3 247.807 442.7C248.907 439.2 249.207 433 249.207 426.6V413.7H218.407V426.6C218.407 433 218.607 439.3 219.807 442.7C220.307 444 221.907 445.3 223.307 445.7C223.907 445.9 224.607 446 225.307 446.1V446.6H204.607Z" fill="black"/>
<path d="M162.151 382.2H154.351C153.051 382.2 151.151 382.3 149.851 383.1C145.651 385.7 145.851 392.8 145.851 396.7V411.8H154.451C158.651 411.8 160.351 411.2 161.651 409.9C163.651 408.1 164.951 403.7 165.251 401.2H165.651V423.7H165.251C164.951 421.3 163.751 416.9 161.851 415.3C160.651 414.2 158.651 413.1 154.451 413.1H145.851V431.2C145.851 434.8 145.351 442 149.251 444.4C150.651 445.2 153.051 445.3 154.551 445.3H162.051C167.851 445.3 171.151 443.5 173.051 441.7C176.751 438.2 178.351 433.5 179.451 430.7H179.851L177.951 446.6H131.951V446.2C132.651 446.1 133.651 446 134.251 445.8C135.651 445.4 137.151 444.2 137.651 442.9C138.951 439.8 139.051 433.1 139.051 426.8V400.9C139.051 394.4 138.851 388.1 137.751 384.9C137.151 383.3 135.951 382.4 134.351 381.8C133.551 381.5 132.651 381.4 131.951 381.3V380.9H174.751L177.051 396.6H176.451C174.951 392.3 172.651 387.5 169.251 384.7C168.151 383.8 165.751 382.2 162.151 382.2Z" fill="black"/>
<path d="M68.3764 446.6V446.1C69.0764 446 70.0764 445.9 70.6764 445.7C72.2764 445.3 73.5764 444 74.0764 442.7C75.2764 439.3 75.3764 433 75.3764 426.6V400.8C75.3764 394.5 75.4764 388 74.0764 384.9C73.3764 383.3 72.2764 382.5 70.9764 382C70.1764 381.7 69.1764 381.5 68.3764 381.4V380.9H89.0764V381.4C88.3764 381.5 87.6764 381.6 86.9764 381.8C85.3764 382.2 84.0764 383.4 83.5764 384.9C82.4764 388.1 82.1764 394.5 82.1764 400.8V412.4H112.976V400.8C112.976 394.5 112.676 388.1 111.576 384.9C111.076 383.4 109.776 382.2 108.176 381.8C107.476 381.6 106.776 381.5 106.176 381.4V380.9H126.776V381.4C126.076 381.5 124.876 381.6 123.676 382.1C122.576 382.6 121.576 383.3 120.976 384.9C119.776 388 119.776 394.5 119.776 400.8V426.6C119.776 433 119.776 440 120.976 442.7C121.576 444 122.676 445 124.176 445.5C125.076 445.8 126.076 446 126.776 446.1V446.6H106.176V446.1C106.876 446 107.576 445.8 108.276 445.6C109.976 445 111.076 444.3 111.576 442.7C112.676 439.2 112.976 433 112.976 426.6V413.7H82.1764V426.6C82.1764 433 82.3764 439.3 83.5764 442.7C84.0764 444 85.6764 445.3 87.0764 445.7C87.6764 445.9 88.3764 446 89.0764 446.1V446.6H68.3764Z" fill="black"/>
<path d="M65.1991 396.4H64.6991C63.7991 394.4 60.9991 388.3 55.9991 385.2C52.7991 383.2 49.9991 382.2 45.5991 382.2H39.4991V426.7C39.4991 433 39.6991 439.9 40.7991 442.6C41.4991 444.3 42.5991 445.1 44.1991 445.6C44.8991 445.8 45.4991 445.9 46.5991 446.1V446.6H25.4991V446.1C26.3991 445.9 27.0991 445.8 27.8991 445.5C29.2991 445 30.5991 444.1 31.1991 442.6C32.4991 439.4 32.6991 433 32.6991 426.7V382.2H26.4991C22.1991 382.2 18.9991 383.3 15.7991 385.5C11.2991 388.6 8.49909 394.2 7.49909 396.4H6.99909L10.5991 380.9H61.5991L65.1991 396.4Z" fill="black"/>
<path d="M551.032 198.92C544.087 220.592 545.661 231.79 555.152 233.311C562.544 235.126 573.851 229.255 589.97 216.999C606.089 204.742 625.019 187.095 645.961 163.455C652.173 156.873 656.481 151.985 659.084 150.192C661.687 148.399 662.988 147.503 663.185 148.902C663.283 149.602 661.479 151.997 658.471 155.988C654.764 160.077 651.155 164.866 646.245 170.552C641.335 176.238 636.424 181.923 631.514 187.609C626.002 194.093 621.694 198.981 617.888 202.37C610.375 209.849 603.464 216.53 595.754 222.609C588.143 229.388 581.636 233.87 577.033 236.659C573.129 239.348 570.526 241.141 568.426 241.436C565.725 242.53 562.926 242.923 559.427 243.415C553.926 244.902 549.629 244.792 545.933 243.884C541.537 243.074 538.246 239.969 535.36 234.665C531.97 230.859 530.385 224.659 530.801 217.464C530.518 210.367 531.634 203.074 534.751 194.785C537.266 187.295 541.182 179.608 545.797 171.823C550.412 164.038 556.624 157.455 563.535 150.775C567.341 147.385 571.245 144.696 575.149 142.006C579.151 140.016 583.153 138.026 585.953 137.633C588.052 137.338 590.348 138.442 593.541 140.848C596.734 143.254 598.527 145.857 598.822 147.957C599.216 150.756 597.608 154.55 595.595 160.542C592.883 166.633 589.974 171.324 586.365 176.113C574.937 191.279 565.029 196.953 557.244 192.338L553.351 190.03L551.032 198.92ZM573.518 155.795C572.315 157.391 570.412 159.086 569.308 161.382L564.594 168.468C562.79 170.862 561.685 173.158 560.482 174.755C559.378 177.051 558.874 178.549 558.874 178.549C559.071 179.949 560.471 179.752 563.073 177.959C565.774 176.866 569.077 174.974 572.981 172.285C576.787 168.895 581.194 164.707 585.404 159.12C589.013 154.331 591.321 150.438 590.927 147.639C590.632 145.539 589.736 144.238 589.036 144.336C587.734 145.233 585.132 147.026 581.829 148.917C578.527 150.809 576.022 153.302 573.518 155.795Z" fill="black"/>
<path d="M505.737 201.004C503.921 208.396 502.007 215.088 500.596 220.282C499.283 226.175 497.872 231.369 497.161 236.465C495.848 242.359 494.536 248.253 493.223 254.146C492.009 260.74 490.893 268.034 489.274 276.825C486.342 291.51 484.624 299.602 484.22 301.8C483.913 304.698 484.613 304.599 486.418 302.205C488.222 299.81 489.425 298.214 490.125 298.115C490.125 298.115 490.223 298.815 490.518 300.915C489.512 303.911 488.506 306.907 486.8 310.001C485.192 313.795 483.387 316.19 482.184 317.786C476.979 321.373 473.382 321.165 471.588 318.562C469.795 315.959 470.113 308.064 471.339 296.474C472.564 284.883 475.693 271.597 480.024 256.715C480.834 252.319 483.153 243.429 487.079 230.745C490.405 218.859 494.233 205.475 498.564 190.593C502.294 176.51 506.823 163.027 510.651 149.643C514.479 136.259 517.4 126.571 519.412 120.579C519.817 118.381 520.222 116.183 521.326 113.887C521.731 111.689 522.136 109.491 523.339 107.895C523.842 106.397 524.247 104.199 524.75 102.701C522.442 106.594 520.835 110.388 519.828 113.384C518.122 116.478 516.514 120.273 515.005 124.767C512.796 129.359 511.188 133.153 508.979 137.746C504.757 148.331 499.835 159.013 494.914 169.696C490.091 181.079 485.169 191.762 480.849 201.647L468.097 227.704C464.182 235.391 461.469 241.481 459.063 244.674C449.833 260.244 441.423 266.422 432.632 264.803C428.236 263.993 426.05 258.591 424.673 248.794C424.082 244.595 423.995 238.897 425.111 231.604C425.528 224.409 427.442 217.717 429.957 210.227C431.872 203.535 434.486 196.744 437.799 189.856C441.212 183.667 444.624 177.478 448.233 172.689C454.849 163.909 461.957 158.628 469.557 156.846C477.255 155.764 483.247 157.776 487.73 164.283L490.42 168.187L491.524 165.891C491.426 165.191 493.734 161.298 496.949 153.71C500.263 146.821 503.38 138.533 507.799 129.348C511.517 120.261 515.837 110.376 521.36 98.8953C526.282 88.2123 530 79.1257 533.216 71.5372C536.53 64.6485 539.745 57.06 542.961 49.4714C546.176 41.8829 548.79 35.0925 551 30.5C555.221 19.9154 559.137 12.2285 561.346 7.63606C563.653 3.74343 566.158 1.25049 568.859 0.157227C568.859 0.157227 569.657 0.75871 570.357 0.660354C570.357 0.660354 571.056 0.561999 572.456 0.365286C574.752 1.46989 575.747 3.47106 575.441 6.36878C575.134 9.2665 573.122 15.2586 569.305 23.6454C558.259 46.6077 547.803 73.7691 536.439 104.626C525.075 135.484 514.608 167.642 505.737 201.004ZM485.302 177.47L480.108 176.059C477.21 175.753 475.712 175.25 475.012 175.348C473.612 175.545 472.213 175.742 470.31 177.436C467.707 179.229 464 183.319 459.789 188.906C455.677 195.193 452.167 200.682 449.455 206.773C443.833 217.554 440.213 227.341 437.391 237.729C434.569 248.116 434.656 253.814 437.75 255.52C439.347 256.723 442.452 253.431 448.566 246.149C450.972 242.957 455.587 235.171 461.908 224.292C467.529 213.51 473.151 202.729 478.772 191.948L485.302 177.47Z" fill="black"/>
<path d="M394.76 137.384C391.457 139.276 388.756 140.369 387.16 139.166C382.862 139.056 380.468 137.252 379.976 133.753C379.484 130.253 380.392 126.557 383.4 122.566C385.204 120.172 387.107 118.477 389.906 118.084C394.007 116.794 397.101 118.5 399.189 123.202C399.583 126.001 399.878 128.101 398.872 131.097C397.865 134.093 396.761 136.389 394.76 137.384ZM371.234 198.497C365.711 209.978 360.887 221.361 356.666 231.946C352.542 243.23 350.125 251.42 349.414 256.516C348.506 260.212 348.801 262.311 348.899 263.011C349.096 264.411 349.194 265.111 350.791 266.314C355.973 272.722 367.477 268.251 383.903 253.096C390.311 247.914 399.027 238.838 408.847 227.467C418.668 216.095 428.991 203.226 439.217 189.657C442.224 185.666 444.63 182.473 447.036 179.28C449.54 176.787 450.743 175.191 451.443 175.092C452.143 174.994 451.64 176.492 450.633 179.488C449.627 182.484 446.117 187.973 440.703 195.157C436.088 202.942 430.675 210.126 425.261 217.31C419.148 224.592 413.636 231.076 408.125 237.56C402.613 244.044 397.101 250.528 392.093 255.513C387.084 260.499 382.677 264.687 378.773 267.377C371.665 272.658 365.76 276.342 361.659 277.632C356.957 279.72 352.66 279.611 348.067 277.401C338.379 274.481 334.203 265.077 334.838 249.287C335.046 245.689 336.457 240.495 338.371 233.803C340.286 227.111 342.9 220.321 346.115 212.732C348.729 205.942 352.043 199.053 355.357 192.165C358.769 185.976 361.58 180.585 364.587 176.594C366.993 173.401 369.497 170.908 372.297 170.515C373.696 170.318 375.194 170.821 376.791 172.024C378.485 173.927 379.48 175.928 378.474 178.924C377.468 181.921 375.554 188.613 371.234 198.497Z" fill="black"/>
<path d="M306.639 235.408C299.53 240.689 294.927 243.477 293.724 245.074C292.521 246.67 292.018 248.168 292.914 249.47C293.111 250.869 294.007 252.171 294.302 254.27C294.597 256.37 295.592 258.371 296.587 260.372C299.364 269.973 299.243 279.268 296.126 287.556C293.107 296.544 287.595 303.028 279.787 308.408C269.88 314.082 260.377 317.558 250.481 318.236C240.487 318.213 233.795 316.299 229.005 312.69C225.911 310.984 224.118 308.381 223.626 304.882C223.233 302.083 222.938 299.983 223.944 296.987C225.048 294.691 226.755 291.596 229.86 288.305C232.966 285.014 237.472 281.526 243.18 276.442C248.287 272.156 255.997 266.077 265.707 259.003L276.621 250.332L271.548 239.626C263.982 226.417 261.61 214.618 263.536 202.928C264.357 193.535 267.474 185.247 273.685 178.665C279.197 172.181 285.704 167.698 294.004 165.818C298.902 165.129 302.697 166.737 305.889 169.143C308.382 171.647 308.973 175.846 308.163 180.242C307.255 183.938 305.451 186.333 303.351 186.628C300.65 187.721 299.754 186.42 299.262 182.92C299.065 181.521 296.867 181.116 294.265 182.909C291.662 184.702 289.256 187.895 286.85 191.088C282.038 197.473 280.124 204.165 280.408 211.262C280.691 218.359 282.572 226.659 286.846 236.763L288.934 241.465L298.645 234.391C301.248 232.598 306.355 228.312 315.366 221.336C323.775 215.159 332.786 208.183 342.398 200.409C352.109 193.335 358.517 188.152 361.12 186.359C363.723 184.566 365.724 183.571 366.424 183.473C369.223 183.079 366.216 187.07 358.604 193.849C350.993 200.628 341.982 207.604 332.272 214.678C322.659 222.452 314.348 229.329 306.639 235.408ZM285.159 275.538C284.766 272.738 283.476 268.638 282.689 263.039C281.301 258.238 280.207 255.537 279.507 255.636C278.808 255.734 277.605 257.331 275.002 259.124C272.399 260.917 269.195 263.508 265.991 266.099L255.777 274.671C251.972 278.061 249.467 280.554 246.865 282.347C235.448 292.516 229.936 298.999 230.526 303.198C231.018 306.698 234.812 308.305 242.707 308.623C250.602 308.941 257.502 307.258 264.206 304.174C278.214 297.21 285.431 287.632 285.159 275.538Z" fill="black"/>
<path d="M126.519 222.185C124.506 228.177 121.991 235.667 118.37 245.453L106.908 275.611C105.705 277.207 105.202 278.705 105.3 279.405C105.497 280.805 104.896 281.603 104.994 282.303C104.491 283.801 103.889 284.599 103.889 284.599C105.289 284.402 108.996 280.313 115.011 272.331C119.921 266.645 124.733 260.26 130.245 253.776C135.757 247.292 141.268 240.808 146.78 234.324C152.292 227.84 157.3 222.854 161.609 217.967C165.918 213.079 169.724 209.69 172.228 207.197C174.83 205.404 177.531 204.31 180.331 203.917C183.13 203.523 184.727 204.726 186.421 206.629C186.618 208.029 187.416 208.63 187.515 209.33C187.613 210.03 187.11 211.528 187.307 212.928C187.602 215.027 187.295 217.925 187.885 222.124C187.776 226.421 187.764 231.419 187.348 238.614C186.822 250.106 187.204 257.903 188.593 262.704C189.281 267.602 191.774 270.107 195.372 270.315C197.668 271.419 201.769 270.129 208.472 267.046C214.574 264.761 219.878 261.875 225.083 258.289C230.288 254.703 234.695 250.515 239.704 245.529C244.712 240.543 251.329 231.763 260.351 219.79C264.058 215.701 267.066 211.71 270.171 208.419C272.577 205.226 274.579 204.231 274.579 204.231C275.475 205.532 274.37 207.828 272.161 212.421C269.952 217.013 264.539 224.197 256.02 234.672C251.208 241.058 246.997 246.645 243.388 251.434C239.779 256.223 235.974 259.613 232.868 262.904C229.762 266.195 226.46 268.087 223.857 269.88C221.255 271.673 217.952 273.564 214.65 275.456C209.947 277.544 205.245 279.632 199.646 280.419C194.048 281.206 190.45 280.998 187.454 279.991C181.462 277.979 177.876 272.774 175.799 263.074C173.907 259.772 173.121 254.173 173.438 246.278C173.756 238.383 174.172 231.188 175.988 223.796C176.798 219.4 177.104 216.503 176.809 214.403C176.711 213.703 174.808 215.398 171.002 218.788C167.197 222.177 162.888 227.065 158.076 233.45C153.264 239.836 147.752 246.32 141.639 253.602C135.526 260.884 130.812 267.969 126.001 274.355C117.58 285.53 111.663 294.212 107.551 300.499C102.739 306.884 99.0321 310.974 96.6261 314.166C94.2202 317.359 92.3174 319.054 91.0161 319.951C89.7148 320.847 89.0149 320.945 87.6152 321.142C84.8159 321.536 82.618 321.131 80.9232 319.228C78.4303 316.724 77.4354 314.723 77.1403 312.623C76.8452 310.523 76.9549 306.226 78.9675 300.234C80.2801 294.34 82.1943 287.648 85.4098 280.06C87.4223 274.067 89.5332 268.775 92.2455 262.685C94.3564 257.392 96.4672 252.1 98.5781 246.808C106.814 229.236 112.337 217.755 115.847 212.266C118.658 206.875 121.862 204.284 125.361 203.792C130.457 204.503 130.544 210.2 126.519 222.185Z" fill="black"/>
<path d="M60.5584 184.353C57.2559 186.245 54.5549 187.338 52.9585 186.135C48.6611 186.025 46.2665 184.221 45.7748 180.722C45.283 177.222 46.1909 173.526 49.1983 169.535C51.0028 167.141 52.9056 165.446 55.7049 165.053C59.8056 163.763 62.9 165.469 64.9882 170.171C65.3816 172.97 65.6767 175.07 64.6705 178.066C63.6642 181.062 62.5596 183.358 60.5584 184.353ZM37.0325 245.466C31.5094 256.947 26.6862 268.33 22.4644 278.915C18.341 290.199 15.9238 298.389 15.2126 303.485C14.3047 307.181 14.5997 309.28 14.6981 309.98C14.8948 311.38 14.9932 312.08 16.5896 313.283C21.7722 319.691 33.276 315.22 49.7015 300.065C56.1097 294.883 64.8256 285.807 74.646 274.436C84.4665 263.064 94.7901 250.195 105.015 236.626C108.023 232.635 110.429 229.442 112.835 226.249C115.339 223.756 116.542 222.16 117.242 222.061C117.942 221.963 117.438 223.461 116.432 226.457C115.426 229.453 111.915 234.942 106.502 242.126C101.887 249.911 96.4735 257.095 91.0601 264.279C84.9469 271.561 79.4352 278.045 73.9235 284.529C68.4118 291.013 62.9001 297.496 57.8915 302.482C52.8829 307.468 48.4758 311.656 44.5718 314.346C37.4637 319.627 31.5586 323.311 27.4579 324.601C22.7557 326.689 18.4583 326.58 13.8659 324.37C4.17779 321.45 0.00144446 312.046 0.636971 296.256C0.845031 292.658 2.25606 287.464 4.17021 280.772C6.08437 274.08 8.69837 267.29 11.9138 259.701C14.5278 252.911 17.8417 246.022 21.1555 239.134C24.5677 232.945 27.3784 227.554 30.3858 223.563C32.7918 220.37 35.2961 217.877 38.0954 217.484C39.4951 217.287 40.9932 217.79 42.5896 218.993C44.2843 220.896 45.2792 222.897 44.273 225.893C43.2667 228.889 41.3525 235.581 37.0325 245.466Z" fill="black"/>
</svg>
