<svg width="689" height="310" viewBox="0 0 689 310" fill="none" xmlns="http://www.w3.org/2000/svg">
<path d="M19.3138 126.873C16.9806 129.374 13.8086 128.12 9.79777 123.112C3.1531 114.251 0.131548 105.967 0.733114 98.2584C1.49931 89.5148 6.17987 80.3012 14.7748 70.6174C19.859 64.5584 25.9894 58.7906 33.166 53.314C40.5738 47.5621 48.5435 42.3989 57.075 37.8246C65.5844 32.997 74.4025 28.7805 83.5292 25.1749C92.887 21.2938 102.185 18.1836 111.422 15.8443C114.417 15.0719 117.803 14.3929 121.579 13.8073C125.356 13.2217 130.019 12.5585 135.568 11.8178C139.367 11.4855 142.28 11.2307 144.306 11.0534C146.585 10.854 148.231 10.71 149.244 10.6214C150.235 10.2795 150.846 9.97083 151.077 9.69542C151.561 9.39785 151.908 8.98473 152.117 8.45606C153.504 6.80359 154.957 5.91088 156.476 5.77794C158.249 5.62284 159.477 6.53615 160.161 8.51788C160.525 9.762 161.731 10.4221 163.779 10.4981C184.515 11.2359 200.433 13.7987 211.535 18.1865C222.868 22.2988 230.569 28.6429 234.637 37.2188C235.915 40.1692 236.799 44.4302 237.286 50.0019C237.751 55.3202 237.539 60.1874 236.65 64.6036C235.969 68.491 234.826 72.9293 233.221 77.9184C231.869 82.8853 230.242 87.6212 228.339 92.1259C225.183 99.8026 220.932 108.086 215.585 116.975C210.215 125.611 204.213 134.302 197.578 143.049C190.943 151.795 183.663 160.471 175.739 169.075C168.046 177.404 160.172 185.111 152.115 192.195C143.134 200.382 133.949 207.693 124.559 214.129C115.192 220.818 106.242 226.449 97.7107 231.023C89.1791 235.598 81.181 238.977 73.7163 241.161C66.2738 243.599 59.8601 244.67 54.4753 244.376C48.8372 244.104 44.3878 242.834 41.1272 240.567C34.6503 236.541 30.9417 230.613 30.0016 222.784C29.0836 215.209 31.056 207.125 35.9185 198.533C38.1187 194.513 40.5833 190.597 43.3121 186.786C46.2942 182.952 49.8984 178.936 54.1247 174.739C58.3287 170.288 63.2704 165.517 68.9497 160.427C74.8601 155.061 81.8547 148.963 89.9336 142.131C90.6712 141.811 91.2601 141.249 91.7001 140.445C92.3712 139.366 93.1358 137.895 93.9937 136.034C95.1049 134.15 96.4139 131.612 97.9208 128.417C99.6588 124.948 101.815 120.421 104.388 114.837C111.856 98.1062 118.478 83.3636 124.252 70.6092C130.026 57.8547 135.025 46.4441 139.248 36.3772C141.382 31.5971 143.18 27.3567 144.643 23.656C146.105 19.9553 147.068 17.8296 147.53 17.2788C148.201 16.1993 148.492 15.153 148.404 14.14C148.381 13.8868 147.231 13.8598 144.951 14.0592C142.672 14.2587 139.897 14.629 136.627 15.1703C133.588 15.4362 130.318 15.9775 126.817 16.7942C123.547 17.3355 120.783 17.8325 118.526 18.2851C108.76 20.4155 99.0711 23.4323 89.4601 27.3355C80.0801 30.9633 71.0088 35.202 62.2461 40.0517C53.7146 44.626 45.7449 49.7892 38.3372 55.5411C31.1826 61.271 25.0633 67.1654 19.9792 73.2244C8.65536 86.7196 5.47372 98.4817 10.4342 108.511C11.0515 109.733 11.8287 111.323 12.7657 113.283C13.9338 114.967 15.0909 116.525 16.2368 117.955C18.5287 120.817 19.8567 122.87 20.2208 124.114C20.5626 125.105 20.2603 126.025 19.3138 126.873ZM155.954 17.3074C153.985 21.0523 151.262 26.3944 147.786 33.3335C144.31 40.2727 140.647 47.9937 136.798 56.4967C132.926 64.7464 128.961 73.3871 124.902 82.4188C120.822 91.1972 117.181 99.1715 113.981 106.342C110.78 113.512 108.113 119.487 105.979 124.267C104.076 128.772 103.263 131.14 103.538 131.371C103.56 131.624 104.171 131.316 105.371 130.445C106.802 129.299 108.475 128.004 110.39 126.561C117.336 121.36 124.293 116.285 131.26 111.337C138.228 106.389 144.86 101.981 151.157 98.1129C157.431 93.9913 163.128 90.5582 168.247 87.8136C173.344 84.8157 177.609 82.5286 181.044 80.9521C194.574 75.1749 199.954 76.8733 197.184 86.0474C196.295 90.4636 195.564 92.3139 194.991 91.5984C194.715 91.3673 194.671 90.8608 194.858 90.0789C195.044 89.297 195.22 88.3884 195.385 87.3533C196.11 83.9723 196.312 81.9131 195.993 81.1755C195.673 80.4378 195.26 80.0912 194.753 80.1355C194.478 79.9044 193.212 80.0152 190.954 80.4679C181.904 82.0253 160.328 95.0138 126.227 119.434C121.912 122.618 117.597 125.803 113.282 128.987C109.199 131.897 106.441 133.924 105.01 135.07L100.371 138.921L92.1558 158.779C87.9548 169.099 84.474 177.443 81.7135 183.809C79.184 189.899 77.0281 194.426 75.2458 197.389C73.7168 200.33 72.3413 202.109 71.1193 202.727C69.8973 203.344 68.7355 203.19 67.6339 202.266C66.0036 201.133 65.2486 199.795 65.3689 198.254C65.5114 196.965 66.6716 194.184 68.8497 189.91C70.5877 186.441 72.5235 182.316 74.6572 177.536C77.0442 172.734 79.2001 168.207 81.1249 163.955C83.3029 159.682 85.0298 156.085 86.3056 153.167C87.5593 149.995 88.1861 148.409 88.1861 148.409C87.4707 148.982 86.6397 149.692 85.6931 150.541C84.9777 151.114 84.02 151.835 82.8202 152.706C81.8737 153.554 80.8116 154.54 79.6339 155.664C58.2369 173.613 44.6623 189.092 38.9101 202.1C34.5983 211.153 33.6169 218.895 35.9657 225.325C38.3367 232.007 43.4097 236.029 51.1846 237.391C53.5304 237.951 57.0981 237.894 61.8878 237.22C66.6775 236.546 71.1696 235.387 75.3641 233.744C83.7532 230.458 93.76 225.244 105.384 218.103C117.955 210.113 130.185 201.132 142.072 191.16C154.212 181.166 165.4 170.49 175.635 159.132C185.87 147.773 195.058 136.124 203.2 124.183C211.596 112.22 218.461 100.263 223.795 88.3128C225.28 84.8654 226.616 81.1758 227.803 77.244C229.243 73.2901 230.442 69.485 231.398 65.8286C232.332 61.919 233.046 58.4114 233.539 55.3059C234.011 51.9471 234.147 49.1281 233.948 46.8488C233.46 41.2772 231.349 36.1029 227.614 31.3258C223.074 26.1087 215.826 22.0217 205.87 19.0649C196.167 16.0859 184.147 14.3304 169.81 13.7983C167.762 13.7224 165.967 13.6242 164.425 13.5039C163.137 13.3614 161.986 13.3345 160.973 13.4231C159.453 13.5561 158.336 13.909 157.621 14.482C157.158 15.0328 156.603 15.9746 155.954 17.3074Z" fill="white"/>
<path d="M235.286 145.109C231.173 156.442 231.59 162.658 236.534 163.756C240.444 164.69 246.851 162.088 255.757 155.95C264.915 149.79 275.476 140.699 287.439 128.679C291.203 125.033 293.685 122.774 294.885 121.903C296.316 120.757 297.064 120.564 297.131 121.324C297.153 121.577 296.24 122.806 294.391 125.009C292.52 126.959 290.187 129.46 287.391 132.512C284.827 135.288 282.021 138.213 278.972 141.287C275.924 144.361 273.337 146.884 271.213 148.856C267.196 152.525 263.03 155.952 258.715 159.136C254.4 162.321 250.905 164.668 248.23 166.178C246.293 167.368 244.702 168.146 243.458 168.51C242.214 168.874 240.579 169.144 238.552 169.322C235.789 169.819 233.361 169.776 231.268 169.193C229.154 168.357 227.341 166.602 225.831 163.927C224.343 161.505 223.687 158.373 223.861 154.53C224.035 150.687 224.958 146.65 226.629 142.421C228.301 138.192 230.501 134.171 233.23 130.36C236.19 126.273 239.574 122.659 243.382 119.519C245.529 117.8 247.697 116.334 249.888 115.122C252.332 113.887 254.313 113.204 255.833 113.071C257.099 112.96 258.432 113.609 259.831 115.018C261.484 116.404 262.365 117.731 262.476 118.997C262.587 120.263 261.889 122.493 260.382 125.688C258.853 128.628 257.048 131.338 254.969 133.817C248.498 141.529 243.114 144.169 238.819 141.737L236.786 140.384L235.286 145.109ZM248.62 122.506C247.904 123.079 247.096 124.043 246.193 125.398C245.269 126.499 244.356 127.728 243.453 129.083C242.529 130.184 241.731 131.275 241.06 132.354C240.389 133.434 240.064 134.1 240.087 134.353C240.131 134.86 240.891 134.793 242.366 134.154C244.094 133.492 245.927 132.566 247.865 131.376C250.264 129.635 252.62 127.387 254.931 124.633C257.242 121.879 258.342 119.869 258.231 118.603C258.12 117.336 257.812 116.726 257.305 116.77C256.567 117.09 255.23 117.845 253.292 119.035C251.586 119.95 250.029 121.107 248.62 122.506Z" fill="white"/>
<path d="M309.85 139.734C305.975 142.114 303.564 143.729 302.618 144.577C301.924 145.403 301.738 146.185 302.057 146.923C302.355 147.407 302.559 148.282 302.67 149.549C303.012 150.54 303.365 151.657 303.729 152.901C304.954 158.153 304.615 163.031 302.712 167.536C301.063 172.019 297.932 175.61 293.32 178.31C287.948 181.077 282.591 182.567 277.251 182.779C272.119 182.462 268.314 181.264 265.835 179.184C264.205 178.051 263.312 176.597 263.157 174.825C263.024 173.305 263.282 171.879 263.931 170.546C264.327 169.236 265.471 167.732 267.364 166.035C269.004 164.361 271.382 162.366 274.497 160.052C277.612 157.738 281.822 154.818 287.128 151.291L293.254 146.927L290.822 141.016C287.372 133.662 286.278 126.995 287.541 121.015C288.365 115.839 290.416 111.576 293.696 108.227C296.953 104.624 300.724 102.508 305.007 101.878C307.793 101.635 309.896 102.344 311.318 104.006C312.717 105.415 313.021 107.429 312.229 110.051C311.624 111.89 310.7 112.992 309.456 113.356C308.212 113.72 307.512 113.015 307.357 111.242C307.269 110.229 306.371 110.18 304.665 111.095C303.212 111.988 301.803 113.387 300.439 115.293C297.919 118.576 296.572 122.139 296.397 125.982C296.454 129.549 297.371 134.19 299.147 139.904L300.139 142.497L305.571 138.96C307.002 137.814 310.128 135.626 314.95 132.397C319.771 129.168 324.824 125.664 330.107 121.884C335.644 118.082 339.139 115.735 340.592 114.842C342.298 113.927 343.278 113.459 343.531 113.437C345.051 113.304 343.549 115.094 339.025 118.807C334.71 121.992 329.784 125.485 324.247 129.287C318.964 133.067 314.165 136.549 309.85 139.734ZM297.143 160.75C296.987 158.978 296.661 156.709 296.164 153.946C295.667 151.182 295.166 149.822 294.659 149.867C294.406 149.889 293.564 150.473 292.133 151.619C290.68 152.512 288.996 153.68 287.08 155.123C285.165 156.567 283.25 158.01 281.335 159.454C279.419 160.897 277.746 162.192 276.315 163.338C269.854 168.242 266.723 171.833 266.923 174.112C267.078 175.885 269.33 176.837 273.68 176.966C277.798 177.372 281.586 176.913 285.043 175.589C292.904 172.095 296.937 167.148 297.143 160.75Z" fill="white"/>
<path d="M360.101 89.4024C358.395 90.3173 357.013 90.5658 355.955 90.1479C353.885 89.8187 352.646 88.7787 352.237 87.0281C352.06 85.0021 352.78 83.0251 354.398 81.0972C355.553 79.7201 356.764 78.9762 358.031 78.8654C360.266 78.1595 361.885 79.1662 362.888 81.8856C363.252 83.1297 363.121 84.5447 362.494 86.1307C362.121 87.6946 361.323 88.7852 360.101 89.4024ZM345.698 121.668C342.64 127.55 339.709 133.421 336.904 139.281C334.352 145.118 332.818 149.463 332.302 152.315C331.951 154.132 331.797 155.294 331.842 155.801C331.886 156.307 332.195 156.918 332.768 157.634C335.633 161.211 341.704 159.149 350.983 151.447C354.814 148.559 359.535 144.191 365.148 138.341C370.992 132.215 376.803 125.71 382.58 118.825C384.429 116.621 385.931 114.831 387.086 113.454C388.495 112.055 389.326 111.344 389.579 111.322C390.086 111.278 389.899 112.06 389.019 113.668C388.392 115.254 386.461 117.975 383.226 121.83C380.497 125.642 377.515 129.475 374.279 133.331C371.022 136.934 367.753 140.41 364.474 143.759C361.447 147.086 358.399 150.16 355.328 152.98C352.488 155.526 349.984 157.531 347.816 158.997C343.963 161.63 340.793 163.311 338.304 164.039C335.816 164.768 333.377 164.598 330.987 163.531C325.976 161.673 323.864 156.499 324.652 148.008C324.982 145.938 325.889 143.179 327.373 139.732C328.583 136.053 330.045 132.352 331.761 128.63C333.477 124.907 335.331 121.3 337.322 117.808C339.313 114.316 341.118 111.606 342.735 109.678C344.353 107.751 345.795 106.731 347.061 106.62C348.074 106.532 348.867 106.845 349.44 107.561C350.542 108.485 350.779 109.74 350.152 111.326C349.779 112.89 348.294 116.338 345.698 121.668Z" fill="white"/>
<path d="M423.593 137.055C425.87 130.987 427.546 125.353 428.622 120.155C429.93 114.682 430.506 111.059 430.351 109.286C430.471 107.744 430.394 106.858 430.118 106.627C429.843 106.396 429.314 106.187 428.532 106C427.244 105.858 424.486 107.885 420.26 112.083C416.034 116.28 409.992 123.061 402.135 132.425C394.509 141.514 389.171 147.595 386.123 150.669C383.074 153.743 380.421 155.506 378.164 155.959C376.92 156.323 376.16 156.389 375.885 156.158C375.356 155.949 374.552 155.509 373.473 154.838C372.624 153.891 372.051 153.176 371.754 152.692C371.434 151.954 371.197 150.699 371.041 148.926C370.62 144.114 372.021 138.25 375.244 131.333C378.214 124.438 382.587 117.548 388.364 110.663C390.907 107.633 393.493 105.11 396.124 103.094C398.985 100.802 401.303 99.5782 403.076 99.4231C406.368 99.135 408.896 100.317 410.659 102.97C412.102 104.886 412.715 107.512 412.496 110.848C412.256 113.932 411.513 115.655 410.269 116.019C409.51 116.086 408.981 115.877 408.683 115.392C408.386 114.908 407.884 113.548 407.178 111.313C407.001 109.287 406.532 108.308 405.773 108.374C404.462 107.978 402.618 108.778 400.241 110.772C398.116 112.744 395.794 115.372 393.274 118.654C390.754 121.937 388.268 125.6 385.814 129.643C383.592 133.41 381.738 137.017 380.254 140.464C378.791 144.165 377.989 146.66 377.846 147.948C377.681 148.983 378.221 149.319 379.465 148.955C380.709 148.591 382.636 147.274 385.244 145.004C387.853 142.734 391.595 138.834 396.47 133.304C403.216 125.823 408.922 119.582 413.589 114.58C418.508 109.557 421.925 106.323 423.841 104.879C427.671 101.992 430.573 101.611 432.545 103.735C435.85 106.508 435.508 115.725 431.519 131.386C430.398 136.077 430.091 138.401 430.598 138.357C430.829 138.081 431.429 137.646 432.397 137.051C433.597 136.18 434.775 135.056 435.93 133.679C439.023 131.112 442.727 128.236 447.042 125.051C451.334 121.613 455.396 118.451 459.227 115.564C463.288 112.401 466.761 109.801 469.645 107.762C472.529 105.724 474.109 104.82 474.384 105.051C474.935 105.513 474.864 106.157 474.17 106.984C473.708 107.534 471.919 108.967 468.804 111.281C463.796 115.292 458.304 119.6 452.327 124.206C446.35 128.812 441.111 133.098 436.609 137.065C432.801 140.205 430.308 142.337 429.13 143.461C428.206 144.563 427.43 145.907 426.803 147.493C424.362 154.596 421.459 162.251 418.094 170.456C414.729 178.662 411.1 186.763 407.206 194.759C403.334 203.009 399.418 210.752 395.458 217.989C391.519 225.479 387.746 231.934 384.137 237.353C378.955 245.207 373.452 252.324 367.631 258.702C361.809 265.081 356.707 269.483 352.326 271.908C349.904 273.396 347.301 274.262 344.515 274.505C341.751 275.002 339.461 275.075 337.644 274.724C335.529 273.888 333.865 272.375 332.653 270.184C331.209 268.269 330.366 265.918 330.122 263.132C329.856 260.093 330.757 255.804 332.824 250.264C334.891 244.724 337.834 238.98 341.652 233.032C344.336 228.714 347.621 223.96 351.505 218.772C355.158 213.859 359.296 208.648 363.918 203.14C368.309 197.907 373.08 192.641 378.23 187.342C383.128 182.065 388.047 177.041 392.989 172.27C395.344 170.022 397.804 167.511 400.368 164.734C403.208 162.189 405.805 159.793 408.161 157.545C410.769 155.275 413.02 153.292 414.913 151.595C416.806 149.898 417.984 148.775 418.446 148.224C419.161 147.651 419.832 146.571 420.459 144.985C421.339 143.377 422.384 140.734 423.593 137.055ZM416.698 154.501C416.192 154.546 414.761 155.692 412.406 157.939C410.05 160.187 407.106 162.996 403.573 166.368C400.04 169.739 396.276 173.386 392.281 177.308C388.308 181.484 384.451 185.522 380.709 189.422C378.607 191.647 376.158 194.286 373.363 197.337C370.59 200.642 367.817 203.947 365.043 207.252C362.292 210.81 359.646 214.104 357.104 217.134C354.584 220.416 352.537 223.275 350.964 225.709C343.47 236.318 338.421 245.691 335.816 253.83C333.21 261.969 333.769 266.896 337.492 268.612C340.157 269.91 343.554 269.358 347.682 266.955C353.494 263.384 360.296 256.537 368.087 246.413C375.878 236.289 383.585 223.749 391.208 208.791C393.826 203.713 396.653 198.107 399.689 191.972C402.725 185.837 405.541 180.104 408.137 174.773C410.732 169.442 412.762 164.926 414.224 161.225C415.94 157.502 416.776 155.388 416.732 154.881L416.698 154.501Z" fill="white"/>
<path d="M479.993 104.177C478.971 107.074 477.288 111.177 474.946 116.485C472.603 121.794 470.26 127.103 467.918 132.412C467.478 133.216 467.28 133.871 467.324 134.378C467.115 134.906 466.906 135.435 466.697 135.964C466.488 136.492 466.268 136.895 466.037 137.17C466.797 137.103 468.91 135.005 472.376 130.873C475.172 127.822 478.083 124.632 481.109 121.305C484.367 117.703 487.52 114.365 490.568 111.291C493.848 107.941 496.665 105.143 499.021 102.895C501.607 100.372 503.616 98.5379 505.047 97.392C506.478 96.246 507.964 95.7332 509.506 95.8535C511.025 95.7206 512.093 96.2651 512.711 97.487C513.008 97.9714 513.179 98.4668 513.224 98.9733C513.246 99.2266 513.175 99.8708 513.01 100.906C513.099 101.919 513.116 103.576 513.062 105.878C512.986 107.926 512.734 110.883 512.307 114.748C511.804 120.661 511.8 125 512.297 127.764C512.772 130.274 513.918 131.705 515.735 132.056C517.046 132.452 519.43 131.988 522.886 130.665C526.343 129.342 529.409 127.925 532.084 126.415C534.991 124.63 537.737 122.476 540.323 119.953C543.141 117.154 547.092 112.725 552.176 106.666C554.278 104.441 556.149 102.491 557.788 100.816C559.428 99.1416 560.259 98.4309 560.281 98.6842C560.832 99.1464 560.321 100.595 558.748 103.029C557.405 105.188 554.297 109.033 549.421 114.563C546.648 117.868 544.222 120.76 542.142 123.239C540.04 125.464 538.042 127.425 536.149 129.122C534.487 130.543 532.803 131.711 531.097 132.626C529.644 133.519 527.937 134.434 525.978 135.371C523.512 136.352 520.77 137.102 517.753 137.622C514.967 137.865 512.782 137.674 511.196 137.047C508.277 135.771 506.343 132.623 505.393 127.602C504.709 125.62 504.443 122.581 504.595 118.485C504.978 114.113 505.648 110.099 506.604 106.443C507.164 104.097 507.4 102.418 507.312 101.405C507.267 100.898 506.183 101.631 504.059 103.603C502.166 105.3 499.706 107.812 496.68 111.139C493.884 114.191 490.742 117.655 487.254 121.533C483.996 125.136 480.992 128.716 478.241 132.274C473.641 138.036 470.081 142.558 467.561 145.841C465.019 148.87 463.055 151.211 461.668 152.864C460.006 154.285 458.933 155.145 458.449 155.442C457.733 156.015 456.996 156.335 456.236 156.401C454.716 156.534 453.532 156.127 452.684 155.181C451.538 153.75 450.921 152.528 450.832 151.515C450.721 150.249 451.166 148.041 452.167 144.891C453.145 141.488 454.492 137.925 456.208 134.202C457.461 131.03 458.853 127.974 460.382 125.033C461.911 122.092 463.198 119.3 464.242 116.656C469.292 107.283 472.719 101.241 474.523 98.5313C476.305 95.5682 478.094 94.1358 479.889 94.2339C482.719 94.4967 482.754 97.8112 479.993 104.177Z" fill="white"/>
<path d="M557.203 116.945C553.09 128.278 553.506 134.494 558.451 135.592C562.361 136.526 568.768 133.924 577.673 127.786C586.832 121.625 597.393 112.535 609.356 100.515C613.12 96.8686 615.602 94.6099 616.802 93.7393C618.232 92.5934 618.981 92.4003 619.048 93.16C619.07 93.4133 618.156 94.6416 616.308 96.8449C614.437 98.7949 612.104 101.296 609.308 104.347C606.744 107.124 603.938 110.049 600.889 113.123C597.84 116.196 595.254 118.719 593.13 120.692C589.113 124.361 584.947 127.787 580.632 130.972C576.317 134.157 572.822 136.504 570.147 138.014C568.209 139.204 566.619 139.981 565.375 140.346C564.13 140.71 562.495 140.98 560.469 141.157C557.706 141.654 555.278 141.612 553.185 141.029C551.07 140.193 549.258 138.438 547.748 135.763C546.26 133.341 545.603 130.209 545.778 126.366C545.952 122.523 546.874 118.486 548.546 114.257C550.218 110.028 552.418 106.007 555.147 102.196C558.107 98.1089 561.491 94.4953 565.299 91.355C567.445 89.6361 569.614 88.1704 571.805 86.9579C574.249 85.7234 576.23 85.0396 577.75 84.9066C579.016 84.7959 580.349 85.4448 581.748 86.8536C583.401 88.2402 584.282 89.5666 584.393 90.8329C584.504 92.0992 583.806 94.3294 582.299 97.5235C580.77 100.464 578.965 103.174 576.885 105.653C570.415 113.364 565.031 116.005 560.736 113.573L558.703 112.22L557.203 116.945ZM570.537 94.3419C569.821 94.9149 569.012 95.8788 568.11 97.2337C567.186 98.3354 566.272 99.5636 565.37 100.919C564.446 102.02 563.648 103.111 562.977 104.19C562.306 105.27 561.981 105.936 562.003 106.189C562.048 106.696 562.808 106.629 564.283 105.99C566.011 105.328 567.844 104.402 569.782 103.212C572.181 101.471 574.536 99.2234 576.847 96.4693C579.158 93.7152 580.259 91.705 580.148 90.4387C580.037 89.1724 579.728 88.5614 579.222 88.6058C578.484 88.9255 577.147 89.6805 575.209 90.8708C573.503 91.7856 571.945 92.9427 570.537 94.3419Z" fill="white"/>
<path d="M645.143 106.954C643.956 110.886 642.851 114.3 641.829 117.197C641.059 120.071 640.29 122.946 639.521 125.82C638.752 128.694 637.878 131.833 636.9 135.236C636.175 138.617 635.252 142.653 634.131 147.345C632.241 154.911 631.098 159.349 630.702 160.66C630.56 161.948 630.951 162.042 631.875 160.94C633.031 159.563 633.724 158.737 633.955 158.461C634.208 158.439 634.264 159.072 634.121 160.361C633.726 161.671 632.972 163.268 631.861 165.152C631.003 167.013 630.101 168.368 629.154 169.217C626.226 170.749 624.315 170.788 623.423 169.335C622.761 167.607 622.924 163.637 623.912 157.426C625.153 151.193 627.087 144.133 629.715 136.248C630.506 133.626 632.018 129.028 634.25 122.453C636.482 115.878 638.923 108.774 641.572 101.142C644.222 93.5095 646.779 86.268 649.242 79.4175C651.682 72.3137 653.53 67.1759 654.783 64.0039C655.179 62.6933 655.586 61.5093 656.004 60.452C656.399 59.1414 656.817 58.0841 657.257 57.28C657.675 56.2226 657.978 55.303 658.164 54.5211C657.053 56.4047 656.069 58.2772 655.211 60.1386C654.331 61.7467 653.357 63.7458 652.29 66.1359C651.201 68.2727 649.997 70.5473 648.677 72.9595C646.081 78.2905 643.254 83.8969 640.195 89.7787C637.391 95.6383 634.564 101.245 631.714 106.598C628.843 111.698 626.307 116.258 624.107 120.278C621.907 124.299 620.125 127.262 618.76 129.167C613.578 137.021 608.641 140.388 603.949 139.267C601.857 138.685 600.578 135.734 600.113 130.416C599.891 127.884 600.132 124.8 600.835 121.166C601.515 117.279 602.587 113.484 604.049 109.784C605.512 106.083 607.112 102.498 608.85 99.0285C610.842 95.5367 612.877 92.5515 614.957 90.0728C618.886 85.3908 622.865 82.7459 626.895 82.1382C631.178 81.5082 634.372 83.0151 636.477 86.6589L637.817 88.8384L638.477 87.6323C638.686 87.1037 639.774 84.9668 641.744 81.2219C643.713 77.4769 645.891 73.2032 648.278 68.4009C650.665 63.5986 653.387 58.2565 656.445 52.3747C659.503 46.4929 661.89 41.6906 663.606 37.9678C665.575 34.2228 667.533 30.3512 669.48 26.353C671.658 22.0793 673.281 18.7475 674.348 16.3574C677.153 10.4978 679.226 6.48844 680.568 4.32946C682.164 2.14832 683.584 0.875735 684.828 0.511697C685.081 0.48954 685.345 0.59401 685.621 0.825107C685.874 0.80295 686.254 0.769714 686.76 0.7254C688.093 1.37438 688.573 2.48079 688.199 4.04463C688.079 5.58632 686.814 8.6317 684.405 13.1808C678.058 25.2198 671.392 39.4558 664.409 55.8887C657.403 72.0685 650.981 89.0903 645.143 106.954ZM634.796 93.6962L632.037 92.7892C630.727 92.3934 629.818 92.2177 629.312 92.262C628.783 92.0531 627.919 92.3839 626.719 93.2544C625.266 94.1472 623.269 96.1083 620.726 99.1378C618.438 102.145 616.413 105.257 614.653 108.473C611.551 113.849 609.219 119.284 607.658 124.78C605.822 130.044 605.593 133.254 606.97 134.41C607.774 134.85 609.804 133.268 613.062 129.666C614.68 127.738 617.282 123.938 620.869 118.265C624.455 112.592 627.789 106.941 630.869 101.313L634.796 93.6962Z" fill="white"/>
<path d="M97.3 307.972H76.6V307.472C77.3 307.372 78.3 307.072 79 306.872C80.6 306.372 81.7 305.472 82.3 303.772C83.4 300.572 83.6 294.372 83.6 288.072V262.372C83.6 255.872 83.5 249.472 82.3 246.372C81.6 244.572 80.5 243.872 79.1 243.372C78.4 243.072 77.3 242.872 76.6 242.772V242.272H97.3V242.772C96.4 242.972 95.6 243.072 94.6 243.472C93.4 243.972 92.2 244.772 91.6 246.372C90.5 249.572 90.4 255.872 90.4 262.372V288.072C90.4 294.372 90.5 301.272 91.6 303.972C92.2 305.472 93.3 306.372 94.5 306.772C95.7 307.172 96.5 307.372 97.3 307.472V307.972Z" fill="white"/>
<path d="M159.879 242.672C158.879 242.772 158.179 242.872 157.379 243.172C156.079 243.572 154.979 244.472 154.179 246.272C153.379 248.072 152.879 250.372 152.879 255.172V308.972H151.579L112.779 251.472H112.479V295.072C112.479 299.872 112.979 302.172 113.679 303.972C114.379 305.672 115.779 306.572 117.079 307.072C117.879 307.372 118.579 307.472 119.579 307.572V307.972H103.779V307.572C104.779 307.472 105.579 307.372 106.379 307.072C107.679 306.572 109.079 305.472 109.679 303.972C110.379 302.172 111.079 299.872 111.079 295.072V258.772C111.079 252.472 110.179 249.372 109.279 247.572C108.379 245.772 106.679 244.272 105.079 243.572C103.979 243.072 103.379 242.972 102.479 242.772V242.272H115.079L151.279 296.372H151.479V255.172C151.479 250.372 150.979 248.072 150.179 246.272C149.479 244.772 148.279 243.872 146.879 243.272C146.179 242.972 145.179 242.772 144.379 242.672V242.272H159.879V242.672Z" fill="white"/>
<path d="M220.134 296.272L215.834 282.172H196.734L191.734 297.172C190.734 300.272 190.434 301.972 190.434 303.172C190.434 305.272 191.634 306.172 193.034 306.772C193.834 307.172 195.134 307.372 196.034 307.472V307.972H182.134V307.472C183.334 307.272 183.934 307.272 185.234 306.572C186.134 306.072 186.834 305.372 187.634 303.872C188.234 302.672 188.834 301.072 190.234 296.972L208.734 241.772H210.234L225.134 290.372C227.534 298.172 229.034 301.772 229.734 303.272C230.834 305.872 231.934 306.472 233.134 306.872C234.134 307.172 235.034 307.372 235.834 307.472V307.972H216.434V307.472C217.134 307.372 218.134 307.172 219.134 306.772C220.734 306.172 221.634 305.272 221.634 303.072C221.634 300.472 220.834 298.772 220.134 296.272ZM206.534 252.872L197.134 280.872H215.434L206.834 252.872H206.534Z" fill="white"/>
<path d="M292.661 242.672C291.761 242.772 291.061 242.872 290.261 243.172C288.761 243.672 287.361 244.572 286.661 246.272C285.961 248.072 285.461 250.372 285.461 255.272V285.972C285.461 291.572 284.561 296.472 282.461 300.372C279.761 305.472 272.861 309.372 264.761 309.372C254.361 309.372 246.661 305.672 244.061 297.872C242.461 293.072 242.661 287.672 242.661 283.872V262.072C242.661 253.872 242.761 249.172 241.461 246.172C240.861 244.772 239.661 243.872 238.361 243.372C237.661 243.072 236.661 242.872 235.761 242.772V242.272H256.361V242.772C255.461 242.872 254.361 243.072 253.561 243.372C252.161 243.872 251.161 244.472 250.461 246.172C249.361 248.872 249.461 254.972 249.461 262.072V286.972C249.461 289.672 249.361 294.172 250.361 297.572C252.161 303.772 256.561 307.572 264.761 307.572C272.661 307.572 278.361 304.772 281.061 300.072C282.861 296.972 284.061 292.872 284.061 286.372V255.272C284.061 250.372 283.461 247.972 282.661 246.272C282.061 244.972 281.261 243.972 279.561 243.372C278.661 243.072 276.961 242.772 275.961 242.672V242.272H292.661V242.672Z" fill="white"/>
<path d="M337.208 290.472C337.208 302.572 327.208 309.372 316.908 309.372C310.008 309.372 305.208 306.372 301.908 303.072H301.508L299.408 307.072H299.008L298.108 286.972H298.708C301.208 297.972 306.208 307.972 316.808 307.972C327.108 307.972 331.308 301.572 331.308 294.772C331.308 283.872 325.908 281.672 315.308 276.372C306.308 271.872 298.708 267.572 298.708 256.772C298.708 248.572 305.208 240.972 316.808 240.972C322.308 240.972 327.408 243.072 329.908 246.072L331.408 242.472H332.208L333.708 258.472H333.108C331.908 253.472 328.908 247.872 325.208 245.272C323.308 243.872 320.908 242.372 316.508 242.372C310.808 242.372 304.508 245.272 304.508 253.372C304.508 263.272 312.008 265.972 320.108 270.172C331.708 276.172 337.208 279.172 337.208 290.472Z" fill="white"/>
<path d="M396.86 257.772H396.36C395.46 255.772 392.66 249.672 387.66 246.572C384.46 244.572 381.66 243.572 377.26 243.572H371.16V288.072C371.16 294.372 371.36 301.272 372.46 303.972C373.16 305.672 374.26 306.472 375.86 306.972C376.56 307.172 377.16 307.272 378.26 307.472V307.972H357.16V307.472C358.06 307.272 358.76 307.172 359.56 306.872C360.96 306.372 362.26 305.472 362.86 303.972C364.16 300.772 364.36 294.372 364.36 288.072V243.572H358.16C353.86 243.572 350.66 244.672 347.46 246.872C342.96 249.972 340.16 255.572 339.16 257.772H338.66L342.26 242.272H393.26L396.86 257.772Z" fill="white"/>
<path d="M454.038 307.972H441.337C438.937 305.472 437.137 302.072 436.137 294.572C435.337 288.472 434.637 281.372 431.737 277.872C429.437 275.172 425.937 274.872 420.037 274.872H413.837V288.172C413.837 294.472 414.037 300.972 415.037 304.172C415.637 305.572 416.837 306.672 418.438 307.172C419.338 307.472 420.738 307.572 421.438 307.572V307.972H400.037V307.572C400.637 307.572 401.737 307.472 402.537 307.172C404.037 306.572 405.237 305.572 405.737 304.172C406.737 301.072 407.037 294.472 407.037 288.172V261.972C407.037 255.572 406.837 249.272 405.737 246.072C405.137 244.672 403.938 243.672 402.438 243.072C401.838 242.872 400.737 242.672 400.037 242.672V242.272H425.037C435.537 242.272 445.737 247.072 445.737 258.272C445.737 267.272 438.937 273.172 429.537 274.172V274.472C432.437 274.872 434.737 275.472 437.137 277.172C440.237 279.372 441.538 283.672 442.938 290.772C444.738 299.772 446.737 303.672 448.938 305.272C450.738 306.572 452.438 307.172 454.038 307.472V307.972ZM423.537 243.572H420.237C417.937 243.572 415.837 243.872 414.837 245.572C413.837 247.072 413.837 249.572 413.837 253.472V273.572H421.337C430.437 273.572 432.737 272.172 435.237 269.272C437.237 266.972 438.137 263.972 438.137 258.472C438.137 249.472 434.337 243.572 423.537 243.572Z" fill="white"/>
<path d="M493.376 296.272L489.076 282.172H469.976L464.976 297.172C463.976 300.272 463.676 301.972 463.676 303.172C463.676 305.272 464.876 306.172 466.276 306.772C467.076 307.172 468.376 307.372 469.276 307.472V307.972H455.376V307.472C456.576 307.272 457.176 307.272 458.476 306.572C459.376 306.072 460.076 305.372 460.876 303.872C461.476 302.672 462.076 301.072 463.476 296.972L481.976 241.772H483.476L498.376 290.372C500.776 298.172 502.276 301.772 502.976 303.272C504.076 305.872 505.176 306.472 506.376 306.872C507.376 307.172 508.276 307.372 509.076 307.472V307.972H489.676V307.472C490.376 307.372 491.376 307.172 492.376 306.772C493.976 306.172 494.876 305.272 494.876 303.072C494.876 300.472 494.076 298.772 493.376 296.272ZM479.776 252.872L470.376 280.872H488.676L480.076 252.872H479.776Z" fill="white"/>
<path d="M560.93 290.672L558.73 307.972H512.83V307.372C513.63 307.272 514.43 307.172 515.13 306.972C516.73 306.472 518.13 305.372 518.63 303.672C519.43 300.872 519.73 295.772 519.73 290.472V259.872C519.73 254.472 519.43 249.372 518.53 246.472C517.93 244.672 517.03 243.872 515.33 243.272C514.43 242.972 513.43 242.872 512.83 242.772V242.272H533.63V242.772C533.03 242.872 532.03 242.972 530.93 243.372C529.83 243.772 528.53 244.672 527.93 246.472C526.93 249.372 526.73 254.472 526.73 259.872V294.972C526.73 298.772 527.03 301.072 527.43 302.472C527.83 303.872 528.73 304.872 529.43 305.372C530.83 306.372 532.93 306.672 534.63 306.672H542.93C549.03 306.672 551.73 304.572 553.83 302.472C557.23 298.972 559.33 294.272 560.33 290.672H560.93Z" fill="white"/>
<path d="M586.167 307.972H565.467V307.472C566.167 307.372 567.167 307.072 567.867 306.872C569.467 306.372 570.567 305.472 571.167 303.772C572.267 300.572 572.467 294.372 572.467 288.072V262.372C572.467 255.872 572.367 249.472 571.167 246.372C570.467 244.572 569.367 243.872 567.967 243.372C567.267 243.072 566.167 242.872 565.467 242.772V242.272H586.167V242.772C585.267 242.972 584.467 243.072 583.467 243.472C582.267 243.972 581.067 244.772 580.467 246.372C579.367 249.572 579.267 255.872 579.267 262.372V288.072C579.267 294.372 579.367 301.272 580.467 303.972C581.067 305.472 582.167 306.372 583.367 306.772C584.567 307.172 585.367 307.372 586.167 307.472V307.972Z" fill="white"/>
<path d="M627.946 296.272L623.646 282.172H604.546L599.546 297.172C598.546 300.272 598.246 301.972 598.246 303.172C598.246 305.272 599.446 306.172 600.846 306.772C601.646 307.172 602.946 307.372 603.846 307.472V307.972H589.946V307.472C591.146 307.272 591.746 307.272 593.046 306.572C593.946 306.072 594.646 305.372 595.446 303.872C596.046 302.672 596.646 301.072 598.046 296.972L616.546 241.772H618.046L632.946 290.372C635.346 298.172 636.846 301.772 637.546 303.272C638.646 305.872 639.746 306.472 640.946 306.872C641.946 307.172 642.846 307.372 643.646 307.472V307.972H624.246V307.472C624.946 307.372 625.946 307.172 626.946 306.772C628.546 306.172 629.446 305.272 629.446 303.072C629.446 300.472 628.646 298.772 627.946 296.272ZM614.346 252.872L604.946 280.872H623.246L614.646 252.872H614.346Z" fill="white"/>
</svg>
