<svg width="592" height="331" viewBox="0 0 592 331" fill="none" xmlns="http://www.w3.org/2000/svg">
<g filter="url(#filter0_d_2192_11503)">
<path d="M65.829 49.5C65.829 61.6 55.829 68.4 45.529 68.4C38.629 68.4 33.829 65.4 30.529 62.1H30.129L28.029 66.1H27.629L26.729 46H27.329C29.829 57 34.829 67 45.429 67C55.729 67 59.929 60.6 59.929 53.8C59.929 42.9 54.529 40.7 43.929 35.4C34.929 30.9 27.329 26.6 27.329 15.8C27.329 7.6 33.829 0 45.429 0C50.929 0 56.029 2.1 58.529 5.1L60.029 1.5H60.829L62.329 17.5H61.729C60.529 12.5 57.529 6.9 53.829 4.3C51.929 2.9 49.529 1.4 45.129 1.4C39.429 1.4 33.129 4.3 33.129 12.4C33.129 22.3 40.629 25 48.729 29.2C60.329 35.2 65.829 38.2 65.829 49.5Z" fill="white"/>
<path d="M128.02 1.7C127.12 1.8 126.42 1.9 125.62 2.2C124.12 2.7 122.72 3.6 122.02 5.3C121.32 7.1 120.82 9.4 120.82 14.3V45C120.82 50.6 119.92 55.5 117.82 59.4C115.12 64.5 108.22 68.4 100.12 68.4C89.7204 68.4 82.0204 64.7 79.4204 56.9C77.8204 52.1 78.0204 46.7 78.0204 42.9V21.1C78.0204 12.9 78.1204 8.2 76.8204 5.2C76.2204 3.8 75.0204 2.9 73.7204 2.4C73.0204 2.1 72.0204 1.9 71.1204 1.8V1.3H91.7204V1.8C90.8204 1.9 89.7204 2.1 88.9204 2.4C87.5204 2.9 86.5204 3.5 85.8204 5.2C84.7204 7.9 84.8204 14 84.8204 21.1V46C84.8204 48.7 84.7204 53.2 85.7204 56.6C87.5204 62.8 91.9204 66.6 100.12 66.6C108.02 66.6 113.72 63.8 116.42 59.1C118.22 56 119.42 51.9 119.42 45.4V14.3C119.42 9.4 118.82 7 118.02 5.3C117.42 4 116.62 3 114.92 2.4C114.02 2.1 112.32 1.8 111.32 1.7V1.3H128.02V1.7Z" fill="white"/>
<path d="M172.567 49.5C172.567 61.6 162.567 68.4 152.267 68.4C145.367 68.4 140.567 65.4 137.267 62.1H136.867L134.767 66.1H134.367L133.467 46H134.067C136.567 57 141.567 67 152.167 67C162.467 67 166.667 60.6 166.667 53.8C166.667 42.9 161.267 40.7 150.667 35.4C141.667 30.9 134.067 26.6 134.067 15.8C134.067 7.6 140.567 0 152.167 0C157.667 0 162.767 2.1 165.267 5.1L166.767 1.5H167.567L169.067 17.5H168.467C167.267 12.5 164.267 6.9 160.567 4.3C158.667 2.9 156.267 1.4 151.867 1.4C146.167 1.4 139.867 4.3 139.867 12.4C139.867 22.3 147.367 25 155.467 29.2C167.067 35.2 172.567 38.2 172.567 49.5Z" fill="white"/>
<path d="M232.22 16.8H231.72C230.82 14.8 228.02 8.7 223.02 5.6C219.82 3.6 217.02 2.6 212.62 2.6H206.52V47.1C206.52 53.4 206.72 60.3 207.82 63C208.52 64.7 209.62 65.5 211.22 66C211.92 66.2 212.52 66.3 213.62 66.5V67H192.52V66.5C193.42 66.3 194.12 66.2 194.92 65.9C196.32 65.4 197.62 64.5 198.22 63C199.52 59.8 199.72 53.4 199.72 47.1V2.6H193.52C189.22 2.6 186.02 3.7 182.82 5.9C178.32 9 175.52 14.6 174.52 16.8H174.02L177.62 1.3H228.62L232.22 16.8Z" fill="white"/>
<path d="M263.989 55.3L259.689 41.2H240.589L235.589 56.2C234.589 59.3 234.289 61 234.289 62.2C234.289 64.3 235.489 65.2 236.889 65.8C237.689 66.2 238.989 66.4 239.889 66.5V67H225.989V66.5C227.189 66.3 227.789 66.3 229.089 65.6C229.989 65.1 230.689 64.4 231.489 62.9C232.089 61.7 232.689 60.1 234.089 56L252.589 0.799996H254.089L268.989 49.4C271.389 57.2 272.889 60.8 273.589 62.3C274.689 64.9 275.789 65.5 276.989 65.9C277.989 66.2 278.889 66.4 279.689 66.5V67H260.289V66.5C260.989 66.4 261.989 66.2 262.989 65.8C264.589 65.2 265.489 64.3 265.489 62.1C265.489 59.5 264.689 57.8 263.989 55.3ZM250.389 11.9L240.989 39.9H259.289L250.689 11.9H250.389Z" fill="white"/>
<path d="M304.144 67H283.444V66.5C284.144 66.4 285.144 66.1 285.844 65.9C287.444 65.4 288.544 64.5 289.144 62.8C290.244 59.6 290.444 53.4 290.444 47.1V21.4C290.444 14.9 290.344 8.5 289.144 5.4C288.444 3.6 287.344 2.9 285.944 2.4C285.244 2.1 284.144 1.9 283.444 1.8V1.3H304.144V1.8C303.244 2 302.444 2.1 301.444 2.5C300.244 3 299.044 3.8 298.444 5.4C297.344 8.6 297.244 14.9 297.244 21.4V47.1C297.244 53.4 297.344 60.3 298.444 63C299.044 64.5 300.144 65.4 301.344 65.8C302.544 66.2 303.344 66.4 304.144 66.5V67Z" fill="white"/>
<path d="M366.723 1.7C365.723 1.8 365.023 1.9 364.223 2.2C362.923 2.6 361.823 3.5 361.023 5.3C360.223 7.1 359.723 9.4 359.723 14.2V68H358.423L319.623 10.5H319.323V54.1C319.323 58.9 319.823 61.2 320.523 63C321.223 64.7 322.623 65.6 323.923 66.1C324.723 66.4 325.423 66.5 326.423 66.6V67H310.623V66.6C311.623 66.5 312.423 66.4 313.223 66.1C314.523 65.6 315.923 64.5 316.523 63C317.223 61.2 317.923 58.9 317.923 54.1V17.8C317.923 11.5 317.023 8.4 316.123 6.6C315.223 4.8 313.523 3.3 311.923 2.6C310.823 2.1 310.223 2 309.323 1.8V1.3H321.923L358.123 55.4H358.323V14.2C358.323 9.4 357.823 7.1 357.023 5.3C356.323 3.8 355.123 2.9 353.723 2.3C353.023 2 352.023 1.8 351.223 1.7V1.3H366.723V1.7Z" fill="white"/>
<path d="M405.981 55.3L401.681 41.2H382.581L377.581 56.2C376.581 59.3 376.281 61 376.281 62.2C376.281 64.3 377.481 65.2 378.881 65.8C379.681 66.2 380.981 66.4 381.881 66.5V67H367.981V66.5C369.181 66.3 369.781 66.3 371.081 65.6C371.981 65.1 372.681 64.4 373.481 62.9C374.081 61.7 374.681 60.1 376.081 56L394.581 0.799996H396.081L410.981 49.4C413.381 57.2 414.881 60.8 415.581 62.3C416.681 64.9 417.781 65.5 418.981 65.9C419.981 66.2 420.881 66.4 421.681 66.5V67H402.281V66.5C402.981 66.4 403.981 66.2 404.981 65.8C406.581 65.2 407.481 64.3 407.481 62.1C407.481 59.5 406.681 57.8 405.981 55.3ZM392.381 11.9L382.981 39.9H401.281L392.681 11.9H392.381Z" fill="white"/>
<path d="M474.036 48.1C474.036 59.2 465.836 67 453.036 67H425.436V66.5C426.136 66.4 427.236 66.2 427.836 66C429.336 65.5 430.636 64.4 431.136 63.1C432.336 59.8 432.436 53.4 432.436 47V21.3C432.436 14.9 432.336 8.6 431.136 5.4C430.636 3.8 429.336 2.8 427.836 2.3C427.136 2.1 426.136 1.9 425.436 1.8V1.3H449.036C461.036 1.3 470.336 4.6 470.336 16.1C470.336 22.4 466.436 26.2 463.036 28.2C460.536 29.7 457.736 30.7 455.036 31.4V31.7C465.636 32.5 474.036 38.3 474.036 48.1ZM466.536 48.5C466.536 42.9 465.336 38.8 462.136 36.1C459.436 33.9 456.636 32.5 450.436 32.5H439.136L439.236 54.1C439.236 58.1 439.236 61.1 439.936 62.6C440.836 64.6 442.736 65.7 445.836 65.7H451.436C456.336 65.7 460.136 64.4 462.636 61.6C465.536 58.3 466.536 54.2 466.536 48.5ZM463.036 16.1C463.036 7.3 458.536 2.6 447.936 2.6H444.836C442.336 2.6 440.236 3.1 439.536 5.9C439.236 7.2 439.236 8.5 439.236 11.4L439.136 31.2H450.436C454.836 31.2 458.236 28.8 460.136 26.4C462.336 23.5 463.036 19.4 463.036 16.1Z" fill="white"/>
<path d="M527.735 49.7L525.535 67H479.635V66.4C480.435 66.3 481.235 66.2 481.935 66C483.535 65.5 484.935 64.4 485.435 62.7C486.235 59.9 486.535 54.8 486.535 49.5V18.9C486.535 13.5 486.235 8.4 485.335 5.5C484.735 3.7 483.835 2.9 482.135 2.3C481.235 2 480.235 1.9 479.635 1.8V1.3H500.435V1.8C499.835 1.9 498.835 2 497.735 2.4C496.635 2.8 495.335 3.7 494.735 5.5C493.735 8.4 493.535 13.5 493.535 18.9V54C493.535 57.8 493.835 60.1 494.235 61.5C494.635 62.9 495.535 63.9 496.235 64.4C497.635 65.4 499.735 65.7 501.435 65.7H509.735C515.835 65.7 518.535 63.6 520.635 61.5C524.035 58 526.135 53.3 527.135 49.7H527.735Z" fill="white"/>
<path d="M581.176 1.8C575.876 2.6 574.076 4.9 570.176 12L556.076 37.5V47.1C556.076 53.4 556.276 60 557.376 63.1C557.976 64.8 559.076 65.5 560.276 65.9C561.176 66.2 562.276 66.4 563.076 66.5V67H542.376V66.5C543.276 66.4 544.376 66.2 545.276 65.8C546.376 65.3 547.376 64.5 547.976 63.1C548.976 60.7 549.276 55.4 549.276 50.1V39.5L532.476 9.8C529.676 4.9 527.576 2.4 523.576 1.8V1.3H544.176V1.8C543.476 1.9 542.176 2 541.076 2.4C537.876 3.6 538.776 7 540.376 9.9L554.876 36H555.376L568.176 12.6C569.776 9.7 570.576 7.5 570.576 5.6C570.576 3.9 569.776 3 568.776 2.5C567.776 2 566.176 1.8 565.376 1.8V1.3H581.176V1.8Z" fill="white"/>
</g>
<path d="M75.5417 326.002C80.7625 325.605 85.9314 324.694 90.9733 323.282C96.4693 321.81 101.852 319.943 107.079 317.695C129.835 307.136 151.956 289.227 173.44 263.967C174.53 262.726 176.499 260.153 179.349 256.248C182.199 252.343 185.516 247.764 189.301 242.51C193.091 237.263 197.026 231.725 201.106 225.895C205.186 220.066 208.964 214.751 212.44 209.952C215.916 205.153 218.741 201.12 220.917 197.85C223.093 194.581 224.158 192.823 224.112 192.575C224.022 192.069 223.62 192.01 222.903 192.395C221.548 193.446 220.377 194.715 219.438 196.149C217.847 198.264 215.68 201.199 212.936 204.956C210.192 208.712 206.728 213.577 202.543 219.552C197.52 226.722 193.102 232.87 189.29 237.995C185.478 243.12 182.137 247.573 179.269 251.353C176.4 255.132 173.665 258.561 171.063 261.639C168.462 264.718 165.839 267.668 163.193 270.49C154.281 280.201 144.458 289.034 133.858 296.869C124.754 303.733 114.907 309.553 104.503 314.219C103.023 314.737 100.908 315.371 98.1589 316.122C95.4097 316.873 92.5221 317.578 89.496 318.238C86.4697 318.903 83.5484 319.419 80.732 319.783C78.5525 320.091 76.3579 320.281 74.1579 320.351C53.7591 320.539 38.7366 310.352 29.0905 289.792C27.1886 286.456 25.6696 281.55 24.5333 275.076C23.4765 269.785 23.0528 264.386 23.2712 258.995C23.737 250.279 25.0415 241.629 27.1669 233.163C29.3568 223.731 32.4013 214.517 36.2626 205.636C41.4432 193.367 47.5647 181.516 54.5722 170.19C61.6892 158.596 69.5774 147.494 78.1835 136.958C86.2798 126.993 95.1478 117.68 104.706 109.107C112.922 101.621 122.002 95.1409 131.753 89.8045C142.512 83.9805 151.561 81.0769 158.898 81.0937C166.235 81.1105 171.456 83.9884 174.561 89.7273C175.866 92.2228 176.679 94.9455 176.957 97.7476C177.419 101.023 177.674 104.324 177.72 107.631C177.164 112.951 176.257 118.23 175.004 123.431C173.635 129.245 171.959 134.983 169.983 140.62C167.976 146.344 165.748 151.909 163.299 157.316C161.09 162.272 158.519 167.058 155.607 171.637C154.943 172.739 154.128 173.742 153.185 174.618C152.827 174.816 152.575 174.529 152.447 173.767C151.193 171.108 149.205 171.72 146.485 175.603C142.382 182.091 141.825 186.381 144.814 188.472C148.357 190.733 152.93 187.7 158.533 179.375C163.345 172.506 167.715 163.486 171.642 152.315C175.521 141.329 178.46 130.034 180.426 118.551C183.898 95.1546 178.493 81.5706 164.211 77.7994C160.38 76.9954 156.435 76.8918 152.568 77.4937C147.589 78.1368 142.734 79.5216 138.166 81.6019C127.137 85.9033 115.951 92.654 104.608 101.854C92.8029 111.508 81.8658 122.178 71.9219 133.74C61.3169 146.013 51.8069 159.191 43.5008 173.123C35.349 186.581 28.6472 200.865 23.508 215.736C11.0353 251.983 12.5138 281.188 27.9436 303.352C32.3074 309.396 37.6189 314.696 43.673 319.046C52.5466 324.812 63.1688 327.13 75.5417 326.002ZM214.44 230.224C216.502 226.324 219.178 221.073 222.468 214.469C224.962 209.316 227.619 204.329 230.44 199.511C233.261 194.692 235.821 190.639 238.12 187.354C239.723 185.278 241.48 183.328 243.377 181.518C244.95 180.063 245.91 179.566 246.258 180.028C246.509 179.984 246.777 180.397 247.068 181.262C247.36 182.127 247.731 183.177 248.211 184.401C248.866 186.607 249.897 188.685 251.256 190.543C253.362 193.579 256.447 194.738 260.511 194.02C262.798 193.619 266.175 191.977 270.643 189.092C274.815 186.458 278.616 183.277 281.943 179.634C284.377 177.112 284.919 176.1 283.568 176.597C282.217 177.095 279.202 178.935 274.523 182.119C269.171 185.947 265.226 188.082 262.688 188.525C260.237 189.486 258.616 189.575 257.825 188.794C256.266 186.887 254.914 184.821 253.792 182.629C253.296 181.374 252.688 180.166 251.977 179.02C251.466 178.104 250.79 177.29 249.983 176.622C247.589 174.95 244.818 175.569 241.668 178.479C239.08 181.321 236.655 184.306 234.403 187.42C231.418 191.343 228.664 195.435 226.152 199.676L223.147 204.921L225.57 198.6C227.346 193.837 228.658 190.135 229.507 187.496C230.355 184.856 230.931 182.922 231.233 181.692C231.538 180.461 231.468 179.687 231.022 179.372C230.452 179.015 229.808 178.793 229.139 178.721C227.314 178.784 224.993 181.223 222.178 186.036C219.362 190.85 215.604 198.521 210.905 209.048C208.501 214.097 206.466 219.313 204.815 224.656C203.419 229.358 202.854 232.47 203.121 233.991C203.244 234.578 203.476 235.136 203.805 235.637C204.173 236.23 204.53 236.755 204.868 237.217C206.456 238.773 208.28 238.714 210.337 237.04C211.011 236.399 212.378 234.128 214.441 230.227M303.591 175.429C302.426 173.276 300.193 172.491 296.89 173.073C293.588 173.655 290.106 175.448 286.444 178.45C282.83 181.31 279.513 184.526 276.544 188.051C273.503 191.592 270.891 195.481 268.763 199.637C266.783 203.51 265.262 207.602 264.233 211.829C263.285 215.321 263.058 218.97 263.564 222.553C264.325 226.875 266.11 229.573 268.919 230.646C269.713 231.039 270.59 231.234 271.476 231.214C272.361 231.195 273.229 230.962 274.005 230.535C277.01 229.748 280.044 227.643 283.107 224.22C286.171 220.797 289.998 215.016 294.588 206.875C295.172 205.729 295.767 204.643 296.372 203.615C296.977 202.594 297.485 201.785 297.907 201.183L299.476 198.938L299.676 200.081C299.778 200.403 299.77 200.751 299.653 201.068C299.536 201.385 299.528 201.732 299.631 202.054C299.606 205.102 300.009 208.138 300.827 211.075C301.727 214.716 302.694 217.23 303.728 218.617C307.805 223.928 313.55 223.832 320.965 218.331C324.668 215.585 329.257 210.782 334.731 203.923C340.669 196.401 346.171 188.545 351.211 180.394C355.978 173.268 357.473 169.862 355.697 170.175C355.44 170.219 354.308 171.597 352.301 174.309C350.293 177.021 347.8 180.341 344.823 184.27C339.596 191.93 333.94 199.288 327.88 206.308C323.284 211.44 319.319 214.954 315.986 216.851C315.132 217.411 314.232 217.898 313.296 218.307C312.935 218.423 312.555 218.465 312.177 218.431C311.8 218.396 311.434 218.285 311.101 218.104C309.231 217.912 307.969 216.694 307.314 214.45C306.244 211.229 305.844 207.823 306.139 204.442C306.617 198.843 307.544 193.291 308.912 187.841C310.181 183.166 310.619 180.077 310.225 178.573C309.83 177.07 308.617 176.498 306.583 176.858C306 176.911 305.413 176.806 304.884 176.553C304.356 176.301 303.905 175.911 303.58 175.423M286.413 210.664C284.124 214.252 281.493 217.61 278.558 220.692C276.08 222.963 274.459 224.165 273.693 224.298C270.901 224.791 270.655 221.167 272.957 213.428C275.078 207.047 278.038 200.977 281.759 195.376C285.772 189.169 289.99 184.497 294.415 181.36C296.728 179.646 298.417 178.824 299.481 178.896C300.244 178.762 300.864 179.308 301.341 180.533C301.81 181.962 301.734 183.514 301.127 184.891C299.535 188.464 297.719 191.934 295.69 195.278C292.861 200.56 289.766 205.695 286.417 210.664M324.848 277.163C324.998 286.172 326.647 291.448 329.796 292.989C332.945 294.531 336.091 293.06 339.233 288.577C340.973 285.405 342.493 282.118 343.785 278.739C345.465 274.68 346.833 270.499 347.876 266.232C354.113 243.653 352.997 228.395 344.527 220.459L341.703 217.813L344.239 209.902C344.917 207.748 345.726 205.637 346.661 203.582C347.194 202.5 347.971 201.557 348.929 200.825C349.647 200.441 352.027 198.712 356.07 195.639C360.112 192.567 364.693 189.206 369.811 185.557C374.926 181.906 379.877 178.415 384.663 175.084C389.449 171.754 392.789 169.528 394.684 168.407C399.822 164.888 400.994 163.372 398.201 163.86C397.688 163.949 394.105 166.282 387.451 170.859C380.798 175.436 372.455 181.23 362.422 188.24C356.562 192.158 352.811 194.652 351.169 195.723C349.522 196.799 348.659 197.086 348.568 196.575C348.477 196.064 349.221 193.58 350.789 189.112C352.358 184.643 354.379 179.381 356.846 173.312C359.313 167.242 361.914 160.826 364.652 154.063C367.389 147.301 369.877 141.356 372.121 136.249C374.735 130.289 377.478 124.306 380.35 118.299C383.222 112.292 386.033 106.689 388.784 101.49C391.532 96.292 394.013 91.7952 396.228 88.0001C397.776 85.2005 399.539 82.5247 401.499 79.9966C403.844 76.9677 403.822 74.6145 401.434 72.937C401.135 72.7323 400.921 72.6346 400.795 72.6566C400.669 72.6786 400.452 72.5863 400.157 72.3751C399.514 72.6485 398.917 73.0188 398.386 73.4732C397.481 74.2642 396.647 75.1333 395.894 76.0705C394.696 77.4611 393.365 79.2014 391.903 81.2915C390.44 83.3817 388.998 85.6002 387.576 87.947C386.154 90.2965 384.838 92.4926 383.629 94.5352C380.459 100.337 377.054 107.027 373.415 114.604C369.775 122.181 366.078 130.56 362.324 139.739C358.569 148.914 354.83 158.543 351.109 168.626C347.387 178.71 343.835 189.027 340.454 199.577C340.055 200.712 339.52 201.795 338.862 202.803C337.957 203.838 336.82 204.644 335.544 205.155C334.351 206.023 333.115 206.831 331.841 207.575C330.425 208.416 329.083 209.375 327.83 210.443C325.05 212.505 323.727 213.917 323.861 214.679C323.995 215.441 325.7 216.188 328.975 216.921C330.796 217.245 332.587 217.718 334.331 218.336C334.408 219.197 334.362 220.064 334.197 220.913C333.982 222.256 333.621 223.571 333.119 224.835C332.836 226.193 332.38 228.434 331.751 231.558C331.121 234.682 330.395 237.625 329.574 240.388C326.284 255.897 324.712 268.157 324.858 277.167M329.886 212.047C330.478 211.685 331.364 211.136 332.542 210.4C334.118 209.921 335.582 209.128 336.845 208.07L337.607 207.935L337.741 208.697C337.769 209.051 337.696 209.406 337.53 209.72C337.326 210.199 337.15 210.689 337.002 211.188C336.714 212.188 336.361 213.168 335.947 214.123C335.575 214.975 335.261 215.423 335.005 215.468C333.6 215.487 332.208 215.197 330.927 214.62C328.974 213.921 328.226 213.397 328.683 213.05C329.02 212.648 329.426 212.311 329.883 212.053M344.055 224.478C345.373 226.399 346.52 228.432 347.483 230.553C348.249 232.072 348.677 233.739 348.736 235.439C348.71 236.752 348.687 238.851 348.668 241.737C348.447 245.508 347.993 249.262 347.309 252.977C346.587 257.032 345.66 261.058 344.527 265.056C343.453 268.895 342.15 272.667 340.624 276.35C339.395 279.392 337.945 282.34 336.284 285.17C335.117 287.469 334.026 288.709 333.011 288.89C332.505 288.979 331.92 288.621 331.253 287.824C330.546 286.923 330.086 285.852 329.92 284.719C329.427 281.921 329.54 276.99 330.261 269.926C330.926 263.18 332.044 256.486 333.606 249.889C334.008 247.72 334.652 245.054 335.536 241.893C336.42 238.731 337.25 235.638 338.026 232.613C338.806 229.591 339.46 226.988 339.988 224.803C340.523 222.609 340.916 221.497 341.167 221.453C341.678 221.362 342.641 222.371 344.057 224.479M491.219 94.2389C493.647 93.6445 495.997 92.769 498.223 91.6299C500.672 90.6801 501.844 89.1636 501.739 87.0805C501.635 84.9975 500.373 83.7796 497.953 83.427C497.225 83.3189 496.492 83.2513 495.756 83.2245C494.4 83.2929 493.051 83.465 491.722 83.7395C489.686 84.0979 486.469 84.7955 482.069 85.8321C477.67 86.8687 471.472 88.4842 463.477 90.6786C437.207 97.6641 424.236 100.604 424.565 99.497C424.86 98.2544 425.308 97.0535 425.9 95.922C426.832 93.7933 427.976 91.3657 429.33 88.6393C430.685 85.913 432.091 83.1116 433.546 80.2353C435.005 77.3646 436.318 74.7761 437.484 72.4697C438.65 70.1632 439.712 68.0118 440.67 66.0153C441.625 64.0176 442.058 62.7624 441.97 62.2496C441.612 60.2195 440.163 59.4274 437.623 59.8735C435.587 60.2319 433.162 62.8189 430.347 67.6345C427.532 72.4501 423.776 80.1179 419.079 90.6378L414.032 102.134L400.45 105.314C392.618 106.958 385.431 108.159 378.886 108.916C373.396 109.633 367.855 109.886 362.323 109.674C359.396 109.404 357.382 109.503 356.282 109.953C355.733 110.191 355.255 110.567 354.892 111.043C354.53 111.52 354.295 112.082 354.212 112.675C353.258 114.678 354.288 116.068 357.304 116.843C358.719 117.262 360.214 117.335 361.664 117.058C363.724 116.83 367.672 116.2 373.51 115.168C377.319 114.497 381.754 113.65 386.813 112.627C391.872 111.604 396.157 110.653 399.667 109.773C402.921 108.941 405.757 108.311 408.173 107.881L412.174 107.176C411.761 108.131 411.41 109.112 411.121 110.111C410.788 111.219 410.407 112.4 409.976 113.653C409.54 114.908 409.057 116.242 408.518 117.643C401.025 137.562 395.107 155.629 390.764 171.843C386.421 188.058 384.247 200.62 384.242 209.529C384.104 217.669 386.209 222.929 390.559 225.31C391.755 226.142 393.623 226.337 396.162 225.894C401.241 225.001 407.01 220.579 413.469 212.631C414.557 211.389 416.317 209.115 418.749 205.807C421.182 202.5 423.913 198.683 426.944 194.355L436.361 180.909C439.603 176.281 442.521 172.034 445.117 168.171C447.713 164.307 449.772 161.129 451.294 158.636C452.82 156.144 453.45 154.917 453.201 154.957C452.671 155.056 452.172 155.278 451.743 155.606C450.781 156.471 449.896 157.418 449.097 158.435C447.797 159.978 445.817 162.488 443.156 165.964C440.495 169.441 436.863 174.469 432.259 181.047C426.813 188.817 422.291 195.112 418.695 199.93C415.098 204.749 411.985 208.636 409.356 211.593C407.333 213.999 405 216.126 402.418 217.919C400.669 219.063 398.788 219.988 396.815 220.675C391.869 222.334 389.547 218.817 389.846 210.124C390.3 190.401 399.446 159.062 417.284 116.108L421.949 104.679L432.932 102.351C448.591 99.0718 460.018 96.6658 467.216 95.1333C474.413 93.6007 479.407 92.5897 482.199 92.1002L487.537 91.1593L485.451 92.7064C484.477 93.2019 483.716 94.034 483.31 95.0482C483.063 95.8773 483.321 96.2247 484.084 96.0905C485.352 95.8667 487.731 95.2507 491.222 94.2426M449.14 169.819L451.313 171.007C455.867 173.089 461.075 169.945 466.938 161.575C468.861 158.812 470.446 155.829 471.659 152.69C472.916 149.46 473.435 147.206 473.218 145.93C472.775 144.351 471.766 142.99 470.383 142.107C468.715 140.83 467.248 140.303 465.98 140.527C463.955 141.016 462.042 141.886 460.343 143.09C458.06 144.569 455.923 146.261 453.96 148.144C450.423 151.611 447.348 155.52 444.811 159.773C442.36 163.851 440.424 168.216 439.047 172.77C437.786 176.808 437.202 181.026 437.317 185.255C437.483 189.154 438.424 192.262 440.139 194.579C441.902 197.152 443.878 198.703 446.065 199.23C448.521 199.756 451.072 199.646 453.473 198.909C455.139 198.648 456.775 198.228 458.36 197.655C460.01 196.928 461.562 195.995 462.978 194.877C466.456 192.391 469.786 189.706 472.952 186.834C477.059 183.21 480.973 179.373 484.678 175.339C486.653 173.159 489.044 170.381 491.852 167.005C494.66 163.628 497.292 160.349 499.745 157.167C502.192 153.986 504.266 151.262 505.968 148.997C507.669 146.731 508.496 145.472 508.448 145.22C508.314 144.458 507.623 144.647 506.389 145.78C505.155 146.914 502.785 149.495 499.304 153.51C488.274 166.717 478.466 176.826 469.88 183.838C461.293 190.849 454.983 194.056 450.949 193.46C445.857 192.785 444.888 186.539 448.04 174.721L449.14 169.819ZM464.096 146.558C465.845 145.335 467.079 144.528 467.799 144.138C468.306 144.049 468.674 144.641 468.897 145.909C469.12 147.177 468.183 149.311 466.094 152.296C464.222 155.032 462.024 157.53 459.548 159.734C457.932 160.958 456.219 162.048 454.425 162.992C452.86 163.795 452.039 163.939 451.948 163.428C452.074 162.679 452.349 161.962 452.756 161.321C453.339 160.174 454.038 158.938 454.852 157.612C455.666 156.287 456.481 154.964 457.296 153.645C457.916 152.575 458.666 151.585 459.528 150.698C460.869 149.127 462.406 147.734 464.101 146.554M550.969 103.359C556.6 86.2604 562.092 71.3459 567.445 58.6157C569.476 53.8077 570.549 50.6069 570.662 49.0132C570.774 48.3372 570.639 47.6437 570.284 47.0579C569.929 46.4722 569.375 46.0329 568.724 45.8194C568.338 45.912 567.935 45.9156 567.547 45.83C567.29 45.7498 567.017 45.7303 566.751 45.773C565.522 46.2537 564.263 47.654 562.974 49.9738C560.899 54.1009 559.09 58.3566 557.558 62.7149C556.687 65.2257 555.394 68.6623 553.678 73.0246C551.963 77.3869 550.273 81.5489 548.61 85.5105C547.2 89.4293 545.211 94.4942 542.643 100.705C540.075 106.916 537.795 112.557 535.803 117.626C533.811 122.691 531.986 127.203 530.33 131.161C528.673 135.12 527.761 137.376 527.594 137.93L527.032 139.207L525.487 137.121C524.481 135.494 522.966 134.244 521.177 133.565C519.388 132.887 517.425 132.818 515.593 133.369C511.447 134.363 507.595 137.399 504.037 142.477C501.983 145.477 500.243 148.68 498.844 152.035C497.266 155.731 495.899 159.513 494.751 163.363C493.621 167.148 492.858 171.032 492.472 174.962C492.095 178.155 492.136 181.384 492.593 184.566C493.534 189.903 495.087 192.773 497.252 193.175C502.094 193.894 506.787 190.055 511.331 181.658C513.045 178.594 514.588 175.437 515.951 172.201C517.815 167.943 519.963 163.047 522.395 157.51C524.828 151.974 527.265 146.11 529.708 139.919C532.154 133.73 534.453 127.824 536.604 122.203C537.726 119.649 538.732 117.18 539.622 114.797C540.511 112.414 541.33 110.37 542.077 108.667C542.806 106.647 543.638 104.665 544.569 102.729C544.411 103.699 544.186 104.658 543.896 105.598C543.467 106.609 543.125 107.655 542.875 108.724C542.565 109.955 542.27 111.252 541.988 112.615C541.002 115.931 539.577 121.223 537.715 128.493C535.852 135.762 533.919 143.371 531.915 151.32C529.908 159.273 528.069 166.669 526.395 173.508C524.722 180.346 523.6 185.128 523.032 187.852C521.241 195.047 519.969 202.361 519.223 209.738C518.643 216.126 518.766 220.164 519.589 221.849C520.62 223.239 522.548 223.03 525.371 221.224C526.468 219.918 527.336 218.437 527.938 216.842C528.646 215.226 529.205 213.549 529.608 211.832C529.634 210.515 529.534 209.943 529.306 210.118C528.594 210.888 527.954 211.72 527.393 212.606C526.553 213.797 526.213 213.727 526.371 212.394C526.529 211.062 527.228 206.484 528.47 198.662C529.189 193.82 529.828 189.648 530.387 186.144C530.946 182.641 531.489 179.403 532.016 176.429C532.536 173.458 533.123 170.474 533.778 167.475C534.432 164.477 535.186 160.939 536.039 156.863C540.36 138.294 545.337 120.458 550.968 103.355M521.112 152.424C518.492 158.386 515.622 164.391 512.5 170.438C510.435 174.634 508.136 178.712 505.615 182.651C502.643 186.581 500.73 188.359 499.876 187.985C498.385 186.939 498.259 183.622 499.498 178.033C500.826 172.189 502.789 166.508 505.352 161.091C506.893 157.601 508.735 154.253 510.858 151.083C513.033 147.822 514.815 145.675 516.205 144.642C517.339 143.656 518.17 143.185 518.705 143.219C519.658 143.33 520.604 143.492 521.54 143.702L524.408 144.375L521.112 152.424Z" fill="white"/>
<defs>
<filter id="filter0_d_2192_11503" x="23.729" y="0" width="560.447" height="74.4004" filterUnits="userSpaceOnUse" color-interpolation-filters="sRGB">
<feFlood flood-opacity="0" result="BackgroundImageFix"/>
<feColorMatrix in="SourceAlpha" type="matrix" values="0 0 0 0 0 0 0 0 0 0 0 0 0 0 0 0 0 0 127 0" result="hardAlpha"/>
<feOffset dy="3"/>
<feGaussianBlur stdDeviation="1.5"/>
<feComposite in2="hardAlpha" operator="out"/>
<feColorMatrix type="matrix" values="0 0 0 0 0 0 0 0 0 0 0 0 0 0 0 0 0 0 0.658824 0"/>
<feBlend mode="normal" in2="BackgroundImageFix" result="effect1_dropShadow_2192_11503"/>
<feBlend mode="normal" in="SourceGraphic" in2="effect1_dropShadow_2192_11503" result="shape"/>
</filter>
</defs>
</svg>
