<svg xmlns="http://www.w3.org/2000/svg" viewBox="0 0 1875.32 874.17"><path d="M824.14 226.99c-.15-.22-.22-.37-.24-.45.16.05.33.13.49.2.09.07.18.16.29.26-.01.01-.02.02-.03.04-.23.03-.45.05-.51-.04Zm-8.44 32.6c-5.68 2.97-10.97 6.49-16.05 10.44-7.36 5.72-15.52 10.13-24.33 13.27-7.22 2.58-14.47 5.1-21.68 7.71-1.79.65-3.54 1.45-5.19 2.4-3.51 2.01-7.23 2.46-11.13 1.78-3.46-.6-6.96-1.11-10.36-1.96-4.47-1.12-8.32-3.28-10.57-7.6-1.49-2.86-3.55-5.26-5.84-7.53-5-4.95-7.45-11.1-7.83-18.06-.48-8.64-.56-17.26 1.21-25.81.31-1.52.24-3.15.16-4.71-.02-.29-1.09-.84-1.48-.71-.87.3-1.73.84-2.39 1.49-4.1 4.04-8.14 8.15-12.22 12.21-8.15 8.13-16.2 16.36-24.94 23.89-4.35 3.75-8.35 7.93-12.23 12.17-11.27 12.29-23.72 23.29-36.42 34.04-2.5 2.11-5.29 3.53-8.55 4.06-2.52.41-5.01 1.09-7.54 1.42-2.52.32-5.11.64-7.63.45-7.13-.52-12.92-3.59-16.5-9.98-1.55-2.77-2.67-5.79-3.99-8.69-.52-1.15-1.04-2.31-1.61-3.45-.13-.26-.48-.41-1.02-.83-.95.5-2.12.94-3.1 1.64-17.13 12.33-34.74 23.99-51.46 36.91-4.55 3.51-9.41 6.64-14.17 9.87-1.31.89-2.74 1.66-4.21 2.25-6.48 2.59-12.5 1.89-17.94-2.7-2.47-2.09-4.59-4.47-6.16-7.29-6.73-12.14-9.83-24.88-6.71-38.77 1.61-7.17 2.89-14.42 4.26-21.64.24-1.24.2-2.54.26-3.81.04-.79-1.28-1.88-1.96-1.66-.91.29-1.91.43-2.69.92-4.04 2.58-8.14 5.1-12 7.93-6.19 4.53-12.23 9.27-18.31 13.96-1.26.97-2.49 2.02-3.62 3.15-10.15 10.22-20.97 19.71-31.91 29.06-5.85 4.99-11.4 10.28-16.77 15.77-5.59 5.72-11.26 11.36-16.81 17.12-2.7 2.8-5.79 5.01-9.21 6.8-2.61 1.36-5.84.92-8.04-1.05-.71-.64-1.44-1.3-1.99-2.07-2.25-3.11-4.45-6.24-6.62-9.41-3.43-5-4.94-10.35-2.76-16.31 3.24-21.17 7.95-42.1 10.51-63.39.72-6.03 2-11.99 2.79-18.01.46-3.47.5-6.99.61-10.49.02-.45-.54-1.14-.99-1.33-.5-.21-1.33-.18-1.76.12-3.67 2.55-7.32 5.05-10.23 8.59-2.21 2.69-5.17 4.76-7.54 7.33-4.78 5.16-9.41 10.45-14.05 15.74-8.44 9.61-16.82 19.29-25.29 28.88-2.56 2.89-4.83 5.91-6.51 9.42-2.09 4.36-5.05 8.17-8.24 11.76-9.18 10.33-16.72 21.83-24.15 33.41-5.35 8.34-10.58 16.74-16.55 24.67-3.46 4.58-6.33 9.61-9.42 14.47-3.79 5.94-7.78 11.69-12.6 16.89-3.02 3.27-5.36 7.15-8.1 10.69-.96 1.24-2.02 2.55-3.31 3.37-3.84 2.46-7.67 2.61-11.61-.16-6.21-4.37-10.95-9.79-13.21-17.14-1.62-5.3-1.72-10.73-.93-16.15.84-5.69 1.86-11.36 2.89-17.02 1.83-10.09 4.59-19.94 8.18-29.54 2.57-6.89 5.21-13.75 7.86-20.61 2.76-7.14 6.24-14 7.4-21.73.53-3.57 4.56-5.7 8.18-4.79 5.74 1.44 10.66 4.3 14.26 9.1 3.33 4.45 4.16 9.18 1.5 14.36a69.035 69.035 0 0 0-3.79 8.8c-1.69 4.84-3.46 9.62-6.15 14.02-.82 1.35-1.43 2.86-1.97 4.36-4.48 12.32-8.93 24.64-13.36 36.98-.32.89-.5 1.87-.47 2.81.01.43.63.9 1.06 1.24.17.13.69.07.86-.09.92-.88 1.88-1.75 2.64-2.77 2.69-3.58 5.39-7.15 7.93-10.84 11.26-16.33 22.44-32.7 33.7-49.03 2.36-3.42 4.76-6.83 7.4-10.03 16.51-19.96 32.37-40.48 49.61-59.83 10.22-11.47 21.14-22.26 32.3-32.82 3.74-3.54 8.09-6.25 12.5-8.86 3.63-2.15 7.4-2.32 10.8.26 2.62 1.98 5.68 2.88 8.53 4.29 4.04 2.01 6.55 5.33 6.74 9.8.35 8.3.87 16.62.05 24.92-.19 1.91-.32 3.86-.85 5.69-1.8 6.15-2.83 12.39-3.35 18.79-.22 2.79-1.39 5.58-2.53 8.2-2.21 5.09-3.32 10.3-3.09 15.85.23 5.48-.59 10.79-2.5 15.99-.85 2.31-1.95 4.76-1.43 7.41.15.79.65 1.12 1.43.95.61-.13 1.32-.15 1.8-.49 1.3-.91 2.56-1.9 3.74-2.97 16.04-14.69 32.08-29.38 48.08-44.13 12.29-11.33 25.72-21.08 40.2-29.38 4.73-2.72 9.38-5.5 13.39-9.23 3.76-3.49 8.2-4.78 13.25-4.3 1.71.16 3.09.86 3.89 2.38.99 1.9 2.52 2.75 4.6 2.9.94.07 1.94.26 2.75.69.79.43 1.69 1.13 2 1.92 1.18 2.99 1.81 6.12 1.36 9.37-.97 6.97-1.67 13.99-3.03 20.88-.98 4.99-2.82 9.82-4.3 14.71-1.94 6.42-3.91 12.84-5.86 19.26-1.14 3.72-1.52 7.5-1.13 11.38.17 1.66 1.95 2.8 3.4 2.06 1.42-.73 2.86-1.44 4.21-2.28 4.07-2.54 8.2-5 12.12-7.75 14.39-10.11 28.71-20.33 43.06-30.51 2.09-1.48 4.18-2.95 6.31-4.36 10.41-6.91 20.27-14.54 29.87-22.52 2.97-2.47 5.55-5.23 7.75-8.44 4.87-7.13 9.97-14.1 14.91-21.19 4.96-7.1 10.49-13.72 16.5-19.94 3.33-3.45 6.77-6.81 10.05-10.31 5.97-6.37 12.95-11.4 20.55-15.61 3.64-2.01 7.45-3.71 11.03-5.82 6.3-3.73 12.83-3.35 19.47-1.41 2.77.81 5.46 1.97 7.65 3.88 1.17 1.02 2.07 2.4 2.93 3.71.92 1.4-.06 3.56-1.59 3.75-.63.08-1.27.2-1.89.18-7.3-.23-13.7 2.33-19.96 5.86a74.295 74.295 0 0 0-20.54 17.07c-7.41 8.82-14.56 17.82-19.82 28.17-.85 1.66-2.16 3.19-3.55 4.45-5.3 4.76-9.37 10.47-13.18 16.41-2.25 3.5-4.31 7.12-6.7 10.52-1.86 2.65-3.52 5.22-3.75 8.63-.1 1.48-1.1 2.96-1.9 4.31-1.63 2.74-3.45 5.38-5.07 8.12-.21.36.13 1.29.5 1.68.35.37 1.23.69 1.63.51 1.73-.8 3.46-1.65 5.02-2.72 10.57-7.27 20.37-15.47 29.6-24.37 7.14-6.88 14.36-13.68 21.43-20.63 8.22-8.07 16.26-16.32 24.48-24.38 7.31-7.16 14.72-14.23 22.18-21.24 2.79-2.62 5.81-5.02 8.81-7.41 1-.79 2.34-1.23 3.59-.54 3.18 1.74 6.55 2.38 10.14 2.35 3-.03 5.68.87 7.41 3.61.17.27.39.53.65.7 4.02 2.59 4.78 6.53 4.44 10.88-.12 1.59-.78 3.19-.64 4.74.71 7.83-1.56 15.17-3.31 22.63-2.26 9.64-4.17 19.35-6.23 29.04-.44 2.08.88 3.62 3.15 3.71 4.51.18 8.91-.46 13.29-1.49 9.74-2.3 18.78-6.27 27.38-11.3 2.21-1.29 4.37-2.67 6.47-4.13 21.3-14.79 43.57-28.02 65.81-41.3 9.33-5.57 18.98-10.59 28.51-15.82 1.98-1.08 3.87-2.17 5.29-4.01 12.37-16.08 27.48-29.4 42.7-42.64 10.18-8.86 21.68-15.81 32.75-23.4 1.57-1.08 3.3-1.99 5.06-2.74 1.44-.62 3.01-1.18 4.55-1.26 8.41-.42 16.64.24 24.08 4.79.52.32 1.17.56 1.78.6.6.04 1.33-.06 1.81-.38.78-.52 1.54-1.17 2.06-1.94 5.6-8.21 12.44-15.44 18.64-23.16.6-.74 1.29-1.44 2.05-2.01 1.33-1 2.9-1.36 4.53-1.06 3.41.63 5.8 2.66 7.07 5.81.45 1.12.55 2.54.34 3.74-1.8 10.39-3.37 20.85-5.68 31.13-2.59 11.53-5.57 22.98-10.4 33.86-2.72 6.15-4.91 12.53-5.1 19.37-.07 2.3-.83 4.35-1.62 6.45-.9 2.38-1.58 4.84-2.22 7.3-.13.49.27 1.19.57 1.71.37.64 1.77.78 2.6.23 2.13-1.4 4.18-2.91 6.32-4.29 3.73-2.42 6.95-5.64 11.26-7.13.2-.07.58.18.77.38.15.16.26.55.16.71-.32.54-.65 1.13-1.13 1.52-2.72 2.23-5.45 4.45-8.23 6.6-1.77 1.37-3.54 2.78-5.49 3.86-1.93 1.07-4.08 1.74-6.21 2.61-.88 1.26-1.8 2.56-2.69 3.89-1.24 1.83-1.53 3.31-.75 3.29.87-.03 1.87-.1 2.56-.55 3.22-2.09 6.48-4.14 9.49-6.51 8.31-6.54 17.23-12.18 26.02-18.01 7.18-4.77 14-10.08 20.94-15.2.31-.23.27-.91.39-1.39-.61-.08-1.29-.37-1.82-.2-3.41 1.05-6.35 2.94-9.15 5.12-1.23.96-2.66 1.89-4.38 1.6-.49-.08-.96-.57-1.33-.98-.12-.14.03-.65.2-.9.36-.52.75-1.05 1.24-1.43 1.26-.98 2.55-1.93 3.87-2.82 5.84-3.95 12.03-7.29 18.38-10.34 3.17-1.52 6.39-2.95 9.47-4.63 5.9-3.22 11.83-6.36 18.29-8.35 1.22-.38 2.43-.84 3.55-1.44 2.28-1.2 4.22-2.69 5.64-5 3.68-5.99 7.62-11.82 11.41-17.75 1.97-3.08 4.54-5.34 8.04-6.49 2.18-.72 4.44-.97 6.6-.22 5.16 1.8 9.95 4.37 14.21 7.81.95.77 1.45 2.13 1.17 3.5-.27 1.31-1.03 2.31-2.29 2.82-.58.23-1.23.32-1.86.43-.63.12-1.27.15-1.89.3-3.63.87-6.52 2.95-8.1 6.24-2.21 4.6-4.04 9.39-5.86 14.16-.43 1.13-.25 2.52-.27 3.79-.04 2.03-.74 3.61-2.4 4.95-1.2.97-2.27 2.3-2.92 3.7-4.07 8.69-8.17 17.36-10.73 26.66-.59 2.15-1.17 4.32-1.65 6.5-1.38 6.23-2.23 12.55-4.34 18.65-1.86 5.36-.46 10.76 1.65 15.87.64 1.55 2.15 2.3 3.79 2.62 2.88.56 5.78.48 8.55-.37 2.74-.83 5.49-1.79 8.02-3.11 7.65-4 15.4-7.88 22.71-12.43 7.32-4.55 14.3-9.67 21.19-14.87 16.35-12.34 31.64-25.96 47.06-39.42 4.34-3.78 8.61-7.65 13.64-10.55 2.24-1.29 4.09-3.07 5.62-5.16 3.45-4.69 7.92-8.31 12.4-11.94 5.47-4.43 10.87-8.93 16.19-13.54 4.37-3.79 8.96-7.24 14.04-9.99 2.53-1.37 3.62-3.48 3.98-6.14.35-2.53.55-5.09.97-7.61.43-2.51.9-5.04 1.64-7.48 1.05-3.45 4.98-5.55 8.42-4.63 4.68 1.25 9.01 3.28 12.76 6.4 3.35 2.8 3.43 3.78 1.64 7.38-2.3 4.63-3.47 9.47-4.24 14.61-.74 4.98-2.81 9.8-4.51 14.61-3.21 9.04-6.55 18.03-8.99 27.32-.24.92-.47 1.84-.62 2.77-.04.25.21.73.43.81.54.19 1.27.45 1.7.24.84-.41 1.6-1.06 2.27-1.73 9.77-9.69 19.6-19.31 28.25-30.05 5.43-6.73 11.51-12.81 18.07-18.51 5.31-4.61 10.45-9.4 16.16-13.53 1.29-.93 2.47-2.04 3.55-3.21 6.52-7.11 13.96-13.11 21.91-18.55 2.36-1.62 4.61-3.48 6.64-5.49 5.06-5 11.15-8.56 16.98-12.48 2.71-1.82 5.84-2.56 9-3.13 1.98-.36 3.87.06 5.42 1.34 3.21 2.64 6.38 5.32 9.48 8.09 1.73 1.55 2.61 3.69 2.71 5.98.13 2.87.02 5.76-.11 8.63-.58 12.78-1.13 25.56-1.86 38.34-.4 7.02-1.01 14.03-1.76 21.02-.35 3.24-.31 6.36.59 9.49.41 1.43 2.08 2.8 3.55 2.7 1.58-.1 3.2-.18 4.73-.56 6.21-1.55 12.31-3.47 18.14-6.16 4.65-2.14 9.29-4.28 13.91-6.49 1.72-.83 3.47-1.7 4.98-2.84 4.62-3.48 9.7-6.17 14.65-9.11 6.32-3.76 12.51-7.73 18.64-11.8 5.6-3.71 11.22-7.37 17.19-10.48 2.55-1.33 5.03-2.8 7.5-4.27 14.57-8.65 29.2-17.21 43.67-26.02 11.19-6.81 22.2-13.92 33.24-20.99 1.58-1.01 2.96-2.41 4.25-3.8 1.74-1.87 3.33-3.88 4.95-5.87 9.15-11.22 19.98-20.7 31.09-29.87 2.44-2.01 5.3-3.57 8.1-5.08 3.09-1.66 6.32-3.08 9.53-4.52 3.81-1.7 7.53-3.46 10.73-6.24 3.93-3.41 8.46-4.13 13.47-2.74 2.44.68 5 1.02 7.53 1.27 2.34.23 4.32 1.11 6.07 2.58 3.21 2.69 5.98 5.78 8.38 9.2.73 1.04 1.31 2.19 1.87 3.34 1.93 3.97 2.12 8 .15 12.02-2.39 4.88-4.8 9.75-7.31 14.57-2.09 4.02-4.93 7.41-8.54 10.23-2.76 2.16-5.43 4.51-7.8 7.09-9.07 9.88-20.16 16.65-32.45 21.65-2.37.96-4.86 1.65-7.16 2.75-6.76 3.26-13.99 4.32-21.34 5.02-4.77.45-9.53 1.03-14.29 1.58-2.38.27-4.24 1.44-5.32 3.6-3.84 7.73-7.75 15.43-11.38 23.25-1.47 3.17-2.44 6.6-3.34 9.99-.48 1.81-.47 3.8-.42 5.7.05 2.41 2.3 5.04 4.68 5.46 5.68 1.02 11.39 2.12 16.89-.78 10.65-2.52 20.52-7.08 30.34-11.74 3.46-1.64 6.85-3.46 10.09-5.49 10.03-6.27 19.91-12.79 29.12-20.26 2.21-1.79 4.29-3.82 7.6-3.37.71.1 1.79-.76 2.35-1.46 4.84-6.13 11.03-10.55 17.64-14.53 3.28-1.98 6.44-4.18 9.6-6.35 9.24-6.32 18.45-12.68 27.68-19.01 5.54-3.8 11.14-7.46 17.07-10.66 3.63-1.95 6.79-4.76 10.21-7.11 1.56-1.08 3.17-2.13 4.87-2.98 3.11-1.55 6.23-1.33 9.12.56 2.68 1.75 5.37 3.42 8.32 4.71 1.78.78 3.01 2.33 3.6 4.28.66 2.2-.26 5.05-2.22 5.76-8.54 3.09-15.68 8.55-23.23 13.35-8.9 5.66-17.9 11.19-26.84 16.79-4.07 2.54-7.98 5.24-11.59 8.47-3.31 2.96-7.12 5.41-10.88 7.82-16.7 10.69-33.32 21.49-49.14 33.48-10.51 7.97-21.92 14.35-34.33 18.89-3.89 1.43-7.77 2.82-10.88 5.86-2.08 2.03-4.9 3-7.8 3.37-9.05 1.16-18 .23-26.48-2.87-9.11-3.33-15.64-9.85-19.17-19.01-1.26-3.26-2.12-6.7-2.94-10.11-.99-4.12-.7-8.23.59-12.3 2.02-6.39 3.93-12.82 5.85-19.24.07-.23-.19-.57-.3-.85-.27-.66-.81-.89-1.54-.55-.86.4-1.75.79-2.5 1.35-2.35 1.72-4.85 3.17-7.71 3.74-2.49.5-3.85 1.84-4.6 4.25-.35 1.11-1.3 2.2-2.26 2.93-2.04 1.54-4.25 2.85-6.41 4.21-25.44 16.01-50.76 32.23-77.06 46.84-1.67.93-3.32 1.95-4.83 3.12-6.38 4.92-13.58 8.42-20.75 11.94-4.34 2.13-8.94 3.33-13.78 3.84-7.04.74-13.26-1.24-18.96-5.21-1.57-1.1-3.05-2.33-4.54-3.53-3.63-2.93-5.92-6.71-6.81-11.26-1.91-9.73-3.48-19.52-3.97-29.45-.37-7.41.77-14.67 2.23-21.9 1.4-6.94 1.97-13.92.77-20.96-.13-.74-1.47-1.7-2.1-1.49-.3.1-.67.05-.93.2-10.49 6.13-20.96 12.28-31.44 18.43-5.09 4.38-10.3 8.63-15.24 13.17-5.89 5.4-11.57 11.05-17.34 16.58-1.15 1.11-2.22 2.33-3.51 3.26-10.24 7.33-18.51 16.68-26.36 26.34-7.06 8.68-13.56 17.81-20.19 26.83-1.69 2.3-3.08 4.86-4.41 7.41-2.69 5.17-6.09 9.78-10.45 13.63-2.42 2.14-4.59 4.4-6.06 7.33-1.12 2.24-3.2 3.12-5.62 2.75-1.21-.19-2.6-.58-3.45-1.37-3.06-2.86-5.39-6.31-7.04-10.18-1.31-3.06-1.32-6.26-.72-9.43.83-4.39 1.74-8.78 2.89-13.1 1.9-7.1 3.97-14.16 6.09-21.2.64-2.12 1.69-4.12 2.52-6.18.59-1.48 1.33-2.94 1.6-4.48.13-.76-.44-1.95-1.08-2.45-.61-.48-1.98-.72-2.59-.36-3 1.79-5.88 3.8-8.76 5.79-.78.54-1.7 1.1-2.14 1.89-2.11 3.85-5.62 5.98-9.29 8.01-.8.44-1.35 1.32-2 2.02-.5.54-.33 1.98.36 2.54.7.56 1.48 1.03 2.18 1.51-.54 2.2-2.21 3.28-3.62 4.55-3.8 3.43-7.66 6.79-10.8 10.88-.77 1-1.7 1.94-2.74 2.64-4.56 3.07-8.28 7.02-11.97 11.03-1.3 1.41-2.6 2.84-4.06 4.08-10.73 9.1-21.48 18.19-32.26 27.23-7.37 6.17-15.09 11.84-23.64 16.33-3.11 1.63-6.11 3.5-9.08 5.38-12.71 8.06-26.66 10.34-41.39 8.97-1.2-.11-2.57-.61-3.47-1.38-6.37-5.45-11.79-11.7-15.63-19.24-3.99-7.84-6.29-16.02-5.68-24.93.74-10.86 1.56-21.68 5.04-32.12.66-1.99 1.96-4.01 1.05-6.65-2.39 0-4.88.04-7.36-.02-.92-.02-1.56-1.16-1.2-2.09.23-.59.74-1.07.92-1.67.13-.43 0-.99-.17-1.44-.05-.13-.61-.19-.89-.12-2.15.6-4.28 1.25-6.01 2.79-.64.57-.56 1.8.28 2.18.58.26 1.31.32 1.75.71.41.37.73 1.08.71 1.62-.02.52-.42 1.32-.85 1.49-1.76.68-3.6 1.16-5.51 1.75-.66-.92-1.12-1.74-1.75-2.37-.41-.41-1.16-.88-1.62-.77-5.35 1.31-10.26 3.38-13.27 8.4-.11.19-.11.45-.11.71-3.08.5-6.14 1.14-8.69 3.08-.7.54-1.13 1.45-1.61 2.24-.12.2-.02.61.11.86.14.26.41.57.67.61 2.69.43 4.71-1.68 7.22-1.9.34-.03 1.12.81 1.07 1.14-.27 1.61-.94 3.34-2.75 3.43-3.59.18-6.62 2.16-10.07 2.8-1.39.26-2.59 1.5-3.86 2.33.74 1.11.81 2.31.45 3.56-.57 1.93-1.79 3.5-3.49 4.4-2.53 1.33-5.27 2.23-8.22 2.06-.21-.01-.55-.26-.56-.43-.03-.3.04-.72.24-.9 2.11-1.91 4.28-3.74 6.33-5.7.26-.25.02-1.1-.12-1.63-.05-.2-.47-.37-.75-.43-.3-.07-.69-.1-.94.03-7.87 4.3-15.12 9.4-21.55 16.45 1.35.29 2.29.81 2.98.58 2.75-.92 5.11-2.58 7.36-4.39.69-.55 1.96-.16 2.47.65.52.83.41 2-.3 2.56-1.5 1.18-3.09 2.25-4.53 3.51-3.35 2.93-6.74 3.28-10.31.44-.22-.18-.59-.18-1.14-.33-2.87 1.07-5.16 3.34-7.64 5.31-1.64 1.3-2.4 3.08-2.07 5.07.35 2.11-.29 3.7-1.65 5.22-.83.93-1.77 1.95-2.13 3.1-2.74 8.83-7.48 16.9-9.83 25.89-.31 1.19-1.07 2.3-1.76 3.36-1.02 1.59-3.29 2.43-3.38 4.48-.12 2.96-2.48 5.2-2.27 8.19.19 2.76-1 4.91-3 6.73-1.84 1.68-2.26 3.73-1.41 6.11.32.89.26 1.95-.6 2.6-3.34 2.51-3.91 6.35-4.96 9.98-.26.88-.58 2.06-1.24 2.44-3.12 1.77-3.86 4.89-4.95 7.89-2.28 6.31-4.54 12.62-7.03 18.85-1.42 3.54-2.97 7.11-5 10.32-4.61 7.3-8.83 14.81-13.06 22.32-.6 1.07-1.56 1.94-2.41 2.85-.18.19-.82.29-.88.2-.31-.47-.83-1.17-.67-1.52 1.32-2.9 2.73-5.76 4.18-8.6 3.77-7.4 7.69-14.72 11.33-22.18 2.1-4.29 4.05-8.69 5.01-13.43.19-.93.21-1.9.25-2.85.06-1.45-.82-2.21-2-2.92-1.75-1.04-1.97-1.68-1.51-2.89.22-.58.57-1.13.96-1.62.78-1.01 1.75-.5 2.55-.09 1.37.71 2.47.3 3.42-.65.66-.67 1.28-1.45 1.7-2.29 1.41-2.86 2.87-5.71 4.05-8.68 2.94-7.42 5.72-14.9 8.59-22.34.47-1.22.77-2.42.39-3.71-.09-.29-.24-.76-.42-.78-.6-.09-1.44-.26-1.8.05-.67.58-1.21 1.41-1.51 2.25-.26.74-.56 1.34-1.24 1.06-.33-.14-.57-1.03-.49-1.52.49-3.14 1.08-6.15 3.55-8.63 1.84-1.85 1.83-4.62 1.53-7.19-.03-.27-.33-.69-.56-.73-.56-.1-1.41-.25-1.69.04-1.08 1.16-1.94 2.52-2.96 3.73-1.84 2.2-3.53 4.59-5.65 6.49-13.37 11.95-24.98 25.59-37.2 38.64-2.39 2.55-4.38 5.49-6.43 8.35-6.14 8.57-12.19 17.2-18.33 25.77-1.88 2.62-3.59 5.33-4.47 8.42-.89 3.13-2.4 5.92-4.11 8.61-3.48 5.47-5.65 11.45-6.93 17.75-.95 4.69-1.77 9.41-2.54 14.14-.37 2.26.08 4.43 1.32 6.43 1.65 2.65 5.57 4.36 8.29 3.41 5.16-1.82 9.99-4.21 13.9-8.2 5.61-5.71 10.9-11.66 15.13-18.49.79-1.28 1.45-2.75 3.1-3.2.3 1.22.12 2.38-.51 3.47-2.55 4.42-5.11 8.84-7.67 13.26-.47.82-1.06 1.61-1.33 2.5-.15.49.11 1.31.48 1.68.33.32 1.25.5 1.6.27 1.04-.69 2.16-1.46 2.82-2.48 1.74-2.67 3.25-5.49 4.86-8.25 1.93-3.31 3.74-6.71 6.76-9.2.38-.31 1.32-.48 1.59-.24.39.34.64 1.17.53 1.69-.28 1.23-.64 2.49-1.26 3.58-5.72 10.01-12.43 19.35-19.92 28.1-2.27 2.65-4.96 4.99-7.74 7.12-1.99 1.52-4.38 2.61-6.71 3.59-2.1.88-4.38.74-6.58.04-3.09-.99-5.78-2.65-8.25-4.74-9.22-7.8-14.36-17.79-15.84-29.69-.32-2.53-.29-5.1-.41-7.65-.31-6.87 1.32-13.25 4.58-19.32 3.17-5.9 6.05-11.97 9.04-17.97 3.29-6.59 6.96-12.92 11.65-18.64 3.44-4.2 6.65-8.58 9.93-12.91 5.02-6.63 10.44-12.93 16.22-18.9 6.66-6.89 13.38-13.73 20.11-20.55.87-.88 1.96-1.56 3.01-2.24.64-.41 1.28-.18 1.66.48.13.22.22.6.11.78-.48.81-.94 1.66-1.57 2.34-3.73 3.95-7.56 7.8-11.23 11.81-1.27 1.38-2.18 3.09-3.21 4.67-.12.19 0 .6.12.85.35.7.87.72 1.58.26 2.98-1.95 5.18-4.69 7.53-7.3 4.28-4.74 8.56-9.49 13.06-14.03 2.92-2.94 6.07-5.69 9.4-8.15 2.63-1.95 4.41-4.41 5.98-7.14 4.87-2.33 9.22-5.42 12.97-9.29 1.31-1.35 2.42-2.94 3.38-4.56.42-.71.61-1.97.26-2.66-1.38-2.69-.61-4.92 1.09-7.03 2.21-2.75 3.96-5.77 5.2-9.04 2.13-5.62 4.01-11.33 6.61-16.78.93-1.94 1.18-4.26 1.4-6.45.5-4.97 2.39-9.16 6.2-12.43l-.21.63.4-.42c-1.04-1.79-.85-3.73-.5-5.61.46-2.51 1.08-5 1.77-7.46 2.99-10.78 6.06-21.54 9.02-32.32.5-1.83.66-3.75.92-5.64.04-.26-.21-.77-.41-.82-.55-.14-1.35-.34-1.67-.06-.95.82-1.87 1.76-2.53 2.82-6.61 10.65-14.58 20.2-22.94 29.5-11.55 12.84-22.85 25.9-32.98 39.93-2.43 3.36-5.28 6.43-7.86 9.69-2.38 3.01-4.8 6-6.94 9.18-3.43 5.08-7.41 9.66-12.12 13.54-5.68 4.67-11.53 9.13-17.32 13.65-2.01 1.57-4.12 3.03-6.11 4.63-5.86 4.72-12.72 5.67-19.89 5.17-4.02-.28-7.31-2.39-9.88-5.38-5.86-6.82-9.09-14.6-7.99-23.8.26-2.2.54-4.41.65-6.62.01-.28-1.03-.98-1.38-.86-1.2.39-2.37.96-3.45 1.63-6.49 4.08-12.96 8.2-19.4 12.36-.45.29-.59 1.07-.85 1.63-.3.67 1.02 1.37 2.24 1.1.93-.21 1.81-.66 2.74-.77.25-.03.96.91.86 1.2-.87 2.42-1.89 4.77-4.67 5.62-2.26.69-3.92 2.13-5.05 4.16-1.47 2.63-3.72 4.29-6.33 5.66Zm77.69 147.4c-.06.27.02.61.14.87.35.71.91.84 1.63.49 1.49-.71 2.72-1.75 3.14-3.34.21-.79-.19-1.73-.32-2.65-2.51.81-4.06 2.25-4.59 4.63Zm3.41-93.88c-.2-.23-.37-.6-.61-.66-.26-.07-.71.06-.89.26-2.07 2.42-4.25 4.78-6.1 7.36-1.28 1.78-2.1 3.89-3.07 5.88-.07.15.22.57.44.74.19.15.63.28.77.17 4.74-3.49 7.93-8.05 9.47-13.75Zm13.21-15.43c-.16-.24-.29-.53-.51-.72-.19-.16-.52-.35-.71-.29-3.15 1.13-5.02 3.52-6.15 6.53-.16.41.12 1.26.48 1.52.39.29 1.21.35 1.66.13 2.64-1.3 4.28-3.5 5.22-6.24.1-.28.01-.62.01-.94Zm53.23-24.3c-.49-.27-1-.8-1.46-.76-1.43.12-2.11 1.29-1.59 2.75.15.41.89.95 1.26.88 1.32-.24 2.08-1.62 1.78-2.87Zm1.79-5.42-.24-.58-.31.55.55.03Zm2.41-6.35c-.06-.53-.29-1.04-.45-1.55-.21.08-.58.12-.6.23-.1.51-.16 1.05-.12 1.57.01.15.46.44.59.38.25-.1.6-.43.58-.63ZM1610.8 83.46c.55.22 1.25.52 1.75.36 2.43-.76 4.77-2.14 7.24-2.41 8.51-.92 15.89-4.59 23.08-8.84 3.03-1.79 5.92-3.82 9.01-5.47 11.14-5.92 20.66-13.85 29.4-22.87 4.87-5.02 7.65-10.94 9.13-17.62.2-.92.19-1.89.26-2.66-.25-1.45-.37-2.74-.72-3.96-.36-1.27-1.25-2.17-2.52-2.67-1.11-.44-2.54-.25-3.33 1.07-1.23 2.07-2.9 3.35-5.12 4.03-.92.28-1.85.49-2.77.76-9.63 2.83-18.17 7.58-26.1 13.79-10.14 7.94-19.06 17.07-27.36 26.81-4.34 5.09-7.96 10.8-11.89 16.24-.18.25-.26.59-.41.86-.51.91-.37 2.28.34 2.56Zm-79.69 28.71c.08.24.09.55.25.7.22.21.57.47.83.43 1.24-.18 2.54-.27 3.69-.72 5.35-2.12 10.3-5.02 15.18-8.05 6.22-3.87 12.36-7.89 19.18-10.72 1.45-.6 2.93-1.44 4-2.55 2.27-2.36 5.04-3.81 7.9-5.26 1.01-.51 1.63-1.86 2.31-2.9.54-.83-.14-2.09-1.04-2.08-.95.02-1.96-.12-2.83.16-4.32 1.36-7.9 4.09-11.6 6.56-.51.34-1.06.84-1.27 1.39-1.01 2.62-3.21 3.67-5.53 4.86-7.38 3.76-14.67 7.69-21.95 11.65-2.79 1.52-5.48 3.24-8.16 4.96-.46.3-.64 1.04-.95 1.57Zm-7.08 4.43c.25.18.53.55.74.52.88-.16 1.75-.41 2.59-.72.16-.06.24-.54.22-.83-.02-.28-.12-.67-.32-.81-.89-.59-1.76-.22-2.44.37-.39.34-.53.96-.79 1.46Zm-10.01 5.68c.17.23.46.48.72.51 2.33.26 4.08-.67 5.28-2.67-.46-.31-.9-.83-1.36-.86-1.96-.13-3.45.84-4.58 2.37-.12.16-.16.51-.06.65Zm-8.16 4.47c.05.45.57 1.08 1 1.21.82.26 1.87-.69 2.03-1.67-.34-.33-.67-.92-1.09-1-1.17-.21-2.06.46-1.95 1.46Zm-37.98 22.15.77.26-.04-.59-.74.34Zm-6.07 4.25c.19.07.49-.13.73-.2-.02-.23.04-.55-.09-.66-.18-.16-.57-.29-.75-.2-.69.35-.65.79.1 1.07Zm-206.02-7.16c.44.39.91.4 1.39-.03.21-.19.54-.49.5-.67-.15-.72-.66-.94-1.34-.66-.63.27-.8.74-.55 1.35Zm-42.3 33.99c.21.2.57.44.8.38.91-.24 1.92-.4 2.65-.93 3.35-2.45 6.72-4.89 9.9-7.55 9.08-7.58 18.08-15.25 27.09-22.92.69-.59 1.21-1.4 1.72-2.16.11-.16.05-.44.01-.7-.9.07-1.93-.07-2.59.35-3.23 2.06-6.52 4.08-9.46 6.52-9.6 7.95-19.06 16.07-28.55 24.15-.71.61-1.24 1.43-1.81 2.19-.08.11.08.52.24.67Zm-133-9.91c2.96 1.05 4.1.77 5.36-1.36.1-.17.04-.54-.08-.73-.15-.23-.43-.51-.67-.52-2.08-.12-3.39 1.18-4.61 2.61Zm-17.19-.05c.22.15.43.3.65.45.24-.11.49-.21.73-.32-.37-.56-.83-.6-1.38-.13Zm-5.95 3.86c.19.14.36.36.56.38.21.02.44-.16.67-.25-.19-.14-.36-.36-.56-.38-.21-.02-.44.16-.66.25Zm-25.75 24.99c.16.18.32.49.49.5.18.01.37-.28.56-.43-.16-.18-.33-.36-.49-.54l-.56.47Zm-4.35 3.6s.19.44.34.64c.32.42.67.83 1.01 1.24.08-.56.22-1.12.08-1.6-.19-.63-.83-.7-1.43-.28Zm-151.88 34.82c.2.48.32 1.66.95 2.08.64.42 1.81.24 2.69.05.92-.2 1.8-.66 2.63-1.13 4.73-2.68 9.21-5.71 13.27-9.36 3.32-2.99 6.78-5.82 10.15-8.76 1.92-1.68 3.89-3.32 5.65-5.16 13.66-14.31 27.62-28.36 40.17-43.7 6.27-7.66 12.65-15.22 18.97-22.83.61-.73 1.36-1.45 1.66-2.31.28-.81.45-2.16 0-2.65-1.57-1.7-1.42-3.34-.62-5.26.74-1.79.93-3.68.35-5.62-.39-1.32-2.62-2.65-3.81-2-1.38.75-2.93 1.49-3.86 2.66-2.8 3.54-6 6.56-9.77 9.05-1.58 1.04-2.81 2.59-4.28 3.82-7.82 6.56-15.63 13.13-22.69 20.53-1.31 1.37-2.94 2.44-4.47 3.59-4.92 3.7-8.97 8.18-11.75 13.69-1.76 3.48-4.25 6.3-6.91 9.09-9.98 10.46-17.84 22.48-25.27 34.79-1.66 2.75-2.83 5.72-3.05 9.43Zm-25.93-25.36c3.05-1.42 6.13-2.79 9.13-4.32.68-.35 1.09-1.21 1.59-1.88-4.48-.66-7.77 1.61-10.67 4.69-.26.28-.05 1.01-.05 1.52Zm-.47-.42.34.48s.05-.02.07-.03l-.41-.45Zm-9.66 4.94c.49.23 1 .65 1.48.63.5-.03.98-.49 1.46-.76.06-.29.22-.62.14-.87s-.39-.57-.62-.59c-.54-.04-1.21-.09-1.62.18-.41.27-.57.93-.84 1.41Zm-10.36 6.89c.17.22.51.5.73.47 2.22-.41 4.33-1.03 5.27-3.41-.08-.25-.09-.56-.24-.73-.2-.22-.52-.47-.78-.45-2.36.14-4.24 1.06-5.21 3.36-.08.2.07.57.23.78Zm-11.37 6.98c.04.14.55.21.85.22 2.8.07 4.59-1.71 6.23-3.51.13-.01.26-.03.37-.03-.21-.11-.42-.18-.63-.26-.34-.28-.51-.34-.49-.2-2.5-.81-4.66.03-6.47 2.15-.26.3 0 1.1.14 1.64Zm-525.05 56.57c-.47-.12-1.23.1-1.55.45-.33.36-.33 1.06-.37 1.62 0 .14.41.31.63.47.48-.37 1-.7 1.44-1.1.64-.59.6-1.25-.14-1.44Zm10.43-11.5-.49-.09.15.56.34-.47Zm6.94-7.51c-.09-.24-.15-.65-.29-.68-.27-.06-.65.02-.86.19-.68.57-.52.95.41.92.25 0 .49-.28.74-.42Zm350.35-23.06c.21-.13.41-.26.59-.41-.52-.17-.73-.04-.59.41Zm1.12-1.2c.03-.08-.16-.24-.25-.36.03.23.05.47.08.7.07-.11.13-.22.17-.33Zm7.46-6.22c-.71-.33-1.28-.83-1.69-.72-.5.14-.97.73-1.23 1.24-.21.41-.28 1.3-.07 1.43.42.25 1.28.38 1.57.12.6-.53.95-1.34 1.43-2.07Zm6.5-6.54c-.08-.25-.32-.59-.54-.63-.92-.19-1.75.11-2.05 1.02-.09.26.46 1.01.8 1.07 1.01.17 2.01-.73 1.79-1.46Zm6.32-5.49c-.26-.7-.43-1.23-.68-1.72-.03-.06-.56 0-.72.15-.63.59-1.24 1.21-1.78 1.88-.14.18-.11.62 0 .87.31.7.85.9 1.38.49.66-.52 1.24-1.14 1.8-1.67Zm6.29-6.64c-.11-.27-.27-.78-.32-.77-.54.11-1.22.15-1.56.5-.94.97-.78 2.2.13 2 .51-.11.99-.53 1.4-.89.21-.18.24-.56.35-.84Zm6.57-6.91c-.28-.29-1.25-.41-1.47-.18-.55.58-.87 1.38-1.19 2.13-.05.12.36.43.7.82.66-.41 1.46-.74 2-1.31.26-.27.23-1.19-.04-1.46Zm6.24-5.7c-.04-.26-.4-.48-.58-.68-.39.09-.71.13-1 .25-.91.4-1.48 1.05-1.21 2.11.07.27.37.67.6.7 1.15.11 2.39-1.18 2.19-2.37Zm93.44 51.86c-.09-.42-.86-.99-1.31-.97-1.57.05-3.27-.02-4.68.57-9.66 3.99-19.26 8.12-28.86 12.27-.5.21-.79.95-1.11 1.48-.12.2-.13.57-.02.76.16.25.46.52.74.57 2.44.41 4.19-1.22 6.08-2.26 3.67-2 7.35-3.75 12.1-3.2 2.61.64 5.15-.34 7.63-2.03 2.09-1.42 4.41-2.5 6.59-3.8.81-.48 1.59-1.06 2.23-1.74.38-.41.71-1.15.6-1.64Zm16.99-24.84c-.25.09-.35.61-.46 1.06.47-.05 1-.05 1.22-.31.41-.47-.05-1.01-.76-.75Zm139.33 22.29.05-.05c-.05 0-.1 0-.15.01-.02.06-.03.12-.05.18s.08-.04.13-.06c.02-.04.05-.08.07-.13l-.05.05ZM910.24 378.4c.02-.09.05-.17.07-.26-.09.03-.17.07-.26.1l.16.13-.17-.13c.02.07.02.14.04.2.05-.01.1-.04.15-.05Zm-48.15 113.09c-.09.09-.18.17-.27.26.16-.01.31-.03.47-.03l-.2-.23Zm393.64 73.05c.49 1.67-.27 3.06-1.03 4.45-3.52 6.45-7.93 12.33-12.03 18.4-4.65 6.88-9.55 13.58-14.31 20.39-.91 1.3-1.71 2.69-2.5 4.08-1.9 3.32-3.5 6.82-6.12 9.71-.84.93-1.54 2.1-1.96 3.28-1.68 4.68-4.91 8.15-8.44 11.45-2.8 2.62-5.36 5.49-8.18 8.08-2.89 2.65-6.2 4.47-10.36 4.22-1.25-.07-2.53.39-3.8.45-.94.05-2.04.13-2.81-.28-3.34-1.78-7.32-2.4-9.89-5.59-.99-1.23-2.22-2.32-3.48-3.27-2.63-1.97-4.76-4.26-5.56-7.55-3.67-4.53-4.1-9.81-3.8-15.37.21-3.84.42-7.64 1.23-11.41 1.8-8.41 4.43-16.65 5.42-25.23.04-.31.13-.63.26-.92 4.12-9.77 5.94-20.2 8.79-30.33.78-2.76 1.84-5.44 2.7-8.19.95-3.04 1.98-6.07 2.68-9.17 1.6-7.18 3.53-14.23 5.86-21.22 3.23-9.69 5.79-19.59 8.76-29.37 3.06-10.09 4.62-20.55 7.75-30.62.17-.54-.09-1.23-.25-1.83-.07-.25-.35-.5-.59-.63-.27-.15-.62-.26-.92-.22-.28.04-.59.23-.78.46-7.35 8.83-14.89 17.52-21.06 27.26-1.54 2.43-3.22 4.78-4.59 7.3-2.14 3.97-4.88 7.41-7.81 10.83-3.71 4.33-7.5 8.73-9.62 14.22-.7 1.82-1.9 3.42-3.61 4.36-2.4 1.32-3.75 3.49-4.93 5.72-2.4 4.55-5.14 8.82-8.55 12.68-1.26 1.43-2.25 3.1-3.28 4.72-2.24 3.5-4.2 7.2-6.69 10.5-2.5 3.31-4.06 7.18-6.87 10.33-2.34 2.63-3.3 6.17-4.14 9.6-.54 2.22-1.37 4.22-2.94 5.93-5.69 6.19-9.46 13.65-13.29 21-2.24 4.3-4.55 8.43-8.1 11.72-1.99 1.84-3.17 3.93-3.35 6.64-.17 2.61-1.25 4.91-2.44 7.2-1.47 2.83-2.87 5.72-4.04 8.69-1.56 3.96-3.84 7.46-7.04 10.13-2.35 1.95-3.81 4.27-4.73 7.01-1.4 4.22-2.99 8.39-4.37 12.62-1.16 3.54-1.1 7.7-4.23 10.48-1.42 3.54-2.8 7.06-4.7 10.43-2.48 4.39-4.83 8.92-5.77 14.07-.81 4.41-2.77 8.49-5.41 12.17-1.52 2.12-2.44 4.43-3.06 6.96-.83 3.4-1.89 6.75-2.87 10.12-.27.92-.41 1.93-.91 2.71-3.88 6.1-4.47 13.24-6.35 19.96-.52 1.84-.69 3.82-1.42 5.56-2.86 6.8-4.53 13.97-6.72 20.97-1.62 5.17-3.57 10.24-4.25 15.68-.19 1.54-.83 3.13-1.62 4.49-3.23 5.56-4.64 11.85-7.29 17.64-1.85 4.04-3.07 8.34-5.68 12.08-1.23 1.76-1.57 4.14-2.27 6.25-1.91 5.76-3.65 11.56-7.15 16.66-3.07 4.47-3.76 9.36-1.97 14.59.68 1.99.46 2.69-.85 3.11-4.49 1.42-6.85 4.35-7.21 9.05-.07.87-.74 1.73-1.23 2.54-.75 1.25-2.8 2.17-4.13 1.82-1.23-.32-2.57-.56-3.6-1.23-2.4-1.56-4.67-3.34-6.94-5.09-1.09-.84-1.56-2.11-1.27-3.41.84-3.73 1.87-7.41 2.75-11.12.31-1.31 1.04-2.26 1.94-3.2.87-.92 1.55-2.02 2.31-3.03l-.2.18s0-.01.01-.02c.02-.09.04-.19.07-.28.03.02.05.05.08.08 1.22-1.74 2.5-3.43 3.61-5.24 1.52-2.46 2.45-5.07 2.12-8.11-.27-2.47-.05-4.99-.05-7.51-.71.1-1.32.22-1.93.27-1.16.09-1.88-.51-1.79-1.44.09-.94.1-1.89.28-2.81.79-4.04 1.71-8.05 2.41-12.11.4-2.29 1.58-3.95 3.29-5.34.09-2.19-.13-4.44.35-6.55 2.03-9.03 4.12-18.04 6.48-26.99 2.03-7.7 4.5-15.29 6.69-22.94.79-2.75 1.33-5.57 2.01-8.36.83-3.41 1.24-7.01 2.61-10.18 2.44-5.65 3.36-11.62 4.74-17.51 1.23-5.28 2.58-10.53 4-15.76.41-1.52 1.19-2.95 1.94-4.35.2-.38.88-.56 1.37-.7.11-.03.49.43.55.71.25 1.25.4 2.52.67 3.76.04.19.56.45.81.4.56-.11 1.13-.33 1.61-.63.21-.13.29-.58.29-.89-.07-6.19 1.69-11.9 4.33-17.44 1.65-3.45 3.05-7.03 4.4-10.61.55-1.46 1.16-3.16.91-4.6-.76-4.35 1.64-8.09 1.9-12.22.27-4.27 2.24-7.94 4.42-11.51.33-.54.68-1.11.85-1.71.34-1.22.66-2.46.84-3.71.57-4.06 2.3-7.96 1.91-12.17-.83-.06-1.42-.11-2-.16-1.39-.11-1.98-.55-1.82-1.46.33-1.87.45-3.84 1.13-5.59 2.05-5.25 4.13-10.49 6.4-15.67-.03.03-.07.06-.1.1 2.06-11.12 3.62-16.85 7.9-28.39.43-1.16 1.26-2.18 1.94-3.24.16-.25.68-.58.73-.54.38.34.96.76.97 1.17.11 3.61-1.59 6.77-2.55 10.12-.09.33.48.88.82 1.27.04.05.65-.21.79-.45.95-1.64 2.33-3.22 2.67-5 1.03-5.35 2.71-10.48 4.46-15.6.2-.6.2-1.26.33-1.88.34-1.7.19-1.92-2.44-2.98-.19-.86-.33-1.74-.64-2.56-.31-.85-2.04-1.07-2.4-.29-1.02 2.24-3.54 3.56-3.7 6.37-.05.81-.85 2.1-1.52 2.27-3.82.93-4.71 3.93-5.49 7.1-.08.31-.14.63-.23.93-.39 1.36-1.44 2.01-2.64 2.53-2.34 1.03-2.15 2.84-1.47 4.81.1.29.01.64.02.96-1.11 1.92-2.24 3.82-3.31 5.75-.8 1.44-1.8 2.62-3.41 3.17-3.58 1.23-5.71 3.97-7.31 7.2-1.27 2.57-2.46 5.17-3.71 7.83.14.52.16 1.21.48 1.72 1.18 1.86.85 3.62-.07 5.43-.94 1.84-2.31 3.03-4.47 3.05-1.48.02-2.48.82-2.64 2.21-.23 1.98-.82 3.63-2.3 5.07-1.59 1.55-2.92 3.37-4.4 5.03-2.62 2.94-4.74 5.98-3.94 10.31.21 1.12-.42 2.53-.99 3.64-1.01 1.99-2.38 3.8-3.41 5.78-2.23 4.27-6.9 6.72-8.4 11.54-1.35 4.35-4.44 7.74-6.7 11.59-1.61 2.75-3.22 5.5-5.62 7.73-.88.82-1.5 2.08-1.85 3.25-1.4 4.7-3.79 8.71-7.24 12.21-1.77 1.8-3.09 4.06-4.53 6.16-1.99 2.9-3.8 5.93-5.9 8.75-3.08 4.12-5.72 8.45-7.53 13.29-.55 1.47-1.42 2.86-2.34 4.14a226 226 0 0 1-6.32 8.44c-2.76 3.51-5.8 6.8-7.32 11.14-.3.85-1.02 1.66-1.74 2.23-2.35 1.85-3.77 4.38-4.97 6.97-1.81 3.9-4.58 6.94-7.88 9.5-3.54 2.73-7.18 5.33-10.9 7.81a9.259 9.259 0 0 1-6.41 1.49c-3.17-.4-6.35-.72-9.52-1.15-4.23-.58-7.99-2.16-10.99-5.32-2.2-2.32-4.39-4.65-6.69-6.88-4.77-4.63-6.53-10.87-9-16.72-.48-1.13-.38-2.51-.5-3.78-.18-1.91-.08-3.88-.51-5.72-1.33-5.72-.56-11.44-.19-17.16.19-2.86.46-5.72.64-8.59.2-3.17-.34-6.43 1.22-9.42.18-8.07 2.86-15.66 4.61-23.42.78-3.43 1.44-6.89 2.4-10.26 2.97-10.45 6.05-20.87 9.1-31.29.36-1.23.74-2.45 1.2-3.64 4.86-12.51 8.48-25.43 12.63-38.17 1.18-3.64 2.7-7.16 4.01-10.76.65-1.79 1.18-3.63 1.73-5.46 2.31-7.65 4.76-15.24 7.8-22.65 2.06-5.01 3.76-10.18 5.37-15.36 1.62-5.19 3.35-10.31 5.54-15.31 1.92-4.38 3.36-8.97 4.92-13.5 1.57-4.52 3.06-9.07 4.5-13.64.15-.49-.14-1.3-.51-1.72-.34-.39-1.13-.78-1.57-.65-6.73 2.02-13.43 4.12-19.62 7.56-1.38.77-2.85 1.53-4.37 1.87-4.41.98-8.46 2.77-12.48 4.78-4.83 2.41-9.68 4.81-14.97 6.16-1.23.31-2.55.65-3.57 1.36-3.97 2.74-8.53 4.2-12.78 6.32-4.57 2.27-9.46 3.74-13.9 6.34-4.11 2.41-8.69 4.01-13.01 6.07-2.01.96-4.1 1.93-5.82 3.31-6.81 5.44-14.79 8.78-22.37 12.85-1.43.77-3.13.24-4.22-1.21-1.35-1.79-2.67-3.59-3.97-5.41-1.57-2.2-2.05-4.83-1.73-7.32.64-4.92 2.94-9.26 6.96-12.16 5.44-3.92 11.34-7.14 17.42-9.99 6.92-3.25 14.19-5.78 20.61-10.06 4.97-1.65 9.46-4.72 14.86-5.1-2.17 2.13-4.99 3.34-7.49 4.96-2.64 1.72-5.75 2.72-8.7 3.93-1.19.48-2.41.8-3.07 2.03-.15.27-.39.62-.32.85.08.25.53.62.71.57 4.26-1.2 8.32-2.88 12.26-4.91 1.41-.73 2.78-1.68 4.29-2.05 9.36-2.28 17.63-7.47 26.92-9.92 1.81-.48 3.37-2.03 5.18-2.41 4.18-.88 7.33-3.87 11.34-5.05 3.96-1.16 8.03-2.14 11.5-4.59.25-.18.58-.31.89-.35 6.76-.83 12.67-4.26 19.06-6.25 3.91-1.22 7.59-3.22 11.34-4.93 1.1-.5 1.1-2.16.12-3.99-3.86 1.09-7.37 3.94-12.54 2.45 2.65-1.08 4.63-1.87 6.59-2.7 2.04-.87 4.04-1.85 6.1-2.68 3.47-1.41 5.71-3.88 7.02-7.39 1.33-3.58 1.78-7.49 3.99-10.74 3.34-9.67 8.4-18.56 12.59-27.84.66-1.45 1.37-2.91 1.8-4.43 1.31-4.69 3.78-8.77 6.33-12.83 1.35-2.15 2.81-4.3 3.78-6.63 2.84-6.79 6.66-13.04 10.24-19.42 3.44-6.12 7.06-12.13 10.6-18.19.48-.83 1.18-1.61 1.39-2.5 1.3-5.64 5.74-9.07 9.17-13.2 2.24-2.7 7.5-1.53 9.43.81.57.69.98 1.69 1.03 2.57.15 2.54.23 5.11.03 7.65-.12 1.55-.49 3.26-1.31 4.54-4.47 7.04-7.24 14.9-10.7 22.41-2.68 5.81-5.99 11.24-8.75 16.99-3.72 7.77-7.47 15.53-11.56 23.1-3.96 7.33-6.8 15.09-9.64 22.87-1.09 3-2.33 5.94-3.47 8.92-.62 1.62.72 3.02 2.62 2.78 2.55-.32 4.96-.95 7.26-2.23 4.23-2.36 8.9-3.51 13.66-4.18 1.43-.2 2.92.01 4.38.09-.6.56-1.17 1.18-1.86 1.55-5.09 2.72-10.59 4.31-16.17 5.64-3.41.81-6.84 1.5-10.24 2.36-.88.22-1.68.83-2.47 1.33-1 .62-1.46 2.57-.86 3.3.72.88 1.76.92 2.61.62 2.7-.95 5.27-2.3 8-3.09 5.2-1.5 10.45-2.91 15.75-4.01 7.2-1.49 14.27-3.31 21.11-6.04 1.77-.7 3.61-1.26 5.47-1.67 15.24-3.41 30.49-6.75 45.73-10.19 1.82-.41 3.56-1.22 5.32-1.9.2-.08.35-.59.3-.86-.04-.21-.38-.48-.64-.54-4.16-1.02-8.22.01-12.23.87-8.73 1.86-17.41 3.92-26.1 5.95-2.67.63-5.33 1.17-8.07.74.61-.6 1.16-1.37 1.89-1.65 9.85-3.75 19.86-7.04 30.26-8.95.94-.17 1.94-.45 2.84-.27 5.54 1.08 10.76-.42 16.02-1.74.62-.15 1.24-.3 1.87-.38 2.35-.31 4.56.27 6.25 1.83 2.1 1.94 4.03 4.09 5.84 6.3 1.61 1.96 2.94 4.16 4.44 6.22 1.04 1.43 2.83 1.14 3.8-.58.62-1.11 1.28-2.21 1.76-3.38 2.55-6.21 5.57-12.18 8.65-18.15 4.39-8.5 8.97-16.94 11.99-26.09.59-1.8 1.66-3.45 2.61-5.12 5.2-9.17 9.55-18.78 14.37-28.14 1.02-1.99 1.86-4.09 3.06-5.96 4.51-7.01 8.07-14.51 11.82-21.93 2.31-4.56 4.53-9.19 7.22-13.52 8.61-13.86 15.93-28.42 23.68-42.75 2.42-4.47 4.27-9.26 7.9-13.01.87-.9 1.49-2.09 2.05-3.23 3.75-7.65 9.76-13.32 16-18.87 5.81-5.16 12.77-6.94 20.18-7.62 1.9-.17 3.83-.07 5.75-.09 4.9-.06 9.29 1.39 13.73 3.54 5.61 2.7 8.94 7.12 11.45 12.4 1.69 3.56 2.15 7.27.47 11.12-2.55 5.84-4.54 11.93-8.25 17.24-2.19 3.14-3.95 6.58-6.06 9.77-1.76 2.65-3.76 5.14-5.66 7.7-1.15 1.54-2.35 3.03-3.46 4.59-4.64 6.51-9.25 13.03-13.87 19.55-.92 1.3-2.2 2.51-2.64 3.97-1.86 6.06-6.18 10.39-10.26 14.85-3.87 4.24-7.9 8.27-11.11 13.12-2.08 3.15-5.09 5.72-7.85 8.38-4.62 4.45-8.93 9.1-12.58 14.42-2.15 3.13-4.98 5.81-7.58 8.62-1.3 1.4-2.83 2.59-4.19 3.94-3.3 3.3-5.47 6.92-4.22 11.95.5 2.02-.97 3.68-2.98 4.31-1.21.38-2.47.61-3.71.91-.92.22-1.84.44-2.67.64-2.01 3.02-4.38 5.64-5.41 9.11-.24.8-1.11 1.81-1.87 2-2.8.69-4.14 2.8-5.56 4.95-3.18 4.8-6.4 9.57-9.6 14.35-2.31 3.45-4.79 6.76-7.4 10.01-4.8 5.98-8.79 12.52-11.74 19.67-1.82 4.43-4.34 8.61-5.77 13.15-2.59 8.25-6.63 15.89-9.57 23.97-.55 1.5-.85 3.25-1.85 4.39-2.63 2.99-3.43 6.8-5.13 10.21-2.16 4.35-3.63 8.86-3.65 13.78 0 1.96-.53 3.75-1.74 5.37-1.97 2.61-2.93 5.68-3.57 8.83-.97 4.75-2.33 9.23-5.55 13.06-1.85 2.21-2.77 5.05-3.17 7.94-.61 4.47-1.84 8.73-3.81 12.8-.68 1.42-1.15 2.99-1.44 4.54-.94 5.05-2.56 9.91-4.38 14.66-1.95 5.08-3.43 10.29-5.18 15.42-2.05 6.03-4.25 12.01-6.38 18.01-.86 2.41-1.88 4.75-2.23 7.28-1.11 7.97-4.15 15.38-6.69 22.93-.3.89-.66 1.92-1.33 2.47-.83.68-1.4 1.15-.95 2.29 1.13 2.9.27 5.77-.67 8.43-1.7 4.81-2.87 9.83-5.41 14.33-1.15 2.04-1.46 4.23-1 6.49.09.44.78 1.01 1.24 1.05.54.05 1.41-.26 1.64-.68 1.4-2.49 2.62-5.08 4-7.58.18-.32.94-.36 1.45-.42.09 0 .42.6.35.83-1.4 4.23-3.12 8.33-4.42 12.61-.98 3.24-3.36 6.03-4.76 9.23-.47 1.06-1.65.43-2.54.51-.35.03-.96.85-.89 1.19.24 1.22 1.22 2.46 1.03 3.55-.47 2.82-.91 5.83-2.25 8.28-2.97 5.42-4.21 11.34-5.93 17.15-.63 2.14-1.64 4.16-2.45 6.24-1.49 3.82-2.58 7.72-2.48 11.88.55-.05 1.24-.03 1.41-.31.98-1.63 1.89-3.33 2.61-5.09.96-2.36 1.33-5.05 2.65-7.18 4.97-8.01 6.49-17.28 9.9-25.85 2.6-6.52 5.08-13.09 7.74-19.59 1.33-3.25 2.32-6.63 3.62-9.86 2.5-6.21 5.45-12.26 8.46-18.25 2.31-4.58 4.53-9.18 6.04-14.08 1.32-4.31 2.98-8.4 5.74-12.04 1.93-2.55 3.21-5.47 4.41-8.47 1.65-4.12 3.81-8.03 5.77-12.03 2.24-4.59 4.38-9.24 6.79-13.74 1.96-3.65 4.04-7.28 6.47-10.63 2.64-3.65 5.08-7.4 6.79-11.53 1.49-3.58 3.39-6.87 5.44-10.11 1.54-2.43 3.15-4.83 4.49-7.37 7.92-15.02 17.73-28.86 27.06-42.99 2.46-3.73 4.88-7.5 7.22-11.3.24-.39-.02-1.22-.29-1.71-.09-.17-1.11-.1-1.41.18-.94.85-1.9 1.76-2.58 2.81-7.47 11.53-16.29 22.17-22.6 34.46-.72 1.41-1.77 2.66-2.63 4-3.95 6.16-8.68 11.79-11.79 18.53-1.72 3.74-4.71 6.87-6.57 10.56-3.03 5.99-6.02 11.98-9.93 17.47-.54.76-1.08 1.68-1.18 2.57-.41 3.69-2.47 6.54-4.57 9.36-2.3 3.1-4.04 6.5-5.7 9.97-4.01 8.34-7.98 16.7-12.11 24.99-4.7 9.44-9 19.06-12.61 28.97-.3.82-1.16 1.45-1.81 2.12-.17.17-.58.29-.77.2-.26-.13-.57-.49-.56-.74.03-.93-.05-1.96.31-2.77 3.87-8.76 7.8-17.49 11.75-26.22 1.7-3.77 3.4-7.55 5.2-11.27 4.17-8.62 8.41-17.21 12.61-25.81.56-1.15.94-2.41 1.65-3.45 5.8-8.47 9.52-18.07 14.81-26.81 3.14-5.2 6.01-10.53 8.76-15.96 5.07-10 11.5-19.19 17.68-28.51 2.82-4.26 6-8.28 8.97-12.44 1.67-2.34 3.29-4.72 4.87-7.12 3.86-5.88 7.67-11.79 11.52-17.68 1.05-1.6 2.05-3.27 3.3-4.71 5.05-5.82 9.11-12.34 13.17-18.84 1.7-2.72 3.31-5.44 5.62-7.73 1.11-1.1 1.96-2.5 2.82-3.83 4.85-7.52 9.86-14.93 15.42-21.97 2.95-3.73 5.15-8.06 7.57-12.2 2.96-5.06 6.58-9.44 11.97-12.06.56-.27 1.2-.39 1.58-.52 1.92.75 3.67 1.43 5.42 2.11 5.05-1.63 7.82 1.32 9.89 5.18 1.04 1.93 1.66 4.13 2.2 6.27.54 2.16.51 4.47 1.12 6.6 1.78 6.33 1.48 12.71.12 18.96-2.84 13.06-4.88 26.3-9.41 39-2.68 7.49-4.09 15.43-6.28 23.1-1.31 4.6-2.82 9.17-4.63 13.59-1.58 3.85-3.07 7.66-4.08 11.73-1.61 6.51-3.48 12.97-5.63 19.32-2.46 7.28-4.34 14.71-6.16 22.16-1.44 5.89-2.39 11.9-4.65 17.58-.58 1.46-.69 3.11-1.04 4.67-1.17 5.3-2.39 10.58-3.47 15.9-.24 1.19-.16 2.53.08 3.73.45 2.17 2.48 3.32 4.3 2.42 2.27-1.13 4.7-2.16 6.6-3.77 5.12-4.33 10.31-8.64 14.19-14.22.55-.79 1.12-1.56 1.77-2.26 7.84-8.44 15.34-17.16 22.52-26.17 1.04-1.3 2.4-1.75 3.92-.84-2.72 3.81-5.34 7.69-8.2 11.39-3.84 4.98-7.83 9.86-11.84 14.71-1.4 1.69-1.29 3.36-.49 5.13.38-.83.61-1.8 1.19-2.45 2.55-2.82 5.25-5.5 7.82-8.3 2.35-2.56 4.63-5.2 6.91-7.82.83-.96 1.38-2.31 2.39-2.92 3.73-2.23 5.53-5.92 7.89-9.29 3.63-5.18 7.76-10 11.72-14.94.78-.97 1.77-1.77 3.18-1.64Zm-1.11-305.53c.14.06.45-.28.69-.43l-.45-1.52c-.22.18-.49.32-.64.54-.38.59-.25 1.13.39 1.41Zm-24.76 41.67c.02-.07.04-.13.05-.2a.36.36 0 0 0-.11.02l.06.18Zm.73-3.2c.05-.62-.16-1.26-.32-1.9-1.47 1.46-.88 3.09-.31 4.69.25-.93.54-1.85.63-2.79Zm2.19-3.79c-.01-.23-.2-.53-.39-.63-.21-.11-.69-.11-.77.01-.44.72-.8 1.48-1.15 2.27.42.22.86.51 1.18.41.92-.27 1.18-1.15 1.13-2.06Zm7.47-11.26c-.49.16-1.07.26-1.29.6-.22.34-.06 1.13.22 1.51.31.42.95.12 1.14-.64.11-.45 0-.96-.06-1.46Zm4.81-7.55c-.03-.05-.61.09-.8.27-1.97 1.97-3.79 4.04-3.81 7.05.26.02.53.05.71-.06 2.19-1.37 3.66-3.37 4.55-5.74.14-.38-.37-1.03-.65-1.52Zm-85.04 93.88c-.06.24.2.62.42.83.14.14.54.22.7.12.8-.5 1.74-.93 2.29-1.65 4.52-5.8 9.61-11.1 14.67-16.42 2.64-2.78 5.16-5.68 7.7-8.55 6.55-7.42 13.34-14.62 19.32-22.54 4.61-6.11 9.79-11.78 14.39-17.89 4.22-5.61 9.12-10.7 12.76-16.78 5.26-8.78 10.76-17.41 16.1-26.13 2.73-4.47 3.82-9.44 4.17-14.43-.2-3.8-1.15-7.09-3.97-9.63-1.79-1.61-5.74-2.03-7.04-.26-2.92 3.97-6.98 6.52-10.8 9.38-4.39 3.29-8.19 7.15-11.29 11.66-1.99 2.9-4.03 5.79-5.74 8.85-6.05 10.86-12.95 21.26-18.11 32.62-6.22 8.94-9.29 19.62-15.66 28.49-.37.51-.64 1.12-.83 1.72-2.63 8.27-6.96 15.75-10.9 23.41-2.34 4.55-4.81 9.03-7.13 13.59-.56 1.1-.77 2.39-1.06 3.62Zm-13.29 27.44c.04.26.33.48.51.72.2-.22.51-.42.57-.68.07-.26-.05-.6-.19-.85-.05-.09-.4-.01-.62-.01-.1.26-.31.57-.27.83Zm-29.95 23.02c.15-.04.2-.44.29-.67-.12-.22-.24-.43-.37-.65-.18.13-.48.24-.52.4-.16.69.09 1.06.6.91Zm-2.46 5.36c-.38.26-.48.92-.66 1.46.54.2 1.04.09 1.26-.46.31-.77-.11-1.33-.59-1Zm-1.3 2.13c.44.21.58.05.45-.43-.15.14-.3.29-.45.43Zm-2.75 7.21c.04.28.28.53.43.8.21-.22.51-.41.59-.68.08-.25 0-.61-.13-.85-.06-.11-.42-.07-.64-.09-.09.28-.28.56-.25.82Zm-39.28 121.99c-.18-.21-.36-.41-.54-.62-.2.19-.55.37-.56.56-.01.2.32.41.5.62.2-.19.4-.37.6-.56Zm5.31-33.4c-.39-.43-.69-1.04-1.18-1.26-.7-.33-1.26.03-1.42.71-1.46 6.15-3.78 11.98-6.44 17.7-.78 1.68-1.14 3.57-1.61 5.38-.3 1.16.18 2.44.77 2.33.56-.1 1.15-.35 1.6-.69 1.56-1.15 2.94-2.44 2.38-4.69-.47-1.9-.2-3.69.58-5.51 1.74-4.03 3.37-8.12 5.01-12.2.22-.55.22-1.18.32-1.78Zm7.14-2.77c-.15-.2-.28-.54-.47-.57-.68-.13-1.1.21-1.09.88 0 .24.25.48.38.72.4-.34.79-.68 1.18-1.03Zm5-12.34c-.37-.73-.84-.68-1.15.14-.08.2.06.59.23.74.12.11.47-.03.71-.06.08-.28.3-.63.21-.82Zm3.64-28.29c0-.09-.42-.21-.64-.32-.11.26-.3.53-.3.79 0 .11.39.22.61.33.12-.27.31-.53.33-.8Zm-16.56-44.18c-.02.07.48.48.69.44.76-.13.99-.64.64-1.33-.13-.24-.41-.4-.63-.6-.24.49-.52.97-.7 1.48Zm-5.37 1.5c0 .06.32.13.49.2.06-.21.16-.43.14-.64 0-.09-.29-.15-.44-.22-.07.22-.19.44-.19.66Zm-23.89 4.94c-.01.16.46.51.72.52 4.05.11 7.92-.62 11.53-2.51.23-.12.42-.52.42-.8 0-.17-.34-.44-.57-.51-.57-.18-1.17-.28-1.91-.45-3.19.67-6.71.51-9.78 2.27-.33.19-.38.97-.41 1.48Zm-11.47 5.13c-.07.14.22.59.45.74.59.4 1.05.16 1.3-.6-.25-.5-.51-.99-.76-1.49-.34.44-.74.86-.99 1.35Zm-18.48 5.53c2.02.97 4.06 1.21 6.01-.09.39-.26.51-1 .63-1.54.03-.13-.41-.46-.68-.54-1.82-.54-3.59-.37-5.16.69-.41.28-.54.97-.8 1.48Zm-90.1 78.51c.13.14.44.1.68.15 1.35-.94 2.2-2.19 1.96-3.88-.05-.33-.85-.89-1.16-.81-2.24.62-2.38 3.56-1.48 4.54Zm-4.27 9.55c-.02.49.45 1 .7 1.5.28-.49.57-.98.85-1.48-.25-.5-.5-1-.74-1.5-.29.49-.79.97-.81 1.48Zm-7.48 23.66c.1.53.36 1.02.55 1.53.22-.19.43-.38.54-.47.34-.82.17-1.35-.5-1.61-.12-.05-.62.4-.59.55Zm-4.13 10.17c.02.28.22.6.43.81.13.13.55.21.62.13 1.22-1.4 2.69-2.7 2.16-4.87-.23-.25-.51-.72-.65-.68-1.47.42-2.68 2.6-2.57 4.61Zm-3.66 10.3c.07.49.54.93.83 1.39.26-.18.61-.3.76-.54.64-1.05 1.22-2.13 1.76-3.1-.51-.68-.8-1.14-1.18-1.49-.08-.07-.57.22-.8.42-1.01.87-1.57 1.99-1.38 3.32Zm-3.84 13.54c.04.29.31.54.47.81.25-.1.62-.14.72-.32.73-1.38 1.49-2.76 2.04-4.22.17-.45-.32-1.14-.51-1.71-.45.34-1.01.6-1.34 1.03-.98 1.29-1.63 2.74-1.39 4.42Zm-7.91 25c0 .27.24.61.47.78.15.11.66.05.71-.07 1.18-2.54 2.31-5.11 3.46-7.69 0-.56-.02-1.11-.02-1.67l-.06 1.75c-.59.03-1.45-.19-1.74.12-1.78 1.88-2.88 4.12-2.82 6.79Zm-6.34 24.46c.08.06.61-.25.74-.5 2.64-4.72 2.9-10.25 5.13-15.12.23-.5-.03-1.21-.06-1.83-.17-.27-.28-.61-.52-.77-.11-.08-.5.16-.7.32-1.33 1.06-1.54 2.66-2.02 4.15-1.06 3.29-2.27 6.54-3.32 9.83-.28.87-.32 1.86-.25 2.78.03.41.6.82 1 1.13Zm58.37 69.29c-.26.09-.56.13-.75.3-.18.16-.25.46-.36.7.5.11.99.26 1.5.29.18 0 .5-.28.54-.49.13-.58-.23-.86-.92-.8Zm4.06-3.18c-.2-.18-.37-.42-.6-.52-.63-.27-1.11-.05-1.26.61-.03.16.39.6.49.57.48-.16.93-.43 1.38-.66Zm4.97-19.46c-.47-.22-.95-.44-1.42-.66.13.75.25 1.5 1.42.66Zm106.74-152.7c-.49.2-1.2.27-1.43.63-.44.71-.63 1.59-.84 2.42-.03.11.42.34.82.65.57-.67 1.28-1.28 1.67-2.05.21-.4-.13-1.09-.22-1.65Zm10.26-27.69c2.26-3.05 3.79-6.65 5.58-10.04.28-.52.24-1.24.24-1.87 0-.29-.19-.63-.4-.84-.14-.15-.52-.22-.7-.14-.57.26-1.11.61-1.65.93-.53.31-1.03.67-1.58.91-.19.08-.59-.05-.74-.22-.2-.22-.38-.59-.35-.87.24-1.99 1.39-3.52 2.68-4.95 1.37-1.53 3.78-.3 5.17-2 1.78-2.16-1.07-4.26.09-6.37.31-.56.52-1.16.81-1.73 1.02-1.99 1.93-4.05 3.11-5.95 6.6-10.69 10.71-22.46 14.89-34.2.4-1.13.31-2.43.5-4.04-2.85-.04-5.38-.2-7.89-.09-8.98.4-17.8 1.61-25.82 6.08-2.03 1.13-4.15 1.81-6.41 1.61-4.54-.39-9.01.44-13.23 1.67-5.57 1.62-11.23 2.43-16.87 3.51-4.39.84-8.76 1.82-13.1 2.91-2.16.54-4.5 1.05-6.27 2.28-3.82 2.67-8.14 3.62-12.52 4.5-4.4.88-8.62 2.24-12.86 3.72-5.39 1.87-10.75 4.12-16.59 4.37-1.67.07-3.03.88-4.27 1.96-2.21 1.92-3.99 4.05-4.74 7.03-.62 2.47-1.31 5.01-2.49 7.23-2.87 5.39-4.78 11.15-7.12 16.75-2.11 5.03-3.39 10.31-5.33 15.35-3.55 9.24-7 18.51-10.52 27.75-2.5 6.56-4.49 13.33-7.68 19.61-3.36 6.63-4.38 14-6.68 20.96-.3.91-.49 1.86-.82 2.76-2.9 8.08-6.71 15.87-7.59 24.6-.19 1.85-1.21 3.63-1.93 5.4-.97 2.38-1.81 4.76-2.02 7.36-.13 1.57-.38 3.24-1.03 4.65-2.97 6.45-4.36 13.23-5.4 20.24-.93 6.29-2.8 12.48-4.65 18.59-1.95 6.43-1.67 13.34-4.44 19.57-.38.85-.43 1.86-.55 2.81-.81 6.66-1.63 13.32-2.39 19.99q-1.48 13.07.06 24.72c.08.63.1 1.28.24 1.9.63 2.8 1.2 5.63 1.98 8.39.75 2.67 3.39 3.8 6.04 2.98 7.5-2.34 13.94-6.32 19.31-12.05 1.53-1.63 3.02-3.3 4.58-4.91 1.11-1.14 2.3-2.22 3.47-3.3 1.5-1.39 1.85-1.37 3.46.85.68.94 1.41 1.21 2.39.85.58-.21 1.16-.56 1.58-1.01.86-.92 1.54-1.93 2.95-2.23 4.28-.91 5.88-4.53 7.6-7.94.19-.37-.12-1.34-.5-1.6-2.78-1.93-1.37-5.4-2.91-7.79-.26-.4-.02-1.28.25-1.8s.8-1.07 1.34-1.24c.45-.14 1.1.18 1.59.44.21.11.21.58.36.86.49.91 1.25 1.44 2.24.93.51-.26.98-.85 1.2-1.4.5-1.22.33-2.38-.34-3.62-1.31-2.42-1.07-2.34.26-3.86 1.74-1.98 3.88-3.15 6.23-4.14.98-.41 1.38-1.68.8-2.41-1.63-2.03-.22-3.34.73-4.79-.02 0-.03-.01-.05-.02.11-.3.22-.59.33-.89 1.38-3.81 1.42-3.76 5.84-3.26.75.08 1.26-.53 1.06-1.2-.26-.86-.76-1.63-1.14-2.45-.51-1.1-.34-1.39 1.12-1.93.56-.21 1.15-.36 1.74-.53-1.53-1.44-2.09-3.02-.62-4.82.79-.97 1.53-2.04 2.5-2.8.77-.6 1.73-.37 2.22.68.46.99 1.35 1.55 2.08.68 1.41-1.69 2.41-3.7 3.78-5.43 4.35-5.46 7.16-11.63 8.78-18.38h-.05c.04-.08.07-.15.11-.23l.04.16c.01.32-.07.86.06.92.46.21.99.32 1.49.31.26 0 .59-.3.75-.55 3.93-5.83 7.94-11.6 11.73-17.52 5.34-8.35 10.52-16.8 15.75-25.22.84-1.36 1.83-2.69 2.33-4.17 1.35-4.01 3.92-7.28 6.11-10.79 1.18-1.9 2.56-3.71 3.48-5.73 2.69-5.85 6.47-11.02 9.97-16.36 1.56-2.39 3.92-4.27 5.34-6.73 6.7-11.63 15.16-22.19 20.92-34.38.4-.86.91-1.71 1.54-2.41 4.53-5.02 7.41-11.18 11.41-16.58Zm-12.38 68.45c0 .41.57.81 1.08 1.46.56-.65 1.24-1.18 1.55-1.88.16-.37-.15-1.22-.52-1.49-.78-.59-2.12.57-2.11 1.91Zm-2.03 7.75c-.04.16.36.42.56.64.22-.51.44-1.02.64-1.46-.21-.24-.41-.45-.6-.67-.21.5-.48.98-.59 1.5Zm-9.85 35.34c-.37-.53-.5-.94-.74-1.01-.24-.08-.79.11-.84.29-.37 1.18-.72 2.38-.88 3.61-.04.29.66.73 1.09 1 .09.06.6-.26.66-.47.3-1.2.52-2.43.72-3.42Zm2.75-34.93c.18.04.42.16.51.09.09-.08.17-.17.23-.28-.25.06-.5.13-.75.19Zm-5.13 7.65c.12.56.16 1.17.39 1.7.23.52.6 1.06 1.05 1.36.61.41 2-.27 2.18-1.14.24-1.18.32-2.4.28-3.6 0-.22-1.16-.72-1.4-.55-.91.64-1.69 1.46-2.51 2.24Zm-2.81 17.99c.43-.29.86-.57 1.29-.86-.73-.4-1.44-.74-1.29.86Zm-2.37 31.12c-.03.14.33.38.51.57.23-.45.45-.91.67-1.36l-.61-.52c-.2.43-.46.85-.58 1.31Zm-8.05 26.51c.08.29.25.56.43.81.35.49 1.06.44 1.29-.34 1.5-5.13 3.93-10 4.34-15.11.47-1.82.89-3.33 1.23-4.86.05-.24-.18-.57-.34-.82-.35-.54-.9-.45-1.26.37-2.63 6.11-3.89 12.64-5.72 19-.08.29-.05.64.03.94Zm-2.62 30.95c-.1-.2-.2-.4-.29-.61-.13.17-.35.34-.36.52-.01.2.17.42.26.63.13-.18.26-.36.39-.55Zm-.68-18.76c-.04.16.3.41.46.62l.66-1.35c-.18-.2-.36-.39-.54-.59-.2.44-.47.86-.58 1.32Zm-3.8 15.91c.26.84.92.86 1.23.04.16-.41-.15-1.02-.31-1.52-.02-.06-.56-.07-.58 0-.17.46-.48 1.05-.34 1.47Zm-33.78 101.57c0-.57-.74-.67-1.35-.16-.66.55-1.26 1.18-1.88 1.78-.48 1.26.17 2.32.66 3.41.09.21.48.5.59.45.55-.25 1.41-.53 1.5-.94.32-1.48.46-3.02.48-4.53Zm1.76-11.35c-.11-.06-.57.16-.58.28-.06.78-.07 1.57-.02 2.35 0 .1.41.19.63.28.18-.22.45-.41.53-.66.26-.85.37-1.7-.56-2.25Zm5.78 10.62c0-.09-.36-.18-.56-.27-.08.27-.23.53-.22.8 0 .09.37.18.57.26.08-.27.22-.53.22-.79Zm4.94-45.69c1.91-2.95 1.45-6.58 2.74-9.7.3-.72-.03-1.26-.82-1.4-.16-.03-.43.39-.59.64-2.09 3.31-2.19 6.84-1.34 10.46Zm-.75.6c.14-.05.26-.14.38-.23-.27 0-.54 0-.81-.01.15.09.33.28.43.24Zm3.7 13.93c-.13-.1-.38-.03-.58-.04-.12.49-.3.98-.31 1.47 0 .19.35.51.58.56.77.15 1.04-1.46.31-1.99Zm.83-34.57c-.03.53.1 1.08.22 1.6.01.05.56.07.58 0 .19-.52.38-1.05.42-1.59.01-.21-.38-.44-.59-.66-.22.21-.61.41-.62.64Zm1.35 26.93c.03-.13-.41-.37-.63-.56-.2.5-.46 1-.56 1.52-.03.15.39.39.6.6.21-.51.48-1.02.59-1.55Zm5.72-44.94c-.28-.7-.34-1.01-.51-1.24-.36-.48-.83-.33-1.35.33-.78.99-1.48 2.01-1.35 3.36.03.29.15.6.32.83.37.48.9.38 1.33-.34.61-1.04 1.13-2.13 1.55-2.94Zm5.99-2.97c.09.28.1.69.29.82.68.44 1.14.15 1.21-.73.02-.27-.05-.7-.23-.8-.64-.36-1.09-.07-1.27.72Zm-3.31-7.31c1.28-2.21 2.33-4.51 2.02-7.17-.03-.27-.36-.7-.56-.71-.51-.01-1.4.05-1.48.3-.82 2.39-1.51 4.82-2.21 7.18.14.68.12 1.72.41 1.81 1.07.34 1.42-.7 1.83-1.41Zm.65 14.84s-.01.05-.02.08l.61.31-.59-.39Zm.47 8.05c.71-2.69.64-5.35-.53-7.84-.7 2.59-1.69 5.14-1.3 7.91.03.23.33.48.56.62.5.31 1.07.08 1.27-.69Zm-.16 32.64c-.16-.12-.31-.24-.47-.36 0 0 0 .02-.01.03.2.13.34.23.48.33Zm2.3-3.24c.03-.78-.21-1.57-.39-2.36-.9.71-1.2 1.75-1.5 2.82-.21.77-.57 1.5-.83 2.26 1.74-.01 2.65-1 2.71-2.72Zm1.64-8.08c-1.65 1.41-1.48 3.45-1.82 5.32.79-.15 1.43-.51 1.71-1.34.44-1.32.58-2.65.11-3.98Zm149.94-281.91c-2.72 1.11-4.44 3.32-6.02 5.64-3.95 5.79-7.97 11.5-12.39 16.96-2.57 3.17-4.29 7.05-6.23 10.69-.32.59.24 1.65.49 3.07 1.23-1.31 2.17-2.15 2.9-3.14 4.72-6.41 9.46-12.81 14.04-19.32 2.38-3.38 4.45-6.98 6.64-10.49.65-1.05.84-2.2.57-3.41Zm7.57-9.99c.03-.23-.29-.59-.54-.75-.14-.09-.56.03-.69.19-2.65 3.09-5.43 6.1-6.17 10.32.26.03.53.07.72-.03 3.97-2.04 6.04-5.41 6.67-9.73Zm8.82-14.11c-.05-.08-.57.01-.8.15-3.27 1.93-4.89 4.78-4.73 8.36 0 .14.46.26.71.39.3-.09.68-.09.88-.28 2.11-1.96 3.61-4.35 4.61-7.02.15-.4-.38-1.09-.68-1.6Zm7.62-9.36c-.06-.21-.12-.61-.18-.61-.27 0-.54.12-.8.19.07.2.12.55.2.56.25.03.52-.08.78-.14Zm-2.9 87.91c-.35-.6-.76-1.17-1.17-1.74.02.77.04 1.55.07 2.32.03.69.41.8 1 .24.16-.15.21-.62.09-.82Zm.27-2.49-.48.15c.09.05.18.11.26.15.8.4 1.11.22.93-.55-.24.08-.47.18-.72.25Zm-7.16 22.09c-.02.22.35.59.61.67.2.06.58-.17.76-.38.41-.46.95-.95 1.08-1.5.67-3.02 2.17-5.87 2.24-10.59-3.21 4.44-4.34 7.98-4.69 11.8Zm-2.69 13.76c.53-.16 1.3-.29 1.34-.53.29-1.8.44-3.62.5-5.44.01-.33-.62-.68-1.02-1.08-1.06 2.32-1.16 4.66-.81 7.05Zm-2.47 4.71s.05-.01.08-.01c1.27-.11 2.28-.55 2.34-2.01.03-.75-.03-1.5-.07-2.25-.45.58-.98 1.12-1.22 1.78-.33.87-.5 1.8-1.12 2.5Zm-.91 7.35c1.88-2.21 2.15-4.46.44-6.76-.23 1.16-.45 2.31-.71 3.46-.26 1.15-.27 2.25.27 3.3Zm-4.68 18c-.11-.26-.16-.61-.35-.75-.6-.43-1.76.27-1.81 1.17-.04.66.52 1.07 1.15.79.43-.19.68-.79 1.01-1.21Zm1.43-5.57c1.92-4.25 2.99-8.05 3.16-12.09-.55.12-1.26.19-1.35.46-.98 2.96-1.87 5.96-2.63 8.99-.15.61.4 1.39.81 2.64Zm36.62 29.06c-.44-.38-.86-.73-1.28-1.09-.1.22-.19.44-.29.67.52.14 1.05.28 1.57.43Zm41.12-47.45s0 .03.01.05h.04v-.05h-.05Zm-249.49-124.71.04.09c.05-.08.1-.16.14-.26h-.27l.05.1a.791.791 0 0 1-.05-.1c-.09.07-.17.15-.25.23.12 0 .25.02.37.02 0 0-.02-.04-.04-.09Zm55.57 112.83c-.01-.06-.03-.12-.04-.18a1.22 1.22 0 0 1-.17-.07l.21.25Zm810.11-241.03c-5 1.08-10.01 2.06-15.04 2.96-22.03 3.91-44.06 7.77-66.09 11.65-3.15.55-6.43.73-9.41 1.77-12.45 4.31-25.52 5.67-38.3 8.45-1.56.34-3.2.49-4.66 1.09-9.29 3.77-19.24 4.48-28.93 6.39-2.19.43-4.39.86-6.58 1.33-.94.2-2.02.25-2.75.77-6.05 4.28-13.26 4.25-20.11 5.48-2.22.4-4.47.61-6.4 1.82-2.25 1.41-4.78 1.62-7.27 2.21-5.88 1.41-12.01 1.88-17.53 4.73-1.36.71-3.09.73-4.65 1.04-2.82.56-5.66 1.03-8.47 1.66-6.91 1.54-12.19 4.82-14.97 11.92-3.96 10.11-8.55 19.97-12.87 29.93-1.65 3.81-3.46 7.55-4.95 11.42-1.84 4.75-3.43 9.59-5.11 14.41-.63 1.81-1.02 3.72-1.8 5.45-2.92 6.44-4.71 13.2-6.29 20.07-.78 3.38-2.63 6.5-3.44 9.88-.74 3.08-.67 6.31-1.75 9.39-2.03 5.77-2.45 11.75-2.62 17.89-.24 8.33.18 16.55 1.18 24.78.23 1.92.74 3.84 2.58 4.91 1.86 1.08 2.04 3.16 3.05 4.73.74 1.15 1.9 1.86 3.21 1.71 4.12-.49 8.25-.67 12.39-.75 2.88-.05 5.58-.94 8.13-2.53 3.79-2.36 7.5-4.78 11.13-7.4 3.66-2.63 7.14-5.29 10.26-8.54 3.31-3.45 7.21-6.32 10.08-10.22 4.85-2.58 8.28-7.01 12.88-9.9 2.5-1.57 4.16-3.79 5.96-6.07 4.95-6.25 10.17-12.3 15.57-18.17 2.6-2.83 5.19-5.63 7.41-8.77 1.84-2.61 4.18-4.73 6.74-6.61.17-.13.66.02.91.18s.42.48.55.77c.12.28.24.63.18.91-.88 4.08-1.9 7.93-6.25 10.04-2.36 1.14-2.01 2.5.6 4.19.26.17.5.42.64.69.12.24.21.61.11.84-.36.87-.67 1.82-1.25 2.54-2.19 2.75-4.48 5.41-6.72 8.11-1.22 1.47-2.67 2.83-3.54 4.49-1.06 2.01 1.15 3.44 1.54 5.25.35 1.6.51 3.15-.27 4.67-.73 1.42-1.3 2.95-2.23 4.23-5.04 7-10.65 13.55-16.46 19.92-1.27 1.39-3.01 2.35-4.52 3.52-4.03 3.14-8.1 6.18-11.62 9.97-4.16 4.48-9.42 7.65-14.99 10.13-5.52 2.46-10.83 5.54-16.88 6.68-.61.11-1.23.43-1.72.82-4.52 3.57-9.15 2.01-13.57.03-3.78-1.69-7.42-3.76-10.92-5.99-5.99-3.82-10.31-9.42-14.94-14.67-1.96-4.31-4.77-8.2-4.77-13.37 0-3.45-1.05-6.95-1.95-10.34-1.33-5.01-1.6-9.96-1.14-15.17.55-6.33.62-12.71 1.34-19.04.26-2.23.66-4.38 1.4-6.53 1.13-3.31 2.09-6.65 2.59-10.18.43-3.08 1.99-6 3.01-9.01.72-2.12 1.41-4.24 1.96-6.4.1-.39-.51-1.02-.9-1.43-.16-.17-.69-.2-.92-.06-1.62.99-3.42 1.81-4.74 3.11-2.06 2.02-4.05 4.01-6.64 5.39a16.721 16.721 0 0 0-6.27 5.83c-1.79 2.84-4.44 4.5-7.19 6.16-6.02 3.63-12.01 7.32-17.99 11.03a26.62 26.62 0 0 0-3.8 2.89c-.35.32-.4 1.14-.34 1.71.08.81.65 1.01 1.46.79 1.25-.34 2.42-.77 3.12-1.96 1.47 2.22.62 4.17-.96 5.87-.84.9-1.91 1.72-3.04 2.2-2.16.92-3.81 2.29-4.95 4.31-1.3 2.31-3.25 3.9-5.58 5.07-6.31 3.16-12 7.24-17.62 11.48-7.43 5.61-15.59 9.99-24.47 12.9-7.27 2.39-14.22 5.7-21.67 7.6-1.2.31-2.36 1-3.39 1.72-2.78 1.93-5.89 2.31-9.14 2.2-4.82-.15-9.51-1.1-14.15-2.34-3.86-1.03-7.01-3.16-9.02-6.64a39.179 39.179 0 0 0-6.39-8.3c-4.73-4.68-7.07-10.55-7.58-17.15-.68-8.63-.52-17.23.95-25.79.32-1.86.37-3.77.5-5.66.01-.21-.26-.52-.47-.63-.27-.14-.73-.27-.92-.14-1.29.89-2.66 1.72-3.77 2.82-7.03 6.98-13.98 14.03-20.97 21.05-2.03 2.04-4.01 4.13-6.18 6.01-9.2 7.94-17.72 16.55-26.07 25.38-9.87 10.44-20.67 19.96-31.8 29.09-2.25 1.85-4.74 3.14-7.72 3.55-3.47.47-6.89 1.41-10.37 1.79-6.19.68-12.12-.07-17.25-4.1-.46-.37-1.12-.49-1.93-.83-.6.5-1.47.95-1.97 1.67-3.84 5.48-7.54 11.07-11.44 16.51-1.47 2.06-3.36 3.81-6.23 3.67-.05-1.38.79-2.33 1.6-3.28 2.69-3.19 5.19-6.46 6.43-10.57.66-2.2 2.19-3.85 4.24-5 2.3-1.3 3.78-3.36 4.89-5.67.19-2.16-1.55-3.47-2.19-5.23-.66-1.8-1.23-3.64-1.88-5.44-2.43-6.7-1.88-13.33 1.27-19.55 4.76-9.4 9.25-18.98 15.38-27.62 6.85-9.65 13.51-19.44 20.56-28.93 3.8-5.12 8.18-9.82 12.47-14.56 3.43-3.79 7.19-7.29 10.69-11.01 5.54-5.88 11.9-10.67 18.94-14.55 5.04-2.78 10.21-5.31 15.29-8 2.64-1.39 5.45-1.84 8.36-1.63 5.51.41 10.69 1.89 15.26 5.12 1.58 1.12 2.85 2.52 3.54 4.41.55 1.53-.48 3.44-2.05 3.56-.32.03-.64.1-.95.08-7.69-.55-14.33 2.32-20.85 6.01-7.62 4.32-14.19 9.81-19.81 16.46-5.37 6.35-10.55 12.82-15.11 19.82-3.65 5.62-7.7 11.02-11.95 16.2-4.69 5.7-8.9 11.7-12.76 17.97-1.68 2.72-3.54 5.33-5.26 8.02-.68 1.07-1.69 2.23-1.7 3.36-.06 4.89-3.11 8.26-5.55 11.97-.7 1.07-1.38 2.17-1.89 3.33-.21.48-.04 1.18.08 1.75.12.59 1.85.97 2.59.57 1.4-.76 2.85-1.45 4.15-2.35 11.61-8.01 22.29-17.16 32.38-27 16.26-15.85 32.61-31.6 48.58-47.74 7.64-7.72 15.95-14.76 23.97-22.11 2.01-1.85 4.04-2.85 6.87-1.26 1.6.9 3.64 1.04 5.51 1.39 1.88.35 3.81.42 5.68.81 1.87.4 3.62.99 4.7 2.92.59 1.06 1.79 1.79 2.75 2.63 1.27 1.1 1.95 2.49 2.15 4.13.15 1.27.6 2.58.4 3.79-.78 4.76-.88 9.53-.83 14.33.02 1.87-.59 3.77-1.04 5.63-1.86 7.77-3.81 15.51-5.64 23.29-1.17 4.97-1.28 10.15-2.97 15.03-.48 1.38 1.08 3.33 2.61 3.3 2.54-.04 5.12 0 7.62-.4 12.82-2.01 24.57-6.88 35.59-13.62 1.64-1 3.24-2.05 4.82-3.15 21.56-14.96 44.15-28.28 66.59-41.82 7.11-4.29 14.45-8.22 21.73-12.23 2.51-1.39 5.14-2.57 7.75-3.78 2.31-1.08 4.87-1.78 6.94-3.2 2.05-1.4 3.62-3.49 5.43-5.3.83-1.45.43-3.06.5-4.64.18-3.82 1.09-7.43 2.41-11.09 2.37-6.59 4.7-13.21 6.91-19.87.18-.53-.03-1.23-.19-1.82-.07-.24-.46-.46-.75-.56-1.94-.64-3.75.33-5.61.55-3.82.44-7.53 1.14-11.03 2.98-1.94 1.02-4.23 1.38-6.39 1.95-3.09.82-6.34 1.21-9.27 2.41-5.67 2.33-11.64 3.33-17.54 4.67-1.87.43-3.83.65-5.58 1.36-5.07 2.07-10.37 3.13-15.72 4.1-.94.17-2.05.13-2.78.63-5.44 3.67-12.19 3.59-17.97 6.39-3.09 1.5-6.75 1.83-10.16 2.67-2.17.54-4.62.58-6.46 1.66-3.85 2.28-7.88 1.7-11.97 1.87-4.67.19-7.19-2.4-8.76-6.09-.98-2.29-1.23-4.93-1.58-7.44-.23-1.62.36-3.2 1.51-4.4 1.54-1.61 3.11-3.2 4.82-4.63 1.51-1.26 3.27-1.84 5.35-1.5 1.2.2 2.77.33 3.67-.27 3.62-2.41 8.15-1.73 11.82-3.71 3.48-1.88 7.34-2.1 11.08-2.87 1.55-.32 3.05-.96 4.55-1.5.9-.33 1.75-1.09 2.63-1.1 7.75-.09 14.65-4.28 22.35-4.59.95-.04 1.97-.13 2.82-.5 7.32-3.24 15.51-3.8 22.72-7.4 1.67-.83 3.64-1.17 5.51-1.52 4.4-.82 8.83-1.46 13.23-2.29 2.82-.53 5.8-.85 8.35-2.05 2.77-1.3 5.48-1.2 8.34-1.43 4.44-.36 8.83-1.3 13.22-2.12 1.98-.37 3.46-1.7 4.44-3.41 2.69-4.7 5.25-9.49 7.93-14.2 2.05-3.61 4.13-7.2 6.34-10.72 1.87-2.97 3.96-5.78 5.26-9.11.69-1.75 2.02-3.24 3.05-4.85 1.03-1.61 2.22-3.15 3.06-4.86 3.42-6.91 7.85-13.17 12.26-19.45 4.04-5.75 7.87-11.66 11.76-17.51.97-1.46 2.34-2.13 4.02-2.16 1.27-.03 2.55.11 3.83.15 2.32.09 4.36.76 6.01 2.51 1.09 1.16 2.42 2.1 3.5 3.27.85.92 1.7 1.96 2.14 3.11.91 2.38 1.64 4.84 2.27 7.31 1 3.93.29 7.47-2.17 10.85-5.63 7.76-11.03 15.69-16.54 23.53-.73 1.04-1.52 2.09-2.46 2.94-4.93 4.42-6.89 10.65-10 16.17-.36.64.61 2.23 1.28 2.23.31 0 .63.15.92.1 9.76-1.56 19.56-2.85 28.92-6.35 6.93-2.59 14.38-2.89 21.59-4.29 3.13-.6 6.42-.94 9.27-2.21 5.92-2.66 12.28-3.46 18.43-5.11 3.38-.91 6.87-1.52 10.34-2 3.51-.48 6.91-1.13 10.13-2.72 1.4-.69 3.02-1.04 4.57-1.31 8.18-1.41 16.37-2.72 24.55-4.13 3.8-.66 7.42-1.93 10.8-3.8 2.28-1.26 4.65-1.8 7.3-1.93 3.48-.18 6.96-.91 10.39-1.62 3.72-.77 7.25-2.36 11.21-2.04 1.18.1 2.42-.7 3.66-.99 1.54-.35 3.1-.87 4.64-.84 3.31.06 6.37-.19 8.66-3.02.35-.43 1.14-.79 1.69-.74 3.92.36 7.42-1.6 11.25-1.86 4.78-.33 9.51-1.21 13.8-3.65.79-.45 1.85-.68 2.76-.63 1.23.08 2.64.23 3.6.89 1.28.88 2.06 2.49 3.32 3.42 4.24 3.11 5.57 7.61 6.32 12.45.39 2.54-.7 4.37-3.33 4.94Zm-288.19 50.49c-.52-.25-1.02-.68-1.55-.71-1.46-.11-2.44.5-1.84.84.48.27 1.12.29 1.68.41l1.71-.54Zm-223.73 111.24c-.08-.22-.21-.63-.24-.62-.49.12-.96.3-1.43.46.08.22.21.63.24.62.48-.12.96-.3 1.43-.46Zm7.24-6.36c-.03-.41-.66-.78-1.11-1.27-.66.62-1.35 1.21-1.96 1.87-.16.18-.17.64-.06.89.29.68.85.82 1.57.53.93-.38 1.63-1.01 1.56-2.02Zm6.98-6.93c-.47-.24-.97-.73-1.39-.67-1.19.17-1.65.96-1.29 1.93.09.24.44.38.66.57.29-.13.65-.19.86-.4.43-.43.78-.95 1.16-1.43Zm5.67-6.24c-.4-.55-1.01-.61-1.64-.13-.76.59-1.3 1.32-.81 2.34.1.21.46.31.91.59.56-.65 1.18-1.31 1.72-2.03.1-.14-.03-.56-.18-.76Zm5.53-7.49c-.02.06-.06.12-.08.19l.31.19-.22-.37Zm-.12.27c-.42.9-1.1 1.74-.75 2.82 1.47-.83 1.49-.93.75-2.82Zm8.36-5.5c-.07-.31-1.03-.78-1.28-.64-.74.42-1.44 1.03-1.91 1.73-.18.27.31.98.5 1.49 1.43.39 3.02-1.07 2.68-2.58Zm5.75-5.79c-.04-.25-.35-.62-.56-.64-1.03-.1-2.47 1.06-2.42 2.04.02.33.74.62 1.13.92 1.32-.04 2.07-.95 1.84-2.32Zm94.1 51.79c-.31-.43-.74-.99-1.19-1.05-2.61-.35-5 .56-7.35 1.54-8.46 3.56-16.92 7.14-25.36 10.75-.85.36-1.65.96-2.3 1.62-.39.39-.73 1.2-.58 1.66.11.36 1.15.8 1.53.64 2.32-.99 4.6-2.06 6.82-3.26 3.15-1.7 6.44-2.61 10.61-2.3 2.56 1.25 4.92-.5 7.39-2 2.7-1.65 5.49-3.16 8.19-4.81.78-.48 1.41-1.24 2.05-1.92.18-.2.31-.71.19-.87Zm14.6-5.92c-.32-.54-.74-.61-1.28-.19.19.15.37.41.58.44.22.03.46-.15.7-.24Zm2.32-17.44c-.18-.23-.41-.68-.55-.65-.54.1-1.06.34-1.59.54.19.22.42.65.58.62.53-.08 1.04-.33 1.56-.51Zm12.08-7.92c-.01-.16-.49-.4-.76-.41-2.66-.09-4.73 1-6.21 3.19-.16.24-.25.62-.18.89.07.26.39.45.6.67.28.07.57.23.83.18 2.18-.39 4.12-1.27 5.53-3.02.28-.34.23-1 .19-1.5Zm10.96-6.28c-.44-.32-.92-.95-1.32-.91-1.94.23-3.56 1.15-4.73 2.76-.18.25-.38.79-.31.85.45.34.96.78 1.47.8 2.06.08 3.5-1.15 4.78-2.58.17-.19.07-.61.1-.93Zm8.28-5.41c-1.32 0-2.13-.09-2.92.03-.71.1-.92.66-.76 1.37.23 1 1.14 1.53 1.83.93.59-.52 1.01-1.24 1.85-2.33Zm17.34-9.12c-.26-.19-.53-.56-.76-.54-3.93.39-7.13 2.38-10.15 4.73-.64.5-.73 1.08-.27 1.5.19.17.57.31.8.24 3.33-1.07 6.53-2.42 9.35-4.54.44-.33.7-.92 1.04-1.39Zm17.2-9.22c-.09-.23-.44-.57-.56-.53-3.27 1.13-6.47 2.43-9.05 4.85-.19.17-.32.66-.22.83.28.45.66 1.02 1.1 1.14.9.25 1.87.23 3.34.38 2.29.4 3.44-.92 3.66-3.65.06-.78 1.11-1.47 1.66-2.23.14-.19.15-.56.07-.79Zm102.94 45.75c-.07.09-.15.17-.22.26l.58.23-.35-.48Zm-8.13 9.96c-.36.56-.27 1.42-.3 2.2 2.08-1.75 4.2-3.46 6.19-5.31.9-.84 1.54-1.99 2.18-3.07.71-1.18.54-2.39-.17-3.51-1.33 1.52-2.68 3.03-3.97 4.59-1.37 1.66-2.77 3.31-3.93 5.1Zm-24.72 25.13c-.5.48-.57 1.42-.77 2.21.88.02 1.98.27 2.42-.16a667.76 667.76 0 0 0 15.16-15.41c.82-.86 1.16-2.16 1.72-3.27 3.48-1.74 3.5-1.78 2.32-5.13 1.27.53 2.38.55 3.15-.66-1.06.21-2.12.43-3.19.64-.48.76-.96 1.51-1.44 2.27s-.95 1.52-1.42 2.27c-4.86 2.39-8.37 6.4-11.64 10.46-1.96 2.44-4.08 4.62-6.31 6.76Zm-33.94 25.14c-.03.15.42.56.68.58 2.48.22 4.98.22 7.43.61 2.46.4 4.26-.6 6.17-2.17-.86-.49-1.66-1.34-2.44-1.31-3.76.14-7.51.5-11.25.88-.26.03-.49.9-.59 1.41Zm-14.25-173.61c-3.36-1.39-6.11-.59-8.43 2.11 1.15.97 2.46.78 3.67.54 1.22-.24 2.41-.71 3.54-1.24.5-.24.8-.9 1.22-1.41Zm51.57-15.33c-1.48.4-2.98.74-4.42 1.24-.37.13-.56.78-.83 1.2.27.16.52.42.8.46 3.21.47 3.75.09 4.44-2.9Zm11.56-.41c-3.87-.84-7.67.26-11.51.4 3.88.97 7.73 1.17 11.51-.4Zm24.13-5.06c-2.36-1.03-4.87-1.18-7.31-.67-3.96.84-7.94 1.35-11.95 1.88-2.04.27-4.14 1.27-4.63 3.79 2.72-.2 5.28-.89 7.91-1.76 5.15-1.73 10.29-4.04 15.98-3.24Zm33.23-9.87c-.53-.23-1.12-.74-1.57-.64-1.84.41-3.6 1.18-5.45 1.51-7.1 1.29-14.43 1.56-20.9 5.41-1.01.6-2.47.44-3.71.67-1.74.32-1.49 1.72-1.59 2.93h.03c.94-.97 2.18-1.13 3.43-1.38 2.47-.5 5.22-.64 7.3-1.86 2.61-1.53 5.26-1.91 8.09-2.31 3.13-.44 6.22-1.18 9.3-1.89 1.85-.43 3.62-1.1 5.06-2.44Zm8.7 7.85-.24-.63-.38.56.62.07Zm7.69-1.89-.14-.42-.67.23.81.19Zm1.53-11.42c-2.44.31-4.9.49-7.3.99-1.81.37-3.53 1.15-5.27 1.81-.22.08-.36.53-.4.82-.02.15.25.49.41.5 2.48.15 5.04.67 7.43.25 2.3-.4 4.85-1.3 5.13-4.37Zm7.3-.62c-2.46-.81-4.73-.09-7.01.56 2.35.4 4.75 1.4 7.01-.56Zm20.64 4.15c-2.48-1.05-4.11.17-5.38 2.05-.23.34.06 1.02.14 1.52 1.6-1.38 4.14-1.39 5.24-3.57Zm21.37-13.34c-.6-.14-1.24-.48-1.8-.38-6.55 1.14-13.13 2.17-19.61 3.63-2.77.63-5.39 1.58-8.33 1.36-2.1-.16-2.78.64-4.69 3.68 3.05.28 5.81.05 8.5-1.13 3.22-1.41 6.57-2.29 10.08-2.67 1.53-.16 2.99-.91 4.51-1.3 1.21-.31 2.51-.84 3.68-.66 3.07.48 5.42-.78 7.67-2.53Zm12.33-2.23-.82.19.65.24.17-.43Zm11.29-1.91-.78.19.62.22.16-.41Zm10.28-1.72-.74-.2.12.42.63-.22ZM172.12 239.68c-.44.69-.13 1.84-.19 2.78-.06.93.2 2.3-.3 2.7-3.03 2.44-2.49 5.46-2.1 8.72.44 3.67-1.18 6.89-3.5 9.64-1.32 1.56-1.99 3.21-1.98 5.21 0 2.3-.58 4.43-2.11 6.22-.21.24-.37.52-.56.78-2.32 3.19-2.3 7.3-4.14 10.64-1.83 3.33-3.98 6.48-5.92 9.74-.3.51-.53 1.32-.34 1.82 1.31 3.44-.47 6.36-1.97 8.97-1.81 3.15-2.65 6.38-3.27 9.87-.94 5.33-2.28 10.6-5.35 15.21-.35.53-.75 1.08-.92 1.67-.45 1.53-.72 3.1-1.17 4.63-.56 1.91-1.91 3.3-3.33 4.6-1.17 1.08-2.39 2.1-3.41 2.99-.19 1.7-.37 2.96-.45 4.22-.09 1.32-.4 2.55-1.44 3.42-2.22 1.86-2.47 4.31-2.32 6.96.12 2.03-.64 3.67-2.27 5.01-.96.79-1.68 1.91-2.35 2.97-.3.48-.5 1.32-.27 1.77 1.5 3.05 1.21 5.43-1.98 7.25-.55.32-.9 1.8-.67 2.53.85 2.73.15 4.95-1.47 7.16-1.3 1.77-3.15 3.18-3.55 5.58-.22 1.34-1.34 2.12-2.54 2.67-1.64.76-2.33 2.17-2.36 3.84-.04 2.27-.28 4.21-2.18 5.97-2.73 2.53-3.99 5.69-2.14 9.49.6 1.24-.01 2.49-1.13 3.34-.5.38-1.14.59-1.62.99-1.26 1.05-2.2 2.33-2.38 4.01-.36 3.46-.68 6.92-.99 10.11-.75.66-1.16 1.26-1.72 1.47-3.58 1.33-4.21 4.41-4.65 7.62 1.42 1.93.14 3.29-.75 4.99-1.17 2.23-1.64 4.8-2.57 7.17-.71 1.79-1.72 3.44-3.44 4.49-1.98 1.2-3.28 2.86-4.14 5.07-1.5 3.86-2.84 7.89-5.03 11.36-2.28 3.61-2.74 7.8-4.76 11.43-2.02 3.63-3.86 7.36-5.68 11.09-.55 1.13-1.3 2.49-1.11 3.6.81 4.95-3.21 8.17-4.2 12.46-.27 1.15-1.32 2.16-2.12 3.15-2.88 3.56-5.27 3.64-8.95.67-3.08-2.49-5.19-5.74-6.82-9.15-1.53-3.2-1.38-6.93-.45-10.35.82-3.04 1.86-6.07 5.17-7.7 1.31-.64 2.4-2.15 3.11-3.51 4.84-9.37 9.91-18.62 14.05-28.34 3.13-7.35 6.44-14.62 9.62-21.95 1.15-2.64 2.16-5.33 3.24-8 .96-2.37 1.69-4.86 2.9-7.09 4.29-7.87 7.19-16.36 11.07-24.41 2.62-5.43 4.41-11.28 6.39-17.01 2.18-6.33 5.01-12.44 6.05-19.16.33-2.13 1.64-4.14 2.63-6.14 2.13-4.3 4.16-8.66 6.57-12.79 1.46-2.5 1.3-4.78.46-7.24 1.29-3.13 4.3-4.68 6.63-7.37.69-3.41 1.27-7.16 2.92-10.7 6.48-13.92 11.33-28.5 16.71-42.86 3.81-10.17 7.57-20.37 11.58-30.46a302.48 302.48 0 0 0 11.11-33.65c2.13-7.99 4.16-16.03 6.66-23.94 2.29-7.26 4.44-14.67 5.25-22.34.13-1.27.12-2.63.61-3.76 2.1-4.79 2.63-9.93 3.04-14.98.55-6.72 2.05-13.25 2.93-19.89.71-5.37.84-10.81 1.23-16.22-1.6-5.2-2.11-10.59-2.88-15.94-.55-3.86-4.4-6.47-8.47-6.4-1.59.02-3.26.06-4.74.55-3.93 1.3-8.07 2-11.78 4-1.39.75-2.92 1.29-4.44 1.77-2.72.86-5.81 1.07-8.16 2.5-5.45 3.31-10.65 7.05-15.75 10.88-4.08 3.07-7.88 6.52-11.78 9.83-1.95 1.66-3.93 3.29-5.75 5.08-11.6 11.47-23.24 22.89-33.59 35.54-7.09 8.66-14.39 17.15-21.5 25.79-2.02 2.46-3.81 5.13-5.46 7.85a67.133 67.133 0 0 1-6.74 9.28c-6.72 7.75-12.51 16.13-16.98 25.44-4.42 9.22-9.23 18.25-13.88 27.35-1.03 2.02-1.71 4.1-1.67 6.42.05 3.54 2.39 6.21 5.84 6.34 6.42.23 12.75-.15 18.97-2.07 4.56-1.41 9.25-2.39 13.9-3.47.35-.08.95.55 1.31.96.16.17.1.65 0 .93-.23.59-.43 1.29-.87 1.68-4.5 4.02-8.74 8.45-15.14 9.47-1.57.25-3.07.87-4.61 1.3-5.85 1.64-11.4.3-16.85-1.8-.87-.34-1.66-.97-2.38-1.58-2.47-2.09-4.53-4.51-5.91-7.46-3.47-7.48-4.89-15.16-2.4-23.27.66-2.14 1.07-4.35 1.7-6.49 1-3.38 2.25-6.64 4.14-9.66 3.04-4.87 6.01-9.78 8.38-15.05 1.17-2.6 2.84-5 4.44-7.39 5.32-7.96 10.79-15.83 16.05-23.83 5.34-8.13 7.78-11.37 14.71-18.65.37 0 .75-.04 1.12-.06-.38 0-.77-.02-1.15-.03.48-.42 1.13-.75 1.41-1.28 2.75-5.16 6.96-9.1 10.9-13.27 1.1-1.16 2.22-2.31 3.21-3.57 5.95-7.58 12.91-14.18 19.87-20.78 1.85-1.75 3.68-3.57 5.26-5.56 2.01-2.54 4.1-4.9 7.15-6.21.29-.13.63-.23.84-.45 1.97-2.08 3.71-4.45 5.93-6.21 2.21-1.76 5.04-2.7 6.78-5.15 1.32-1.85 2.92-3.39 5.21-4.02.6-.17 1.2-.48 1.71-.86 6.95-5.24 15.15-8.2 22.66-12.42 4.85-2.72 10.41-3.01 15.45-5.01 5.94 1.07 12.09.34 17.95 2.41 5.37 1.9 9.47 5.45 12.89 9.65 4.65 5.71 8.31 12.06 10.48 19.23 1.49 4.93.86 10.21 2.75 15.06.3.76-.34 1.85-.41 2.8-.12 1.58-.51 3.27-.11 4.73 1.68 6.14.51 12.1-.97 18-.87 3.45-1.49 6.86-1.41 10.4.1 4.25-1.05 8.24-2.81 12.04-2.04 4.39-3.95 8.76-3.24 13.78.04.31.04.65-.03.96-.14.62-.2 1.32-.53 1.83-2.51 3.87-1.79 8.74-4.05 12.7-1.26 2.21-2.1 4.65-3.14 6.99-.53 1.19-.73 2.35-.29 3.66.66 1.95.19 3.77-1.03 5.41-.96 1.3-1.74 2.68-1.81 4.35-.18 3.99-1.98 7.37-4.05 10.63-2.22 3.5-2.88 7.71-5.11 11.22Zm13.09-80.74c.05.16.32.24.48.36.1-.25.31-.52.29-.76-.09-.88-.42-1.04-.78-.41-.12.21-.08.56 0 .81ZM45.85 171.91c-.3-.7-.67-.74-1.02-.06-.04.08.29.48.46.49.17.01.37-.28.56-.43Zm7.97-13.87s-.53.09-.79.18c-.27.1-.5.35-.77.37h-.18c.35 0 .69.01 1.01.12.83.29 1.03.25.73-.68Zm8.94-7.18c.52-.02 1.03-.07 1.55-.12-.39-.55-.83-1.01-1.6-.44-.08.06.04.56.05.56Zm5.32-5.9c-.58.17-1.26.2-1.71.54-.74.57-1.37 1.32-1.97 2.05-.9 1.08-.71 2.18-.08 3.19h.03c1.24-1.44 2.52-2.85 3.69-4.35.24-.3.04-.94.05-1.43Zm26.25-27.62c-.23.02-.46.04-.64.14-.11.07-.11.58-.08.59.56.15.79-.12.72-.73Zm1.4-.61c-.25-.27-.5-.55-.75-.82-.13.38-.26.76-.4 1.13.38-.1.76-.21 1.14-.31Zm5.8-4.81-.21-.83c-.43.27-.88.5-1.26.82-.08.06.04.56.18.64.68.39 1.13.14 1.28-.64Zm17.19-14.81-.28-.69-.36.65.64.04ZM54.79 494.5c-.27.12-.57.2-.8.37-1.12.8-1.57 1.94-1.59 3.27 0 .28.12.62.3.84.13.16.44.19.97.38.57-1.04 1.28-2.08 1.7-3.22.15-.42-.37-1.09-.58-1.64Zm21.1-40.3c.47-.81.88-1.75.97-2.66.09-.89-.28-1.81-.45-2.72-.76.38-1.9.56-2.21 1.16-2.89 5.68-5.97 11.29-8.33 17.2-2.12 5.33-3.64 10.82-7.42 15.39-1.36 1.64-2.38 3.81-2.14 6.19.03.28.3.54.48.85.49-.17 1.19-.19 1.47-.55 4.2-5.28 7.2-11.24 9.69-17.48 2.36-5.92 4.68-11.86 7.94-17.38Zm1.08 9.52c-.2-.24-.41-.48-.61-.71-.23.21-.63.41-.65.63-.02.22.36.47.56.71.23-.21.46-.42.7-.63Zm6.79-16.99c-.16-.18-1.06 0-1.38.29-1.21 1.08-1.52 2.49-1.2 4.03.19.27.33.66.56.71.22.05.63-.16.77-.38.62-1 1.28-2 1.71-3.09.16-.42-.13-1.18-.46-1.57Zm5.87-11.47c-.23-.25-.45-.69-.66-.68-1.1.03-1.65.77-1.85 1.77-.05.25.07.72.25.8 1.13.53 1.48-.46 1.97-1.12.17-.23.21-.55.29-.77Zm4.07-12.02-.51.17.43.31.07-.48Zm6.94-20.23c-.78 1.27-1.19 2.67-1.01 4.16.06.51.52 1.08.95 1.41.56.44 1.71-.67 1.75-1.64.07-1.59-.22-3.02-1.69-3.93Zm10.32-18.89c-.05-.45-.47-1.02-.88-1.21-.73-.35-1.77.55-1.71 1.51.03.42.56.8.86 1.2.91.15 1.84-.56 1.73-1.49Zm4.47-8.71c-.05-.27-.39-.49-.59-.74-1.38-.4-2.98 1.35-2.59 3.01.08.33 1.08.75 1.5.63 1.44-.42 1.94-1.4 1.68-2.9Zm.54-15.72c1.18-2.6 2.1-5.34 2.96-8.07.26-.82-.07-1.83-.14-2.79-.44.13-.78.13-.96.3-2.97 2.94-5.33 6.28-6.67 10.29-.61 1.81-1.08 3.7-1.93 5.39-2.59 5.16-4.44 10.57-6.09 16.08-.83 2.76-1.85 5.45-3.69 7.72-1.86 2.3-2.7 4.98-3.32 7.83-.67 3.1-1.23 6.38-2.7 9.12-3.02 5.62-5.65 11.4-8.41 17.14-3.04 6.32-5.23 12.95-7.6 19.51-.1.28-.07.64 0 .94.08.3.23.63.46.82.13.11.5.06.71-.04 1.55-.77 2.19-2.26 2.84-3.71 1.81-4.08 3.42-8.25 5.37-12.25 3.49-7.17 7.23-14.21 9.73-21.82.62-1.88 2.17-2.86 4-3.32-.19-1.52-.68-3.09-.45-4.56.92-6.02 3.07-11.65 5.93-17.01 1.8-3.37 4.24-6.57 5.22-10.17 1.11-4.08 3.02-7.66 4.73-11.41Zm1.27 10.04c0-.21-.35-.43-.55-.64l-.64.91.6.33c.21-.2.58-.39.59-.6Zm3.41-8.46c-.46-.32-.73-.66-.96-.64-1.04.11-1.79.7-1.9 1.76-.06.57.22 1.17.34 1.75.47-.18 1.13-.23 1.38-.58.5-.69.78-1.54 1.14-2.29Zm5.28-14.55c-.25.12-.57.19-.73.38-2.03 2.43-4.04 4.89-4.52 8.17-.03.18.42.44.66.67.28-.04.68.02.87-.15 2.23-1.96 2.98-4.79 4.14-7.36.19-.42-.26-1.14-.42-1.71Zm13.25-32.02c-.43-.55-.72-1.2-.99-1.2-.45.02-1.14.36-1.27.73-.16.44.17 1.05.29 1.59.63-.36 1.26-.72 1.97-1.12Zm2.43-23.76c-.18-.47-.4-1.03-.61-1.58-.52.35-1.3.59-1.52 1.08-.91 2.02-1.67 4.12-2.47 6.19-.8 2.08-1.39 4.27-2.4 6.25-2.04 3.99-3.94 8.01-5.03 12.39-.38 1.51-1.03 3.1-2 4.29-2.71 3.31-4.11 7.17-5.29 11.17-1.26 4.25-3.28 8.28-3.69 12.77-.02.21.32.59.57.66.27.08.77.01.9-.18.89-1.29 1.94-2.54 2.51-3.97 1.4-3.56 2.15-7.42 3.9-10.78 6.38-12.23 10.8-25.21 15.13-38.3Zm.49 15.54c-.13-.24-.22-.61-.42-.68-.16-.07-.63.17-.67.34-.18.78.11 1.22.68 1.08.19-.05.27-.48.41-.74Zm1.99-23.37c1.85-1.33 1.9-3.58 2.69-5.51-.81-.05-1.76-.26-2.19.12-1.4 1.26-2.35 2.89-1.8 4.95.07.25.23.63.41.67.27.06.64-.06.88-.23Zm2.55 10.8c-.17-.22-.49-.31-.75-.46-.24.07-.68.11-.69.23-.21 1.19-.38 2.39-.48 3.59-.02.25.37.78.42.76.56-.19 1.26-.33 1.59-.75.84-1.08.75-2.28-.09-3.36Zm.12-19.8c-.18.15-.23.59-.18.87.11.68.27 1.36.42 2.04.24-.77.51-1.53.64-2.31.14-.83-.29-1.09-.88-.6Zm2.73 12.17c-.05-.18-.3-.31-.47-.46-.15.21-.38.4-.43.64-.04.21.05.51.2.68.07.08.39-.06.6-.1.04-.25.16-.52.1-.75Zm13.11-32.59c-.1-.24-.2-.47-.3-.71-.4.33-.82.65-1.18 1.02-.04.05.22.39.33.59.38-.3.77-.6 1.15-.91Zm971.9-177.8c1.25.21 2.52.28 2.84.32 7.6.02 13.52-1.77 17.91-7.08.78-.94 1.64-2.22 1.62-3.32-.06-3.19-.65-6.51-2.88-8.88-7.17-7.59-10.55-8.98-19.85-3.57a20.945 20.945 0 0 0-6.35 5.69c-4.88 6.62-1.35 15.47 6.72 16.84ZM1021.62 685c.61-.71 1.23-1.53 1.48-2.41a726.91 726.91 0 0 0 4.45-16.46c.79-3.06 1.41-6.16 1.83-8.02.12-1.9.2-2.53.19-3.16-.02-.78-.44-1.18-1.08-1.05-.24.05-.55.31-.62.55-1.52 4.82-3.09 9.63-4.49 14.49-1.48 5.16-3.18 10.27-3.67 15.66-.02.25.31.75.47.75.49 0 1.17-.04 1.44-.35Zm-68.54-434.23c.79-.51 1.62-.99 2.32-1.61.7-.61 1.29-1.34 1.86-2.07.17-.21.23-.82.13-.88-.48-.28-1.18-.75-1.54-.58-5.08 2.41-15.55 11.14-17.89 14.85-.06.1.2.51.41.65.23.15.58.25.84.2 2.3-.45 3.84-2.09 5.37-3.65 1.64-1.69 3.67-2.12 5.84-2.28.51-1.75.97-3.54 2.66-4.63Zm-27.36 102.59c.52-.32.91-.86 1.3-1.36 2.98-3.81 3.21-8.92 6.03-12.82.16-.22.09-.62.06-.94-.03-.3-.13-.59-.21-.89-.17-.25-.32-.69-.5-.71-.26-.02-.57.25-.81.45-1.9 1.59-.9 4.28-2.28 6.06-1.54 2-3.11 3.97-4.62 6-.37.49-.53 1.14-.74 1.74-.11.29-.21.63-.17.92.09.6.14 1.29.49 1.72.17.21 1.05.05 1.45-.19Zm-8.34 15.8c1.43-2.08 2.86-4.18 4.13-6.35.45-.77.49-1.8.65-2.73.04-.26-.12-.74-.3-.8-.52-.18-1.34-.48-1.6-.24-3.12 2.83-5 6.46-6.48 10.34-.53 1.39-.74 3.03-2.31 3.79 4.2-1.59 4.24-1.58 5.91-4.01Zm329.61 197.78c.34-.52.75-1.08.86-1.67.1-.55-.06-1.21-.31-1.72s-.96-.48-1.46.16c-3.54 4.48-7.06 8.97-10.53 13.5-.75.98-.67 2.12-.29 3.24 1.47-1.6 2.91-3.22 4.49-4.7 2.8-2.63 5.14-5.61 7.24-8.8Zm-11.73 13.5s-.06.06-.09.1c0 0 .02.02.03.04l-.06.09c.09.05.17.09.26.15-.05-.12-.09-.25-.13-.37Zm-187.92-388.03c1.92 1.45 4.14 1.74 6.28.68 1.38-.69 2.6-1.77 3.77-2.81 1.2-1.06 1.61-2.93.85-3.13-.85-.23-1.93-.45-2.68-.13-2.87 1.22-5.67 2.61-8.79 3.1-.27.87-.18 1.74.57 2.3Zm-.57-2.3c.02-.08.05-.16.08-.24-.08 0-.15.02-.23.03 0 .08 0 .16-.01.23.05 0 .1-.02.16-.03Zm-162.23 290.8c1.46 1.44 3.01 1.07 4.36.5 3.17-1.33 6.34-2.72 9.35-4.38 1.17-.65 2.03-1.87 2.97-2.93-1.57.59-3.11 1.32-4.73 1.56-4.49.66-8.26 2.72-11.96 5.25Zm17.03-7.17c-.11.12-.22.24-.34.36.2-.07.4-.15.6-.22.07-.04.13-.07.2-.11-.14 0-.29-.01-.43-.02-.02 0-.03-.02-.03-.02Zm-25.64 10.88c-4.23 1.17-8.27 2.87-12.17 4.86-.61.31-.92 1.23-1.32 1.97 5.46-.42 10.1-2.76 14.33-6.2-.37-.29-.67-.68-.85-.63Zm-13.84 6.87.2.23c.05-.08.1-.17.15-.26-.12 0-.23.03-.35.04Zm56.31-24c-.28-.13-.57-.39-.84-.37-3.55.23-6.75 1.47-9.63 3.52-.77.55-.99 1.38-.74 2.3 4.43-.41 8.36-1.84 11.21-5.46Zm64.79 366.91c0-.37-.61-.77-1.01-1.05-.08-.06-.61.27-.72.52-1.42 3.16-2.32 6.44-2.13 9.95.07 1.26.6 2.27 1.53 3.07.68-2.93 1.38-5.85 1.99-8.79.25-1.21.35-2.47.34-3.7Zm40.31-398.48c.03.07.07.14.07.14.06-.11.12-.2.18-.3-.11 0-.21 0-.32.01 0 0 0 .02.02.04l-.02-.04c-.08.08-.15.18-.22.27.12 0 .24 0 .35.01l-.07-.14Zm-11.68 3.43c3.61-1.14 7.48-1.26 10.95-2.89.17-.08.31-.24.44-.41-5.74-.42-11.09 1.29-16.42 3.09-.16.05-.27.27-.37.48 1.82-.03 3.74.26 5.41-.27Zm248.25 107.62c-1.91 1.22-2.93 3.09-3.62 5.17-.06.19.14.56.33.72.2.18.6.37.77.28 2.31-1.17 3.95-2.84 3.96-5.63-.22-.24-.39-.56-.65-.68-.21-.09-.58 0-.79.13Zm-228 99.67c.53-1.43.99-2.88 1.32-3.88.04-.8.19-1.2.05-1.4-.27-.41-.67-.75-1.09-1.03-.1-.07-.63.22-.67.41-.42 1.79-.8 3.58-1.12 5.39-.03.17.38.51.64.6.27.09.82.04.87-.1Zm2.38-11.08c.27.06.73-.04.87-.23.67-.97 1.26-2 1.59-2.54 0-.96.07-1.3-.02-1.58-.18-.58-.45-1.12-.68-1.69-.48.36-1.1.62-1.42 1.09-.88 1.3-1.54 2.72-1.02 4.35.08.26.41.54.68.6Zm23.81-74.54c0 .22.4.51.67.64.15.07.49-.07.64-.22 2.28-2.45 1.85-5.52 1.99-8.46-1.05 1.43-2.23 2.79-2.99 4.35-.51 1.04-.28 2.45-.3 3.7Zm3.55-8.4-.22-.26c-.02.2-.03.41-.04.61.09-.12.18-.23.26-.35Zm-38.4-359.13c1.62-.23 2.84-1.14 3.74-2.46.14-.21.02-.6.02-.91-.2-.21-.47-.65-.61-.62-1.51.38-3.02.86-3.97 2.2-.24.34-.08 1.02.03 1.52.03.14.53.29.79.26Zm-76.74 106.13c-.3.92-.51 1.89.31 2.66.51.48 1.82 0 2.31-.89.74-1.37 1.39-2.8 2.07-4.2l-.06.03c-1.96 0-3.89.1-4.64 2.4Zm4.69-2.44c.14-.85.21-1.71.43-2.54.31-1.16.77-2.29 1.02-3.46.04-.17-.74-.59-1.19-.76-.14-.05-.55.29-.67.54-1.09 2.14.98 4.12.35 6.25 0 0 .06-.03.05-.03Zm79.78 136.7c.07.07.22.2.22.2.06-.05.11-.12.17-.17l-.43-.06c-.11.08-.21.17-.32.27.19 0 .39-.02.58-.03 0 0-.15-.13-.22-.2Zm-.36.23c-1.38.07-2.75.12-4.13.21-1.19.07-2.24.43-2.9 1.44 1.75-.09 3.52-.09 5.23-.39.65-.11 1.22-.75 1.8-1.27Zm222.08 122.04c-1.16.48-2.16 1.22-2.38 2.52-.08.46.38 1.02.65 1.49.02.04.57-.16.81-.33 1.03-.72 1.79-1.6 1.46-3-.18-.24-.47-.72-.54-.69ZM936.92 329.13c.16-.19.24-.59.15-.81-.06-.17-.45-.22-.69-.32-.15.24-.41.48-.42.73-.05.96.33 1.13.95.41Zm764.75 108.97c-.02.24.21.49.34.74.16-.22.43-.44.44-.67.01-.25-.21-.52-.33-.78-.16.24-.42.46-.44.71ZM960.91 242.08c.23-.13.55-.21.65-.41.1-.2.07-.67-.07-.75-.63-.38-1.07-.16-1.07.54 0 .21.32.41.49.62Zm-58.88 231.7c1.71.07 3.39.03 4.93-.78-1.81-.75-3.39-.07-4.93.78Zm4.93-.78c.08.03.15.05.23.09.02.01.03.02.03.02-.02-.06-.02-.11-.03-.16-.05 0-.1.01-.15.02a.3.3 0 0 0-.08.04Zm4.63-96.42c-.08-1.13-.12-2.26-.17-3.38.02 0 .03-.02.05-.03-.02 0-.03.01-.05.02l-.04.04c-.14.86-.25 1.72-.44 2.56-.17.79-.4 1.57-.62 2.36.69-.27 1.35-.56 1.28-1.56Zm31.99-65.82c-.1-.03-.45.37-.5.62-.11.45-.14.92-.18 1.38.44-.18.92-.32 1.18-.64.44-.55.17-1.13-.5-1.35Zm-.68 1.99c0 .1-.02.19-.03.29-.08 0-.15.02-.22.03v-.22c.08-.04.16-.07.24-.1Zm-.19.15s.07.06.1.09l-.1-.09Zm-1.35 2.51c.07.23.43.48.69.53.14.03.5-.33.52-.54.08-.77.07-1.55.09-2.32-1.38.17-1.64 1.09-1.29 2.34Zm589.16 156.55c-.39-.27-.78-.54-1.2-.86l-.04-.06s.02.04.03.05c0-.01-.01-.02 0 0 .02.03.03.05.05.08.38.26.76.53 1.15.79ZM990.81 633.87c-1.36 2.05-2.62 4.17-3.55 5.7-.63 1.47-1.02 2.3-1.32 3.17-.07.2.21.73.3.73.49-.04 1.22-.03 1.41-.34 1.67-2.58 3.29-5.19 4.81-7.86.22-.39-.16-1.12-.27-1.69-.48.09-1.2.02-1.39.3Zm75.31-122.03c-1.66 1.92-2.9 4.09-3.63 6.52-.07.24.08.59.23.82.14.22.42.34.64.51.3-.08.7-.07.9-.26 1.85-1.77 3.37-3.77 3.53-6.44.03-.44-.46-.96-.81-1.35-.1-.11-.69 0-.85.19Zm-13.39 21.61c-1.37 2.09-2.62 4.26-3.87 6.43-.09.15.17.57.35.78.15.17.54.35.66.27 2.46-1.65 3.82-4.07 4.68-6.75-.12-.37-.2-.88-.31-.89-.51-.03-1.33-.12-1.51.16Zm-11.18 19.47c-.04.14.27.47.49.58.21.11.59.15.76.04 1.62-1.07 2.38-2.47 1.78-4.36-2.37.11-2.52 2.09-3.03 3.74Zm-62.81 101.34c-.05.12.26.58.44.6.54.08 1.35.24 1.61-.04.52-.57.81-1.34 1.16-2.06-.81.09-1.63.04-2.38.26-.37.11-.63.77-.83 1.23Zm-7.07 10.81c-.33.4-.66.79-.95 1.22-.01.02.38.46.57.45.95-.03 1.72-1.13 1.12-1.54-.19-.13-.49-.09-.74-.13Zm10.56-16.39c-.25.53-.51 1.05-.76 1.58.25.2.54.6.72.55.75-.2 1.01-.77.7-1.49-.11-.26-.44-.43-.67-.64Zm26.88-42.39.29-.47-.47-.05.18.52Zm35.7-57.17s-.26-.17-.3-.22v-.02s-.01.01 0 .02c0 0 0 .01.01.02.03.09.05.18.08.27.03 0 .05-.01.08-.01l.15-.04Zm14.06-23.79.49-.16-.43-.29-.06.45Z" style="fill:#fff"/></svg>