<svg xmlns="http://www.w3.org/2000/svg" viewBox="0 0 1920 1080"><path d="M854.8 319.6c-.2-.2-.2-.4-.2-.4.2 0 .3.1.5.2l.3.3h-.5Zm-8.5 32.6c-5.7 3-11 6.5-16 10.4-7.4 5.7-15.5 10.1-24.3 13.3-7.2 2.6-14.5 5.1-21.7 7.7-1.8.6-3.5 1.5-5.2 2.4-3.5 2-7.2 2.5-11.1 1.8-3.5-.6-7-1.1-10.4-2-4.5-1.1-8.3-3.3-10.6-7.6-1.5-2.9-3.5-5.3-5.8-7.5-5-4.9-7.4-11.1-7.8-18.1-.5-8.6-.6-17.3 1.2-25.8.3-1.5.2-3.1.2-4.7 0-.3-1.1-.8-1.5-.7-.9.3-1.7.8-2.4 1.5-4.1 4-8.1 8.1-12.2 12.2-8.2 8.1-16.2 16.4-24.9 23.9-4.3 3.7-8.3 7.9-12.2 12.2-11.3 12.3-23.7 23.3-36.4 34-2.5 2.1-5.3 3.5-8.6 4.1-2.5.4-5 1.1-7.5 1.4-2.5.3-5.1.6-7.6.5-7.1-.5-12.9-3.6-16.5-10-1.6-2.8-2.7-5.8-4-8.7-.5-1.2-1-2.3-1.6-3.4-.1-.3-.5-.4-1-.8-1 .5-2.1.9-3.1 1.6-17.1 12.3-34.7 24-51.5 36.9-4.6 3.5-9.4 6.6-14.2 9.9-1.3.9-2.7 1.7-4.2 2.3-6.5 2.6-12.5 1.9-17.9-2.7-2.5-2.1-4.6-4.5-6.2-7.3-6.7-12.1-9.8-24.9-6.7-38.8 1.6-7.2 2.9-14.4 4.3-21.6.2-1.2.2-2.5.3-3.8 0-.8-1.3-1.9-2-1.7-.9.3-1.9.4-2.7.9-4 2.6-8.1 5.1-12 7.9-6.2 4.5-12.2 9.3-18.3 14-1.3 1-2.5 2-3.6 3.1-10.1 10.2-21 19.7-31.9 29.1-5.8 5-11.4 10.3-16.8 15.8-5.6 5.7-11.3 11.4-16.8 17.1-2.7 2.8-5.8 5-9.2 6.8-2.6 1.4-5.8.9-8-1.1-.7-.6-1.4-1.3-2-2.1-2.2-3.1-4.5-6.2-6.6-9.4-3.4-5-4.9-10.3-2.8-16.3 3.2-21.2 8-42.1 10.5-63.4.7-6 2-12 2.8-18 .5-3.5.5-7 .6-10.5 0-.5-.5-1.1-1-1.3-.5-.2-1.3-.2-1.8.1-3.7 2.5-7.3 5.1-10.2 8.6-2.2 2.7-5.2 4.8-7.5 7.3-4.8 5.2-9.4 10.5-14.1 15.7-8.4 9.6-16.8 19.3-25.3 28.9-2.6 2.9-4.8 5.9-6.5 9.4-2.1 4.4-5.1 8.2-8.2 11.8-9.2 10.3-16.7 21.8-24.1 33.4-5.4 8.3-10.6 16.7-16.6 24.7-3.5 4.6-6.3 9.6-9.4 14.5-3.8 5.9-7.8 11.7-12.6 16.9-3 3.3-5.4 7.2-8.1 10.7-1 1.2-2 2.5-3.3 3.4-3.8 2.5-7.7 2.6-11.6-.2-6.2-4.4-11-9.8-13.2-17.1-1.6-5.3-1.7-10.7-.9-16.2.8-5.7 1.9-11.4 2.9-17 1.8-10.1 4.6-19.9 8.2-29.5 2.6-6.9 5.2-13.8 7.9-20.6 2.8-7.1 6.2-14 7.4-21.7.5-3.6 4.6-5.7 8.2-4.8 5.7 1.4 10.7 4.3 14.3 9.1 3.3 4.5 4.2 9.2 1.5 14.4-1.5 2.8-2.7 5.8-3.8 8.8-1.7 4.8-3.5 9.6-6.1 14-.8 1.4-1.4 2.9-2 4.4-4.5 12.3-8.9 24.6-13.4 37-.3.9-.5 1.9-.5 2.8 0 .4.6.9 1.1 1.2.2.1.7 0 .9 0 .9-.9 1.9-1.8 2.6-2.8 2.7-3.6 5.4-7.2 7.9-10.8 11.3-16.3 22.4-32.7 33.7-49 2.4-3.4 4.8-6.8 7.4-10 16.5-20 32.4-40.5 49.6-59.8 10.2-11.5 21.1-22.3 32.3-32.8 3.7-3.5 8.1-6.3 12.5-8.9 3.6-2.1 7.4-2.3 10.8.3 2.6 2 5.7 2.9 8.5 4.3 4 2 6.5 5.3 6.7 9.8.4 8.3.9 16.6 0 24.9-.2 1.9-.3 3.9-.9 5.7-1.8 6.2-2.8 12.4-3.3 18.8-.2 2.8-1.4 5.6-2.5 8.2-2.2 5.1-3.3 10.3-3.1 15.9.2 5.5-.6 10.8-2.5 16-.9 2.3-1.9 4.8-1.4 7.4.2.8.7 1.1 1.4.9.6-.1 1.3-.2 1.8-.5 1.3-.9 2.6-1.9 3.7-3 16-14.7 32.1-29.4 48.1-44.1 12.3-11.3 25.7-21.1 40.2-29.4 4.7-2.7 9.4-5.5 13.4-9.2 3.8-3.5 8.2-4.8 13.3-4.3 1.7.2 3.1.9 3.9 2.4 1 1.9 2.5 2.7 4.6 2.9.9 0 1.9.3 2.8.7.8.4 1.7 1.1 2 1.9 1.2 3 1.8 6.1 1.4 9.4-1 7-1.7 14-3 20.9-1 5-2.8 9.8-4.3 14.7-1.9 6.4-3.9 12.8-5.9 19.3-1.1 3.7-1.5 7.5-1.1 11.4.2 1.7 1.9 2.8 3.4 2.1 1.4-.7 2.9-1.4 4.2-2.3 4.1-2.5 8.2-5 12.1-7.8 14.4-10.1 28.7-20.3 43.1-30.5 2.1-1.5 4.2-2.9 6.3-4.4 10.4-6.9 20.3-14.5 29.9-22.5 3-2.5 5.6-5.2 7.7-8.4 4.9-7.1 10-14.1 14.9-21.2 5-7.1 10.5-13.7 16.5-19.9 3.3-3.5 6.8-6.8 10-10.3 6-6.4 13-11.4 20.5-15.6 3.6-2 7.5-3.7 11-5.8 6.3-3.7 12.8-3.3 19.5-1.4 2.8.8 5.5 2 7.6 3.9 1.2 1 2.1 2.4 2.9 3.7.9 1.4 0 3.6-1.6 3.7-.6 0-1.3.2-1.9.2-7.3-.2-13.7 2.3-20 5.9-7.9 4.5-14.7 10.1-20.5 17.1-7.4 8.8-14.6 17.8-19.8 28.2-.8 1.7-2.2 3.2-3.6 4.4-5.3 4.8-9.4 10.5-13.2 16.4-2.2 3.5-4.3 7.1-6.7 10.5-1.9 2.7-3.5 5.2-3.8 8.6 0 1.5-1.1 3-1.9 4.3-1.6 2.7-3.4 5.4-5.1 8.1-.2.4.1 1.3.5 1.7.4.4 1.2.7 1.6.5 1.7-.8 3.5-1.6 5-2.7 10.6-7.3 20.4-15.5 29.6-24.4 7.1-6.9 14.4-13.7 21.4-20.6 8.2-8.1 16.3-16.3 24.5-24.4 7.3-7.2 14.7-14.2 22.2-21.2 2.8-2.6 5.8-5 8.8-7.4 1-.8 2.3-1.2 3.6-.5 3.2 1.7 6.5 2.4 10.1 2.3 3 0 5.7.9 7.4 3.6.2.3.4.5.6.7 4 2.6 4.8 6.5 4.4 10.9-.1 1.6-.8 3.2-.6 4.7.7 7.8-1.6 15.2-3.3 22.6-2.3 9.6-4.2 19.4-6.2 29-.4 2.1.9 3.6 3.1 3.7 4.5.2 8.9-.5 13.3-1.5 9.7-2.3 18.8-6.3 27.4-11.3 2.2-1.3 4.4-2.7 6.5-4.1 21.3-14.8 43.6-28 65.8-41.3 9.3-5.6 19-10.6 28.5-15.8 2-1.1 3.9-2.2 5.3-4 12.4-16.1 27.5-29.4 42.7-42.6 10.2-8.9 21.7-15.8 32.7-23.4 1.6-1.1 3.3-2 5.1-2.7 1.4-.6 3-1.2 4.6-1.3 8.4-.4 16.6.2 24.1 4.8.5.3 1.2.6 1.8.6.6 0 1.3 0 1.8-.4.8-.5 1.5-1.2 2.1-1.9 5.6-8.2 12.4-15.4 18.6-23.2.6-.7 1.3-1.4 2-2 1.3-1 2.9-1.4 4.5-1.1 3.4.6 5.8 2.7 7.1 5.8.5 1.1.5 2.5.3 3.7-1.8 10.4-3.4 20.8-5.7 31.1-2.6 11.5-5.6 23-10.4 33.9-2.7 6.1-4.9 12.5-5.1 19.4 0 2.3-.8 4.3-1.6 6.5-.9 2.4-1.6 4.8-2.2 7.3-.1.5.3 1.2.6 1.7.4.6 1.8.8 2.6.2 2.1-1.4 4.2-2.9 6.3-4.3 3.7-2.4 6.9-5.6 11.3-7.1.2 0 .6.2.8.4.1.2.3.5.2.7-.3.5-.7 1.1-1.1 1.5-2.7 2.2-5.4 4.5-8.2 6.6-1.8 1.4-3.5 2.8-5.5 3.9-1.9 1.1-4.1 1.7-6.2 2.6l-2.7 3.9c-1.2 1.8-1.5 3.3-.7 3.3.9 0 1.9-.1 2.6-.5 3.2-2.1 6.5-4.1 9.5-6.5 8.3-6.5 17.2-12.2 26-18 7.2-4.8 14-10.1 20.9-15.2.3-.2.3-.9.4-1.4-.6 0-1.3-.4-1.8-.2-3.4 1-6.3 2.9-9.1 5.1-1.2 1-2.7 1.9-4.4 1.6-.5 0-1-.6-1.3-1-.1-.1 0-.7.2-.9.4-.5.8-1 1.2-1.4 1.3-1 2.6-1.9 3.9-2.8 5.8-4 12-7.3 18.4-10.3 3.2-1.5 6.4-2.9 9.5-4.6 5.9-3.2 11.8-6.4 18.3-8.4 1.2-.4 2.4-.8 3.6-1.4 2.3-1.2 4.2-2.7 5.6-5 3.7-6 7.6-11.8 11.4-17.7 2-3.1 4.5-5.3 8-6.5 2.2-.7 4.4-1 6.6-.2 5.2 1.8 10 4.4 14.2 7.8 1 .8 1.5 2.1 1.2 3.5-.3 1.3-1 2.3-2.3 2.8-.6.2-1.2.3-1.9.4-.6.1-1.3.1-1.9.3-3.6.9-6.5 2.9-8.1 6.2-2.2 4.6-4 9.4-5.9 14.2-.4 1.1-.2 2.5-.3 3.8 0 2-.7 3.6-2.4 4.9-1.2 1-2.3 2.3-2.9 3.7-4.1 8.7-8.2 17.4-10.7 26.7-.6 2.2-1.2 4.3-1.7 6.5-1.4 6.2-2.2 12.5-4.3 18.6-1.9 5.4-.5 10.8 1.6 15.9.6 1.5 2.1 2.3 3.8 2.6 2.9.6 5.8.5 8.6-.4 2.7-.8 5.5-1.8 8-3.1 7.6-4 15.4-7.9 22.7-12.4 7.3-4.5 14.3-9.7 21.2-14.9 16.3-12.3 31.6-26 47.1-39.4 4.3-3.8 8.6-7.6 13.6-10.5 2.2-1.3 4.1-3.1 5.6-5.2 3.5-4.7 7.9-8.3 12.4-11.9 5.5-4.4 10.9-8.9 16.2-13.5 4.4-3.8 9-7.2 14-10 2.5-1.4 3.6-3.5 4-6.1.4-2.5.5-5.1 1-7.6.4-2.5.9-5 1.6-7.5 1.1-3.4 5-5.6 8.4-4.6 4.7 1.3 9 3.3 12.8 6.4 3.4 2.8 3.4 3.8 1.6 7.4-2.3 4.6-3.5 9.5-4.2 14.6-.7 5-2.8 9.8-4.5 14.6-3.2 9-6.6 18-9 27.3-.2.9-.5 1.8-.6 2.8 0 .3.2.7.4.8.5.2 1.3.5 1.7.2.8-.4 1.6-1.1 2.3-1.7 9.8-9.7 19.6-19.3 28.3-30 5.4-6.7 11.5-12.8 18.1-18.5 5.3-4.6 10.5-9.4 16.2-13.5 1.3-.9 2.5-2 3.5-3.2 6.5-7.1 14-13.1 21.9-18.6 2.4-1.6 4.6-3.5 6.6-5.5 5.1-5 11.1-8.6 17-12.5 2.7-1.8 5.8-2.6 9-3.1 2-.4 3.9 0 5.4 1.3 3.2 2.6 6.4 5.3 9.5 8.1 1.7 1.6 2.6 3.7 2.7 6 .1 2.9 0 5.8-.1 8.6-.6 12.8-1.1 25.6-1.9 38.3-.4 7-1 14-1.8 21-.3 3.2-.3 6.4.6 9.5.4 1.4 2.1 2.8 3.6 2.7 1.6-.1 3.2-.2 4.7-.6 6.2-1.6 12.3-3.5 18.1-6.2 4.6-2.1 9.3-4.3 13.9-6.5 1.7-.8 3.5-1.7 5-2.8 4.6-3.5 9.7-6.2 14.6-9.1 6.3-3.8 12.5-7.7 18.6-11.8 5.6-3.7 11.2-7.4 17.2-10.5 2.6-1.3 5-2.8 7.5-4.3 14.6-8.7 29.2-17.2 43.7-26 11.2-6.8 22.2-13.9 33.2-21 1.6-1 3-2.4 4.3-3.8 1.7-1.9 3.3-3.9 5-5.9 9.2-11.2 20-20.7 31.1-29.9 2.4-2 5.3-3.6 8.1-5.1 3.1-1.7 6.3-3.1 9.5-4.5 3.8-1.7 7.5-3.5 10.7-6.2 3.9-3.4 8.5-4.1 13.5-2.7 2.4.7 5 1 7.5 1.3 2.3.2 4.3 1.1 6.1 2.6 3.2 2.7 6 5.8 8.4 9.2.7 1 1.3 2.2 1.9 3.3 1.9 4 2.1 8 .2 12-2.4 4.9-4.8 9.8-7.3 14.6-2.1 4-4.9 7.4-8.5 10.2-2.8 2.2-5.4 4.5-7.8 7.1-9.1 9.9-20.2 16.6-32.4 21.7-2.4 1-4.9 1.6-7.2 2.8-6.8 3.3-14 4.3-21.3 5-4.8.5-9.5 1-14.3 1.6-2.4.3-4.2 1.4-5.3 3.6-3.8 7.7-7.8 15.4-11.4 23.3-1.5 3.2-2.4 6.6-3.3 10-.5 1.8-.5 3.8-.4 5.7 0 2.4 2.3 5 4.7 5.5 5.7 1 11.4 2.1 16.9-.8 10.7-2.5 20.5-7.1 30.3-11.7 3.5-1.6 6.9-3.5 10.1-5.5 10-6.3 19.9-12.8 29.1-20.3 2.2-1.8 4.3-3.8 7.6-3.4.7 0 1.8-.8 2.3-1.5 4.8-6.1 11-10.6 17.6-14.5 3.3-2 6.4-4.2 9.6-6.3 9.2-6.3 18.5-12.7 27.7-19 5.5-3.8 11.1-7.5 17.1-10.7 3.6-2 6.8-4.8 10.2-7.1 1.6-1.1 3.2-2.1 4.9-3 3.1-1.6 6.2-1.3 9.1.6 2.7 1.7 5.4 3.4 8.3 4.7 1.8.8 3 2.3 3.6 4.3.7 2.2-.3 5.1-2.2 5.8-8.5 3.1-15.7 8.6-23.2 13.4-8.9 5.7-17.9 11.2-26.8 16.8-4.1 2.5-8 5.2-11.6 8.5-3.3 3-7.1 5.4-10.9 7.8-16.7 10.7-33.3 21.5-49.1 33.5-10.5 8-21.9 14.3-34.3 18.9-3.9 1.4-7.8 2.8-10.9 5.9-2.1 2-4.9 3-7.8 3.4-9 1.2-18 .2-26.5-2.9-9.1-3.3-15.6-9.9-19.2-19-1.3-3.3-2.1-6.7-2.9-10.1-1-4.1-.7-8.2.6-12.3 2-6.4 3.9-12.8 5.8-19.2 0-.2-.2-.6-.3-.9-.3-.7-.8-.9-1.5-.5-.9.4-1.7.8-2.5 1.3-2.3 1.7-4.8 3.2-7.7 3.7-2.5.5-3.9 1.8-4.6 4.2-.3 1.1-1.3 2.2-2.3 2.9-2 1.5-4.2 2.9-6.4 4.2-25.4 16-50.8 32.2-77.1 46.8-1.7.9-3.3 2-4.8 3.1-6.4 4.9-13.6 8.4-20.8 11.9-4.3 2.1-8.9 3.3-13.8 3.8-7 .7-13.3-1.2-19-5.2-1.6-1.1-3.1-2.3-4.5-3.5-3.6-2.9-5.9-6.7-6.8-11.3-1.9-9.7-3.5-19.5-4-29.4-.4-7.4.8-14.7 2.2-21.9 1.4-6.9 2-13.9.8-21-.1-.7-1.5-1.7-2.1-1.5-.3.1-.7 0-.9.2-10.5 6.1-21 12.3-31.4 18.4-5.1 4.4-10.3 8.6-15.2 13.2-5.9 5.4-11.6 11-17.3 16.6-1.2 1.1-2.2 2.3-3.5 3.3-10.2 7.3-18.5 16.7-26.4 26.3-7.1 8.7-13.6 17.8-20.2 26.8-1.7 2.3-3.1 4.9-4.4 7.4-2.7 5.2-6.1 9.8-10.5 13.6-2.4 2.1-4.6 4.4-6.1 7.3-1.1 2.2-3.2 3.1-5.6 2.8-1.2-.2-2.6-.6-3.5-1.4-3.1-2.9-5.4-6.3-7-10.2-1.3-3.1-1.3-6.3-.7-9.4.8-4.4 1.7-8.8 2.9-13.1 1.9-7.1 4-14.2 6.1-21.2.6-2.1 1.7-4.1 2.5-6.2.6-1.5 1.3-2.9 1.6-4.5.1-.8-.4-2-1.1-2.5-.6-.5-2-.7-2.6-.4-3 1.8-5.9 3.8-8.8 5.8-.8.5-1.7 1.1-2.1 1.9-2.1 3.9-5.6 6-9.3 8-.8.4-1.4 1.3-2 2-.5.5-.3 2 .4 2.5.7.6 1.5 1 2.2 1.5-.5 2.2-2.2 3.3-3.6 4.5-3.8 3.4-7.7 6.8-10.8 10.9-.8 1-1.7 1.9-2.7 2.6-4.6 3.1-8.3 7-12 11-1.3 1.4-2.6 2.8-4.1 4.1-10.7 9.1-21.5 18.2-32.3 27.2-7.4 6.2-15.1 11.8-23.6 16.3-3.1 1.6-6.1 3.5-9.1 5.4-12.7 8.1-26.7 10.3-41.4 9-1.2-.1-2.6-.6-3.5-1.4-6.4-5.5-11.8-11.7-15.6-19.2-4-7.8-6.3-16-5.7-24.9.7-10.9 1.6-21.7 5-32.1.7-2 2-4 1.1-6.7h-7.4c-.9 0-1.6-1.2-1.2-2.1.2-.6.7-1.1.9-1.7.1-.4 0-1-.2-1.4 0-.1-.6-.2-.9-.1-2.1.6-4.3 1.2-6 2.8-.6.6-.6 1.8.3 2.2.6.3 1.3.3 1.8.7.4.4.7 1.1.7 1.6s-.4 1.3-.8 1.5c-1.8.7-3.6 1.2-5.5 1.7-.7-.9-1.1-1.7-1.8-2.4-.4-.4-1.2-.9-1.6-.8-5.3 1.3-10.3 3.4-13.3 8.4-.1.2-.1.5-.1.7-3.1.5-6.1 1.1-8.7 3.1-.7.5-1.1 1.5-1.6 2.2-.1.2 0 .6.1.9.1.3.4.6.7.6 2.7.4 4.7-1.7 7.2-1.9.3 0 1.1.8 1.1 1.1-.3 1.6-.9 3.3-2.8 3.4-3.6.2-6.6 2.2-10.1 2.8-1.4.3-2.6 1.5-3.9 2.3.7 1.1.8 2.3.4 3.6-.6 1.9-1.8 3.5-3.5 4.4-2.5 1.3-5.3 2.2-8.2 2.1-.2 0-.5-.3-.6-.4 0-.3 0-.7.2-.9 2.1-1.9 4.3-3.7 6.3-5.7.3-.2 0-1.1-.1-1.6 0-.2-.5-.4-.8-.4-.3 0-.7-.1-.9 0-7.9 4.3-15.1 9.4-21.5 16.5 1.3.3 2.3.8 3 .6 2.7-.9 5.1-2.6 7.4-4.4.7-.5 2-.2 2.5.7.5.8.4 2-.3 2.6-1.5 1.2-3.1 2.3-4.5 3.5-3.3 2.9-6.7 3.3-10.3.4-.2-.2-.6-.2-1.1-.3-2.9 1.1-5.2 3.3-7.6 5.3-1.6 1.3-2.4 3.1-2.1 5.1.3 2.1-.3 3.7-1.6 5.2-.8.9-1.8 2-2.1 3.1-2.7 8.8-7.5 16.9-9.8 25.9-.3 1.2-1.1 2.3-1.8 3.4-1 1.6-3.3 2.4-3.4 4.5-.1 3-2.5 5.2-2.3 8.2.2 2.8-1 4.9-3 6.7-1.8 1.7-2.3 3.7-1.4 6.1.3.9.3 2-.6 2.6-3.3 2.5-3.9 6.3-5 10-.3.9-.6 2.1-1.2 2.4-3.1 1.8-3.9 4.9-4.9 7.9-2.3 6.3-4.5 12.6-7 18.8-1.4 3.5-3 7.1-5 10.3-4.6 7.3-8.8 14.8-13.1 22.3-.6 1.1-1.6 1.9-2.4 2.9-.2.2-.8.3-.9.2-.3-.5-.8-1.2-.7-1.5 1.3-2.9 2.7-5.8 4.2-8.6 3.8-7.4 7.7-14.7 11.3-22.2 2.1-4.3 4.1-8.7 5-13.4.2-.9.2-1.9.2-2.8 0-1.5-.8-2.2-2-2.9-1.8-1-2-1.7-1.5-2.9.2-.6.6-1.1 1-1.6.8-1 1.8-.5 2.5 0 1.4.7 2.5.3 3.4-.7.7-.7 1.3-1.4 1.7-2.3 1.4-2.9 2.9-5.7 4-8.7 2.9-7.4 5.7-14.9 8.6-22.3.5-1.2.8-2.4.4-3.7 0-.3-.2-.8-.4-.8-.6 0-1.4-.3-1.8 0-.7.6-1.2 1.4-1.5 2.2-.3.7-.6 1.3-1.2 1.1-.3-.1-.6-1-.5-1.5.5-3.1 1.1-6.1 3.6-8.6 1.8-1.9 1.8-4.6 1.5-7.2 0-.3-.3-.7-.6-.7-.6 0-1.4-.3-1.7 0-1.1 1.2-1.9 2.5-3 3.7-1.8 2.2-3.5 4.6-5.7 6.5-13.4 12-25 25.6-37.2 38.6-2.4 2.6-4.4 5.5-6.4 8.3l-18.3 25.8c-1.9 2.6-3.6 5.3-4.5 8.4-.9 3.1-2.4 5.9-4.1 8.6-3.5 5.5-5.7 11.4-6.9 17.8-1 4.7-1.8 9.4-2.5 14.1-.4 2.3 0 4.4 1.3 6.4 1.6 2.6 5.6 4.4 8.3 3.4 5.2-1.8 10-4.2 13.9-8.2 5.6-5.7 10.9-11.7 15.1-18.5.8-1.3 1.5-2.8 3.1-3.2.3 1.2.1 2.4-.5 3.5-2.6 4.4-5.1 8.8-7.7 13.3-.5.8-1.1 1.6-1.3 2.5-.1.5.1 1.3.5 1.7.3.3 1.3.5 1.6.3 1-.7 2.2-1.5 2.8-2.5 1.7-2.7 3.2-5.5 4.9-8.2 1.9-3.3 3.7-6.7 6.8-9.2.4-.3 1.3-.5 1.6-.2.4.3.6 1.2.5 1.7-.3 1.2-.6 2.5-1.3 3.6-5.7 10-12.4 19.3-19.9 28.1-2.3 2.6-5 5-7.7 7.1-2 1.5-4.4 2.6-6.7 3.6-2.1.9-4.4.7-6.6 0-3.1-1-5.8-2.7-8.2-4.7-9.2-7.8-14.4-17.8-15.8-29.7-.3-2.5-.3-5.1-.4-7.7-.3-6.9 1.3-13.2 4.6-19.3 3.2-5.9 6-12 9-18 3.3-6.6 7-12.9 11.7-18.6 3.4-4.2 6.7-8.6 9.9-12.9 5-6.6 10.4-12.9 16.2-18.9 6.7-6.9 13.4-13.7 20.1-20.5.9-.9 2-1.6 3-2.2.6-.4 1.3-.2 1.7.5.1.2.2.6.1.8-.5.8-.9 1.7-1.6 2.3-3.7 4-7.6 7.8-11.2 11.8-1.3 1.4-2.2 3.1-3.2 4.7-.1.2 0 .6.1.9.3.7.9.7 1.6.3 3-2 5.2-4.7 7.5-7.3 4.3-4.7 8.6-9.5 13.1-14 2.9-2.9 6.1-5.7 9.4-8.1 2.6-1.9 4.4-4.4 6-7.1 4.9-2.3 9.2-5.4 13-9.3 1.3-1.3 2.4-2.9 3.4-4.6.4-.7.6-2 .3-2.7-1.4-2.7-.6-4.9 1.1-7 2.2-2.8 4-5.8 5.2-9 2.1-5.6 4-11.3 6.6-16.8.9-1.9 1.2-4.3 1.4-6.4.5-5 2.4-9.2 6.2-12.4l-.2.6.4-.4c-1-1.8-.8-3.7-.5-5.6.5-2.5 1.1-5 1.8-7.5 3-10.8 6.1-21.5 9-32.3.5-1.8.7-3.8.9-5.6 0-.3-.2-.8-.4-.8-.5-.1-1.4-.3-1.7 0-1 .8-1.9 1.8-2.5 2.8-6.6 10.6-14.6 20.2-22.9 29.5-11.6 12.8-22.8 25.9-33 39.9-2.4 3.4-5.3 6.4-7.9 9.7-2.4 3-4.8 6-6.9 9.2-3.4 5.1-7.4 9.7-12.1 13.5-5.7 4.7-11.5 9.1-17.3 13.7-2 1.6-4.1 3-6.1 4.6-5.9 4.7-12.7 5.7-19.9 5.2-4-.3-7.3-2.4-9.9-5.4-5.9-6.8-9.1-14.6-8-23.8.3-2.2.5-4.4.7-6.6 0-.3-1-1-1.4-.9-1.2.4-2.4 1-3.4 1.6-6.5 4.1-13 8.2-19.4 12.4-.4.3-.6 1.1-.8 1.6-.3.7 1 1.4 2.2 1.1.9-.2 1.8-.7 2.7-.8.3 0 1 .9.9 1.2-.9 2.4-1.9 4.8-4.7 5.6-2.3.7-3.9 2.1-5.1 4.2-1.5 2.6-3.7 4.3-6.3 5.7ZM924 499.6c0 .3 0 .6.1.9.3.7.9.8 1.6.5 1.5-.7 2.7-1.7 3.1-3.3.2-.8-.2-1.7-.3-2.7-2.5.8-4.1 2.3-4.6 4.6Zm3.4-93.9c-.2-.2-.4-.6-.6-.7-.3 0-.7 0-.9.3-2.1 2.4-4.3 4.8-6.1 7.4-1.3 1.8-2.1 3.9-3.1 5.9 0 .1.2.6.4.7.2.2.6.3.8.2 4.7-3.5 7.9-8 9.5-13.7Zm13.2-15.4c-.2-.2-.3-.5-.5-.7-.2-.2-.5-.4-.7-.3-3.1 1.1-5 3.5-6.1 6.5-.2.4.1 1.3.5 1.5.4.3 1.2.4 1.7.1 2.6-1.3 4.3-3.5 5.2-6.2v-.9Zm53.3-24.3c-.5-.3-1-.8-1.5-.8-1.4.1-2.1 1.3-1.6 2.7.1.4.9 1 1.3.9 1.3-.2 2.1-1.6 1.8-2.9Zm1.8-5.5-.2-.6-.3.5h.6Zm2.4-6.3c0-.5-.3-1-.5-1.6-.2 0-.6.1-.6.2-.1.5-.2 1-.1 1.6 0 .2.5.4.6.4.2-.1.6-.4.6-.6ZM1641.4 176c.6.2 1.3.5 1.8.4 2.4-.8 4.8-2.1 7.2-2.4 8.5-.9 15.9-4.6 23.1-8.8 3-1.8 5.9-3.8 9-5.5 11.1-5.9 20.7-13.9 29.4-22.9 4.9-5 7.7-10.9 9.1-17.6.2-.9.2-1.9.3-2.7-.3-1.5-.4-2.7-.7-4-.4-1.3-1.3-2.2-2.5-2.7-1.1-.4-2.5-.3-3.3 1.1-1.2 2.1-2.9 3.3-5.1 4-.9.3-1.9.5-2.8.8-9.6 2.8-18.2 7.6-26.1 13.8-10.1 7.9-19.1 17.1-27.4 26.8-4.3 5.1-8 10.8-11.9 16.2-.2.3-.3.6-.4.9-.5.9-.4 2.3.3 2.6Zm-79.7 28.7c0 .2 0 .5.2.7.2.2.6.5.8.4 1.2-.2 2.5-.3 3.7-.7 5.4-2.1 10.3-5 15.2-8 6.2-3.9 12.4-7.9 19.2-10.7 1.4-.6 2.9-1.4 4-2.6 2.3-2.4 5-3.8 7.9-5.3 1-.5 1.6-1.9 2.3-2.9.5-.8-.1-2.1-1-2.1s-2-.1-2.8.2c-4.3 1.4-7.9 4.1-11.6 6.6-.5.3-1.1.8-1.3 1.4-1 2.6-3.2 3.7-5.5 4.9-7.4 3.8-14.7 7.7-21.9 11.6-2.8 1.5-5.5 3.2-8.2 5-.5.3-.6 1-1 1.6Zm-7 4.5c.2.2.5.6.7.5.9-.2 1.8-.4 2.6-.7.2 0 .2-.5.2-.8 0-.3-.1-.7-.3-.8-.9-.6-1.8-.2-2.4.4-.4.3-.5 1-.8 1.5Zm-10 5.7c.2.2.5.5.7.5 2.3.3 4.1-.7 5.3-2.7-.5-.3-.9-.8-1.4-.9-2-.1-3.4.8-4.6 2.4-.1.2-.2.5 0 .6Zm-8.2 4.4c0 .5.6 1.1 1 1.2.8.3 1.9-.7 2-1.7-.3-.3-.7-.9-1.1-1-1.2-.2-2.1.5-1.9 1.5Zm-38 22.2.8.3v-.6l-.8.3Zm-6.1 4.2c.2 0 .5-.1.7-.2v-.7c-.2-.2-.6-.3-.7-.2-.7.3-.6.8 0 1.1Zm-206-7.1c.4.4.9.4 1.4 0 .2-.2.5-.5.5-.7-.1-.7-.7-.9-1.3-.7-.6.3-.8.7-.6 1.4Zm-42.3 34c.2.2.6.4.8.4.9-.2 1.9-.4 2.6-.9 3.4-2.4 6.7-4.9 9.9-7.5 9.1-7.6 18.1-15.2 27.1-22.9.7-.6 1.2-1.4 1.7-2.2.1-.2 0-.4 0-.7-.9 0-1.9 0-2.6.4-3.2 2.1-6.5 4.1-9.5 6.5-9.6 8-19.1 16.1-28.6 24.2-.7.6-1.2 1.4-1.8 2.2 0 .1 0 .5.2.7Zm-133-9.9c3 1 4.1.8 5.4-1.4.1-.2 0-.5 0-.7-.1-.2-.4-.5-.7-.5-2.1-.1-3.4 1.2-4.6 2.6Zm-17.2-.1c.2.2.4.3.6.5.2-.1.5-.2.7-.3-.4-.6-.8-.6-1.4-.1Zm-5.9 3.9c.2.1.4.4.6.4.2 0 .4-.2.7-.2-.2-.1-.4-.4-.6-.4-.2 0-.4.2-.7.2Zm-25.8 25c.2.2.3.5.5.5s.4-.3.6-.4c-.2-.2-.3-.4-.5-.5-.2.2-.4.3-.6.5Zm-4.3 3.6.3.6c.3.4.7.8 1 1.2 0-.6.2-1.1 0-1.6-.2-.6-.8-.7-1.4-.3ZM906 329.9c.2.5.3 1.7 1 2.1.6.4 1.8.2 2.7 0 .9-.2 1.8-.7 2.6-1.1 4.7-2.7 9.2-5.7 13.3-9.4 3.3-3 6.8-5.8 10.1-8.8 1.9-1.7 3.9-3.3 5.7-5.2 13.7-14.3 27.6-28.4 40.2-43.7 6.3-7.7 12.7-15.2 19-22.8.6-.7 1.4-1.5 1.7-2.3.3-.8.4-2.2 0-2.7-1.6-1.7-1.4-3.3-.6-5.3.7-1.8.9-3.7.4-5.6-.4-1.3-2.6-2.6-3.8-2-1.4.7-2.9 1.5-3.9 2.7-2.8 3.5-6 6.6-9.8 9.1-1.6 1-2.8 2.6-4.3 3.8-7.8 6.6-15.6 13.1-22.7 20.5-1.3 1.4-2.9 2.4-4.5 3.6-4.9 3.7-9 8.2-11.7 13.7-1.8 3.5-4.3 6.3-6.9 9.1-10 10.5-17.8 22.5-25.3 34.8-1.7 2.8-2.8 5.7-3 9.4Zm-25.9-25.4c3.1-1.4 6.1-2.8 9.1-4.3.7-.3 1.1-1.2 1.6-1.9-4.5-.7-7.8 1.6-10.7 4.7-.3.3 0 1 0 1.5Zm-.5-.4.3.5-.4-.4Zm-9.7 4.9c.5.2 1 .7 1.5.6.5 0 1-.5 1.5-.8 0-.3.2-.6.1-.9s-.4-.6-.6-.6c-.5 0-1.2 0-1.6.2-.4.3-.6.9-.8 1.4Zm-10.3 6.9c.2.2.5.5.7.5 2.2-.4 4.3-1 5.3-3.4 0-.3 0-.6-.2-.7-.2-.2-.5-.5-.8-.5-2.4.1-4.2 1.1-5.2 3.4 0 .2 0 .6.2.8Zm-11.4 7c0 .1.6.2.8.2 2.8 0 4.6-1.7 6.2-3.5h.4l-.6-.3c-.3-.3-.5-.3-.5-.2-2.5-.8-4.7 0-6.5 2.1-.3.3 0 1.1.1 1.6Zm-525 56.6c-.5-.1-1.2.1-1.6.5-.3.4-.3 1.1-.4 1.6 0 .1.4.3.6.5.5-.4 1-.7 1.4-1.1.6-.6.6-1.3-.1-1.4Zm10.4-11.5h-.5l.2.5.3-.5Zm6.9-7.5c0-.2-.2-.7-.3-.7-.3 0-.7 0-.9.2-.7.6-.5.9.4.9.3 0 .5-.3.7-.4Zm350.4-23.1c.2-.1.4-.3.6-.4-.5-.2-.7 0-.6.4Zm1.1-1.2s-.2-.2-.2-.4v.7c0-.1.1-.2.2-.3Zm7.5-6.2c-.7-.3-1.3-.8-1.7-.7-.5.1-1 .7-1.2 1.2-.2.4-.3 1.3 0 1.4.4.3 1.3.4 1.6.1.6-.5 1-1.3 1.4-2.1Zm6.5-6.6c0-.3-.3-.6-.5-.6-.9-.2-1.7.1-2.1 1 0 .3.5 1 .8 1.1 1 .2 2-.7 1.8-1.5Zm6.3-5.5c-.3-.7-.4-1.2-.7-1.7 0 0-.6 0-.7.2-.6.6-1.2 1.2-1.8 1.9-.1.2-.1.6 0 .9.3.7.9.9 1.4.5.7-.5 1.2-1.1 1.8-1.7Zm6.3-6.6c-.1-.3-.3-.8-.3-.8-.5.1-1.2.1-1.6.5-.9 1-.8 2.2.1 2 .5-.1 1-.5 1.4-.9.2-.2.2-.6.4-.8Zm6.5-6.9c-.3-.3-1.3-.4-1.5-.2-.5.6-.9 1.4-1.2 2.1 0 .1.4.4.7.8.7-.4 1.5-.7 2-1.3.3-.3.2-1.2 0-1.5Zm6.3-5.7c0-.3-.4-.5-.6-.7-.4 0-.7.1-1 .3-.9.4-1.5 1.1-1.2 2.1 0 .3.4.7.6.7 1.1.1 2.4-1.2 2.2-2.4Zm93.4 51.9c0-.4-.9-1-1.3-1-1.6 0-3.3 0-4.7.6-9.7 4-19.3 8.1-28.9 12.3-.5.2-.8.9-1.1 1.5-.1.2-.1.6 0 .8.2.3.5.5.7.6 2.4.4 4.2-1.2 6.1-2.3 3.7-2 7.4-3.8 12.1-3.2 2.6.6 5.1-.3 7.6-2 2.1-1.4 4.4-2.5 6.6-3.8.8-.5 1.6-1.1 2.2-1.7.4-.4.7-1.2.6-1.6Zm17-24.9c-.3 0-.3.6-.5 1.1.5 0 1 0 1.2-.3.4-.5 0-1-.8-.8ZM981.1 348h-.1v.2h.1v-.1Zm-40.2 123v-.3s-.2 0-.3.1c0 0 .1 0 .2.1h-.2.2Zm-48.2 113.1-.3.3h.5l-.2-.2Zm393.7 73c.5 1.7-.3 3.1-1 4.5-3.5 6.5-7.9 12.3-12 18.4-4.6 6.9-9.6 13.6-14.3 20.4-.9 1.3-1.7 2.7-2.5 4.1-1.9 3.3-3.5 6.8-6.1 9.7-.8.9-1.5 2.1-2 3.3-1.7 4.7-4.9 8.1-8.4 11.5-2.8 2.6-5.4 5.5-8.2 8.1-2.9 2.7-6.2 4.5-10.4 4.2-1.3 0-2.5.4-3.8.5-.9 0-2 .1-2.8-.3-3.3-1.8-7.3-2.4-9.9-5.6-1-1.2-2.2-2.3-3.5-3.3-2.6-2-4.8-4.3-5.6-7.6-3.7-4.5-4.1-9.8-3.8-15.4.2-3.8.4-7.6 1.2-11.4 1.8-8.4 4.4-16.6 5.4-25.2 0-.3.1-.6.3-.9 4.1-9.8 5.9-20.2 8.8-30.3.8-2.8 1.8-5.4 2.7-8.2.9-3 2-6.1 2.7-9.2 1.6-7.2 3.5-14.2 5.9-21.2 3.2-9.7 5.8-19.6 8.8-29.4 3.1-10.1 4.6-20.6 7.7-30.6.2-.5 0-1.2-.2-1.8 0-.3-.3-.5-.6-.6-.3-.1-.6-.3-.9-.2-.3 0-.6.2-.8.5-7.3 8.8-14.9 17.5-21.1 27.3-1.5 2.4-3.2 4.8-4.6 7.3-2.1 4-4.9 7.4-7.8 10.8-3.7 4.3-7.5 8.7-9.6 14.2-.7 1.8-1.9 3.4-3.6 4.4-2.4 1.3-3.7 3.5-4.9 5.7-2.4 4.5-5.1 8.8-8.6 12.7-1.3 1.4-2.2 3.1-3.3 4.7-2.2 3.5-4.2 7.2-6.7 10.5s-4.1 7.2-6.9 10.3c-2.3 2.6-3.3 6.2-4.1 9.6-.5 2.2-1.4 4.2-2.9 5.9-5.7 6.2-9.5 13.7-13.3 21-2.2 4.3-4.6 8.4-8.1 11.7-2 1.8-3.2 3.9-3.4 6.6-.2 2.6-1.2 4.9-2.4 7.2-1.5 2.8-2.9 5.7-4 8.7-1.6 4-3.8 7.5-7 10.1-2.3 2-3.8 4.3-4.7 7-1.4 4.2-3 8.4-4.4 12.6-1.2 3.5-1.1 7.7-4.2 10.5-1.4 3.5-2.8 7.1-4.7 10.4-2.5 4.4-4.8 8.9-5.8 14.1-.8 4.4-2.8 8.5-5.4 12.2-1.5 2.1-2.4 4.4-3.1 7-.8 3.4-1.9 6.8-2.9 10.1-.3.9-.4 1.9-.9 2.7-3.9 6.1-4.5 13.2-6.4 20-.5 1.8-.7 3.8-1.4 5.6-2.9 6.8-4.5 14-6.7 21-1.6 5.2-3.6 10.2-4.3 15.7-.2 1.5-.8 3.1-1.6 4.5-3.2 5.6-4.6 11.9-7.3 17.6-1.9 4-3.1 8.3-5.7 12.1-1.2 1.8-1.6 4.1-2.3 6.3-1.9 5.8-3.6 11.6-7.2 16.7-3.1 4.5-3.8 9.4-2 14.6.7 2 .5 2.7-.8 3.1-4.5 1.4-6.8 4.4-7.2 9 0 .9-.7 1.7-1.2 2.5-.7 1.3-2.8 2.2-4.1 1.8-1.2-.3-2.6-.6-3.6-1.2-2.4-1.6-4.7-3.3-6.9-5.1-1.1-.8-1.6-2.1-1.3-3.4.8-3.7 1.9-7.4 2.8-11.1.3-1.3 1-2.3 1.9-3.2.9-.9 1.5-2 2.3-3l-.2.2v-.3c1.2-1.7 2.5-3.4 3.6-5.2 1.5-2.5 2.4-5.1 2.1-8.1-.3-2.5 0-5 0-7.5-.7.1-1.3.2-1.9.3-1.2 0-1.9-.5-1.8-1.4 0-.9 0-1.9.3-2.8.8-4 1.7-8.1 2.4-12.1.4-2.3 1.6-3.9 3.3-5.3 0-2.2-.1-4.4.3-6.5 2-9 4.1-18 6.5-27 2-7.7 4.5-15.3 6.7-22.9.8-2.8 1.3-5.6 2-8.4.8-3.4 1.2-7 2.6-10.2 2.4-5.6 3.4-11.6 4.7-17.5 1.2-5.3 2.6-10.5 4-15.8.4-1.5 1.2-2.9 1.9-4.3.2-.4.9-.6 1.4-.7.1 0 .5.4.5.7.3 1.2.4 2.5.7 3.8 0 .2.6.4.8.4.6-.1 1.1-.3 1.6-.6.2-.1.3-.6.3-.9 0-6.2 1.7-11.9 4.3-17.4 1.6-3.5 3-7 4.4-10.6.5-1.5 1.2-3.2.9-4.6-.8-4.3 1.6-8.1 1.9-12.2.3-4.3 2.2-7.9 4.4-11.5.3-.5.7-1.1.8-1.7.3-1.2.7-2.5.8-3.7.6-4.1 2.3-8 1.9-12.2-.8 0-1.4-.1-2-.2-1.4-.1-2-.5-1.8-1.5.3-1.9.5-3.8 1.1-5.6 2-5.3 4.1-10.5 6.4-15.7 2.1-11.1 3.6-16.9 7.9-28.4.4-1.2 1.3-2.2 1.9-3.2.2-.2.7-.6.7-.5.4.3 1 .8 1 1.2.1 3.6-1.6 6.8-2.5 10.1 0 .3.5.9.8 1.3 0 0 .6-.2.8-.4 1-1.6 2.3-3.2 2.7-5 1-5.3 2.7-10.5 4.5-15.6.2-.6.2-1.3.3-1.9.3-1.7.2-1.9-2.4-3-.2-.9-.3-1.7-.6-2.6-.3-.8-2-1.1-2.4-.3-1 2.2-3.5 3.6-3.7 6.4 0 .8-.8 2.1-1.5 2.3-3.8.9-4.7 3.9-5.5 7.1 0 .3-.1.6-.2.9-.4 1.4-1.4 2-2.6 2.5-2.3 1-2.2 2.8-1.5 4.8v1c-1.1 1.9-2.2 3.8-3.3 5.8-.8 1.4-1.8 2.6-3.4 3.2-3.6 1.2-5.7 4-7.3 7.2-1.3 2.6-2.5 5.2-3.7 7.8.1.5.2 1.2.5 1.7 1.2 1.9.9 3.6 0 5.4-.9 1.8-2.3 3-4.5 3.1-1.5 0-2.5.8-2.6 2.2-.2 2-.8 3.6-2.3 5.1-1.6 1.6-2.9 3.4-4.4 5-2.6 2.9-4.7 6-3.9 10.3.2 1.1-.4 2.5-1 3.6-1 2-2.4 3.8-3.4 5.8-2.2 4.3-6.9 6.7-8.4 11.5-1.4 4.3-4.4 7.7-6.7 11.6-1.6 2.8-3.2 5.5-5.6 7.7-.9.8-1.5 2.1-1.9 3.2-1.4 4.7-3.8 8.7-7.2 12.2-1.8 1.8-3.1 4.1-4.5 6.2-2 2.9-3.8 5.9-5.9 8.7-3.1 4.1-5.7 8.4-7.5 13.3-.5 1.5-1.4 2.9-2.3 4.1-2 2.9-4.1 5.7-6.3 8.4-2.8 3.5-5.8 6.8-7.3 11.1-.3.8-1 1.7-1.7 2.2-2.4 1.8-3.8 4.4-5 7-1.8 3.9-4.6 6.9-7.9 9.5-3.5 2.7-7.2 5.3-10.9 7.8-1.9 1.3-4.1 1.8-6.4 1.5-3.2-.4-6.4-.7-9.5-1.1-4.2-.6-8-2.2-11-5.3-2.2-2.3-4.4-4.7-6.7-6.9-4.8-4.6-6.5-10.9-9-16.7-.5-1.1-.4-2.5-.5-3.8-.2-1.9 0-3.9-.5-5.7-1.3-5.7-.6-11.4-.2-17.2.2-2.9.5-5.7.6-8.6.2-3.2-.3-6.4 1.2-9.4.2-8.1 2.9-15.7 4.6-23.4.8-3.4 1.4-6.9 2.4-10.3 3-10.4 6-20.9 9.1-31.3.4-1.2.7-2.5 1.2-3.6 4.9-12.5 8.5-25.4 12.6-38.2 1.2-3.6 2.7-7.2 4-10.8.7-1.8 1.2-3.6 1.7-5.5 2.3-7.7 4.8-15.2 7.8-22.7 2.1-5 3.8-10.2 5.4-15.4 1.6-5.2 3.4-10.3 5.5-15.3 1.9-4.4 3.4-9 4.9-13.5 1.6-4.5 3.1-9.1 4.5-13.6.2-.5-.1-1.3-.5-1.7-.3-.4-1.1-.8-1.6-.7-6.7 2-13.4 4.1-19.6 7.6-1.4.8-2.8 1.5-4.4 1.9-4.4 1-8.5 2.8-12.5 4.8-4.8 2.4-9.7 4.8-15 6.2-1.2.3-2.5.7-3.6 1.4-4 2.7-8.5 4.2-12.8 6.3-4.6 2.3-9.5 3.7-13.9 6.3-4.1 2.4-8.7 4-13 6.1-2 1-4.1 1.9-5.8 3.3-6.8 5.4-14.8 8.8-22.4 12.8-1.4.8-3.1.2-4.2-1.2-1.3-1.8-2.7-3.6-4-5.4-1.6-2.2-2.1-4.8-1.7-7.3.6-4.9 2.9-9.3 7-12.2 5.4-3.9 11.3-7.1 17.4-10 6.9-3.2 14.2-5.8 20.6-10.1 5-1.6 9.5-4.7 14.9-5.1-2.2 2.1-5 3.3-7.5 5-2.6 1.7-5.8 2.7-8.7 3.9-1.2.5-2.4.8-3.1 2-.1.3-.4.6-.3.8 0 .2.5.6.7.6 4.3-1.2 8.3-2.9 12.3-4.9 1.4-.7 2.8-1.7 4.3-2 9.4-2.3 17.6-7.5 26.9-9.9 1.8-.5 3.4-2 5.2-2.4 4.2-.9 7.3-3.9 11.3-5 4-1.2 8-2.1 11.5-4.6.3-.2.6-.3.9-.3 6.8-.8 12.7-4.3 19.1-6.2 3.9-1.2 7.6-3.2 11.3-4.9 1.1-.5 1.1-2.2.1-4-3.9 1.1-7.4 3.9-12.5 2.4 2.6-1.1 4.6-1.9 6.6-2.7 2-.9 4-1.9 6.1-2.7 3.5-1.4 5.7-3.9 7-7.4 1.3-3.6 1.8-7.5 4-10.7 3.3-9.7 8.4-18.6 12.6-27.8.7-1.5 1.4-2.9 1.8-4.4 1.3-4.7 3.8-8.8 6.3-12.8 1.4-2.2 2.8-4.3 3.8-6.6 2.8-6.8 6.7-13 10.2-19.4 3.4-6.1 7.1-12.1 10.6-18.2.5-.8 1.2-1.6 1.4-2.5 1.3-5.6 5.7-9.1 9.2-13.2 2.2-2.7 7.5-1.5 9.4.8.6.7 1 1.7 1 2.6.1 2.5.2 5.1 0 7.6-.1 1.5-.5 3.3-1.3 4.5-4.5 7-7.2 14.9-10.7 22.4-2.7 5.8-6 11.2-8.7 17-3.7 7.8-7.5 15.5-11.6 23.1-4 7.3-6.8 15.1-9.6 22.9-1.1 3-2.3 5.9-3.5 8.9-.6 1.6.7 3 2.6 2.8 2.6-.3 5-1 7.3-2.2 4.2-2.4 8.9-3.5 13.7-4.2 1.4-.2 2.9 0 4.4 0-.6.6-1.2 1.2-1.9 1.6-5.1 2.7-10.6 4.3-16.2 5.6-3.4.8-6.8 1.5-10.2 2.4-.9.2-1.7.8-2.5 1.3-1 .6-1.5 2.6-.9 3.3.7.9 1.8.9 2.6.6 2.7-.9 5.3-2.3 8-3.1 5.2-1.5 10.4-2.9 15.7-4 7.2-1.5 14.3-3.3 21.1-6 1.8-.7 3.6-1.3 5.5-1.7 15.2-3.4 30.5-6.8 45.7-10.2 1.8-.4 3.6-1.2 5.3-1.9.2 0 .3-.6.3-.9 0-.2-.4-.5-.6-.5-4.2-1-8.2 0-12.2.9-8.7 1.9-17.4 3.9-26.1 6-2.7.6-5.3 1.2-8.1.7.6-.6 1.2-1.4 1.9-1.6 9.9-3.8 19.9-7 30.3-9 .9-.2 1.9-.4 2.8-.3 5.5 1.1 10.8-.4 16-1.7.6-.2 1.2-.3 1.9-.4 2.4-.3 4.6.3 6.3 1.8 2.1 1.9 4 4.1 5.8 6.3 1.6 2 2.9 4.2 4.4 6.2 1 1.4 2.8 1.1 3.8-.6.6-1.1 1.3-2.2 1.8-3.4 2.5-6.2 5.6-12.2 8.6-18.1 4.4-8.5 9-16.9 12-26.1.6-1.8 1.7-3.5 2.6-5.1 5.2-9.2 9.5-18.8 14.4-28.1 1-2 1.9-4.1 3.1-6 4.5-7 8.1-14.5 11.8-21.9 2.3-4.6 4.5-9.2 7.2-13.5 8.6-13.9 15.9-28.4 23.7-42.7 2.4-4.5 4.3-9.3 7.9-13 .9-.9 1.5-2.1 2-3.2 3.7-7.6 9.8-13.3 16-18.9 5.8-5.2 12.8-6.9 20.2-7.6 1.9-.2 3.8 0 5.8 0 4.9 0 9.3 1.4 13.7 3.5 5.6 2.7 8.9 7.1 11.4 12.4 1.7 3.6 2.2 7.3.5 11.1-2.6 5.8-4.5 11.9-8.2 17.2-2.2 3.1-3.9 6.6-6.1 9.8-1.8 2.7-3.8 5.1-5.7 7.7-1.1 1.5-2.3 3-3.5 4.6-4.6 6.5-9.3 13-13.9 19.5-.9 1.3-2.2 2.5-2.6 4-1.9 6.1-6.2 10.4-10.3 14.8-3.9 4.2-7.9 8.3-11.1 13.1-2.1 3.1-5.1 5.7-7.8 8.4-4.6 4.4-8.9 9.1-12.6 14.4-2.2 3.1-5 5.8-7.6 8.6-1.3 1.4-2.8 2.6-4.2 3.9-3.3 3.3-5.5 6.9-4.2 12 .5 2-1 3.7-3 4.3-1.2.4-2.5.6-3.7.9l-2.7.6c-2 3-4.4 5.6-5.4 9.1-.2.8-1.1 1.8-1.9 2-2.8.7-4.1 2.8-5.6 4.9l-9.6 14.4c-2.3 3.5-4.8 6.8-7.4 10-4.8 6-8.8 12.5-11.7 19.7-1.8 4.4-4.3 8.6-5.8 13.2-2.6 8.2-6.6 15.9-9.6 24-.5 1.5-.9 3.3-1.8 4.4-2.6 3-3.4 6.8-5.1 10.2-2.2 4.3-3.6 8.9-3.6 13.8 0 2-.5 3.8-1.7 5.4-2 2.6-2.9 5.7-3.6 8.8-1 4.7-2.3 9.2-5.6 13.1-1.9 2.2-2.8 5.1-3.2 7.9-.6 4.5-1.8 8.7-3.8 12.8-.7 1.4-1.2 3-1.4 4.5-.9 5-2.6 9.9-4.4 14.7-1.9 5.1-3.4 10.3-5.2 15.4-2.1 6-4.2 12-6.4 18-.9 2.4-1.9 4.7-2.2 7.3-1.1 8-4.1 15.4-6.7 22.9-.3.9-.7 1.9-1.3 2.5-.8.7-1.4 1.2-1 2.3 1.1 2.9.3 5.8-.7 8.4-1.7 4.8-2.9 9.8-5.4 14.3-1.2 2-1.5 4.2-1 6.5 0 .4.8 1 1.2 1 .5 0 1.4-.3 1.6-.7 1.4-2.5 2.6-5.1 4-7.6.2-.3.9-.4 1.4-.4 0 0 .4.6.3.8-1.4 4.2-3.1 8.3-4.4 12.6-1 3.2-3.4 6-4.8 9.2-.5 1.1-1.7.4-2.5.5-.3 0-1 .8-.9 1.2.2 1.2 1.2 2.5 1 3.6-.5 2.8-.9 5.8-2.3 8.3-3 5.4-4.2 11.3-5.9 17.1-.6 2.1-1.6 4.2-2.5 6.2-1.5 3.8-2.6 7.7-2.5 11.9.6 0 1.2 0 1.4-.3 1-1.6 1.9-3.3 2.6-5.1 1-2.4 1.3-5.1 2.6-7.2 5-8 6.5-17.3 9.9-25.8 2.6-6.5 5.1-13.1 7.7-19.6 1.3-3.3 2.3-6.6 3.6-9.9 2.5-6.2 5.4-12.3 8.5-18.2 2.3-4.6 4.5-9.2 6-14.1 1.3-4.3 3-8.4 5.7-12 1.9-2.5 3.2-5.5 4.4-8.5 1.7-4.1 3.8-8 5.8-12 2.2-4.6 4.4-9.2 6.8-13.7 2-3.7 4-7.3 6.5-10.6 2.6-3.6 5.1-7.4 6.8-11.5 1.5-3.6 3.4-6.9 5.4-10.1 1.5-2.4 3.2-4.8 4.5-7.4 7.9-15 17.7-28.9 27.1-43 2.5-3.7 4.9-7.5 7.2-11.3.2-.4 0-1.2-.3-1.7 0-.2-1.1 0-1.4.2-.9.8-1.9 1.8-2.6 2.8-7.5 11.5-16.3 22.2-22.6 34.5-.7 1.4-1.8 2.7-2.6 4-4 6.2-8.7 11.8-11.8 18.5-1.7 3.7-4.7 6.9-6.6 10.6-3 6-6 12-9.9 17.5-.5.8-1.1 1.7-1.2 2.6-.4 3.7-2.5 6.5-4.6 9.4-2.3 3.1-4 6.5-5.7 10-4 8.3-8 16.7-12.1 25-4.7 9.4-9 19.1-12.6 29-.3.8-1.2 1.4-1.8 2.1-.2.2-.6.3-.8.2-.3-.1-.6-.5-.6-.7 0-.9 0-2 .3-2.8 3.9-8.8 7.8-17.5 11.7-26.2 1.7-3.8 3.4-7.5 5.2-11.3l12.6-25.8c.6-1.1.9-2.4 1.7-3.5 5.8-8.5 9.5-18.1 14.8-26.8 3.1-5.2 6-10.5 8.8-16 5.1-10 11.5-19.2 17.7-28.5 2.8-4.3 6-8.3 9-12.4 1.7-2.3 3.3-4.7 4.9-7.1 3.9-5.9 7.7-11.8 11.5-17.7 1-1.6 2-3.3 3.3-4.7 5.1-5.8 9.1-12.3 13.2-18.8 1.7-2.7 3.3-5.4 5.6-7.7 1.1-1.1 2-2.5 2.8-3.8 4.9-7.5 9.9-14.9 15.4-22 2.9-3.7 5.2-8.1 7.6-12.2 3-5.1 6.6-9.4 12-12.1.6-.3 1.2-.4 1.6-.5 1.9.7 3.7 1.4 5.4 2.1 5-1.6 7.8 1.3 9.9 5.2 1 1.9 1.7 4.1 2.2 6.3.5 2.2.5 4.5 1.1 6.6 1.8 6.3 1.5 12.7.1 19-2.8 13.1-4.9 26.3-9.4 39-2.7 7.5-4.1 15.4-6.3 23.1-1.3 4.6-2.8 9.2-4.6 13.6-1.6 3.9-3.1 7.7-4.1 11.7-1.6 6.5-3.5 13-5.6 19.3-2.5 7.3-4.3 14.7-6.2 22.2-1.4 5.9-2.4 11.9-4.6 17.6-.6 1.5-.7 3.1-1 4.7-1.2 5.3-2.4 10.6-3.5 15.9-.2 1.2-.2 2.5 0 3.7.4 2.2 2.5 3.3 4.3 2.4 2.3-1.1 4.7-2.2 6.6-3.8 5.1-4.3 10.3-8.6 14.2-14.2.5-.8 1.1-1.6 1.8-2.3 7.8-8.4 15.3-17.2 22.5-26.2 1-1.3 2.4-1.8 3.9-.8-2.7 3.8-5.3 7.7-8.2 11.4-3.8 5-7.8 9.9-11.8 14.7-1.4 1.7-1.3 3.4-.5 5.1.4-.8.6-1.8 1.2-2.5 2.6-2.8 5.2-5.5 7.8-8.3 2.4-2.6 4.6-5.2 6.9-7.8.8-1 1.4-2.3 2.4-2.9 3.7-2.2 5.5-5.9 7.9-9.3 3.6-5.2 7.8-10 11.7-14.9.8-1 1.8-1.8 3.2-1.6Zm-1.1-305.5c.1 0 .5-.3.7-.4-.1-.5-.3-1-.4-1.5-.2.2-.5.3-.6.5-.4.6-.2 1.1.4 1.4Zm-24.8 41.7v-.2h-.1v.2Zm.7-3.2c0-.6-.2-1.3-.3-1.9-1.5 1.5-.9 3.1-.3 4.7.2-.9.5-1.8.6-2.8Zm2.2-3.8c0-.2-.2-.5-.4-.6-.2-.1-.7-.1-.8 0-.4.7-.8 1.5-1.2 2.3.4.2.9.5 1.2.4.9-.3 1.2-1.2 1.1-2.1Zm7.5-11.3c-.5.2-1.1.3-1.3.6-.2.3 0 1.1.2 1.5.3.4.9.1 1.1-.6.1-.5 0-1 0-1.5Zm4.8-7.5s-.6 0-.8.3c-2 2-3.8 4-3.8 7h.7c2.2-1.4 3.7-3.4 4.6-5.7.1-.4-.4-1-.7-1.5Zm-85 93.8c0 .2.2.6.4.8.1.1.5.2.7.1.8-.5 1.7-.9 2.3-1.6 4.5-5.8 9.6-11.1 14.7-16.4 2.6-2.8 5.2-5.7 7.7-8.6 6.6-7.4 13.3-14.6 19.3-22.5 4.6-6.1 9.8-11.8 14.4-17.9 4.2-5.6 9.1-10.7 12.8-16.8 5.3-8.8 10.8-17.4 16.1-26.1 2.7-4.5 3.8-9.4 4.2-14.4-.2-3.8-1.1-7.1-4-9.6-1.8-1.6-5.7-2-7-.3-2.9 4-7 6.5-10.8 9.4-4.4 3.3-8.2 7.1-11.3 11.7-2 2.9-4 5.8-5.7 8.9-6.1 10.9-13 21.3-18.1 32.6-6.2 8.9-9.3 19.6-15.7 28.5-.4.5-.6 1.1-.8 1.7-2.6 8.3-7 15.8-10.9 23.4-2.3 4.5-4.8 9-7.1 13.6-.6 1.1-.8 2.4-1.1 3.6Zm-13.3 27.5c0 .3.3.5.5.7.2-.2.5-.4.6-.7 0-.3 0-.6-.2-.9h-.6c0 .3-.3.6-.3.8Zm-30 23c.2 0 .2-.4.3-.7-.1-.2-.2-.4-.4-.6-.2.1-.5.2-.5.4-.2.7 0 1.1.6.9Zm-2.4 5.4c-.4.3-.5.9-.7 1.5.5.2 1 0 1.3-.5.3-.8-.1-1.3-.6-1Zm-1.3 2.1c.4.2.6 0 .4-.4l-.4.4Zm-2.8 7.2c0 .3.3.5.4.8.2-.2.5-.4.6-.7 0-.3 0-.6-.1-.8 0-.1-.4 0-.6 0 0 .3-.3.6-.2.8Zm-39.3 122c-.2-.2-.4-.4-.5-.6-.2.2-.5.4-.6.6 0 .2.3.4.5.6l.6-.6Zm5.3-33.4c-.4-.4-.7-1-1.2-1.3-.7-.3-1.3 0-1.4.7-1.5 6.2-3.8 12-6.4 17.7-.8 1.7-1.1 3.6-1.6 5.4-.3 1.2.2 2.4.8 2.3.6-.1 1.1-.4 1.6-.7 1.6-1.2 2.9-2.4 2.4-4.7-.5-1.9-.2-3.7.6-5.5 1.7-4 3.4-8.1 5-12.2.2-.5.2-1.2.3-1.8Zm7.2-2.8c-.2-.2-.3-.5-.5-.6-.7-.1-1.1.2-1.1.9 0 .2.2.5.4.7.4-.3.8-.7 1.2-1Zm5-12.3c-.4-.7-.8-.7-1.1.1 0 .2 0 .6.2.7.1.1.5 0 .7 0 0-.3.3-.6.2-.8Zm3.6-28.3-.6-.3c-.1.3-.3.5-.3.8 0 .1.4.2.6.3.1-.3.3-.5.3-.8Zm-16.5-44.2s.5.5.7.4c.8-.1 1-.6.6-1.3-.1-.2-.4-.4-.6-.6-.2.5-.5 1-.7 1.5Zm-5.4 1.5s.3.1.5.2c0-.2.2-.4.1-.6 0 0-.3-.1-.4-.2 0 .2-.2.4-.2.7Zm-23.9 5c0 .2.5.5.7.5 4 .1 7.9-.6 11.5-2.5.2-.1.4-.5.4-.8 0-.2-.3-.4-.6-.5-.6-.2-1.2-.3-1.9-.4-3.2.7-6.7.5-9.8 2.3-.3.2-.4 1-.4 1.5Zm-11.5 5.1c0 .1.2.6.5.7.6.4 1.1.2 1.3-.6-.3-.5-.5-1-.8-1.5-.3.4-.7.9-1 1.3Zm-18.5 5.5c2 1 4.1 1.2 6 0 .4-.3.5-1 .6-1.5 0-.1-.4-.5-.7-.5-1.8-.5-3.6-.4-5.2.7-.4.3-.5 1-.8 1.5Zm-90.1 78.5c.1.1.4.1.7.1 1.3-.9 2.2-2.2 2-3.9 0-.3-.9-.9-1.2-.8-2.2.6-2.4 3.6-1.5 4.5Zm-4.2 9.6c0 .5.4 1 .7 1.5l.9-1.5c-.2-.5-.5-1-.7-1.5-.3.5-.8 1-.8 1.5Zm-7.5 23.6c.1.5.4 1 .6 1.5l.5-.5c.3-.8.2-1.4-.5-1.6-.1 0-.6.4-.6.5Zm-4.1 10.2c0 .3.2.6.4.8.1.1.6.2.6.1 1.2-1.4 2.7-2.7 2.2-4.9-.2-.2-.5-.7-.6-.7-1.5.4-2.7 2.6-2.6 4.6Zm-3.7 10.3c0 .5.5.9.8 1.4.3-.2.6-.3.8-.5.6-1 1.2-2.1 1.8-3.1-.5-.7-.8-1.1-1.2-1.5 0 0-.6.2-.8.4-1 .9-1.6 2-1.4 3.3Zm-3.8 13.5c0 .3.3.5.5.8.2-.1.6-.1.7-.3.7-1.4 1.5-2.8 2-4.2.2-.4-.3-1.1-.5-1.7-.5.3-1 .6-1.3 1-1 1.3-1.6 2.7-1.4 4.4Zm-7.9 25c0 .3.2.6.5.8.2.1.7 0 .7 0 1.2-2.5 2.3-5.1 3.5-7.7v-1.7 1.7c-.6 0-1.4-.2-1.7.1-1.8 1.9-2.9 4.1-2.8 6.8Zm-6.4 24.5s.6-.3.7-.5c2.6-4.7 2.9-10.2 5.1-15.1.2-.5 0-1.2 0-1.8-.2-.3-.3-.6-.5-.8-.1 0-.5.2-.7.3-1.3 1.1-1.5 2.7-2 4.1-1.1 3.3-2.3 6.5-3.3 9.8-.3.9-.3 1.9-.2 2.8 0 .4.6.8 1 1.1Zm58.4 69.3c-.3 0-.6.1-.8.3-.2.2-.2.5-.4.7.5.1 1 .3 1.5.3.2 0 .5-.3.5-.5.1-.6-.2-.9-.9-.8Zm4-3.2c-.2-.2-.4-.4-.6-.5-.6-.3-1.1 0-1.3.6 0 .2.4.6.5.6.5-.2.9-.4 1.4-.7Zm5-19.4c-.5-.2-.9-.4-1.4-.7.1.8.3 1.5 1.4.7Zm106.7-152.7c-.5.2-1.2.3-1.4.6-.4.7-.6 1.6-.8 2.4 0 .1.4.3.8.6.6-.7 1.3-1.3 1.7-2.1.2-.4-.1-1.1-.2-1.6Zm10.3-27.7c2.3-3.1 3.8-6.7 5.6-10 .3-.5.2-1.2.2-1.9 0-.3-.2-.6-.4-.8-.1-.1-.5-.2-.7-.1-.6.3-1.1.6-1.7.9-.5.3-1 .7-1.6.9-.2 0-.6 0-.7-.2-.2-.2-.4-.6-.4-.9.2-2 1.4-3.5 2.7-4.9 1.4-1.5 3.8-.3 5.2-2 1.8-2.2-1.1-4.3 0-6.4.3-.6.5-1.2.8-1.7 1-2 1.9-4.1 3.1-6 6.6-10.7 10.7-22.5 14.9-34.2.4-1.1.3-2.4.5-4-2.9 0-5.4-.2-7.9 0-9 .4-17.8 1.6-25.8 6.1-2 1.1-4.1 1.8-6.4 1.6-4.5-.4-9 .4-13.2 1.7-5.6 1.6-11.2 2.4-16.9 3.5-4.4.8-8.8 1.8-13.1 2.9-2.2.5-4.5 1-6.3 2.3-3.8 2.7-8.1 3.6-12.5 4.5-4.4.9-8.6 2.2-12.9 3.7-5.4 1.9-10.7 4.1-16.6 4.4-1.7 0-3 .9-4.3 2-2.2 1.9-4 4.1-4.7 7-.6 2.5-1.3 5-2.5 7.2-2.9 5.4-4.8 11.2-7.1 16.7-2.1 5-3.4 10.3-5.3 15.4-3.6 9.2-7 18.5-10.5 27.8-2.5 6.6-4.5 13.3-7.7 19.6-3.4 6.6-4.4 14-6.7 21-.3.9-.5 1.9-.8 2.8-2.9 8.1-6.7 15.9-7.6 24.6-.2 1.8-1.2 3.6-1.9 5.4-1 2.4-1.8 4.8-2 7.4-.1 1.6-.4 3.2-1 4.6-3 6.5-4.4 13.2-5.4 20.2-.9 6.3-2.8 12.5-4.6 18.6-1.9 6.4-1.7 13.3-4.4 19.6-.4.9-.4 1.9-.5 2.8-.8 6.7-1.6 13.3-2.4 20q-1.5 13.1 0 24.7c0 .6.1 1.3.2 1.9.6 2.8 1.2 5.6 2 8.4.8 2.7 3.4 3.8 6 3 7.5-2.3 13.9-6.3 19.3-12.1 1.5-1.6 3-3.3 4.6-4.9 1.1-1.1 2.3-2.2 3.5-3.3 1.5-1.4 1.9-1.4 3.5.8.7.9 1.4 1.2 2.4.9.6-.2 1.2-.6 1.6-1 .9-.9 1.5-1.9 2.9-2.2 4.3-.9 5.9-4.5 7.6-7.9.2-.4-.1-1.3-.5-1.6-2.8-1.9-1.4-5.4-2.9-7.8-.3-.4 0-1.3.2-1.8.3-.5.8-1.1 1.3-1.2.4-.1 1.1.2 1.6.4.2.1.2.6.4.9.5.9 1.3 1.4 2.2.9.5-.3 1-.9 1.2-1.4.5-1.2.3-2.4-.3-3.6-1.3-2.4-1.1-2.3.3-3.9 1.7-2 3.9-3.1 6.2-4.1 1-.4 1.4-1.7.8-2.4-1.6-2-.2-3.3.7-4.8l.3-.9c1.4-3.8 1.4-3.8 5.8-3.3.7 0 1.3-.5 1.1-1.2-.3-.9-.8-1.6-1.1-2.5-.5-1.1-.3-1.4 1.1-1.9.6-.2 1.2-.4 1.7-.5-1.5-1.4-2.1-3-.6-4.8.8-1 1.5-2 2.5-2.8.8-.6 1.7-.4 2.2.7.5 1 1.4 1.5 2.1.7 1.4-1.7 2.4-3.7 3.8-5.4 4.4-5.5 7.2-11.6 8.8-18.4 0 0 0-.2.1-.2v.2c0 .3 0 .9.1.9.5.2 1 .3 1.5.3.3 0 .6-.3.8-.6 3.9-5.8 7.9-11.6 11.7-17.5 5.3-8.3 10.5-16.8 15.7-25.2.8-1.4 1.8-2.7 2.3-4.2 1.3-4 3.9-7.3 6.1-10.8 1.2-1.9 2.6-3.7 3.5-5.7 2.7-5.9 6.5-11 10-16.4 1.6-2.4 3.9-4.3 5.3-6.7 6.7-11.6 15.2-22.2 20.9-34.4.4-.9.9-1.7 1.5-2.4 4.5-5 7.4-11.2 11.4-16.6Zm-12.4 68.4c0 .4.6.8 1.1 1.5.6-.6 1.2-1.2 1.5-1.9.2-.4-.1-1.2-.5-1.5-.8-.6-2.1.6-2.1 1.9Zm-2 7.8c0 .2.4.4.6.6l.6-1.5c-.2-.2-.4-.5-.6-.7-.2.5-.5 1-.6 1.5Zm-9.8 35.3c-.4-.5-.5-.9-.7-1-.2 0-.8.1-.8.3-.4 1.2-.7 2.4-.9 3.6 0 .3.7.7 1.1 1 0 0 .6-.3.7-.5.3-1.2.5-2.4.7-3.4Zm2.7-34.9c.2 0 .4.2.5 0 0 0 .2-.2.2-.3-.2 0-.5.1-.7.2Zm-5.1 7.6c.1.6.2 1.2.4 1.7s.6 1.1 1.1 1.4c.6.4 2-.3 2.2-1.1.2-1.2.3-2.4.3-3.6 0-.2-1.2-.7-1.4-.6-.9.6-1.7 1.5-2.5 2.2Zm-2.8 18c.4-.3.9-.6 1.3-.9-.7-.4-1.4-.7-1.3.9Zm-2.4 31.1c0 .1.3.4.5.6.2-.5.5-.9.7-1.4-.2-.2-.4-.3-.6-.5-.2.4-.5.9-.6 1.3Zm-8.1 26.5c0 .3.3.6.4.8.3.5 1.1.4 1.3-.3 1.5-5.1 3.9-10 4.3-15.1.5-1.8.9-3.3 1.2-4.9 0-.2-.2-.6-.3-.8-.4-.5-.9-.5-1.3.4-2.6 6.1-3.9 12.6-5.7 19v.9Zm-2.6 31c0-.2-.2-.4-.3-.6-.1.2-.4.3-.4.5s.2.4.3.6c.1-.2.3-.4.4-.5Zm-.7-18.8c0 .2.3.4.5.6.2-.4.4-.9.7-1.3-.2-.2-.4-.4-.5-.6-.2.4-.5.9-.6 1.3Zm-3.8 15.9c.3.8.9.9 1.2 0 .2-.4-.2-1-.3-1.5h-.6c-.2.5-.5 1-.3 1.5Zm-33.7 101.6c0-.6-.7-.7-1.4-.2-.7.6-1.3 1.2-1.9 1.8-.5 1.3.2 2.3.7 3.4 0 .2.5.5.6.4.5-.3 1.4-.5 1.5-.9.3-1.5.5-3 .5-4.5Zm1.7-11.3c-.1 0-.6.2-.6.3v2.3c0 .1.4.2.6.3.2-.2.5-.4.5-.7.3-.8.4-1.7-.6-2.2Zm5.8 10.6-.6-.3c0 .3-.2.5-.2.8l.6.3c0-.3.2-.5.2-.8Zm4.9-45.7c1.9-2.9 1.5-6.6 2.7-9.7.3-.7 0-1.3-.8-1.4-.2 0-.4.4-.6.6-2.1 3.3-2.2 6.8-1.3 10.5Zm-.7.6c.1 0 .3-.1.4-.2h-.8c.1 0 .3.3.4.2Zm3.7 13.9h-.6c-.1.5-.3 1-.3 1.5 0 .2.3.5.6.6.8.1 1-1.5.3-2Zm.8-34.5c0 .5 0 1.1.2 1.6h.6c.2-.5.4-1.1.4-1.6 0-.2-.4-.4-.6-.7-.2.2-.6.4-.6.6Zm1.4 26.9c0-.1-.4-.4-.6-.6-.2.5-.5 1-.6 1.5 0 .2.4.4.6.6.2-.5.5-1 .6-1.6Zm5.7-45c-.3-.7-.3-1-.5-1.2-.4-.5-.8-.3-1.3.3-.8 1-1.5 2-1.3 3.4 0 .3.1.6.3.8.4.5.9.4 1.3-.3.6-1 1.1-2.1 1.6-2.9Zm6-2.9c0 .3 0 .7.3.8.7.4 1.1.2 1.2-.7 0-.3 0-.7-.2-.8-.6-.4-1.1 0-1.3.7Zm-3.3-7.3c1.3-2.2 2.3-4.5 2-7.2 0-.3-.4-.7-.6-.7-.5 0-1.4 0-1.5.3-.8 2.4-1.5 4.8-2.2 7.2.1.7.1 1.7.4 1.8 1.1.3 1.4-.7 1.8-1.4Zm.6 14.8.6.3-.6-.4Zm.5 8.1c.7-2.7.6-5.3-.5-7.8-.7 2.6-1.7 5.1-1.3 7.9 0 .2.3.5.6.6.5.3 1.1 0 1.3-.7Zm-.2 32.6c-.2-.1-.3-.2-.5-.4.2.1.3.2.5.3Zm2.3-3.2c0-.8-.2-1.6-.4-2.4-.9.7-1.2 1.7-1.5 2.8-.2.8-.6 1.5-.8 2.3 1.7 0 2.6-1 2.7-2.7Zm1.7-8.1c-1.7 1.4-1.5 3.5-1.8 5.3.8-.1 1.4-.5 1.7-1.3.4-1.3.6-2.7.1-4Zm149.9-281.9c-2.7 1.1-4.4 3.3-6 5.6-3.9 5.8-8 11.5-12.4 17-2.6 3.2-4.3 7-6.2 10.7-.3.6.2 1.6.5 3.1 1.2-1.3 2.2-2.1 2.9-3.1 4.7-6.4 9.5-12.8 14-19.3 2.4-3.4 4.5-7 6.6-10.5.7-1 .8-2.2.6-3.4Zm7.6-10c0-.2-.3-.6-.5-.8-.1 0-.6 0-.7.2-2.6 3.1-5.4 6.1-6.2 10.3h.7c4-2 6-5.4 6.7-9.7Zm8.8-14.1s-.6 0-.8.1c-3.3 1.9-4.9 4.8-4.7 8.4 0 .1.5.3.7.4.3 0 .7 0 .9-.3 2.1-2 3.6-4.4 4.6-7 .2-.4-.4-1.1-.7-1.6Zm7.6-9.4c0-.2-.1-.6-.2-.6-.3 0-.5.1-.8.2 0 .2.1.5.2.6.3 0 .5 0 .8-.1Zm-2.9 87.9c-.4-.6-.8-1.2-1.2-1.7v2.3c0 .7.4.8 1 .2.2-.1.2-.6 0-.8Zm.3-2.5c-.2 0-.3 0-.5.1 0 0 .2.1.3.2.8.4 1.1.2.9-.5-.2 0-.5.2-.7.2Zm-7.2 22.1c0 .2.4.6.6.7.2 0 .6-.2.8-.4.4-.5 1-.9 1.1-1.5.7-3 2.2-5.9 2.2-10.6-3.2 4.4-4.3 8-4.7 11.8Zm-2.7 13.8c.5-.2 1.3-.3 1.3-.5.3-1.8.4-3.6.5-5.4 0-.3-.6-.7-1-1.1-1.1 2.3-1.2 4.7-.8 7.1Zm-2.4 4.7c1.3-.1 2.3-.5 2.3-2v-2.3c-.4.6-1 1.1-1.2 1.8-.3.9-.5 1.8-1.1 2.5Zm-.9 7.3c1.9-2.2 2.1-4.5.4-6.8-.2 1.2-.4 2.3-.7 3.5-.3 1.1-.3 2.3.3 3.3Zm-4.7 18c-.1-.3-.2-.6-.4-.7-.6-.4-1.8.3-1.8 1.2 0 .7.5 1.1 1.1.8.4-.2.7-.8 1-1.2Zm1.4-5.5c1.9-4.2 3-8 3.2-12.1-.5.1-1.3.2-1.3.5-1 3-1.9 6-2.6 9-.2.6.4 1.4.8 2.6Zm36.6 29c-.4-.4-.9-.7-1.3-1.1 0 .2-.2.4-.3.7.5.1 1 .3 1.6.4Zm41.1-47.4Zm-249.4-124.7.1-.2h-.3s-.2.2-.3.2h.4Zm55.5 112.8v-.2h-.2l.2.3Zm810.1-241c-5 1.1-10 2.1-15 3-22 3.9-44.1 7.8-66.1 11.6-3.1.6-6.4.7-9.4 1.8-12.4 4.3-25.5 5.7-38.3 8.4-1.6.3-3.2.5-4.7 1.1-9.3 3.8-19.2 4.5-28.9 6.4-2.2.4-4.4.9-6.6 1.3-.9.2-2 .2-2.8.8-6 4.3-13.3 4.3-20.1 5.5-2.2.4-4.5.6-6.4 1.8-2.2 1.4-4.8 1.6-7.3 2.2-5.9 1.4-12 1.9-17.5 4.7-1.4.7-3.1.7-4.7 1-2.8.6-5.7 1-8.5 1.7-6.9 1.5-12.2 4.8-15 11.9-4 10.1-8.5 20-12.9 29.9-1.7 3.8-3.5 7.6-4.9 11.4-1.8 4.8-3.4 9.6-5.1 14.4-.6 1.8-1 3.7-1.8 5.4-2.9 6.4-4.7 13.2-6.3 20.1-.8 3.4-2.6 6.5-3.4 9.9-.7 3.1-.7 6.3-1.8 9.4-2 5.8-2.4 11.7-2.6 17.9-.2 8.3.2 16.6 1.2 24.8.2 1.9.7 3.8 2.6 4.9 1.9 1.1 2 3.2 3.1 4.7.7 1.2 1.9 1.9 3.2 1.7 4.1-.5 8.2-.7 12.4-.7 2.9 0 5.6-.9 8.1-2.5 3.8-2.4 7.5-4.8 11.1-7.4 3.7-2.6 7.1-5.3 10.3-8.5 3.3-3.4 7.2-6.3 10.1-10.2 4.8-2.6 8.3-7 12.9-9.9 2.5-1.6 4.2-3.8 6-6.1 5-6.2 10.2-12.3 15.6-18.2 2.6-2.8 5.2-5.6 7.4-8.8 1.8-2.6 4.2-4.7 6.7-6.6.2-.1.7 0 .9.2.2.2.4.5.5.8.1.3.2.6.2.9-.9 4.1-1.9 7.9-6.2 10-2.4 1.1-2 2.5.6 4.2.3.2.5.4.6.7.1.2.2.6.1.8-.4.9-.7 1.8-1.2 2.5-2.2 2.7-4.5 5.4-6.7 8.1-1.2 1.5-2.7 2.8-3.5 4.5-1.1 2 1.1 3.4 1.5 5.2.3 1.6.5 3.2-.3 4.7-.7 1.4-1.3 2.9-2.2 4.2-5 7-10.6 13.6-16.5 19.9-1.3 1.4-3 2.3-4.5 3.5-4 3.1-8.1 6.2-11.6 10-4.2 4.5-9.4 7.7-15 10.1-5.5 2.5-10.8 5.5-16.9 6.7-.6.1-1.2.4-1.7.8-4.5 3.6-9.1 2-13.6 0-3.8-1.7-7.4-3.8-10.9-6-6-3.8-10.3-9.4-14.9-14.7-2-4.3-4.8-8.2-4.8-13.4 0-3.4-1-6.9-1.9-10.3-1.3-5-1.6-10-1.1-15.2.6-6.3.6-12.7 1.3-19 .3-2.2.7-4.4 1.4-6.5 1.1-3.3 2.1-6.6 2.6-10.2.4-3.1 2-6 3-9 .7-2.1 1.4-4.2 2-6.4 0-.4-.5-1-.9-1.4-.2-.2-.7-.2-.9 0-1.6 1-3.4 1.8-4.7 3.1-2.1 2-4 4-6.6 5.4-2.6 1.4-4.7 3.4-6.3 5.8-1.8 2.8-4.4 4.5-7.2 6.2-6 3.6-12 7.3-18 11-1.3.8-2.6 1.8-3.8 2.9-.4.3-.4 1.1-.3 1.7 0 .8.7 1 1.5.8 1.3-.3 2.4-.8 3.1-2 1.5 2.2.6 4.2-1 5.9-.8.9-1.9 1.7-3 2.2-2.2.9-3.8 2.3-4.9 4.3-1.3 2.3-3.2 3.9-5.6 5.1-6.3 3.2-12 7.2-17.6 11.5-7.4 5.6-15.6 10-24.5 12.9-7.3 2.4-14.2 5.7-21.7 7.6-1.2.3-2.4 1-3.4 1.7-2.8 1.9-5.9 2.3-9.1 2.2-4.8-.2-9.5-1.1-14.2-2.3-3.9-1-7-3.2-9-6.6-1.8-3.1-3.9-5.8-6.4-8.3-4.7-4.7-7.1-10.5-7.6-17.1-.7-8.6-.5-17.2 1-25.8.3-1.9.4-3.8.5-5.7 0-.2-.3-.5-.5-.6-.3-.1-.7-.3-.9-.1-1.3.9-2.7 1.7-3.8 2.8l-21 21c-2 2-4 4.1-6.2 6-9.2 7.9-17.7 16.5-26.1 25.4-9.9 10.4-20.7 20-31.8 29.1-2.3 1.8-4.7 3.1-7.7 3.5-3.5.5-6.9 1.4-10.4 1.8-6.2.7-12.1 0-17.2-4.1-.5-.4-1.1-.5-1.9-.8-.6.5-1.5 1-2 1.7-3.8 5.5-7.5 11.1-11.4 16.5-1.5 2.1-3.4 3.8-6.2 3.7 0-1.4.8-2.3 1.6-3.3 2.7-3.2 5.2-6.5 6.4-10.6.7-2.2 2.2-3.8 4.2-5 2.3-1.3 3.8-3.4 4.9-5.7.2-2.2-1.5-3.5-2.2-5.2-.7-1.8-1.2-3.6-1.9-5.4-2.4-6.7-1.9-13.3 1.3-19.5 4.8-9.4 9.2-19 15.4-27.6 6.8-9.6 13.5-19.4 20.6-28.9 3.8-5.1 8.2-9.8 12.5-14.6 3.4-3.8 7.2-7.3 10.7-11 5.5-5.9 11.9-10.7 18.9-14.6 5-2.8 10.2-5.3 15.3-8 2.6-1.4 5.5-1.8 8.4-1.6 5.5.4 10.7 1.9 15.3 5.1 1.6 1.1 2.9 2.5 3.5 4.4.5 1.5-.5 3.4-2.1 3.6-.3 0-.6.1-1 0-7.7-.5-14.3 2.3-20.8 6-7.6 4.3-14.2 9.8-19.8 16.5-5.4 6.3-10.6 12.8-15.1 19.8-3.7 5.6-7.7 11-12 16.2-4.7 5.7-8.9 11.7-12.8 18-1.7 2.7-3.5 5.3-5.3 8-.7 1.1-1.7 2.2-1.7 3.4 0 4.9-3.1 8.3-5.6 12-.7 1.1-1.4 2.2-1.9 3.3-.2.5 0 1.2 0 1.8.1.6 1.8 1 2.6.6 1.4-.8 2.8-1.5 4.1-2.4 11.6-8 22.3-17.2 32.4-27 16.3-15.9 32.6-31.6 48.6-47.7 7.6-7.7 16-14.8 24-22.1 2-1.8 4-2.9 6.9-1.3 1.6.9 3.6 1 5.5 1.4 1.9.3 3.8.4 5.7.8 1.9.4 3.6 1 4.7 2.9.6 1.1 1.8 1.8 2.7 2.6 1.3 1.1 1.9 2.5 2.1 4.1.2 1.3.6 2.6.4 3.8-.8 4.8-.9 9.5-.8 14.3 0 1.9-.6 3.8-1 5.6-1.9 7.8-3.8 15.5-5.6 23.3-1.2 5-1.3 10.2-3 15-.5 1.4 1.1 3.3 2.6 3.3 2.5 0 5.1 0 7.6-.4 12.8-2 24.6-6.9 35.6-13.6 1.6-1 3.2-2.1 4.8-3.1 21.6-15 44.1-28.3 66.6-41.8 7.1-4.3 14.4-8.2 21.7-12.2 2.5-1.4 5.1-2.6 7.7-3.8 2.3-1.1 4.9-1.8 6.9-3.2 2-1.4 3.6-3.5 5.4-5.3.8-1.4.4-3.1.5-4.6.2-3.8 1.1-7.4 2.4-11.1 2.4-6.6 4.7-13.2 6.9-19.9.2-.5 0-1.2-.2-1.8 0-.2-.5-.5-.8-.6-1.9-.6-3.7.3-5.6.5-3.8.4-7.5 1.1-11 3-1.9 1-4.2 1.4-6.4 1.9-3.1.8-6.3 1.2-9.3 2.4-5.7 2.3-11.6 3.3-17.5 4.7-1.9.4-3.8.6-5.6 1.4-5.1 2.1-10.4 3.1-15.7 4.1-.9.2-2 .1-2.8.6-5.4 3.7-12.2 3.6-18 6.4-3.1 1.5-6.8 1.8-10.2 2.7-2.2.5-4.6.6-6.5 1.7-3.9 2.3-7.9 1.7-12 1.9-4.7.2-7.2-2.4-8.8-6.1-1-2.3-1.2-4.9-1.6-7.4-.2-1.6.4-3.2 1.5-4.4 1.5-1.6 3.1-3.2 4.8-4.6 1.5-1.3 3.3-1.8 5.4-1.5 1.2.2 2.8.3 3.7-.3 3.6-2.4 8.1-1.7 11.8-3.7 3.5-1.9 7.3-2.1 11.1-2.9 1.6-.3 3-1 4.5-1.5.9-.3 1.7-1.1 2.6-1.1 7.8 0 14.7-4.3 22.3-4.6 1 0 2-.1 2.8-.5 7.3-3.2 15.5-3.8 22.7-7.4 1.7-.8 3.6-1.2 5.5-1.5 4.4-.8 8.8-1.5 13.2-2.3 2.8-.5 5.8-.9 8.3-2 2.8-1.3 5.5-1.2 8.3-1.4 4.4-.4 8.8-1.3 13.2-2.1 2-.4 3.5-1.7 4.4-3.4 2.7-4.7 5.2-9.5 7.9-14.2 2.1-3.6 4.1-7.2 6.3-10.7 1.9-3 4-5.8 5.3-9.1.7-1.7 2-3.2 3.1-4.8 1-1.6 2.2-3.2 3.1-4.9 3.4-6.9 7.8-13.2 12.3-19.4 4-5.8 7.9-11.7 11.8-17.5 1-1.5 2.3-2.1 4-2.2 1.3 0 2.6.1 3.8.2 2.3 0 4.4.8 6 2.5 1.1 1.2 2.4 2.1 3.5 3.3.8.9 1.7 2 2.1 3.1.9 2.4 1.6 4.8 2.3 7.3 1 3.9.3 7.5-2.2 10.9-5.6 7.8-11 15.7-16.5 23.5-.7 1-1.5 2.1-2.5 2.9-4.9 4.4-6.9 10.6-10 16.2-.4.6.6 2.2 1.3 2.2.3 0 .6.1.9.1 9.8-1.6 19.6-2.9 28.9-6.3 6.9-2.6 14.4-2.9 21.6-4.3 3.1-.6 6.4-.9 9.3-2.2 5.9-2.7 12.3-3.5 18.4-5.1 3.4-.9 6.9-1.5 10.3-2 3.5-.5 6.9-1.1 10.1-2.7 1.4-.7 3-1 4.6-1.3 8.2-1.4 16.4-2.7 24.5-4.1 3.8-.7 7.4-1.9 10.8-3.8 2.3-1.3 4.6-1.8 7.3-1.9 3.5-.2 7-.9 10.4-1.6 3.7-.8 7.3-2.4 11.2-2 1.2 0 2.4-.7 3.7-1 1.5-.4 3.1-.9 4.6-.8 3.3 0 6.4-.2 8.7-3 .4-.4 1.1-.8 1.7-.7 3.9.4 7.4-1.6 11.3-1.9 4.8-.3 9.5-1.2 13.8-3.6.8-.5 1.9-.7 2.8-.6 1.2 0 2.6.2 3.6.9 1.3.9 2.1 2.5 3.3 3.4 4.2 3.1 5.6 7.6 6.3 12.4.4 2.5-.7 4.4-3.3 4.9Zm-288.1 50.5c-.5-.2-1-.7-1.5-.7-1.5-.1-2.4.5-1.8.8.5.3 1.1.3 1.7.4.6-.2 1.1-.4 1.7-.5Zm-223.8 111.2c0-.2-.2-.6-.2-.6-.5.1-1 .3-1.4.5 0 .2.2.6.2.6.5-.1 1-.3 1.4-.5Zm7.3-6.4c0-.4-.7-.8-1.1-1.3-.7.6-1.4 1.2-2 1.9-.2.2-.2.6 0 .9.3.7.9.8 1.6.5.9-.4 1.6-1 1.6-2Zm6.9-6.9c-.5-.2-1-.7-1.4-.7-1.2.2-1.7 1-1.3 1.9 0 .2.4.4.7.6.3-.1.7-.2.9-.4.4-.4.8-.9 1.2-1.4Zm5.7-6.2c-.4-.6-1-.6-1.6-.1-.8.6-1.3 1.3-.8 2.3.1.2.5.3.9.6.6-.7 1.2-1.3 1.7-2 .1-.1 0-.6-.2-.8Zm5.5-7.5v.2l.3.2-.2-.4Zm-.1.2c-.4.9-1.1 1.7-.7 2.8 1.5-.8 1.5-.9.7-2.8Zm8.4-5.5c0-.3-1-.8-1.3-.6-.7.4-1.4 1-1.9 1.7-.2.3.3 1 .5 1.5 1.4.4 3-1.1 2.7-2.6Zm5.7-5.7c0-.2-.3-.6-.6-.6-1-.1-2.5 1.1-2.4 2 0 .3.7.6 1.1.9 1.3 0 2.1-1 1.8-2.3Zm94.1 51.7c-.3-.4-.7-1-1.2-1.1-2.6-.4-5 .6-7.3 1.5-8.5 3.6-16.9 7.1-25.4 10.8-.8.4-1.6 1-2.3 1.6-.4.4-.7 1.2-.6 1.7.1.4 1.1.8 1.5.6 2.3-1 4.6-2.1 6.8-3.3 3.1-1.7 6.4-2.6 10.6-2.3 2.6 1.2 4.9-.5 7.4-2 2.7-1.6 5.5-3.2 8.2-4.8.8-.5 1.4-1.2 2.1-1.9.2-.2.3-.7.2-.9Zm14.6-5.9c-.3-.5-.7-.6-1.3-.2.2.2.4.4.6.4.2 0 .5-.2.7-.2Zm2.3-17.4c-.2-.2-.4-.7-.5-.7-.5 0-1.1.3-1.6.5.2.2.4.6.6.6.5 0 1-.3 1.6-.5Zm12.1-7.9c0-.2-.5-.4-.8-.4-2.7 0-4.7 1-6.2 3.2-.2.2-.3.6-.2.9 0 .3.4.5.6.7.3 0 .6.2.8.2 2.2-.4 4.1-1.3 5.5-3 .3-.3.2-1 .2-1.5Zm11-6.3c-.4-.3-.9-1-1.3-.9-1.9.2-3.6 1.1-4.7 2.8-.2.2-.4.8-.3.8.4.3 1 .8 1.5.8 2.1 0 3.5-1.2 4.8-2.6.2-.2 0-.6 0-.9Zm8.3-5.4h-2.9c-.7.1-.9.7-.8 1.4.2 1 1.1 1.5 1.8.9.6-.5 1-1.2 1.9-2.3Zm17.3-9.1c-.3-.2-.5-.6-.8-.5-3.9.4-7.1 2.4-10.2 4.7-.6.5-.7 1.1-.3 1.5.2.2.6.3.8.2 3.3-1.1 6.5-2.4 9.4-4.5.4-.3.7-.9 1-1.4Zm17.2-9.3c0-.2-.4-.6-.6-.5-3.3 1.1-6.5 2.4-9 4.9-.2.2-.3.7-.2.8.3.4.7 1 1.1 1.1.9.2 1.9.2 3.3.4 2.3.4 3.4-.9 3.7-3.7 0-.8 1.1-1.5 1.7-2.2.1-.2.2-.6 0-.8Zm103 45.8s-.2.2-.2.3l.6.2-.4-.5Zm-8.2 9.9c-.4.6-.3 1.4-.3 2.2 2.1-1.8 4.2-3.5 6.2-5.3.9-.8 1.5-2 2.2-3.1.7-1.2.5-2.4-.2-3.5-1.3 1.5-2.7 3-4 4.6-1.4 1.7-2.8 3.3-3.9 5.1Zm-24.7 25.2c-.5.5-.6 1.4-.8 2.2.9 0 2 .3 2.4-.2 5.1-5 10.2-10.2 15.2-15.4.8-.9 1.2-2.2 1.7-3.3 3.5-1.7 3.5-1.8 2.3-5.1 1.3.5 2.4.5 3.1-.7-1.1.2-2.1.4-3.2.6-.5.8-1 1.5-1.4 2.3-.5.8-.9 1.5-1.4 2.3-4.9 2.4-8.4 6.4-11.6 10.5-2 2.4-4.1 4.6-6.3 6.8Zm-33.9 25.1c0 .2.4.6.7.6 2.5.2 5 .2 7.4.6 2.5.4 4.3-.6 6.2-2.2-.9-.5-1.7-1.3-2.4-1.3-3.8.1-7.5.5-11.2.9-.3 0-.5.9-.6 1.4Zm-14.3-173.6c-3.4-1.4-6.1-.6-8.4 2.1 1.1 1 2.5.8 3.7.5 1.2-.2 2.4-.7 3.5-1.2.5-.2.8-.9 1.2-1.4Zm51.6-15.3c-1.5.4-3 .7-4.4 1.2-.4.1-.6.8-.8 1.2.3.2.5.4.8.5 3.2.5 3.8 0 4.4-2.9Zm11.5-.4c-3.9-.8-7.7.3-11.5.4 3.9 1 7.7 1.2 11.5-.4Zm24.2-5.1c-2.4-1-4.9-1.2-7.3-.7-4 .8-7.9 1.3-11.9 1.9-2 .3-4.1 1.3-4.6 3.8 2.7-.2 5.3-.9 7.9-1.8 5.2-1.7 10.3-4 16-3.2Zm33.2-9.9c-.5-.2-1.1-.7-1.6-.6-1.8.4-3.6 1.2-5.4 1.5-7.1 1.3-14.4 1.6-20.9 5.4-1 .6-2.5.4-3.7.7-1.7.3-1.5 1.7-1.6 2.9.9-1 2.2-1.1 3.4-1.4 2.5-.5 5.2-.6 7.3-1.9 2.6-1.5 5.3-1.9 8.1-2.3 3.1-.4 6.2-1.2 9.3-1.9 1.8-.4 3.6-1.1 5.1-2.4Zm8.7 7.9-.2-.6-.4.6h.6Zm7.7-1.9v-.4c-.1 0-.8.2-.8.2l.8.2Zm1.5-11.4c-2.4.3-4.9.5-7.3 1-1.8.4-3.5 1.2-5.3 1.8-.2 0-.4.5-.4.8 0 .2.3.5.4.5 2.5.1 5 .7 7.4.2 2.3-.4 4.8-1.3 5.1-4.4Zm7.3-.6c-2.5-.8-4.7 0-7 .6 2.4.4 4.7 1.4 7-.6Zm20.7 4.1c-2.5-1.1-4.1.2-5.4 2.1-.2.3 0 1 .1 1.5 1.6-1.4 4.1-1.4 5.2-3.6Zm21.3-13.3c-.6-.1-1.2-.5-1.8-.4-6.6 1.1-13.1 2.2-19.6 3.6-2.8.6-5.4 1.6-8.3 1.4-2.1-.2-2.8.6-4.7 3.7 3.1.3 5.8 0 8.5-1.1 3.2-1.4 6.6-2.3 10.1-2.7 1.5-.2 3-.9 4.5-1.3 1.2-.3 2.5-.8 3.7-.7 3.1.5 5.4-.8 7.7-2.5Zm12.4-2.3-.8.2.7.2.2-.4Zm11.3-1.9-.8.2.6.2.2-.4Zm10.2-1.7-.7-.2v.4c.1 0 .7-.2.7-.2ZM202.7 332.3c-.4.7-.1 1.8-.2 2.8 0 .9.2 2.3-.3 2.7-3 2.4-2.5 5.5-2.1 8.7.4 3.7-1.2 6.9-3.5 9.6-1.3 1.6-2 3.2-2 5.2 0 2.3-.6 4.4-2.1 6.2-.2.2-.4.5-.6.8-2.3 3.2-2.3 7.3-4.1 10.6-1.8 3.3-4 6.5-5.9 9.7-.3.5-.5 1.3-.3 1.8 1.3 3.4-.5 6.4-2 9-1.8 3.2-2.6 6.4-3.3 9.9-.9 5.3-2.3 10.6-5.3 15.2-.4.5-.8 1.1-.9 1.7-.4 1.5-.7 3.1-1.2 4.6-.6 1.9-1.9 3.3-3.3 4.6-1.2 1.1-2.4 2.1-3.4 3-.2 1.7-.4 3-.5 4.2 0 1.3-.4 2.6-1.4 3.4-2.2 1.9-2.5 4.3-2.3 7 .1 2-.6 3.7-2.3 5-1 .8-1.7 1.9-2.3 3-.3.5-.5 1.3-.3 1.8 1.5 3 1.2 5.4-2 7.3-.6.3-.9 1.8-.7 2.5.8 2.7.2 5-1.5 7.2-1.3 1.8-3.2 3.2-3.6 5.6-.2 1.3-1.3 2.1-2.5 2.7-1.6.8-2.3 2.2-2.4 3.8 0 2.3-.3 4.2-2.2 6-2.7 2.5-4 5.7-2.1 9.5.6 1.2 0 2.5-1.1 3.3-.5.4-1.1.6-1.6 1-1.3 1-2.2 2.3-2.4 4-.4 3.5-.7 6.9-1 10.1-.8.7-1.2 1.3-1.7 1.5-3.6 1.3-4.2 4.4-4.7 7.6 1.4 1.9.1 3.3-.7 5-1.2 2.2-1.6 4.8-2.6 7.2-.7 1.8-1.7 3.4-3.4 4.5-2 1.2-3.3 2.9-4.1 5.1-1.5 3.9-2.8 7.9-5 11.4-2.3 3.6-2.7 7.8-4.8 11.4-2 3.6-3.9 7.4-5.7 11.1-.6 1.1-1.3 2.5-1.1 3.6.8 5-3.2 8.2-4.2 12.5-.3 1.2-1.3 2.2-2.1 3.1-2.9 3.6-5.3 3.6-8.9.7-3.1-2.5-5.2-5.7-6.8-9.2-1.5-3.2-1.4-6.9-.5-10.3.8-3 1.9-6.1 5.2-7.7 1.3-.6 2.4-2.1 3.1-3.5 4.8-9.4 9.9-18.6 14.1-28.3 3.1-7.3 6.4-14.6 9.6-21.9 1.1-2.6 2.2-5.3 3.2-8 1-2.4 1.7-4.9 2.9-7.1 4.3-7.9 7.2-16.4 11.1-24.4 2.6-5.4 4.4-11.3 6.4-17 2.2-6.3 5-12.4 6-19.2.3-2.1 1.6-4.1 2.6-6.1 2.1-4.3 4.2-8.7 6.6-12.8 1.5-2.5 1.3-4.8.5-7.2 1.3-3.1 4.3-4.7 6.6-7.4.7-3.4 1.3-7.2 2.9-10.7 6.5-13.9 11.3-28.5 16.7-42.9 3.8-10.2 7.6-20.4 11.6-30.5 4.4-11 8.1-22.2 11.1-33.7 2.1-8 4.2-16 6.7-23.9 2.3-7.3 4.4-14.7 5.3-22.3.1-1.3.1-2.6.6-3.8 2.1-4.8 2.6-9.9 3-15 .5-6.7 2-13.2 2.9-19.9.7-5.4.8-10.8 1.2-16.2-1.6-5.2-2.1-10.6-2.9-15.9-.6-3.9-4.4-6.5-8.5-6.4-1.6 0-3.3 0-4.7.5-3.9 1.3-8.1 2-11.8 4-1.4.8-2.9 1.3-4.4 1.8-2.7.9-5.8 1.1-8.2 2.5-5.4 3.3-10.7 7-15.8 10.9-4.1 3.1-7.9 6.5-11.8 9.8-1.9 1.7-3.9 3.3-5.7 5.1-11.6 11.5-23.2 22.9-33.6 35.5-7.1 8.7-14.4 17.1-21.5 25.8-2 2.5-3.8 5.1-5.5 7.9-2 3.3-4.2 6.4-6.7 9.3-6.7 7.8-12.5 16.1-17 25.4-4.4 9.2-9.2 18.2-13.9 27.3-1 2-1.7 4.1-1.7 6.4 0 3.5 2.4 6.2 5.8 6.3 6.4.2 12.7-.2 19-2.1 4.6-1.4 9.2-2.4 13.9-3.5.4 0 .9.6 1.3 1 .2.2.1.6 0 .9-.2.6-.4 1.3-.9 1.7-4.5 4-8.7 8.5-15.1 9.5-1.6.2-3.1.9-4.6 1.3-5.9 1.6-11.4.3-16.8-1.8-.9-.3-1.7-1-2.4-1.6-2.5-2.1-4.5-4.5-5.9-7.5-3.5-7.5-4.9-15.2-2.4-23.3.7-2.1 1.1-4.3 1.7-6.5 1-3.4 2.3-6.6 4.1-9.7 3-4.9 6-9.8 8.4-15 1.2-2.6 2.8-5 4.4-7.4 5.3-8 10.8-15.8 16-23.8 5.3-8.1 7.8-11.4 14.7-18.6h1.1H81c.5-.4 1.1-.8 1.4-1.3 2.7-5.2 7-9.1 10.9-13.3 1.1-1.2 2.2-2.3 3.2-3.6 5.9-7.6 12.9-14.2 19.9-20.8 1.9-1.8 3.7-3.6 5.3-5.6 2-2.5 4.1-4.9 7.2-6.2.3-.1.6-.2.8-.5 2-2.1 3.7-4.4 5.9-6.2 2.2-1.8 5-2.7 6.8-5.1 1.3-1.8 2.9-3.4 5.2-4 .6-.2 1.2-.5 1.7-.9 7-5.2 15.2-8.2 22.7-12.4 4.8-2.7 10.4-3 15.5-5 5.9 1.1 12.1.3 18 2.4 5.4 1.9 9.5 5.5 12.9 9.7 4.6 5.7 8.3 12.1 10.5 19.2 1.5 4.9.9 10.2 2.7 15.1.3.8-.3 1.9-.4 2.8-.1 1.6-.5 3.3-.1 4.7 1.7 6.1.5 12.1-1 18-.9 3.4-1.5 6.9-1.4 10.4 0 4.3-1 8.2-2.8 12-2 4.4-3.9 8.8-3.2 13.8v1c-.1.6-.2 1.3-.5 1.8-2.5 3.9-1.8 8.7-4 12.7-1.3 2.2-2.1 4.7-3.1 7-.5 1.2-.7 2.3-.3 3.7.7 1.9.2 3.8-1 5.4-1 1.3-1.7 2.7-1.8 4.4-.2 4-2 7.4-4 10.6-2.2 3.5-2.9 7.7-5.1 11.2Zm13.1-80.8c0 .2.3.2.5.4.1-.3.3-.5.3-.8 0-.9-.4-1-.8-.4-.1.2 0 .6 0 .8Zm-139.3 13c-.3-.7-.7-.7-1 0 0 0 .3.5.5.5s.4-.3.6-.4Zm8-13.9s-.5 0-.8.2c-.3 0-.5.3-.8.4h-.2c.4 0 .7 0 1 .1.8.3 1 .2.7-.7Zm8.9-7.2c.5 0 1 0 1.5-.1-.4-.6-.8-1-1.6-.4v.6Zm5.3-5.9c-.6.2-1.3.2-1.7.5-.7.6-1.4 1.3-2 2-.9 1.1-.7 2.2 0 3.2 1.2-1.4 2.5-2.8 3.7-4.3.2-.3 0-.9 0-1.4Zm26.3-27.6c-.2 0-.5 0-.6.1-.1 0-.1.6 0 .6.6.2.8-.1.7-.7Zm1.4-.6c-.2-.3-.5-.5-.7-.8-.1.4-.3.8-.4 1.1.4-.1.8-.2 1.1-.3Zm5.8-4.8c0-.3-.1-.6-.2-.8-.4.3-.9.5-1.3.8 0 0 0 .6.2.6.7.4 1.1.1 1.3-.6Zm17.1-14.8-.3-.7-.4.6h.6ZM85.4 587.1c-.3.1-.6.2-.8.4-1.1.8-1.6 1.9-1.6 3.3 0 .3.1.6.3.8.1.2.4.2 1 .4.6-1 1.3-2.1 1.7-3.2.2-.4-.4-1.1-.6-1.6Zm21.1-40.3c.5-.8.9-1.7 1-2.7 0-.9-.3-1.8-.4-2.7-.8.4-1.9.6-2.2 1.2-2.9 5.7-6 11.3-8.3 17.2-2.1 5.3-3.6 10.8-7.4 15.4-1.4 1.6-2.4 3.8-2.1 6.2 0 .3.3.5.5.9.5-.2 1.2-.2 1.5-.5 4.2-5.3 7.2-11.2 9.7-17.5 2.4-5.9 4.7-11.9 7.9-17.4Zm1.1 9.5c-.2-.2-.4-.5-.6-.7-.2.2-.6.4-.6.6 0 .2.4.5.6.7.2-.2.5-.4.7-.6Zm6.8-17c-.2-.2-1.1 0-1.4.3-1.2 1.1-1.5 2.5-1.2 4 .2.3.3.7.6.7.2 0 .6-.2.8-.4.6-1 1.3-2 1.7-3.1.2-.4-.1-1.2-.5-1.6Zm5.9-11.5c-.2-.3-.5-.7-.7-.7-1.1 0-1.7.8-1.9 1.8 0 .2 0 .7.3.8 1.1.5 1.5-.5 2-1.1.2-.2.2-.5.3-.8Zm4-12-.5.2.4.3v-.5Zm7-20.2c-.8 1.3-1.2 2.7-1 4.2 0 .5.5 1.1 1 1.4.6.4 1.7-.7 1.7-1.6 0-1.6-.2-3-1.7-3.9Zm10.3-18.9c0-.4-.5-1-.9-1.2-.7-.3-1.8.5-1.7 1.5 0 .4.6.8.9 1.2.9.2 1.8-.6 1.7-1.5Zm4.5-8.7c0-.3-.4-.5-.6-.7-1.4-.4-3 1.3-2.6 3 0 .3 1.1.8 1.5.6 1.4-.4 1.9-1.4 1.7-2.9Zm.5-15.7c1.2-2.6 2.1-5.3 3-8.1.3-.8 0-1.8-.1-2.8-.4.1-.8.1-1 .3-3 2.9-5.3 6.3-6.7 10.3-.6 1.8-1.1 3.7-1.9 5.4-2.6 5.2-4.4 10.6-6.1 16.1-.8 2.8-1.8 5.4-3.7 7.7-1.9 2.3-2.7 5-3.3 7.8-.7 3.1-1.2 6.4-2.7 9.1-3 5.6-5.7 11.4-8.4 17.1-3 6.3-5.2 12.9-7.6 19.5-.1.3 0 .6 0 .9 0 .3.2.6.5.8.1.1.5 0 .7 0 1.5-.8 2.2-2.3 2.8-3.7 1.8-4.1 3.4-8.2 5.4-12.3 3.5-7.2 7.2-14.2 9.7-21.8.6-1.9 2.2-2.9 4-3.3-.2-1.5-.7-3.1-.5-4.6.9-6 3.1-11.6 5.9-17 1.8-3.4 4.2-6.6 5.2-10.2 1.1-4.1 3-7.7 4.7-11.4Zm1.3 10c0-.2-.3-.4-.5-.6l-.6.9.6.3c.2-.2.6-.4.6-.6Zm3.4-8.4c-.5-.3-.7-.7-1-.6-1 .1-1.8.7-1.9 1.8 0 .6.2 1.2.3 1.7.5-.2 1.1-.2 1.4-.6.5-.7.8-1.5 1.1-2.3Zm5.3-14.6c-.2.1-.6.2-.7.4-2 2.4-4 4.9-4.5 8.2 0 .2.4.4.7.7.3 0 .7 0 .9-.1 2.2-2 3-4.8 4.1-7.4.2-.4-.3-1.1-.4-1.7Zm13.2-32c-.4-.6-.7-1.2-1-1.2-.5 0-1.1.4-1.3.7-.2.4.2 1.1.3 1.6.6-.4 1.3-.7 2-1.1Zm2.4-23.8c-.2-.5-.4-1-.6-1.6-.5.4-1.3.6-1.5 1.1-.9 2-1.7 4.1-2.5 6.2-.8 2.1-1.4 4.3-2.4 6.2-2 4-3.9 8-5 12.4-.4 1.5-1 3.1-2 4.3-2.7 3.3-4.1 7.2-5.3 11.2-1.3 4.3-3.3 8.3-3.7 12.8 0 .2.3.6.6.7.3 0 .8 0 .9-.2.9-1.3 1.9-2.5 2.5-4 1.4-3.6 2.2-7.4 3.9-10.8 6.4-12.2 10.8-25.2 15.1-38.3Zm.5 15.6c-.1-.2-.2-.6-.4-.7-.2 0-.6.2-.7.3-.2.8.1 1.2.7 1.1.2 0 .3-.5.4-.7Zm2-23.4c1.8-1.3 1.9-3.6 2.7-5.5-.8 0-1.8-.3-2.2.1-1.4 1.3-2.3 2.9-1.8 4.9 0 .3.2.6.4.7.3 0 .6 0 .9-.2Zm2.6 10.8c-.2-.2-.5-.3-.7-.5-.2 0-.7.1-.7.2-.2 1.2-.4 2.4-.5 3.6 0 .3.4.8.4.8.6-.2 1.3-.3 1.6-.8.8-1.1.7-2.3 0-3.4Zm.1-19.8c-.2.2-.2.6-.2.9.1.7.3 1.4.4 2 .2-.8.5-1.5.6-2.3.1-.8-.3-1.1-.9-.6Zm2.7 12.2c0-.2-.3-.3-.5-.5-.2.2-.4.4-.4.6 0 .2 0 .5.2.7 0 0 .4 0 .6-.1 0-.3.2-.5.1-.8Zm13.1-32.6c-.1-.2-.2-.5-.3-.7-.4.3-.8.7-1.2 1l.3.6c.4-.3.8-.6 1.1-.9Zm971.9-177.8c1.2.2 2.5.3 2.8.3 7.6 0 13.5-1.8 17.9-7.1.8-.9 1.6-2.2 1.6-3.3 0-3.2-.6-6.5-2.9-8.9-7.2-7.6-10.6-9-19.8-3.6-2.5 1.4-4.6 3.4-6.4 5.7-4.9 6.6-1.4 15.5 6.7 16.8Zm-112.9 609.1c.6-.7 1.2-1.5 1.5-2.4l4.5-16.5c.8-3.1 1.4-6.2 1.8-8 .1-1.9.2-2.5.2-3.2 0-.8-.4-1.2-1.1-1-.2 0-.5.3-.6.5-1.5 4.8-3.1 9.6-4.5 14.5-1.5 5.2-3.2 10.3-3.7 15.7 0 .2.3.7.5.7.5 0 1.2 0 1.4-.4Zm-68.5-434.2c.8-.5 1.6-1 2.3-1.6.7-.6 1.3-1.3 1.9-2.1.2-.2.2-.8.1-.9-.5-.3-1.2-.7-1.5-.6-5.1 2.4-15.6 11.1-17.9 14.8 0 .1.2.5.4.6.2.2.6.2.8.2 2.3-.4 3.8-2.1 5.4-3.6 1.6-1.7 3.7-2.1 5.8-2.3.5-1.8 1-3.5 2.7-4.6Zm-27.4 102.5c.5-.3.9-.9 1.3-1.4 3-3.8 3.2-8.9 6-12.8.2-.2 0-.6 0-.9 0-.3-.1-.6-.2-.9-.2-.3-.3-.7-.5-.7-.3 0-.6.2-.8.4-1.9 1.6-.9 4.3-2.3 6.1-1.5 2-3.1 4-4.6 6-.4.5-.5 1.1-.7 1.7-.1.3-.2.6-.2.9 0 .6.1 1.3.5 1.7.2.2 1 0 1.5-.2Zm-8.3 15.8c1.4-2.1 2.9-4.2 4.1-6.4.5-.8.5-1.8.6-2.7 0-.3-.1-.7-.3-.8-.5-.2-1.3-.5-1.6-.2-3.1 2.8-5 6.5-6.5 10.3-.5 1.4-.7 3-2.3 3.8 4.2-1.6 4.2-1.6 5.9-4Zm329.6 197.8c.3-.5.8-1.1.9-1.7 0-.5 0-1.2-.3-1.7-.2-.5-1-.5-1.5.2-3.5 4.5-7.1 9-10.5 13.5-.8 1-.7 2.1-.3 3.2 1.5-1.6 2.9-3.2 4.5-4.7 2.8-2.6 5.1-5.6 7.2-8.8Zm-11.7 13.5s.2 0 .3.2c0-.1 0-.2-.1-.4ZM1078 285c1.9 1.4 4.1 1.7 6.3.7 1.4-.7 2.6-1.8 3.8-2.8 1.2-1.1 1.6-2.9.9-3.1-.9-.2-1.9-.4-2.7-.1-2.9 1.2-5.7 2.6-8.8 3.1-.3.9-.2 1.7.6 2.3Zm-.6-2.3v-.2h-.2v.2h.2ZM915.2 573.5c1.5 1.4 3 1.1 4.4.5 3.2-1.3 6.3-2.7 9.3-4.4 1.2-.6 2-1.9 3-2.9-1.6.6-3.1 1.3-4.7 1.6-4.5.7-8.3 2.7-12 5.3Zm17-7.2c-.1.1-.2.2-.3.4.2 0 .4-.1.6-.2 0 0 .1 0 .2-.1h-.4Zm-25.6 10.9c-4.2 1.2-8.3 2.9-12.2 4.9-.6.3-.9 1.2-1.3 2 5.5-.4 10.1-2.8 14.3-6.2-.4-.3-.7-.7-.8-.6Zm-13.9 6.9.2.2s.1-.2.2-.3h-.3Zm56.3-24c-.3-.1-.6-.4-.8-.4-3.6.2-6.8 1.5-9.6 3.5-.8.5-1 1.4-.7 2.3 4.4-.4 8.4-1.8 11.2-5.5Zm64.8 366.9c0-.4-.6-.8-1-1 0 0-.6.3-.7.5-1.4 3.2-2.3 6.4-2.1 9.9 0 1.3.6 2.3 1.5 3.1.7-2.9 1.4-5.9 2-8.8.2-1.2.4-2.5.3-3.7Zm40.3-398.5v.1c0-.1.1-.2.2-.3h-.3s-.2.1-.2.2h.4Zm-11.6 3.4c3.6-1.1 7.5-1.3 10.9-2.9.2 0 .3-.2.4-.4-5.7-.4-11.1 1.3-16.4 3.1-.2 0-.3.3-.4.5 1.8 0 3.7.3 5.4-.3Zm248.2 107.7c-1.9 1.2-2.9 3.1-3.6 5.2 0 .2.1.6.3.7.2.2.6.4.8.3 2.3-1.2 3.9-2.8 4-5.6-.2-.2-.4-.6-.6-.7-.2 0-.6 0-.8.1Zm-228 99.6c.5-1.4 1-2.9 1.3-3.9 0-.8.2-1.2 0-1.4-.3-.4-.7-.8-1.1-1-.1 0-.6.2-.7.4-.4 1.8-.8 3.6-1.1 5.4 0 .2.4.5.6.6h.9Zm2.4-11.1c.3 0 .7 0 .9-.2.7-1 1.3-2 1.6-2.5v-1.6c-.2-.6-.4-1.1-.7-1.7-.5.4-1.1.6-1.4 1.1-.9 1.3-1.5 2.7-1 4.4 0 .3.4.5.7.6Zm23.8-74.5c0 .2.4.5.7.6.2 0 .5 0 .6-.2 2.3-2.5 1.8-5.5 2-8.5-1 1.4-2.2 2.8-3 4.3-.5 1-.3 2.5-.3 3.7Zm3.5-8.4-.2-.3v.6c0-.1.2-.2.3-.3ZM1054 286.1c1.6-.2 2.8-1.1 3.7-2.5.1-.2 0-.6 0-.9-.2-.2-.5-.7-.6-.6-1.5.4-3 .9-4 2.2-.2.3 0 1 0 1.5 0 .1.5.3.8.3Zm-76.7 106.1c-.3.9-.5 1.9.3 2.7.5.5 1.8 0 2.3-.9l2.1-4.2c-2 0-3.9.1-4.6 2.4Zm4.7-2.4c.1-.9.2-1.7.4-2.5.3-1.2.8-2.3 1-3.5 0-.2-.7-.6-1.2-.8-.1 0-.5.3-.7.5-1.1 2.1 1 4.1.4 6.3Zm79.8 136.7.2.2.2-.2h-.4c-.1 0-.2.2-.3.3h.6l-.2-.2Zm-.4.2c-1.4 0-2.8.1-4.1.2-1.2 0-2.2.4-2.9 1.4 1.8 0 3.5 0 5.2-.4.7-.1 1.2-.8 1.8-1.3Zm222.1 122c-1.2.5-2.2 1.2-2.4 2.5 0 .5.4 1 .6 1.5 0 0 .6-.2.8-.3 1-.7 1.8-1.6 1.5-3-.2-.2-.5-.7-.5-.7Zm-315.9-227c.2-.2.2-.6.2-.8 0-.2-.4-.2-.7-.3-.1.2-.4.5-.4.7 0 1 .3 1.1 1 .4Zm764.7 109c0 .2.2.5.3.7.2-.2.4-.4.4-.7 0-.3-.2-.5-.3-.8-.2.2-.4.5-.4.7Zm-740.8-196c.2-.1.6-.2.6-.4v-.8c-.6-.4-1.1-.2-1.1.5 0 .2.3.4.5.6Zm-58.8 231.7c1.7 0 3.4 0 4.9-.8-1.8-.7-3.4 0-4.9.8Zm4.9-.8h.2v-.2h-.1Zm4.6-96.4c0-1.1-.1-2.3-.2-3.4-.1.9-.3 1.7-.4 2.6l-.6 2.4c.7-.3 1.4-.6 1.3-1.6Zm32-65.9s-.4.4-.5.6c-.1.4-.1.9-.2 1.4.4-.2.9-.3 1.2-.6.4-.5.2-1.1-.5-1.4Zm-.7 2v.3h-.2v-.2s.2 0 .2-.1Zm-.2.2h.1-.1ZM972 408c0 .2.4.5.7.5.1 0 .5-.3.5-.5v-2.3c-1.4.2-1.6 1.1-1.3 2.3Zm589.2 156.5c-.4-.3-.8-.5-1.2-.9.4.3.8.5 1.1.8Zm-539.8 162c-1.4 2-2.6 4.2-3.6 5.7-.6 1.5-1 2.3-1.3 3.2 0 .2.2.7.3.7.5 0 1.2 0 1.4-.3 1.7-2.6 3.3-5.2 4.8-7.9.2-.4-.2-1.1-.3-1.7-.5 0-1.2 0-1.4.3Zm75.4-122.1c-1.7 1.9-2.9 4.1-3.6 6.5 0 .2 0 .6.2.8.1.2.4.3.6.5.3 0 .7 0 .9-.3 1.8-1.8 3.4-3.8 3.5-6.4 0-.4-.5-1-.8-1.4-.1-.1-.7 0-.9.2Zm-13.4 21.6c-1.4 2.1-2.6 4.3-3.9 6.4 0 .2.2.6.4.8.1.2.5.3.7.3 2.5-1.7 3.8-4.1 4.7-6.8-.1-.4-.2-.9-.3-.9-.5 0-1.3-.1-1.5.2Zm-11.2 19.5c0 .1.3.5.5.6.2.1.6.2.8 0 1.6-1.1 2.4-2.5 1.8-4.4-2.4.1-2.5 2.1-3 3.7Zm-62.8 101.3c0 .1.3.6.4.6.5 0 1.4.2 1.6 0 .5-.6.8-1.3 1.2-2.1-.8 0-1.6 0-2.4.3-.4.1-.6.8-.8 1.2Zm-7.1 10.8c-.3.4-.7.8-1 1.2 0 0 .4.5.6.5 1 0 1.7-1.1 1.1-1.5-.2-.1-.5 0-.7-.1Zm10.6-16.3c-.3.5-.5 1.1-.8 1.6.2.2.5.6.7.6.8-.2 1-.8.7-1.5-.1-.3-.4-.4-.7-.6Zm26.8-42.4.3-.5h-.5l.2.5Zm35.7-57.2-.3-.2v.3h.1Zm14.1-23.8.5-.2-.4-.3v.5Z"/></svg>