<svg width="171" height="56" viewBox="0 0 171 56" fill="none" xmlns="http://www.w3.org/2000/svg">
<path d="M27.4423 44.465V39.006C25.9712 40.9253 24.1143 42.5151 21.9913 43.673C19.9521 44.7231 17.69 45.2668 15.3963 45.258C13.3413 45.261 11.3087 44.8313 9.43078 43.9969C7.5528 43.1625 5.87153 41.942 4.49634 40.415C1.50783 37.2245 -0.105365 32.9862 0.00534383 28.616C-0.0331204 26.4731 0.351235 24.3437 1.13643 22.3495C1.92162 20.3553 3.09224 18.5354 4.58134 16.994C5.97431 15.4649 7.67176 14.2441 9.56462 13.41C11.4575 12.576 13.5039 12.1471 15.5723 12.151C17.9071 12.1193 20.21 12.6959 22.2543 13.824C24.3714 15.0365 26.1776 16.7246 27.5303 18.755V12.943H31.3993V44.465H27.4423ZM24.1883 19.723C23.1231 18.5444 21.8199 17.6052 20.3648 16.9674C18.9098 16.3296 17.336 16.0077 15.7473 16.023C13.6359 16.0056 11.5628 16.5871 9.76834 17.7C7.92555 18.8239 6.43345 20.4403 5.46034 22.367C4.42118 24.3185 3.87767 26.4956 3.87767 28.7065C3.87767 30.9174 4.42118 33.0945 5.46034 35.046C6.46469 37.0035 7.98653 38.6481 9.86034 39.801C11.6183 40.9225 13.6664 41.5041 15.7513 41.474C17.857 41.461 19.9205 40.8829 21.7263 39.8C23.5671 38.722 25.0862 37.1715 26.1263 35.309C27.178 33.3338 27.6934 31.1175 27.6213 28.881C27.707 25.4998 26.4778 22.2173 24.1923 19.724L24.1883 19.723ZM61.0303 40.415C59.6608 41.949 57.9806 43.1742 56.1014 44.0092C54.2221 44.8441 52.1867 45.2698 50.1303 45.258C47.8366 45.2668 45.5745 44.7232 43.5353 43.673C41.4219 42.5365 39.5892 40.942 38.1713 39.006V55.912H34.3883V12.855H38.1693V18.666C39.5221 16.6356 41.3283 14.9475 43.4453 13.735C45.4624 12.6174 47.7345 12.0411 50.0403 12.062C52.0953 12.059 54.1279 12.4887 56.0059 13.3231C57.8839 14.1575 59.5652 15.378 60.9403 16.905C62.4288 18.4469 63.5988 20.267 64.3833 22.2614C65.1678 24.2558 65.5515 26.3852 65.5123 28.528C65.6412 32.9262 64.0299 37.1977 61.0283 40.415H61.0303ZM59.9753 22.453C59.0022 20.5263 57.5101 18.9099 55.6673 17.786C53.8602 16.7028 51.7952 16.125 49.6883 16.113C48.0993 16.0952 46.5248 16.4159 45.0694 17.0539C43.6139 17.6919 42.311 18.6324 41.2473 19.813C39.0115 22.2947 37.815 25.5409 37.9053 28.88C37.9092 31.1084 38.4205 33.3066 39.4003 35.308C40.4362 37.1966 41.9545 38.7767 43.8003 39.887C45.611 40.9585 47.6715 41.5355 49.7753 41.56C51.8276 41.5595 53.8381 40.9796 55.5753 39.887C57.4284 38.709 58.9444 37.0707 59.9753 35.132C61.0225 33.1834 61.5666 31.0042 61.5583 28.792C61.663 26.5692 61.1125 24.3657 59.9753 22.453ZM88.9053 44.465V39.006C87.4875 40.942 85.6548 42.5365 83.5413 43.673C81.5021 44.7231 79.24 45.2668 76.9463 45.258C74.9038 45.2609 72.8838 44.8307 71.0196 43.9959C69.1555 43.1611 67.4894 41.9407 66.1313 40.415C63.1451 37.2231 61.5345 32.9845 61.6473 28.615C61.6082 26.4722 61.9919 24.3428 62.7764 22.3484C63.5609 20.354 64.7308 18.5339 66.2193 16.992C67.5945 15.465 69.2758 14.2445 71.1538 13.4101C73.0317 12.5757 75.0643 12.146 77.1193 12.149C79.4252 12.1281 81.6973 12.7044 83.7143 13.822C85.8069 15.0374 87.5849 16.7271 88.9053 18.755V12.943H92.6863V44.465H88.9053ZM85.7373 19.723C84.684 18.553 83.3954 17.6186 81.9559 16.981C80.5165 16.3434 78.9587 16.017 77.3843 16.023C75.299 15.9941 73.2508 16.5771 71.4933 17.7C69.6505 18.8239 68.1584 20.4403 67.1853 22.367C66.1462 24.3185 65.6027 26.4956 65.6027 28.7065C65.6027 30.9174 66.1462 33.0945 67.1853 35.046C68.1799 36.9808 69.6656 38.6202 71.4933 39.8C73.2513 40.9215 75.2994 41.5031 77.3843 41.473C79.4895 41.4492 81.5515 40.8722 83.3633 39.8C85.1971 38.7429 86.6914 37.1851 87.6713 35.309C88.723 33.3338 89.2384 31.1175 89.1663 28.881C89.2366 25.5024 88.0094 22.2254 85.7373 19.724V19.723ZM99.9813 5.723C99.6844 6.02908 99.3291 6.27252 98.9365 6.43896C98.5438 6.60539 98.1218 6.69143 97.6953 6.692C97.2803 6.7001 96.8684 6.6176 96.4884 6.45024C96.1085 6.28289 95.7696 6.03472 95.4953 5.723C94.875 5.08705 94.5279 4.23386 94.5279 3.3455C94.5279 2.45714 94.875 1.60395 95.4953 0.968C96.0719 0.366634 96.8634 0.0185121 97.6963 0C98.1228 0.000566948 98.5448 0.0866093 98.9375 0.253043C99.3301 0.419476 99.6854 0.662924 99.9823 0.969C100.603 1.60495 100.95 2.45814 100.95 3.3465C100.95 4.23486 100.603 5.08805 99.9823 5.724L99.9813 5.723ZM99.7173 44.465H95.7613V12.943H99.6303V44.465H99.7173ZM110.972 15.937C109.675 15.9179 108.419 16.3897 107.455 17.258C107.004 17.6186 106.636 18.0732 106.378 18.5902C106.12 19.1073 105.977 19.6743 105.96 20.252C105.972 21.3451 106.414 22.3895 107.191 23.158C108.664 24.5869 110.394 25.7224 112.291 26.504C115.456 28.089 117.567 29.586 118.71 30.995C119.781 32.4507 120.366 34.2069 120.381 36.014C120.398 37.2453 120.148 38.4656 119.647 39.5906C119.146 40.7156 118.408 41.7185 117.481 42.53C115.542 44.3044 112.987 45.2523 110.359 45.172C108.481 45.1918 106.62 44.8011 104.908 44.027C103.233 43.3409 101.754 42.252 100.6 40.857L103.326 37.951C105.526 40.24 107.81 41.473 110.272 41.473C111.881 41.486 113.442 40.9239 114.672 39.888C115.231 39.4431 115.686 38.8814 116.005 38.2423C116.324 37.6031 116.499 36.902 116.518 36.188C116.501 35.0334 116.099 33.9177 115.375 33.018C113.794 31.5987 111.977 30.4667 110.005 29.673C107.015 28.173 104.993 26.767 103.938 25.273C102.859 23.8945 102.298 22.1801 102.355 20.43C102.316 19.3063 102.524 18.1876 102.965 17.1532C103.406 16.1187 104.068 15.1935 104.905 14.443C106.688 12.843 109.018 11.9916 111.412 12.066C114.49 12.066 117.567 13.4747 120.644 16.292L117.918 18.934C115.368 16.909 113.082 15.94 110.972 15.94V15.937ZM125.572 28.968C125.514 32.292 126.742 35.51 129.001 37.949C130.047 39.0931 131.326 39.9996 132.752 40.6072C134.177 41.2148 135.717 41.5093 137.266 41.471C138.853 41.4729 140.429 41.2051 141.926 40.679C143.315 40.1933 144.599 39.4465 145.707 38.479C147.042 37.1381 148.194 35.6283 149.136 33.988L152.477 35.749C151.504 37.7473 150.196 39.564 148.608 41.12C147.183 42.4579 145.511 43.5048 143.684 44.202C141.709 44.9085 139.627 45.2661 137.529 45.259C132.429 45.259 128.473 43.586 125.659 40.24C123.008 37.2041 121.489 33.3438 121.362 29.315C121.234 25.2863 122.505 21.3376 124.959 18.14C126.389 16.2365 128.251 14.7006 130.391 13.6595C132.532 12.6184 134.89 12.102 137.269 12.153C139.712 12.0767 142.138 12.5887 144.341 13.646C146.545 14.7032 148.462 16.2747 149.931 18.228C152.235 21.3289 153.441 25.108 153.36 28.97L125.572 28.968ZM146.762 20.339C145.679 19.0041 144.292 17.9475 142.717 17.257C141.073 16.4559 139.27 16.0346 137.441 16.024C136.003 15.9761 134.57 16.2164 133.226 16.7305C131.882 17.2447 130.654 18.0224 129.615 19.018C127.816 20.8021 126.563 23.0631 126.005 25.535H149.13C148.722 23.6525 147.913 21.8804 146.756 20.34L146.762 20.339ZM168.568 16.639C167.916 16.2996 167.193 16.1187 166.458 16.111C165.008 16.1779 163.632 16.7729 162.589 17.784C161.168 19.2067 160.191 21.0114 159.775 22.979C159.247 24.74 159.075 28.438 159.075 33.897V44.553H155.03V13.031H159.075V17.61C160.057 15.9961 161.377 14.6144 162.944 13.56C164.18 12.6917 165.655 12.2299 167.165 12.239C168.408 12.2808 169.618 12.6466 170.675 13.3L168.568 16.639Z" fill="white"/>
</svg>
