<svg width="171" height="57" viewBox="0 0 171 57" fill="none" xmlns="http://www.w3.org/2000/svg">
<path d="M27.4423 45.3771V39.9181C25.9712 41.8374 24.1143 43.4272 21.9913 44.5851C19.9521 45.6353 17.69 46.1789 15.3963 46.1701C13.3413 46.1731 11.3087 45.7434 9.43078 44.909C7.5528 44.0746 5.87153 42.8542 4.49634 41.3271C1.50783 38.1366 -0.105365 33.8983 0.00534383 29.5281C-0.0331204 27.3852 0.351235 25.2558 1.13643 23.2616C1.92162 21.2674 3.09224 19.4475 4.58134 17.9061C5.97431 16.377 7.67176 15.1562 9.56462 14.3221C11.4575 13.4881 13.5039 13.0592 15.5723 13.0631C17.9071 13.0314 20.21 13.608 22.2543 14.7361C24.3714 15.9486 26.1776 17.6367 27.5303 19.6671V13.8551H31.3993V45.3771H27.4423ZM24.1883 20.6351C23.1231 19.4565 21.8199 18.5173 20.3648 17.8795C18.9098 17.2417 17.336 16.9198 15.7473 16.9351C13.6359 16.9178 11.5628 17.4992 9.76834 18.6121C7.92555 19.736 6.43345 21.3524 5.46034 23.2791C4.42118 25.2306 3.87767 27.4077 3.87767 29.6186C3.87767 31.8296 4.42118 34.0066 5.46034 35.9581C6.46469 37.9156 7.98653 39.5602 9.86034 40.7131C11.6183 41.8346 13.6664 42.4162 15.7513 42.3861C17.857 42.3731 19.9205 41.795 21.7263 40.7121C23.5671 39.6341 25.0862 38.0836 26.1263 36.2211C27.178 34.246 27.6934 32.0296 27.6213 29.7931C27.707 26.4119 26.4778 23.1294 24.1923 20.6361L24.1883 20.6351ZM61.0303 41.3271C59.6608 42.8611 57.9806 44.0863 56.1014 44.9213C54.2221 45.7562 52.1867 46.1819 50.1303 46.1701C47.8366 46.179 45.5745 45.6353 43.5353 44.5851C41.4219 43.4486 39.5892 41.8541 38.1713 39.9181V56.8241H34.3883V13.7671H38.1693V19.5781C39.5221 17.5477 41.3283 15.8596 43.4453 14.6471C45.4624 13.5295 47.7345 12.9532 50.0403 12.9741C52.0953 12.9711 54.1279 13.4008 56.0059 14.2352C57.8839 15.0696 59.5652 16.2901 60.9403 17.8171C62.4288 19.359 63.5988 21.1791 64.3833 23.1735C65.1678 25.1679 65.5515 27.2973 65.5123 29.4401C65.6412 33.8383 64.0299 38.1098 61.0283 41.3271H61.0303ZM59.9753 23.3651C59.0022 21.4384 57.5101 19.822 55.6673 18.6981C53.8602 17.6149 51.7952 17.0371 49.6883 17.0251C48.0993 17.0073 46.5248 17.328 45.0694 17.966C43.6139 18.604 42.311 19.5445 41.2473 20.7251C39.0115 23.2068 37.815 26.453 37.9053 29.7921C37.9092 32.0205 38.4205 34.2187 39.4003 36.2201C40.4362 38.1087 41.9545 39.6888 43.8003 40.7991C45.611 41.8706 47.6715 42.4476 49.7753 42.4721C51.8276 42.4716 53.8381 41.8917 55.5753 40.7991C57.4284 39.6211 58.9444 37.9828 59.9753 36.0441C61.0225 34.0955 61.5666 31.9163 61.5583 29.7041C61.663 27.4814 61.1125 25.2778 59.9753 23.3651ZM88.9053 45.3771V39.9181C87.4875 41.8541 85.6548 43.4486 83.5413 44.5851C81.5021 45.6353 79.24 46.1789 76.9463 46.1701C74.9038 46.173 72.8838 45.7428 71.0196 44.908C69.1555 44.0732 67.4894 42.8528 66.1313 41.3271C63.1451 38.1352 61.5345 33.8967 61.6473 29.5271C61.6082 27.3843 61.9919 25.2549 62.7764 23.2605C63.5609 21.2661 64.7308 19.446 66.2193 17.9041C67.5945 16.3771 69.2758 15.1566 71.1538 14.3222C73.0317 13.4878 75.0643 13.0581 77.1193 13.0611C79.4252 13.0402 81.6973 13.6165 83.7143 14.7341C85.8069 15.9495 87.5849 17.6392 88.9053 19.6671V13.8551H92.6863V45.3771H88.9053ZM85.7373 20.6351C84.684 19.4651 83.3954 18.5307 81.9559 17.8931C80.5165 17.2555 78.9587 16.9291 77.3843 16.9351C75.299 16.9062 73.2508 17.4892 71.4933 18.6121C69.6505 19.736 68.1584 21.3524 67.1853 23.2791C66.1462 25.2306 65.6027 27.4077 65.6027 29.6186C65.6027 31.8296 66.1462 34.0066 67.1853 35.9581C68.1799 37.8929 69.6656 39.5323 71.4933 40.7121C73.2513 41.8336 75.2994 42.4152 77.3843 42.3851C79.4895 42.3613 81.5515 41.7843 83.3633 40.7121C85.1971 39.6551 86.6914 38.0972 87.6713 36.2211C88.723 34.246 89.2384 32.0296 89.1663 29.7931C89.2366 26.4146 88.0094 23.1375 85.7373 20.6361V20.6351ZM99.9813 6.63511C99.6844 6.94119 99.3291 7.18463 98.9365 7.35107C98.5438 7.5175 98.1218 7.60354 97.6953 7.60411C97.2803 7.61221 96.8684 7.52971 96.4884 7.36235C96.1085 7.195 95.7696 6.94682 95.4953 6.63511C94.875 5.99916 94.5279 5.14597 94.5279 4.25761C94.5279 3.36925 94.875 2.51606 95.4953 1.88011C96.0719 1.27874 96.8634 0.930621 97.6963 0.912109C98.1228 0.912676 98.5448 0.998719 98.9375 1.16515C99.3301 1.33159 99.6854 1.57503 99.9823 1.88111C100.603 2.51706 100.95 3.37025 100.95 4.25861C100.95 5.14697 100.603 6.00016 99.9823 6.63611L99.9813 6.63511ZM99.7173 45.3771H95.7613V13.8551H99.6303V45.3771H99.7173ZM110.972 16.8491C109.675 16.83 108.419 17.3018 107.455 18.1701C107.004 18.5307 106.636 18.9853 106.378 19.5023C106.12 20.0194 105.977 20.5864 105.96 21.1641C105.972 22.2572 106.414 23.3016 107.191 24.0701C108.664 25.499 110.394 26.6345 112.291 27.4161C115.456 29.0011 117.567 30.4981 118.71 31.9071C119.781 33.3628 120.366 35.119 120.381 36.9261C120.398 38.1574 120.148 39.3777 119.647 40.5027C119.146 41.6277 118.408 42.6306 117.481 43.4421C115.542 45.2165 112.987 46.1644 110.359 46.0841C108.481 46.104 106.62 45.7132 104.908 44.9391C103.233 44.253 101.754 43.1641 100.6 41.7691L103.326 38.8631C105.526 41.1521 107.81 42.3851 110.272 42.3851C111.881 42.3982 113.442 41.836 114.672 40.8001C115.231 40.3552 115.686 39.7935 116.005 39.1544C116.324 38.5152 116.499 37.8141 116.518 37.1001C116.501 35.9456 116.099 34.8298 115.375 33.9301C113.794 32.5108 111.977 31.3788 110.005 30.5851C107.015 29.0851 104.993 27.6791 103.938 26.1851C102.859 24.8066 102.298 23.0922 102.355 21.3421C102.316 20.2184 102.524 19.0998 102.965 18.0653C103.406 17.0308 104.068 16.1056 104.905 15.3551C106.688 13.7551 109.018 12.9037 111.412 12.9781C114.49 12.9781 117.567 14.3868 120.644 17.2041L117.918 19.8461C115.368 17.8211 113.082 16.8521 110.972 16.8521V16.8491ZM125.572 29.8801C125.514 33.2041 126.742 36.4221 129.001 38.8611C130.047 40.0052 131.326 40.9117 132.752 41.5193C134.177 42.1269 135.717 42.4215 137.266 42.3831C138.853 42.385 140.429 42.1172 141.926 41.5911C143.315 41.1054 144.599 40.3586 145.707 39.3911C147.042 38.0502 148.194 36.5404 149.136 34.9001L152.477 36.6611C151.504 38.6594 150.196 40.4761 148.608 42.0321C147.183 43.37 145.511 44.4169 143.684 45.1141C141.709 45.8206 139.627 46.1782 137.529 46.1711C132.429 46.1711 128.473 44.4981 125.659 41.1521C123.008 38.1162 121.489 34.2559 121.362 30.2271C121.234 26.1984 122.505 22.2497 124.959 19.0521C126.389 17.1486 128.251 15.6127 130.391 14.5716C132.532 13.5305 134.89 13.0141 137.269 13.0651C139.712 12.9888 142.138 13.5008 144.341 14.5581C146.545 15.6153 148.462 17.1868 149.931 19.1401C152.235 22.2411 153.441 26.0201 153.36 29.8821L125.572 29.8801ZM146.762 21.2511C145.679 19.9162 144.292 18.8596 142.717 18.1691C141.073 17.368 139.27 16.9467 137.441 16.9361C136.003 16.8883 134.57 17.1285 133.226 17.6427C131.882 18.1568 130.654 18.9346 129.615 19.9301C127.816 21.7142 126.563 23.9752 126.005 26.4471H149.13C148.722 24.5646 147.913 22.7925 146.756 21.2521L146.762 21.2511ZM168.568 17.5511C167.916 17.2117 167.193 17.0308 166.458 17.0231C165.008 17.09 163.632 17.685 162.589 18.6961C161.168 20.1188 160.191 21.9235 159.775 23.8911C159.247 25.6521 159.075 29.3501 159.075 34.8091V45.4651H155.03V13.9431H159.075V18.5221C160.057 16.9082 161.377 15.5265 162.944 14.4721C164.18 13.6038 165.655 13.142 167.165 13.1511C168.408 13.193 169.618 13.5587 170.675 14.2121L168.568 17.5511Z" fill="black"/>
</svg>
