<svg width="52" height="54" viewBox="0 0 52 54" fill="none" xmlns="http://www.w3.org/2000/svg">
<rect width="51.4053" height="53.1113" fill="white"/>
<path d="M37.4453 42.3211V36.8611C35.9753 38.7811 34.1153 40.3711 31.9953 41.5311C29.9553 42.5811 27.6953 43.1211 25.3953 43.1111C23.3353 43.1111 21.3053 42.6811 19.4253 41.8511C17.5453 41.0211 15.8653 39.8011 14.4953 38.2711C11.5153 35.0711 9.89526 30.8411 10.0053 26.4711C9.96526 24.3311 10.3553 22.2011 11.1353 20.2011C11.9253 18.2111 13.0953 16.3911 14.5753 14.8411C15.9653 13.3111 17.6653 12.0911 19.5553 11.2611C21.4653 10.4311 23.5053 10.0011 25.5753 10.0011C27.9053 9.97113 30.2153 10.5411 32.2553 11.6711C34.3753 12.8811 36.1753 14.5711 37.5353 16.6011V10.7911H41.4053V42.3111H37.4453V42.3211ZM34.1953 17.5711C33.1253 16.3911 31.8253 15.4511 30.3753 14.8111C28.9253 14.1711 27.3453 13.8511 25.7553 13.8711C23.6453 13.8511 21.5753 14.4311 19.7753 15.5511C17.9353 16.6711 16.4453 18.2911 15.4653 20.2211C14.4253 22.1711 13.8853 24.3511 13.8853 26.5611C13.8853 28.7711 14.4253 30.9511 15.4653 32.9011C16.4653 34.8611 17.9953 36.5011 19.8653 37.6511C21.6253 38.7711 23.6753 39.3511 25.7553 39.3211C27.8653 39.3111 29.9253 38.7311 31.7253 37.6511C33.5653 36.5711 35.0853 35.0211 36.1253 33.1611C37.1753 31.1811 37.6953 28.9711 37.6153 26.7311C37.7053 23.3511 36.4753 20.0711 34.1853 17.5711H34.1953Z" fill="black"/>
</svg>
