<svg width="599" height="150" viewBox="0 0 599 150" fill="none" xmlns="http://www.w3.org/2000/svg">
<path d="M595.44 27.8C594.35 27.2332 593.142 26.931 591.914 26.918C589.49 27.0294 587.191 28.0235 585.45 29.713C583.076 32.0908 581.443 35.1064 580.75 38.394C579.869 41.336 579.581 47.515 579.581 56.636V74.436H572.815V21.774H579.574V29.426C581.214 26.7294 583.42 24.4204 586.038 22.658C588.102 21.2077 590.567 20.4363 593.09 20.451C595.166 20.5211 597.188 21.1323 598.955 22.224L595.44 27.8ZM559.006 33.982C557.195 31.7519 554.878 29.9865 552.247 28.833C549.501 27.4941 546.488 26.7901 543.433 26.773C541.03 26.6925 538.635 27.0934 536.39 27.9521C534.144 28.8108 532.093 30.1099 530.357 31.773C527.35 34.7537 525.257 38.5317 524.325 42.662H562.963C562.282 39.5166 560.929 36.5556 558.996 33.982H559.006ZM523.601 48.4C523.502 53.9536 525.555 59.3303 529.33 63.405C531.077 65.3167 533.213 66.8312 535.596 67.8465C537.978 68.8617 540.55 69.354 543.139 69.29C545.791 69.2929 548.423 68.8456 550.925 67.967C553.245 67.1548 555.39 65.9072 557.242 64.291C559.471 62.0516 561.397 59.5302 562.971 56.791L568.554 59.734C566.928 63.0725 564.741 66.1077 562.09 68.708C559.708 70.9434 556.914 72.6928 553.862 73.858C550.562 75.0382 547.082 75.6354 543.578 75.623C535.056 75.623 528.445 72.8277 523.745 67.237C519.315 62.1644 516.777 55.7145 516.564 48.983C516.351 42.2515 518.475 35.6538 522.575 30.311C524.963 27.1309 528.074 24.5653 531.651 22.8263C535.228 21.0874 539.167 20.2252 543.143 20.311C547.225 20.1831 551.277 21.0385 554.959 22.8049C558.641 24.5714 561.845 27.1972 564.299 30.461C568.148 35.642 570.164 41.9562 570.029 48.409L523.601 48.4ZM499.206 26.63C497.039 26.5976 494.939 27.386 493.329 28.837C492.574 29.4391 491.96 30.1982 491.528 31.0616C491.097 31.9251 490.858 32.8721 490.829 33.837C490.847 35.6635 491.586 37.409 492.885 38.693C495.345 41.08 498.238 42.977 501.407 44.283C506.696 46.931 510.222 49.433 512.132 51.783C514.256 54.6724 515.223 58.2516 514.844 61.8177C514.464 65.3837 512.764 68.6789 510.079 71.056C506.838 74.0206 502.569 75.6041 498.179 75.47C495.04 75.5036 491.931 74.8507 489.07 73.557C486.27 72.4099 483.797 70.5893 481.87 68.257L486.425 63.401C490.1 67.226 493.916 69.286 498.031 69.286C500.719 69.3073 503.325 68.3682 505.382 66.638C506.316 65.8946 507.075 64.956 507.608 63.8882C508.141 62.8203 508.434 61.6489 508.466 60.456C508.439 58.5256 507.767 56.6599 506.556 55.156C503.914 52.7849 500.877 50.8934 497.584 49.567C492.584 47.061 489.21 44.711 487.447 42.215C485.643 39.9118 484.707 37.0471 484.803 34.123C484.738 32.246 485.086 30.3776 485.822 28.6497C486.558 26.9218 487.664 25.3766 489.063 24.123C492.041 21.4495 495.936 20.0269 499.936 20.151C505.077 20.151 510.219 22.505 515.361 27.213L510.806 31.627C506.545 28.245 502.726 26.627 499.2 26.627L499.206 26.63ZM480.4 74.3H473.79V21.627H480.254V74.3H480.4ZM480.841 9.568C480.345 10.0793 479.751 10.486 479.095 10.7641C478.44 11.0422 477.735 11.186 477.022 11.187C476.329 11.2006 475.64 11.0627 475.005 10.7831C474.371 10.5035 473.804 10.0888 473.346 9.568C472.309 8.50557 471.729 7.07994 471.729 5.5955C471.729 4.11106 472.309 2.68543 473.346 1.623C474.308 0.616316 475.631 0.0326038 477.023 0C477.736 0.00108984 478.441 0.144916 479.096 0.422985C479.752 0.701054 480.346 1.10773 480.842 1.619C481.879 2.68147 482.46 4.10731 482.46 5.592C482.46 7.07669 481.879 8.50253 480.842 9.565L480.841 9.568ZM457.041 32.96C455.281 31.0052 453.128 29.444 450.723 28.3787C448.318 27.3134 445.715 26.7679 443.084 26.778C439.6 26.7293 436.178 27.7028 433.241 29.578C430.161 31.4562 427.667 34.1578 426.041 37.378C424.305 40.6388 423.397 44.2763 423.397 47.9705C423.397 51.6647 424.305 55.3022 426.041 58.563C427.704 61.7956 430.187 64.5344 433.241 66.505C436.178 68.3802 439.6 69.3537 443.084 69.305C446.602 69.2638 450.047 68.2981 453.074 66.505C456.139 64.7406 458.636 62.1388 460.274 59.005C462.032 55.705 462.894 52.002 462.774 48.265C462.891 42.62 460.841 37.1447 457.045 32.965L457.041 32.96ZM462.334 74.3V65.174C459.965 68.4096 456.903 71.0746 453.371 72.974C449.964 74.7281 446.184 75.6363 442.352 75.622C438.939 75.6267 435.564 74.908 432.45 73.5132C429.335 72.1184 426.551 70.0792 424.282 67.53C419.293 62.1965 416.603 55.1146 416.791 47.814C416.726 44.2336 417.367 40.6755 418.677 37.3431C419.988 34.0106 421.943 30.9693 424.43 28.393C426.728 25.8416 429.537 23.8025 432.675 22.4084C435.813 21.0142 439.209 20.2962 442.643 20.301C446.496 20.2676 450.292 21.2323 453.662 23.101C457.158 25.1324 460.129 27.9557 462.335 31.344V21.627H468.652V74.3H462.334ZM413.997 37.521C412.371 34.301 409.877 31.5994 406.797 29.721C403.778 27.9095 400.328 26.9424 396.807 26.921C394.153 26.8916 391.522 27.4277 389.091 28.4936C386.66 29.5595 384.484 31.1308 382.707 33.103C378.971 37.2491 376.972 42.6729 377.123 48.252C377.13 51.9754 377.985 55.6482 379.623 58.992C381.353 62.1478 383.89 64.788 386.974 66.643C389.999 68.4351 393.442 69.4007 396.958 69.443C400.388 69.441 403.747 68.4704 406.649 66.643C409.745 64.6745 412.278 61.9372 414.001 58.698C415.751 55.4421 416.66 51.8011 416.646 48.105C416.82 44.3912 415.901 40.708 414.001 37.512L413.997 37.521ZM415.759 67.533C413.471 70.096 410.663 72.1429 407.523 73.538C404.384 74.9332 400.983 75.6446 397.547 75.625C393.715 75.6393 389.935 74.7311 386.528 72.977C382.997 71.0772 379.934 68.4123 377.565 65.177V93.421H371.245V21.48H377.562V31.19C379.822 27.7976 382.84 24.9771 386.377 22.951C389.747 21.0823 393.543 20.1176 397.396 20.151C400.83 20.1464 404.226 20.8646 407.363 22.2587C410.501 23.6529 413.31 25.6918 415.608 28.243C418.095 30.8191 420.05 33.8604 421.361 37.1929C422.672 40.5254 423.313 44.0836 423.247 47.664C423.462 55.0126 420.77 62.1495 415.755 67.525L415.759 67.533ZM354.201 32.96C351.194 29.699 347.151 27.5803 342.759 26.9641C338.366 26.3478 333.896 27.2722 330.108 29.58C327.028 31.4581 324.534 34.1597 322.908 37.38C321.172 40.6407 320.263 44.2782 320.263 47.9725C320.263 51.6667 321.172 55.3043 322.908 58.565C324.586 61.8353 327.128 64.5829 330.259 66.509C333.196 68.3843 336.619 69.3577 340.103 69.309C343.621 69.2861 347.069 68.3192 350.086 66.509C353.161 64.7086 355.699 62.1193 357.438 59.009C359.195 55.7089 360.057 52.0059 359.938 48.269C360.081 42.6196 358.028 37.1349 354.209 32.969L354.201 32.96ZM359.638 74.3V65.174C357.18 68.3811 354.078 71.0381 350.531 72.974C347.123 74.7281 343.344 75.6363 339.511 75.622C336.078 75.6267 332.682 74.9087 329.544 73.5145C326.407 72.1203 323.598 70.0813 321.3 67.53C316.308 62.1984 313.614 55.1166 313.8 47.815C313.736 44.2346 314.378 40.6767 315.69 37.3446C317.002 34.0125 318.957 30.9717 321.445 28.396C323.773 25.8412 326.609 23.8016 329.772 22.408C332.935 21.0144 336.354 20.2977 339.81 20.304C343.711 20.2523 347.559 21.2173 350.974 23.104C354.512 25.13 357.53 27.9505 359.79 31.343V21.627H366.254V74.3H359.638Z" fill="black"/>
<path d="M0 71.5399C0.595756 71.4812 1.18636 71.3786 1.767 71.2329C2.35 71.0735 2.8887 70.7826 3.34168 70.3825C3.79467 69.9824 4.14988 69.4837 4.38 68.9249C5.303 66.3129 5.38 61.4709 5.38 56.5509V36.7189C5.38 31.8769 5.458 26.8809 4.38 24.4969C4.16371 23.978 3.8397 23.511 3.42941 23.1267C3.01912 22.7425 2.5319 22.4497 2 22.2679C1.35193 22.0422 0.681371 21.8873 0 21.8059V21.4219H15.911V21.8059C15.3664 21.8726 14.8269 21.9755 14.296 22.1139C13.6969 22.263 13.1443 22.5589 12.6881 22.9749C12.2319 23.3909 11.8865 23.914 11.683 24.4969C10.838 26.9569 10.607 31.8769 10.607 36.7189V45.6399H34.283V36.7189C34.283 31.8769 34.053 26.9569 33.207 24.4969C33.0035 23.914 32.6581 23.3909 32.2019 22.9749C31.7457 22.5589 31.1931 22.263 30.594 22.1139C30.0874 21.9829 29.574 21.8801 29.056 21.8059V21.4219H44.89V21.8059C44.0757 21.8788 43.2746 22.0597 42.508 22.3439C42.0279 22.533 41.594 22.8231 41.2358 23.1946C40.8776 23.5661 40.6035 24.0102 40.432 24.4969C39.51 26.8809 39.51 31.8769 39.51 36.7189V56.5519C39.51 61.4719 39.51 66.8519 40.432 68.9259C40.6697 69.4363 41.0112 69.8915 41.4348 70.2624C41.8584 70.6333 42.3547 70.9117 42.892 71.0799C43.5445 71.2894 44.2135 71.4433 44.892 71.5399V71.9249H29.055V71.5399C29.6013 71.4485 30.1408 71.3205 30.67 71.1569C31.2496 71.0359 31.788 70.7668 32.2326 70.3758C32.6773 69.9848 33.013 69.4853 33.207 68.9259C34.053 66.2369 34.283 61.4719 34.283 56.5519V46.6399H10.607V56.5549C10.607 61.4749 10.761 66.3169 11.683 68.9289C11.9508 69.4765 12.3276 69.9637 12.7904 70.3605C13.2531 70.7574 13.792 71.0556 14.374 71.2369C14.8766 71.3831 15.3908 71.4858 15.911 71.5439V71.9289H0V71.5399Z" fill="black"/>
<path d="M73.6319 21.4999C60.8709 21.4999 56.9519 34.1059 56.9519 46.8669C56.9519 58.0899 60.3339 71.9269 73.6319 71.9269C86.2379 71.9269 90.2319 59.3969 90.2319 46.8669C90.2319 35.6439 86.9319 21.4999 73.6319 21.4999ZM73.6319 72.9999C59.8719 72.9999 50.8789 61.1619 50.8789 46.8649C50.8789 32.3359 59.8729 20.4219 73.6319 20.4219C87.3139 20.4219 96.3069 32.3369 96.3069 46.8649C96.3069 61.1649 87.3139 72.9999 73.6319 72.9999Z" fill="black"/>
<path d="M143.573 22.1149C142.963 22.281 142.398 22.5811 141.92 22.9934C141.441 23.4057 141.06 23.9197 140.806 24.4979C140.268 25.8819 139.884 27.6499 139.884 31.4149V55.0149C140.034 58.8374 139.242 62.6381 137.577 66.0819C135.502 70.0029 130.198 72.9999 123.971 72.9999C115.977 72.9999 110.059 70.1559 108.06 64.1609C106.831 60.4699 106.983 56.3209 106.983 53.3989V36.6389C106.983 30.3389 107.06 26.7209 106.061 24.4159C105.829 23.9155 105.498 23.4671 105.089 23.0975C104.679 22.7279 104.199 22.4447 103.678 22.2649C103.035 22.022 102.362 21.8663 101.678 21.8019V21.4189H117.513V21.8019C116.78 21.8752 116.058 22.0305 115.361 22.2649C114.82 22.4055 114.321 22.6744 113.906 23.0489C113.491 23.4233 113.172 23.8922 112.977 24.4159C112.133 26.4909 112.209 31.1819 112.209 36.6389V55.7789C112.079 58.5133 112.311 61.2527 112.901 63.9259C114.284 68.6919 117.667 71.6119 123.97 71.6119C130.043 71.6119 134.424 69.4589 136.5 65.8469C137.883 63.4649 138.805 60.3129 138.805 55.3169V31.4149C138.805 27.6499 138.343 25.8039 137.729 24.4979C137.52 23.9739 137.198 23.5023 136.786 23.117C136.375 22.7317 135.883 22.4421 135.346 22.2689C134.441 22.0083 133.515 21.8279 132.579 21.7299V21.4239H145.415V21.7299C144.785 21.7762 144.165 21.9056 143.57 22.1149" fill="black"/>
<path d="M165.553 73.0008C163.402 73.0208 161.27 72.6016 159.288 71.7688C157.305 70.9361 155.513 69.7073 154.022 68.1578H153.714L152.1 71.2338H151.792L151.1 55.7838H151.562C153.483 64.2388 157.327 71.9268 165.475 71.9268C173.392 71.9268 176.62 67.0068 176.62 61.7788C176.62 53.4008 172.47 51.7098 164.32 47.6348C157.401 44.1758 151.56 40.8728 151.56 32.5708C151.56 26.2708 156.56 20.4238 165.473 20.4238C169.701 20.4238 173.62 22.0398 175.541 24.3448L176.695 21.5778H177.309L178.463 33.8778H178.001C177.079 30.0338 174.772 25.7298 171.928 23.7308C170.033 22.2198 167.663 21.43 165.241 21.5018C160.86 21.5018 156.017 23.7308 156.017 29.9578C156.017 37.5678 161.782 39.6428 168.009 42.8708C176.924 47.4838 181.152 49.7888 181.152 58.4768C181.152 67.7768 173.467 73.0038 165.552 73.0038" fill="black"/>
<path d="M203.829 22.4209C202.636 22.3516 201.445 22.5899 200.37 23.1129C197.141 25.1129 197.294 30.5689 197.294 33.5679V45.1759H203.905C207.134 45.1759 208.441 44.7139 209.44 43.7149C210.978 42.3309 211.977 38.9489 212.207 37.0269H212.514V54.3269H212.207C211.977 52.4819 211.054 49.0999 209.594 47.8699C208.671 47.0239 207.134 46.1789 203.905 46.1789H197.294V60.0919C197.294 62.8589 196.91 68.3919 199.908 70.2369C201.197 70.7705 202.59 71.0073 203.982 70.9299H209.747C214.205 70.9299 216.741 69.5459 218.202 68.1619C221.046 65.4729 222.276 61.8619 223.122 59.7069H223.428L221.968 71.9289H186.611V71.6209C187.207 71.5616 187.798 71.459 188.378 71.3139C188.946 71.1464 189.472 70.8614 189.922 70.4774C190.372 70.0934 190.737 69.6189 190.991 69.0849C191.991 66.7009 192.067 61.5509 192.067 56.7079V36.7959C192.067 31.7959 191.914 26.9569 191.067 24.4959C190.84 23.9271 190.487 23.4173 190.035 23.0047C189.582 22.5921 189.042 22.2875 188.454 22.1139C187.855 21.9199 187.236 21.7908 186.609 21.7289V21.4219H219.509L221.273 33.4899H220.811C219.659 30.1839 217.89 26.4949 215.277 24.3429C213.737 23.0867 211.808 22.407 209.82 22.4209H203.829Z" fill="black"/>
<path d="M254.706 71.5409C261.806 71.5409 270.133 63.7049 274.785 53.3719L281.641 38.0919H288.008L288.351 37.4059H281.934L283.6 33.6819C286.244 27.7559 288.4 24.5249 292.611 23.3979C297.067 24.7689 299.026 25.4549 300.74 25.4549C301.408 25.4294 302.048 25.1782 302.555 24.7423C303.061 24.3064 303.406 23.7116 303.531 23.0549C303.531 22.1729 300.985 21.8799 298.388 21.8799C288.104 21.8799 282.864 28.6379 278.897 37.4039H275.029L274.686 38.0899H278.603L270.278 56.7979C266.606 65.0259 264.01 67.1799 261.464 68.7469C259.596 68.4882 257.716 68.3247 255.832 68.2569C255.175 68.3269 254.561 68.6163 254.09 69.0783C253.618 69.5403 253.316 70.1479 253.232 70.8029C253.232 71.3419 253.673 71.5379 254.701 71.5379M255.925 60.1759C252.79 60.1759 250.925 58.7069 250.925 54.5449C250.925 49.2559 255.577 38.1389 262.434 38.1389C265.421 38.1389 267.282 40.0489 267.282 43.5739C267.282 48.7159 262.63 60.1739 255.921 60.1739M253.276 61.7409C261.454 61.7409 270.221 50.0409 270.221 42.1029C270.221 39.1159 268.507 36.5699 265.03 36.5699C256.508 36.5699 247.84 48.6699 247.84 55.9129C247.84 60.2219 250.534 61.7409 253.277 61.7409" fill="black"/>
<path d="M9.476 129.157H5.75V142.888H4.048V129.157H0.322V127.547H9.476V129.157ZM13.473 127.547V133.78H21.339V127.547H23.041V142.888H21.339V135.39H13.473V142.888H11.771V127.547H13.473ZM34.9575 127.547V129.157H28.7015V133.711H34.7735V135.321H28.7015V141.278H34.9575V142.888H26.9995V127.547H34.9575ZM41.6694 127.547H43.5554L47.6034 139.047L52.4104 126.765L56.9644 139.047L61.4494 127.547H63.3354L56.8954 143.693L52.3874 131.411L47.5574 143.693L41.6694 127.547ZM72.6505 143.164C68.2115 143.164 64.6695 139.783 64.6695 135.229C64.6695 130.652 68.2345 127.294 72.6505 127.294C77.0665 127.294 80.6315 130.652 80.6315 135.229C80.6315 139.783 77.0895 143.164 72.6505 143.164ZM72.6505 128.904C69.2005 128.904 66.4175 131.71 66.4175 135.229C66.4175 138.748 69.2005 141.554 72.6505 141.554C76.1005 141.554 78.8835 138.748 78.8835 135.229C78.8835 131.71 76.1005 128.904 72.6505 128.904ZM83.7583 127.547H86.2193C87.2543 127.547 88.7953 127.616 89.9453 128.398C90.8423 128.996 91.6243 130.169 91.6243 131.802C91.6243 134.148 90.0833 135.873 87.7603 136.034L92.6363 142.888H90.5663L85.8973 136.172H85.4603V142.888H83.7583V127.547ZM85.4603 129.157V134.654H86.5413C88.6573 134.654 89.9223 133.642 89.9223 131.848C89.9223 130.997 89.6693 130.146 88.7033 129.594C88.0133 129.203 87.2313 129.157 86.4953 129.157H85.4603ZM95.3032 127.547H97.0052V141.278H101.237V142.888H95.3032V127.547ZM103.546 142.888V127.547H106.674C108.215 127.547 110.4 127.708 112.332 129.341C113.735 130.514 114.954 132.469 114.954 135.229C114.954 138.449 113.367 140.174 112.263 141.117C110.86 142.313 109.388 142.888 106.651 142.888H103.546ZM105.248 129.157V141.278H106.743C107.962 141.278 109.641 141.14 111.136 139.898C112.286 138.932 113.206 137.414 113.206 135.229C113.206 131.549 110.63 129.157 106.743 129.157H105.248ZM117.435 132.308L119.298 126.995L120.839 127.547L118.516 132.745L117.435 132.308ZM131.613 129.686L130.256 130.583C130.049 130.169 129.704 129.709 129.359 129.433C129.06 129.203 128.508 128.904 127.634 128.904C126.116 128.904 125.058 129.847 125.058 131.273C125.058 131.871 125.219 132.216 125.633 132.607C126.093 133.067 126.668 133.32 127.243 133.573L128.715 134.217C129.612 134.608 130.44 135.022 131.084 135.666C131.866 136.448 132.188 137.345 132.188 138.449C132.188 141.278 130.095 143.164 127.335 143.164C126.323 143.164 125.058 142.957 124 141.922C123.241 141.186 122.781 140.128 122.574 139.208L124.23 138.748C124.345 139.553 124.713 140.243 125.15 140.703C125.817 141.37 126.576 141.554 127.358 141.554C129.451 141.554 130.44 140.059 130.44 138.518C130.44 137.828 130.233 137.23 129.681 136.724C129.244 136.31 128.646 136.034 127.841 135.666L126.461 135.022C125.863 134.746 125.104 134.424 124.414 133.757C123.747 133.113 123.356 132.4 123.356 131.25C123.356 128.881 125.173 127.294 127.657 127.294C128.6 127.294 129.359 127.478 130.118 127.984C130.739 128.398 131.268 129.019 131.613 129.686ZM140.674 127.547H142.376V141.278H146.608V142.888H140.674V127.547ZM156.875 127.547V129.157H150.619V133.711H156.691V135.321H150.619V141.278H156.875V142.888H148.917V127.547H156.875ZM170.271 142.888L168.477 138.564H161.945L160.105 142.888H158.219L165.28 126.811L172.157 142.888H170.271ZM162.612 136.954H167.81L165.234 130.813L162.612 136.954ZM174.321 142.888V127.547H177.449C178.99 127.547 181.175 127.708 183.107 129.341C184.51 130.514 185.729 132.469 185.729 135.229C185.729 138.449 184.142 140.174 183.038 141.117C181.635 142.313 180.163 142.888 177.426 142.888H174.321ZM176.023 129.157V141.278H177.518C178.737 141.278 180.416 141.14 181.911 139.898C183.061 138.932 183.981 137.414 183.981 135.229C183.981 131.549 181.405 129.157 177.518 129.157H176.023ZM188.853 127.547H190.555V142.888H188.853V127.547ZM196.215 142.888H194.513V126.903L206.473 139.438V127.547H208.175V143.578L196.215 131.043V142.888ZM220.035 136.793V135.183H226.429V135.551C226.429 137.253 225.923 139.093 224.957 140.404C224.497 141.025 222.772 143.164 219.253 143.164C214.699 143.164 211.295 139.691 211.295 135.229C211.295 130.767 214.722 127.294 219.299 127.294C220.771 127.294 222.496 127.662 223.991 128.812C224.681 129.341 225.325 130.031 225.762 130.629L224.497 131.779C224.06 131.158 223.554 130.606 223.048 130.192C222.312 129.594 221.162 128.904 219.322 128.904C215.619 128.904 213.043 131.687 213.043 135.252C213.043 139.438 216.378 141.554 219.276 141.554C221.323 141.554 223.094 140.519 223.968 138.978C224.244 138.495 224.543 137.759 224.589 136.793H220.035ZM234.92 127.547H237.68C238.531 127.547 240.072 127.616 241.199 128.513C241.682 128.881 242.579 129.824 242.579 131.687C242.579 132.446 242.418 133.78 241.061 134.7C243.2 135.229 243.982 137.092 243.982 138.564C243.982 140.036 243.246 141.232 242.418 141.876C241.199 142.842 239.796 142.888 238.738 142.888H234.92V127.547ZM236.622 129.157V134.286H237.91C238.807 134.286 240.923 134.102 240.923 131.733C240.923 129.203 238.439 129.157 237.956 129.157H236.622ZM236.622 135.804V141.278H238.577C239.566 141.278 240.532 141.209 241.268 140.634C241.866 140.197 242.28 139.438 242.28 138.518C242.28 137.299 241.567 136.586 240.969 136.264C240.394 135.942 239.589 135.804 238.37 135.804H236.622ZM257.375 142.888L255.581 138.564H249.049L247.209 142.888H245.323L252.384 126.811L259.261 142.888H257.375ZM249.716 136.954H254.914L252.338 130.813L249.716 136.954ZM267.889 129.157H264.163V142.888H262.461V129.157H258.735V127.547H267.889V129.157ZM271.886 127.547V133.78H279.752V127.547H281.454V142.888H279.752V135.39H271.886V142.888H270.184V127.547H271.886ZM301.039 142.888L299.245 138.564H292.713L290.873 142.888H288.987L296.048 126.811L302.925 142.888H301.039ZM293.38 136.954H298.578L296.002 130.813L293.38 136.954ZM311.553 129.157H307.827V142.888H306.125V129.157H302.399V127.547H311.553V129.157ZM321.806 127.547V129.157H315.55V133.711H321.622V135.321H315.55V141.278H321.806V142.888H313.848V127.547H321.806ZM324.944 127.547H326.646V141.278H330.878V142.888H324.944V127.547ZM333.187 127.547H334.889V142.888H333.187V127.547ZM346.805 127.547V129.157H340.549V133.711H346.621V135.321H340.549V141.278H346.805V142.888H338.847V127.547H346.805ZM349.943 127.547H352.404C353.439 127.547 354.98 127.616 356.13 128.398C357.027 128.996 357.809 130.169 357.809 131.802C357.809 134.148 356.268 135.873 353.945 136.034L358.821 142.888H356.751L352.082 136.172H351.645V142.888H349.943V127.547ZM351.645 129.157V134.654H352.726C354.842 134.654 356.107 133.642 356.107 131.848C356.107 130.997 355.854 130.146 354.888 129.594C354.198 129.203 353.416 129.157 352.68 129.157H351.645Z" fill="black"/>
</svg>
