<svg width="26" height="26" viewBox="0 0 26 26" fill="none" xmlns="http://www.w3.org/2000/svg">
<path fill-rule="evenodd" clip-rule="evenodd" d="M13.5223 3.441C11.8593 3.1103 10.1355 3.2802 8.56901 3.9292C7.00251 4.5782 5.66365 5.67715 4.72174 7.08709C3.77983 8.49702 3.27718 10.1546 3.27734 11.8502C3.27757 14.1238 4.18089 16.3041 5.78862 17.9117C7.39634 19.5193 9.57679 20.4224 11.8503 20.4224C13.546 20.4224 15.2035 19.9196 16.6133 18.9775C18.0232 18.0355 19.122 16.6965 19.7708 15.1299C20.4197 13.5634 20.5894 11.8396 20.2586 10.1765C19.9277 8.51353 19.1111 6.98597 17.9121 5.78704C16.713 4.58812 15.1854 3.77169 13.5223 3.441ZM7.42075 1.15764C9.53542 0.281535 11.8624 0.0521873 14.1074 0.498604C16.3524 0.945021 18.4147 2.04715 20.0333 3.66562C21.6519 5.28409 22.7542 7.3462 23.2009 9.59117C23.6475 11.8361 23.4184 14.1631 22.5425 16.2779C22.1519 17.221 21.6405 18.103 21.0249 18.9036L25.5377 23.4163C26.1234 24.0021 26.1234 24.9519 25.5377 25.5377C24.9519 26.1234 24.0021 26.1234 23.4163 25.5377L18.9035 21.0248C18.7011 21.1803 18.4932 21.3295 18.2801 21.4719C16.3769 22.7436 14.1393 23.4224 11.8503 23.4224C8.78119 23.4224 5.83773 22.2032 3.6674 20.0331C1.49708 17.863 0.277649 14.9197 0.277344 11.8505C0.277117 9.56155 0.955668 7.32392 2.22719 5.42059C3.49871 3.51727 5.30608 2.03375 7.42075 1.15764Z" fill="white"/>
</svg>
