<svg width="26" height="27" viewBox="0 0 26 27" fill="none" xmlns="http://www.w3.org/2000/svg">
<path fill-rule="evenodd" clip-rule="evenodd" d="M13.4208 3.86482C11.7577 3.53413 10.0339 3.70403 8.46745 4.35303C6.90095 5.00203 5.56209 6.10098 4.62018 7.51092C3.67827 8.92085 3.17561 10.5784 3.17578 12.2741C3.17601 14.5476 4.07933 16.728 5.68706 18.3355C7.29478 19.9431 9.47523 20.8462 11.7488 20.8462C13.4444 20.8462 15.1019 20.3434 16.5118 19.4013C17.9216 18.4593 19.0204 17.1203 19.6693 15.5537C20.3181 13.9872 20.4879 12.2634 20.157 10.6004C19.8261 8.93736 19.0095 7.40979 17.8105 6.21087C16.6115 5.01195 15.0838 4.19552 13.4208 3.86482ZM7.31919 1.58147C9.43386 0.705363 11.7608 0.476015 14.0059 0.922432C16.2509 1.36885 18.3131 2.47098 19.9317 4.08945C21.5504 5.70791 22.6527 7.77002 23.0993 10.015C23.546 12.26 23.3168 14.587 22.4409 16.7017C22.0503 17.6448 21.5389 18.5268 20.9233 19.3274L25.4361 23.8402C26.0219 24.426 26.0219 25.3757 25.4361 25.9615C24.8503 26.5473 23.9006 26.5473 23.3148 25.9615L18.8019 21.4486C18.5995 21.6041 18.3917 21.7533 18.1785 21.8957C16.2753 23.1674 14.0378 23.8462 11.7488 23.8462C8.67963 23.8462 5.73617 22.6271 3.56584 20.457C1.39552 18.2868 0.176086 15.3435 0.175781 12.2743C0.175554 9.98538 0.854105 7.74774 2.12562 5.84442C3.39714 3.9411 5.20452 2.45758 7.31919 1.58147Z" fill="black"/>
</svg>
